G04 #@! TF.GenerationSoftware,KiCad,Pcbnew,6.0.10+dfsg-1~bpo11+1*
G04 #@! TF.ProjectId,project,70726f6a-6563-4742-9e6b-696361645f70,rev?*
G04 #@! TF.SameCoordinates,Original*
G04 #@! TF.FileFunction,Copper,L2,Bot*
G04 #@! TF.FilePolarity,Positive*
%FSLAX46Y46*%
G04 Gerber Fmt 4.6, Leading zero omitted, Abs format (unit mm)*
%MOMM*%
%LPD*%
G01*
G04 APERTURE LIST*
G04 #@! TA.AperFunction,Profile*
%ADD10C,0.100000*%
G04 #@! TD*
G04 #@! TA.AperFunction,ComponentPad*
%ADD11C,2.100000*%
G04 #@! TD*
G04 #@! TA.AperFunction,ComponentPad*
%ADD12O,2.000000X1.000000*%
G04 #@! TD*
G04 #@! TA.AperFunction,ComponentPad*
%ADD13O,1.000000X2.000000*%
G04 #@! TD*
G04 #@! TA.AperFunction,ComponentPad*
%ADD14C,1.700000*%
G04 #@! TD*
G04 APERTURE END LIST*
D10*
X163500000Y-107400000D02*
G75*
G03*
X162500000Y-108400000I0J-1000000D01*
G01*
X163500000Y-127985393D02*
X181500000Y-127985393D01*
X182500000Y-126992500D02*
X182500000Y-108400000D01*
X162500000Y-108400000D02*
X162500000Y-126992500D01*
X162499907Y-126992500D02*
G75*
G03*
X163500000Y-127985393I996493J3600D01*
G01*
X182500000Y-108400000D02*
G75*
G03*
X181500000Y-107400000I-1000000J0D01*
G01*
X181500000Y-127985300D02*
G75*
G03*
X182500000Y-126992500I3600J996400D01*
G01*
X181500000Y-107400000D02*
X163500000Y-107400000D01*
D11*
X178500000Y-123692500D03*
D12*
X164150000Y-109442500D03*
X164150000Y-110712500D03*
X164150000Y-111982500D03*
X164150000Y-113252500D03*
X164150000Y-114522500D03*
X164150000Y-115792500D03*
X164150000Y-117062500D03*
X164150000Y-118332500D03*
X164150000Y-119602500D03*
X164150000Y-120872500D03*
X164150000Y-122142500D03*
X164150000Y-123412500D03*
X164150000Y-124682500D03*
X164150000Y-125952500D03*
D13*
X166790000Y-126572500D03*
X168060000Y-126572500D03*
X169330000Y-126572500D03*
X170600000Y-126572500D03*
X171870000Y-126572500D03*
X173140000Y-126572500D03*
X174410000Y-126572500D03*
X175680000Y-126572500D03*
X176950000Y-126572500D03*
X178220000Y-126572500D03*
D12*
X180850000Y-125952500D03*
X180850000Y-124682500D03*
X180850000Y-123412500D03*
X180850000Y-122142500D03*
X180850000Y-120872500D03*
X180850000Y-119602500D03*
X180850000Y-118332500D03*
X180850000Y-117062500D03*
X180850000Y-115792500D03*
X180850000Y-114522500D03*
X180850000Y-113252500D03*
X180850000Y-111982500D03*
X180850000Y-110712500D03*
X180850000Y-109442500D03*
D11*
X166500000Y-123692500D03*
X178500000Y-111692500D03*
X166500000Y-111692500D03*
G04 #@! TA.AperFunction,ComponentPad*
G36*
G01*
X170380000Y-114482500D02*
X170380000Y-113282500D01*
G75*
G02*
X170630000Y-113032500I250000J0D01*
G01*
X171830000Y-113032500D01*
G75*
G02*
X172080000Y-113282500I0J-250000D01*
G01*
X172080000Y-114482500D01*
G75*
G02*
X171830000Y-114732500I-250000J0D01*
G01*
X170630000Y-114732500D01*
G75*
G02*
X170380000Y-114482500I0J250000D01*
G01*
G37*
G04 #@! TD.AperFunction*
D14*
X173770000Y-113882500D03*
X171230000Y-116422500D03*
X173770000Y-116422500D03*
X171230000Y-118962500D03*
X173770000Y-118962500D03*
X171230000Y-121502500D03*
X173770000Y-121502500D03*
G04 #@! TA.AperFunction,Conductor*
G36*
X181478274Y-107802051D02*
G01*
X181490207Y-107803941D01*
X181500000Y-107805492D01*
X181509793Y-107803941D01*
X181519711Y-107803941D01*
X181519711Y-107804838D01*
X181535377Y-107804486D01*
X181565593Y-107807891D01*
X181619297Y-107813942D01*
X181646799Y-107820219D01*
X181746718Y-107855182D01*
X181772134Y-107867422D01*
X181861763Y-107923740D01*
X181883822Y-107941332D01*
X181958668Y-108016178D01*
X181976260Y-108038237D01*
X182032578Y-108127866D01*
X182044818Y-108153282D01*
X182079781Y-108253201D01*
X182086058Y-108280703D01*
X182095514Y-108364622D01*
X182095162Y-108380289D01*
X182096059Y-108380289D01*
X182096059Y-108390207D01*
X182094508Y-108400000D01*
X182096059Y-108409793D01*
X182097949Y-108421726D01*
X182099500Y-108441436D01*
X182099500Y-109892610D01*
X182079498Y-109960731D01*
X182025842Y-110007224D01*
X181955568Y-110017328D01*
X181892732Y-109987903D01*
X181892467Y-109988268D01*
X181890575Y-109986893D01*
X181889186Y-109986243D01*
X181887124Y-109984386D01*
X181887123Y-109984385D01*
X181882216Y-109979967D01*
X181718284Y-109885321D01*
X181538256Y-109826826D01*
X181531695Y-109826136D01*
X181531693Y-109826136D01*
X181478037Y-109820497D01*
X181397192Y-109812000D01*
X180302808Y-109812000D01*
X180221963Y-109820497D01*
X180168307Y-109826136D01*
X180168305Y-109826136D01*
X180161744Y-109826826D01*
X179981716Y-109885321D01*
X179817784Y-109979967D01*
X179812877Y-109984385D01*
X179812876Y-109984386D01*
X179776291Y-110017328D01*
X179677112Y-110106629D01*
X179565849Y-110259770D01*
X179488856Y-110432697D01*
X179449500Y-110617854D01*
X179449500Y-110807146D01*
X179488856Y-110992303D01*
X179565849Y-111165230D01*
X179569729Y-111170571D01*
X179569730Y-111170572D01*
X179644467Y-111273439D01*
X179668326Y-111340307D01*
X179652245Y-111409459D01*
X179644467Y-111421561D01*
X179565849Y-111529770D01*
X179488856Y-111702697D01*
X179449500Y-111887854D01*
X179449500Y-112077146D01*
X179488856Y-112262303D01*
X179565849Y-112435230D01*
X179569729Y-112440571D01*
X179569730Y-112440572D01*
X179644467Y-112543439D01*
X179668326Y-112610307D01*
X179652245Y-112679459D01*
X179644467Y-112691561D01*
X179637245Y-112701502D01*
X179565849Y-112799770D01*
X179488856Y-112972697D01*
X179479805Y-113015279D01*
X179466020Y-113080135D01*
X179449500Y-113157854D01*
X179449500Y-113347146D01*
X179488856Y-113532303D01*
X179565849Y-113705230D01*
X179569729Y-113710571D01*
X179569730Y-113710572D01*
X179644467Y-113813439D01*
X179668326Y-113880307D01*
X179652245Y-113949459D01*
X179644467Y-113961561D01*
X179565849Y-114069770D01*
X179488856Y-114242697D01*
X179449500Y-114427854D01*
X179449500Y-114617146D01*
X179488856Y-114802303D01*
X179565849Y-114975230D01*
X179569729Y-114980571D01*
X179569730Y-114980572D01*
X179644467Y-115083439D01*
X179668326Y-115150307D01*
X179652245Y-115219459D01*
X179644467Y-115231561D01*
X179565849Y-115339770D01*
X179488856Y-115512697D01*
X179468022Y-115610712D01*
X179466020Y-115620135D01*
X179449500Y-115697854D01*
X179449500Y-115887146D01*
X179488856Y-116072303D01*
X179565849Y-116245230D01*
X179569729Y-116250571D01*
X179569730Y-116250572D01*
X179644467Y-116353439D01*
X179668326Y-116420307D01*
X179652245Y-116489459D01*
X179644467Y-116501561D01*
X179565849Y-116609770D01*
X179488856Y-116782697D01*
X179449500Y-116967854D01*
X179449500Y-117157146D01*
X179488856Y-117342303D01*
X179565849Y-117515230D01*
X179569729Y-117520571D01*
X179569730Y-117520572D01*
X179644467Y-117623439D01*
X179668326Y-117690307D01*
X179652245Y-117759459D01*
X179644467Y-117771561D01*
X179565849Y-117879770D01*
X179488856Y-118052697D01*
X179468022Y-118150712D01*
X179466020Y-118160135D01*
X179449500Y-118237854D01*
X179449500Y-118427146D01*
X179488856Y-118612303D01*
X179565849Y-118785230D01*
X179569729Y-118790571D01*
X179569730Y-118790572D01*
X179644467Y-118893439D01*
X179668326Y-118960307D01*
X179652245Y-119029459D01*
X179644467Y-119041561D01*
X179565849Y-119149770D01*
X179488856Y-119322697D01*
X179449500Y-119507854D01*
X179449500Y-119697146D01*
X179488856Y-119882303D01*
X179565849Y-120055230D01*
X179569729Y-120060571D01*
X179569730Y-120060572D01*
X179644467Y-120163439D01*
X179668326Y-120230307D01*
X179652245Y-120299459D01*
X179644467Y-120311561D01*
X179565849Y-120419770D01*
X179488856Y-120592697D01*
X179468022Y-120690712D01*
X179466020Y-120700135D01*
X179449500Y-120777854D01*
X179449500Y-120967146D01*
X179488856Y-121152303D01*
X179565849Y-121325230D01*
X179569729Y-121330571D01*
X179569730Y-121330572D01*
X179644467Y-121433439D01*
X179668326Y-121500307D01*
X179652245Y-121569459D01*
X179644467Y-121581561D01*
X179565849Y-121689770D01*
X179488856Y-121862697D01*
X179449500Y-122047854D01*
X179449500Y-122237146D01*
X179488856Y-122422303D01*
X179565849Y-122595230D01*
X179569729Y-122600571D01*
X179569730Y-122600572D01*
X179644467Y-122703439D01*
X179668326Y-122770307D01*
X179652245Y-122839459D01*
X179644467Y-122851561D01*
X179565849Y-122959770D01*
X179488856Y-123132697D01*
X179449500Y-123317854D01*
X179449500Y-123507146D01*
X179488856Y-123692303D01*
X179565849Y-123865230D01*
X179569729Y-123870571D01*
X179569730Y-123870572D01*
X179644467Y-123973439D01*
X179668326Y-124040307D01*
X179652245Y-124109459D01*
X179644467Y-124121561D01*
X179565849Y-124229770D01*
X179488856Y-124402697D01*
X179449500Y-124587854D01*
X179449500Y-124777146D01*
X179488856Y-124962303D01*
X179565849Y-125135230D01*
X179569729Y-125140571D01*
X179569730Y-125140572D01*
X179644467Y-125243439D01*
X179668326Y-125310307D01*
X179652245Y-125379459D01*
X179644467Y-125391561D01*
X179635056Y-125404515D01*
X179565849Y-125499770D01*
X179488856Y-125672697D01*
X179449500Y-125857854D01*
X179449500Y-126047146D01*
X179488856Y-126232303D01*
X179565849Y-126405230D01*
X179677112Y-126558371D01*
X179682014Y-126562784D01*
X179682015Y-126562786D01*
X179810092Y-126678107D01*
X179817784Y-126685033D01*
X179981716Y-126779679D01*
X180161744Y-126838174D01*
X180168305Y-126838864D01*
X180168307Y-126838864D01*
X180221963Y-126844503D01*
X180302808Y-126853000D01*
X181397192Y-126853000D01*
X181478037Y-126844503D01*
X181531693Y-126838864D01*
X181531695Y-126838864D01*
X181538256Y-126838174D01*
X181718284Y-126779679D01*
X181882216Y-126685033D01*
X181889186Y-126678757D01*
X181890641Y-126678059D01*
X181892467Y-126676732D01*
X181892710Y-126677066D01*
X181953192Y-126648037D01*
X182023646Y-126656799D01*
X182078179Y-126702260D01*
X182099500Y-126772390D01*
X182099500Y-126950108D01*
X182097877Y-126970268D01*
X182094511Y-126991035D01*
X182096027Y-127000833D01*
X182095991Y-127010751D01*
X182095093Y-127010748D01*
X182095389Y-127026413D01*
X182085724Y-127109497D01*
X182079347Y-127136978D01*
X182079338Y-127137006D01*
X182044293Y-127236008D01*
X182031960Y-127261382D01*
X181975749Y-127350129D01*
X181958079Y-127372123D01*
X181883531Y-127446135D01*
X181861408Y-127463647D01*
X181772261Y-127519213D01*
X181746797Y-127531363D01*
X181697157Y-127548532D01*
X181647516Y-127565701D01*
X181619990Y-127571879D01*
X181536488Y-127580982D01*
X181521172Y-127580580D01*
X181521169Y-127581526D01*
X181511253Y-127581490D01*
X181501465Y-127579904D01*
X181478784Y-127583412D01*
X181459526Y-127584893D01*
X179173779Y-127584893D01*
X179105658Y-127564891D01*
X179059165Y-127511235D01*
X179049061Y-127440961D01*
X179053946Y-127419957D01*
X179103634Y-127267034D01*
X179105674Y-127260756D01*
X179106869Y-127249392D01*
X179118680Y-127137006D01*
X179120500Y-127119692D01*
X179120500Y-126025308D01*
X179105674Y-125884244D01*
X179047179Y-125704216D01*
X179032713Y-125679159D01*
X178955836Y-125546005D01*
X178952533Y-125540284D01*
X178825871Y-125399612D01*
X178752946Y-125346629D01*
X178678072Y-125292230D01*
X178678071Y-125292229D01*
X178672730Y-125288349D01*
X178499803Y-125211356D01*
X178401788Y-125190522D01*
X178321103Y-125173372D01*
X178321099Y-125173372D01*
X178314646Y-125172000D01*
X178125354Y-125172000D01*
X178118901Y-125173372D01*
X178118897Y-125173372D01*
X178038212Y-125190522D01*
X177940197Y-125211356D01*
X177767270Y-125288349D01*
X177761929Y-125292229D01*
X177761928Y-125292230D01*
X177659061Y-125366967D01*
X177592193Y-125390826D01*
X177523041Y-125374745D01*
X177510939Y-125366967D01*
X177408072Y-125292230D01*
X177408071Y-125292229D01*
X177402730Y-125288349D01*
X177229803Y-125211356D01*
X177131788Y-125190522D01*
X177051103Y-125173372D01*
X177051099Y-125173372D01*
X177044646Y-125172000D01*
X176855354Y-125172000D01*
X176848901Y-125173372D01*
X176848897Y-125173372D01*
X176768212Y-125190522D01*
X176670197Y-125211356D01*
X176497270Y-125288349D01*
X176491929Y-125292229D01*
X176491928Y-125292230D01*
X176389061Y-125366967D01*
X176322193Y-125390826D01*
X176253041Y-125374745D01*
X176240939Y-125366967D01*
X176138072Y-125292230D01*
X176138071Y-125292229D01*
X176132730Y-125288349D01*
X175959803Y-125211356D01*
X175861788Y-125190522D01*
X175781103Y-125173372D01*
X175781099Y-125173372D01*
X175774646Y-125172000D01*
X175585354Y-125172000D01*
X175578901Y-125173372D01*
X175578897Y-125173372D01*
X175498212Y-125190522D01*
X175400197Y-125211356D01*
X175227270Y-125288349D01*
X175221929Y-125292229D01*
X175221928Y-125292230D01*
X175119061Y-125366967D01*
X175052193Y-125390826D01*
X174983041Y-125374745D01*
X174970939Y-125366967D01*
X174868072Y-125292230D01*
X174868071Y-125292229D01*
X174862730Y-125288349D01*
X174689803Y-125211356D01*
X174591788Y-125190522D01*
X174511103Y-125173372D01*
X174511099Y-125173372D01*
X174504646Y-125172000D01*
X174315354Y-125172000D01*
X174308901Y-125173372D01*
X174308897Y-125173372D01*
X174228212Y-125190522D01*
X174130197Y-125211356D01*
X173957270Y-125288349D01*
X173951929Y-125292229D01*
X173951928Y-125292230D01*
X173849061Y-125366967D01*
X173782193Y-125390826D01*
X173713041Y-125374745D01*
X173700939Y-125366967D01*
X173598072Y-125292230D01*
X173598071Y-125292229D01*
X173592730Y-125288349D01*
X173419803Y-125211356D01*
X173321788Y-125190522D01*
X173241103Y-125173372D01*
X173241099Y-125173372D01*
X173234646Y-125172000D01*
X173045354Y-125172000D01*
X173038901Y-125173372D01*
X173038897Y-125173372D01*
X172958212Y-125190522D01*
X172860197Y-125211356D01*
X172687270Y-125288349D01*
X172681929Y-125292229D01*
X172681928Y-125292230D01*
X172579061Y-125366967D01*
X172512193Y-125390826D01*
X172443041Y-125374745D01*
X172430939Y-125366967D01*
X172328072Y-125292230D01*
X172328071Y-125292229D01*
X172322730Y-125288349D01*
X172149803Y-125211356D01*
X172051788Y-125190522D01*
X171971103Y-125173372D01*
X171971099Y-125173372D01*
X171964646Y-125172000D01*
X171775354Y-125172000D01*
X171768901Y-125173372D01*
X171768897Y-125173372D01*
X171688212Y-125190522D01*
X171590197Y-125211356D01*
X171417270Y-125288349D01*
X171411929Y-125292229D01*
X171411928Y-125292230D01*
X171309061Y-125366967D01*
X171242193Y-125390826D01*
X171173041Y-125374745D01*
X171160939Y-125366967D01*
X171058072Y-125292230D01*
X171058071Y-125292229D01*
X171052730Y-125288349D01*
X170879803Y-125211356D01*
X170781788Y-125190522D01*
X170701103Y-125173372D01*
X170701099Y-125173372D01*
X170694646Y-125172000D01*
X170505354Y-125172000D01*
X170498901Y-125173372D01*
X170498897Y-125173372D01*
X170418212Y-125190522D01*
X170320197Y-125211356D01*
X170147270Y-125288349D01*
X170141929Y-125292229D01*
X170141928Y-125292230D01*
X170039061Y-125366967D01*
X169972193Y-125390826D01*
X169903041Y-125374745D01*
X169890939Y-125366967D01*
X169788072Y-125292230D01*
X169788071Y-125292229D01*
X169782730Y-125288349D01*
X169609803Y-125211356D01*
X169511788Y-125190522D01*
X169431103Y-125173372D01*
X169431099Y-125173372D01*
X169424646Y-125172000D01*
X169235354Y-125172000D01*
X169228901Y-125173372D01*
X169228897Y-125173372D01*
X169148212Y-125190522D01*
X169050197Y-125211356D01*
X168877270Y-125288349D01*
X168871929Y-125292229D01*
X168871928Y-125292230D01*
X168769061Y-125366967D01*
X168702193Y-125390826D01*
X168633041Y-125374745D01*
X168620939Y-125366967D01*
X168518072Y-125292230D01*
X168518071Y-125292229D01*
X168512730Y-125288349D01*
X168339803Y-125211356D01*
X168241788Y-125190522D01*
X168161103Y-125173372D01*
X168161099Y-125173372D01*
X168154646Y-125172000D01*
X167965354Y-125172000D01*
X167958901Y-125173372D01*
X167958897Y-125173372D01*
X167878212Y-125190522D01*
X167780197Y-125211356D01*
X167607270Y-125288349D01*
X167601929Y-125292229D01*
X167601928Y-125292230D01*
X167527054Y-125346629D01*
X167454129Y-125399612D01*
X167327467Y-125540284D01*
X167324164Y-125546005D01*
X167247288Y-125679159D01*
X167232821Y-125704216D01*
X167174326Y-125884244D01*
X167159500Y-126025308D01*
X167159500Y-127119692D01*
X167161320Y-127137006D01*
X167173132Y-127249392D01*
X167174326Y-127260756D01*
X167176366Y-127267034D01*
X167226054Y-127419957D01*
X167228082Y-127490924D01*
X167191419Y-127551722D01*
X167127707Y-127583048D01*
X167106221Y-127584893D01*
X163540474Y-127584893D01*
X163521216Y-127583412D01*
X163498535Y-127579904D01*
X163488748Y-127581490D01*
X163478828Y-127581526D01*
X163478825Y-127580629D01*
X163463163Y-127581037D01*
X163379990Y-127571969D01*
X163352462Y-127565790D01*
X163253166Y-127531448D01*
X163227699Y-127519297D01*
X163138535Y-127463719D01*
X163116413Y-127446208D01*
X163041850Y-127372182D01*
X163024179Y-127350187D01*
X162967957Y-127261425D01*
X162955623Y-127236047D01*
X162920565Y-127137006D01*
X162914187Y-127109522D01*
X162904558Y-127026755D01*
X162904860Y-127010747D01*
X162904009Y-127010750D01*
X162903973Y-127000833D01*
X162905489Y-126991035D01*
X162902123Y-126970268D01*
X162900500Y-126950108D01*
X162900500Y-126772390D01*
X162920502Y-126704269D01*
X162974158Y-126657776D01*
X163044432Y-126647672D01*
X163107268Y-126677097D01*
X163107533Y-126676732D01*
X163109425Y-126678107D01*
X163110814Y-126678757D01*
X163117784Y-126685033D01*
X163281716Y-126779679D01*
X163461744Y-126838174D01*
X163468305Y-126838864D01*
X163468307Y-126838864D01*
X163521963Y-126844503D01*
X163602808Y-126853000D01*
X164697192Y-126853000D01*
X164778037Y-126844503D01*
X164831693Y-126838864D01*
X164831695Y-126838864D01*
X164838256Y-126838174D01*
X165018284Y-126779679D01*
X165182216Y-126685033D01*
X165189908Y-126678107D01*
X165317985Y-126562786D01*
X165317986Y-126562784D01*
X165322888Y-126558371D01*
X165434151Y-126405230D01*
X165511144Y-126232303D01*
X165550500Y-126047146D01*
X165550500Y-125857854D01*
X165511144Y-125672697D01*
X165434151Y-125499770D01*
X165364945Y-125404515D01*
X165355533Y-125391561D01*
X165331674Y-125324693D01*
X165347755Y-125255541D01*
X165355533Y-125243439D01*
X165430270Y-125140572D01*
X165430271Y-125140571D01*
X165434151Y-125135230D01*
X165511144Y-124962303D01*
X165550500Y-124777146D01*
X165550500Y-124587854D01*
X165511144Y-124402697D01*
X165434151Y-124229770D01*
X165355533Y-124121561D01*
X165331674Y-124054693D01*
X165347755Y-123985541D01*
X165355533Y-123973439D01*
X165430270Y-123870572D01*
X165430271Y-123870571D01*
X165434151Y-123865230D01*
X165511144Y-123692303D01*
X165550500Y-123507146D01*
X165550500Y-123317854D01*
X165511144Y-123132697D01*
X165434151Y-122959770D01*
X165355533Y-122851561D01*
X165331674Y-122784693D01*
X165347755Y-122715541D01*
X165355533Y-122703439D01*
X165430270Y-122600572D01*
X165430271Y-122600571D01*
X165434151Y-122595230D01*
X165511144Y-122422303D01*
X165550500Y-122237146D01*
X165550500Y-122047854D01*
X165511144Y-121862697D01*
X165434151Y-121689770D01*
X165355533Y-121581561D01*
X165331674Y-121514693D01*
X165334509Y-121502500D01*
X169974723Y-121502500D01*
X169993793Y-121720477D01*
X170050425Y-121931830D01*
X170142898Y-122130138D01*
X170268402Y-122309377D01*
X170423123Y-122464098D01*
X170427631Y-122467255D01*
X170427634Y-122467257D01*
X170597852Y-122586445D01*
X170602361Y-122589602D01*
X170607343Y-122591925D01*
X170607348Y-122591928D01*
X170716708Y-122642923D01*
X170800670Y-122682075D01*
X170805978Y-122683497D01*
X170805980Y-122683498D01*
X170871745Y-122701120D01*
X171012023Y-122738707D01*
X171230000Y-122757777D01*
X171447977Y-122738707D01*
X171588255Y-122701120D01*
X171654020Y-122683498D01*
X171654022Y-122683497D01*
X171659330Y-122682075D01*
X171743292Y-122642923D01*
X171852652Y-122591928D01*
X171852657Y-122591925D01*
X171857639Y-122589602D01*
X171862148Y-122586445D01*
X172032366Y-122467257D01*
X172032369Y-122467255D01*
X172036877Y-122464098D01*
X172191598Y-122309377D01*
X172317102Y-122130138D01*
X172409575Y-121931830D01*
X172466207Y-121720477D01*
X172485277Y-121502500D01*
X172466207Y-121284523D01*
X172409575Y-121073170D01*
X172317102Y-120874862D01*
X172191598Y-120695623D01*
X172036877Y-120540902D01*
X172032369Y-120537745D01*
X172032366Y-120537743D01*
X171862148Y-120418555D01*
X171862145Y-120418553D01*
X171857639Y-120415398D01*
X171852657Y-120413075D01*
X171852652Y-120413072D01*
X171710305Y-120346695D01*
X171657020Y-120299778D01*
X171637559Y-120231500D01*
X171658101Y-120163540D01*
X171710305Y-120118305D01*
X171852652Y-120051928D01*
X171852657Y-120051925D01*
X171857639Y-120049602D01*
X171862148Y-120046445D01*
X172032366Y-119927257D01*
X172032369Y-119927255D01*
X172036877Y-119924098D01*
X172191598Y-119769377D01*
X172317102Y-119590138D01*
X172385805Y-119442805D01*
X172432723Y-119389520D01*
X172501000Y-119370059D01*
X172568960Y-119390601D01*
X172614195Y-119442805D01*
X172682898Y-119590138D01*
X172808402Y-119769377D01*
X172963123Y-119924098D01*
X172967631Y-119927255D01*
X172967634Y-119927257D01*
X173137852Y-120046445D01*
X173142361Y-120049602D01*
X173147343Y-120051925D01*
X173147348Y-120051928D01*
X173256708Y-120102923D01*
X173340670Y-120142075D01*
X173345978Y-120143497D01*
X173345980Y-120143498D01*
X173411745Y-120161120D01*
X173552023Y-120198707D01*
X173770000Y-120217777D01*
X173987977Y-120198707D01*
X174128255Y-120161120D01*
X174194020Y-120143498D01*
X174194022Y-120143497D01*
X174199330Y-120142075D01*
X174283292Y-120102923D01*
X174392652Y-120051928D01*
X174392657Y-120051925D01*
X174397639Y-120049602D01*
X174402148Y-120046445D01*
X174572366Y-119927257D01*
X174572369Y-119927255D01*
X174576877Y-119924098D01*
X174731598Y-119769377D01*
X174857102Y-119590138D01*
X174949575Y-119391830D01*
X175006207Y-119180477D01*
X175025277Y-118962500D01*
X175006207Y-118744523D01*
X174949575Y-118533170D01*
X174857102Y-118334862D01*
X174731598Y-118155623D01*
X174576877Y-118000902D01*
X174572369Y-117997745D01*
X174572366Y-117997743D01*
X174402148Y-117878555D01*
X174402145Y-117878553D01*
X174397639Y-117875398D01*
X174392657Y-117873075D01*
X174392652Y-117873072D01*
X174250305Y-117806695D01*
X174197020Y-117759778D01*
X174177559Y-117691500D01*
X174198101Y-117623540D01*
X174250305Y-117578305D01*
X174392652Y-117511928D01*
X174392657Y-117511925D01*
X174397639Y-117509602D01*
X174402148Y-117506445D01*
X174572366Y-117387257D01*
X174572369Y-117387255D01*
X174576877Y-117384098D01*
X174731598Y-117229377D01*
X174857102Y-117050138D01*
X174949575Y-116851830D01*
X175006207Y-116640477D01*
X175025277Y-116422500D01*
X175006207Y-116204523D01*
X174949575Y-115993170D01*
X174857102Y-115794862D01*
X174731598Y-115615623D01*
X174576877Y-115460902D01*
X174572369Y-115457745D01*
X174572366Y-115457743D01*
X174402148Y-115338555D01*
X174402145Y-115338553D01*
X174397639Y-115335398D01*
X174392657Y-115333075D01*
X174392652Y-115333072D01*
X174250305Y-115266695D01*
X174197020Y-115219778D01*
X174177559Y-115151500D01*
X174198101Y-115083540D01*
X174250305Y-115038305D01*
X174392652Y-114971928D01*
X174392657Y-114971925D01*
X174397639Y-114969602D01*
X174519370Y-114884365D01*
X174572366Y-114847257D01*
X174572369Y-114847255D01*
X174576877Y-114844098D01*
X174731598Y-114689377D01*
X174857102Y-114510138D01*
X174949575Y-114311830D01*
X175006207Y-114100477D01*
X175025277Y-113882500D01*
X175006207Y-113664523D01*
X174949575Y-113453170D01*
X174897056Y-113340543D01*
X174859425Y-113259843D01*
X174859423Y-113259840D01*
X174857102Y-113254862D01*
X174731598Y-113075623D01*
X174576877Y-112920902D01*
X174572369Y-112917745D01*
X174572366Y-112917743D01*
X174402148Y-112798555D01*
X174402145Y-112798553D01*
X174397639Y-112795398D01*
X174392657Y-112793075D01*
X174392652Y-112793072D01*
X174204312Y-112705248D01*
X174204311Y-112705247D01*
X174199330Y-112702925D01*
X174194022Y-112701503D01*
X174194020Y-112701502D01*
X174108339Y-112678544D01*
X173987977Y-112646293D01*
X173770000Y-112627223D01*
X173552023Y-112646293D01*
X173431661Y-112678544D01*
X173345980Y-112701502D01*
X173345978Y-112701503D01*
X173340670Y-112702925D01*
X173335690Y-112705247D01*
X173335688Y-112705248D01*
X173147343Y-112793075D01*
X173147340Y-112793077D01*
X173142362Y-112795398D01*
X172963123Y-112920902D01*
X172808402Y-113075623D01*
X172703373Y-113225621D01*
X172647918Y-113269949D01*
X172577298Y-113277258D01*
X172513938Y-113245228D01*
X172477952Y-113184027D01*
X172477902Y-113183797D01*
X172477598Y-113179931D01*
X172473103Y-113164457D01*
X172433956Y-113029715D01*
X172433955Y-113029714D01*
X172431744Y-113022102D01*
X172348081Y-112880635D01*
X172231865Y-112764419D01*
X172090398Y-112680756D01*
X172082786Y-112678545D01*
X172082785Y-112678544D01*
X171938754Y-112636699D01*
X171938755Y-112636699D01*
X171932569Y-112634902D01*
X171919416Y-112633867D01*
X171898153Y-112632193D01*
X171898140Y-112632192D01*
X171895694Y-112632000D01*
X170564306Y-112632000D01*
X170561860Y-112632192D01*
X170561847Y-112632193D01*
X170540584Y-112633867D01*
X170527431Y-112634902D01*
X170521245Y-112636699D01*
X170521246Y-112636699D01*
X170377215Y-112678544D01*
X170377214Y-112678545D01*
X170369602Y-112680756D01*
X170228135Y-112764419D01*
X170111919Y-112880635D01*
X170028256Y-113022102D01*
X170026045Y-113029714D01*
X170026044Y-113029715D01*
X170011396Y-113080135D01*
X169982402Y-113179931D01*
X169981897Y-113186350D01*
X169979693Y-113214347D01*
X169979692Y-113214360D01*
X169979500Y-113216806D01*
X169979500Y-114548194D01*
X169979692Y-114550640D01*
X169979693Y-114550653D01*
X169981367Y-114571916D01*
X169982402Y-114585069D01*
X169984199Y-114591254D01*
X170012707Y-114689377D01*
X170028256Y-114742898D01*
X170111919Y-114884365D01*
X170228135Y-115000581D01*
X170369602Y-115084244D01*
X170377214Y-115086455D01*
X170377215Y-115086456D01*
X170521248Y-115128302D01*
X170521251Y-115128303D01*
X170524631Y-115129285D01*
X170524632Y-115129285D01*
X170527431Y-115130098D01*
X170527280Y-115130618D01*
X170586911Y-115160631D01*
X170623004Y-115221769D01*
X170620314Y-115292714D01*
X170579695Y-115350943D01*
X170573132Y-115355865D01*
X170423123Y-115460902D01*
X170268402Y-115615623D01*
X170142898Y-115794862D01*
X170050425Y-115993170D01*
X169993793Y-116204523D01*
X169974723Y-116422500D01*
X169993793Y-116640477D01*
X170050425Y-116851830D01*
X170142898Y-117050138D01*
X170268402Y-117229377D01*
X170423123Y-117384098D01*
X170427631Y-117387255D01*
X170427634Y-117387257D01*
X170597852Y-117506445D01*
X170602361Y-117509602D01*
X170607343Y-117511925D01*
X170607348Y-117511928D01*
X170749695Y-117578305D01*
X170802980Y-117625222D01*
X170822441Y-117693500D01*
X170801899Y-117761460D01*
X170749695Y-117806695D01*
X170607343Y-117873075D01*
X170607340Y-117873077D01*
X170602362Y-117875398D01*
X170423123Y-118000902D01*
X170268402Y-118155623D01*
X170142898Y-118334862D01*
X170050425Y-118533170D01*
X169993793Y-118744523D01*
X169974723Y-118962500D01*
X169993793Y-119180477D01*
X170050425Y-119391830D01*
X170142898Y-119590138D01*
X170268402Y-119769377D01*
X170423123Y-119924098D01*
X170427631Y-119927255D01*
X170427634Y-119927257D01*
X170597852Y-120046445D01*
X170602361Y-120049602D01*
X170607343Y-120051925D01*
X170607348Y-120051928D01*
X170749695Y-120118305D01*
X170802980Y-120165222D01*
X170822441Y-120233500D01*
X170801899Y-120301460D01*
X170749695Y-120346695D01*
X170607343Y-120413075D01*
X170607340Y-120413077D01*
X170602362Y-120415398D01*
X170423123Y-120540902D01*
X170268402Y-120695623D01*
X170142898Y-120874862D01*
X170050425Y-121073170D01*
X169993793Y-121284523D01*
X169974723Y-121502500D01*
X165334509Y-121502500D01*
X165347755Y-121445541D01*
X165355533Y-121433439D01*
X165430270Y-121330572D01*
X165430271Y-121330571D01*
X165434151Y-121325230D01*
X165511144Y-121152303D01*
X165550500Y-120967146D01*
X165550500Y-120777854D01*
X165533981Y-120700135D01*
X165531978Y-120690712D01*
X165511144Y-120592697D01*
X165434151Y-120419770D01*
X165355533Y-120311561D01*
X165331674Y-120244693D01*
X165347755Y-120175541D01*
X165355533Y-120163439D01*
X165430270Y-120060572D01*
X165430271Y-120060571D01*
X165434151Y-120055230D01*
X165511144Y-119882303D01*
X165550500Y-119697146D01*
X165550500Y-119507854D01*
X165511144Y-119322697D01*
X165434151Y-119149770D01*
X165355533Y-119041561D01*
X165331674Y-118974693D01*
X165347755Y-118905541D01*
X165355533Y-118893439D01*
X165430270Y-118790572D01*
X165430271Y-118790571D01*
X165434151Y-118785230D01*
X165511144Y-118612303D01*
X165550500Y-118427146D01*
X165550500Y-118237854D01*
X165533981Y-118160135D01*
X165531978Y-118150712D01*
X165511144Y-118052697D01*
X165434151Y-117879770D01*
X165355533Y-117771561D01*
X165331674Y-117704693D01*
X165347755Y-117635541D01*
X165355533Y-117623439D01*
X165430270Y-117520572D01*
X165430271Y-117520571D01*
X165434151Y-117515230D01*
X165511144Y-117342303D01*
X165550500Y-117157146D01*
X165550500Y-116967854D01*
X165511144Y-116782697D01*
X165434151Y-116609770D01*
X165355533Y-116501561D01*
X165331674Y-116434693D01*
X165347755Y-116365541D01*
X165355533Y-116353439D01*
X165430270Y-116250572D01*
X165430271Y-116250571D01*
X165434151Y-116245230D01*
X165511144Y-116072303D01*
X165550500Y-115887146D01*
X165550500Y-115697854D01*
X165533981Y-115620135D01*
X165531978Y-115610712D01*
X165511144Y-115512697D01*
X165434151Y-115339770D01*
X165355533Y-115231561D01*
X165331674Y-115164693D01*
X165347755Y-115095541D01*
X165355533Y-115083439D01*
X165430270Y-114980572D01*
X165430271Y-114980571D01*
X165434151Y-114975230D01*
X165511144Y-114802303D01*
X165550500Y-114617146D01*
X165550500Y-114427854D01*
X165511144Y-114242697D01*
X165434151Y-114069770D01*
X165355533Y-113961561D01*
X165331674Y-113894693D01*
X165347755Y-113825541D01*
X165355533Y-113813439D01*
X165430270Y-113710572D01*
X165430271Y-113710571D01*
X165434151Y-113705230D01*
X165511144Y-113532303D01*
X165550500Y-113347146D01*
X165550500Y-113157854D01*
X165533981Y-113080135D01*
X165520195Y-113015279D01*
X165511144Y-112972697D01*
X165434151Y-112799770D01*
X165362756Y-112701502D01*
X165355533Y-112691561D01*
X165331674Y-112624693D01*
X165347755Y-112555541D01*
X165355533Y-112543439D01*
X165430270Y-112440572D01*
X165430271Y-112440571D01*
X165434151Y-112435230D01*
X165511144Y-112262303D01*
X165550500Y-112077146D01*
X165550500Y-111887854D01*
X165511144Y-111702697D01*
X165434151Y-111529770D01*
X165355533Y-111421561D01*
X165331674Y-111354693D01*
X165347755Y-111285541D01*
X165355533Y-111273439D01*
X165430270Y-111170572D01*
X165430271Y-111170571D01*
X165434151Y-111165230D01*
X165511144Y-110992303D01*
X165550500Y-110807146D01*
X165550500Y-110617854D01*
X165511144Y-110432697D01*
X165434151Y-110259770D01*
X165322888Y-110106629D01*
X165223710Y-110017328D01*
X165187124Y-109984386D01*
X165187123Y-109984385D01*
X165182216Y-109979967D01*
X165018284Y-109885321D01*
X164838256Y-109826826D01*
X164831695Y-109826136D01*
X164831693Y-109826136D01*
X164778037Y-109820497D01*
X164697192Y-109812000D01*
X163602808Y-109812000D01*
X163521963Y-109820497D01*
X163468307Y-109826136D01*
X163468305Y-109826136D01*
X163461744Y-109826826D01*
X163281716Y-109885321D01*
X163117784Y-109979967D01*
X163112877Y-109984385D01*
X163112876Y-109984386D01*
X163110814Y-109986243D01*
X163109359Y-109986941D01*
X163107533Y-109988268D01*
X163107290Y-109987934D01*
X163046808Y-110016963D01*
X162976354Y-110008201D01*
X162921821Y-109962740D01*
X162900500Y-109892610D01*
X162900500Y-108441436D01*
X162902051Y-108421726D01*
X162903941Y-108409793D01*
X162905492Y-108400000D01*
X162903941Y-108390207D01*
X162903941Y-108380289D01*
X162904838Y-108380289D01*
X162904486Y-108364622D01*
X162913942Y-108280703D01*
X162920219Y-108253201D01*
X162955182Y-108153282D01*
X162967422Y-108127866D01*
X163023740Y-108038237D01*
X163041332Y-108016178D01*
X163116178Y-107941332D01*
X163138237Y-107923740D01*
X163227866Y-107867422D01*
X163253282Y-107855182D01*
X163353201Y-107820219D01*
X163380703Y-107813942D01*
X163434407Y-107807891D01*
X163464623Y-107804486D01*
X163480289Y-107804838D01*
X163480289Y-107803941D01*
X163490207Y-107803941D01*
X163500000Y-107805492D01*
X163521726Y-107802051D01*
X163541436Y-107800500D01*
X181458564Y-107800500D01*
X181478274Y-107802051D01*
G37*
G04 #@! TD.AperFunction*
M02*
