G04 #@! TF.GenerationSoftware,KiCad,Pcbnew,6.0.10+dfsg-1~bpo11+1*
G04 #@! TF.ProjectId,project,70726f6a-6563-4742-9e6b-696361645f70,rev?*
G04 #@! TF.SameCoordinates,Original*
G04 #@! TF.FileFunction,Legend,Top*
G04 #@! TF.FilePolarity,Positive*
%FSLAX46Y46*%
G04 Gerber Fmt 4.6, Leading zero omitted, Abs format (unit mm)*
%MOMM*%
%LPD*%
G01*
G04 APERTURE LIST*
G04 #@! TA.AperFunction,Profile*
%ADD10C,0.100000*%
G04 #@! TD*
%ADD11C,0.150000*%
%ADD12C,0.120000*%
%ADD13C,2.100000*%
%ADD14O,2.000000X1.000000*%
%ADD15O,1.000000X2.000000*%
%ADD16C,1.700000*%
G04 APERTURE END LIST*
D10*
X163500000Y-107400000D02*
G75*
G03*
X162500000Y-108400000I0J-1000000D01*
G01*
X163500000Y-127985393D02*
X181500000Y-127985393D01*
X182500000Y-126992500D02*
X182500000Y-108400000D01*
X162500000Y-108400000D02*
X162500000Y-126992500D01*
X162499907Y-126992500D02*
G75*
G03*
X163500000Y-127985393I996493J3600D01*
G01*
X182500000Y-108400000D02*
G75*
G03*
X181500000Y-107400000I-1000000J0D01*
G01*
X181500000Y-127985300D02*
G75*
G03*
X182500000Y-126992500I3600J996400D01*
G01*
X181500000Y-107400000D02*
X163500000Y-107400000D01*
D11*
X165621547Y-115422404D02*
X165888214Y-116222404D01*
X166154880Y-115422404D01*
X166764404Y-116184309D02*
X166688214Y-116222404D01*
X166535833Y-116222404D01*
X166459642Y-116184309D01*
X166421547Y-116146214D01*
X166383452Y-116070023D01*
X166383452Y-115841452D01*
X166421547Y-115765261D01*
X166459642Y-115727166D01*
X166535833Y-115689071D01*
X166688214Y-115689071D01*
X166764404Y-115727166D01*
X167450119Y-116184309D02*
X167373928Y-116222404D01*
X167221547Y-116222404D01*
X167145357Y-116184309D01*
X167107261Y-116146214D01*
X167069166Y-116070023D01*
X167069166Y-115841452D01*
X167107261Y-115765261D01*
X167145357Y-115727166D01*
X167221547Y-115689071D01*
X167373928Y-115689071D01*
X167450119Y-115727166D01*
X166078690Y-117510404D02*
X165812023Y-117129452D01*
X165621547Y-117510404D02*
X165621547Y-116710404D01*
X165926309Y-116710404D01*
X166002500Y-116748500D01*
X166040595Y-116786595D01*
X166078690Y-116862785D01*
X166078690Y-116977071D01*
X166040595Y-117053261D01*
X166002500Y-117091357D01*
X165926309Y-117129452D01*
X165621547Y-117129452D01*
X166383452Y-117472309D02*
X166497738Y-117510404D01*
X166688214Y-117510404D01*
X166764404Y-117472309D01*
X166802500Y-117434214D01*
X166840595Y-117358023D01*
X166840595Y-117281833D01*
X166802500Y-117205642D01*
X166764404Y-117167547D01*
X166688214Y-117129452D01*
X166535833Y-117091357D01*
X166459642Y-117053261D01*
X166421547Y-117015166D01*
X166383452Y-116938976D01*
X166383452Y-116862785D01*
X166421547Y-116786595D01*
X166459642Y-116748500D01*
X166535833Y-116710404D01*
X166726309Y-116710404D01*
X166840595Y-116748500D01*
X167069166Y-116710404D02*
X167526309Y-116710404D01*
X167297738Y-117510404D02*
X167297738Y-116710404D01*
X166688214Y-118798404D02*
X166231071Y-118798404D01*
X166459642Y-118798404D02*
X166459642Y-117998404D01*
X166383452Y-118112690D01*
X166307261Y-118188880D01*
X166231071Y-118226976D01*
X167412023Y-117998404D02*
X167031071Y-117998404D01*
X166992976Y-118379357D01*
X167031071Y-118341261D01*
X167107261Y-118303166D01*
X167297738Y-118303166D01*
X167373928Y-118341261D01*
X167412023Y-118379357D01*
X167450119Y-118455547D01*
X167450119Y-118646023D01*
X167412023Y-118722214D01*
X167373928Y-118760309D01*
X167297738Y-118798404D01*
X167107261Y-118798404D01*
X167031071Y-118760309D01*
X166992976Y-118722214D01*
X166307261Y-119286404D02*
X166764404Y-119286404D01*
X166535833Y-120086404D02*
X166535833Y-119286404D01*
X166954880Y-119286404D02*
X167488214Y-120086404D01*
X167488214Y-119286404D02*
X166954880Y-120086404D01*
X172166666Y-120925833D02*
X172666666Y-120925833D01*
X172766666Y-120959166D01*
X172833333Y-121025833D01*
X172866666Y-121125833D01*
X172866666Y-121192500D01*
X172866666Y-120259166D02*
X172866666Y-120592500D01*
X172166666Y-120592500D01*
X172800000Y-119625833D02*
X172833333Y-119659166D01*
X172866666Y-119759166D01*
X172866666Y-119825833D01*
X172833333Y-119925833D01*
X172766666Y-119992500D01*
X172700000Y-120025833D01*
X172566666Y-120059166D01*
X172466666Y-120059166D01*
X172333333Y-120025833D01*
X172266666Y-119992500D01*
X172200000Y-119925833D01*
X172166666Y-119825833D01*
X172166666Y-119759166D01*
X172200000Y-119659166D01*
X172233333Y-119625833D01*
X172166666Y-119125833D02*
X172666666Y-119125833D01*
X172766666Y-119159166D01*
X172833333Y-119225833D01*
X172866666Y-119325833D01*
X172866666Y-119392500D01*
X172866666Y-118459166D02*
X172866666Y-118792500D01*
X172166666Y-118792500D01*
X172800000Y-117825833D02*
X172833333Y-117859166D01*
X172866666Y-117959166D01*
X172866666Y-118025833D01*
X172833333Y-118125833D01*
X172766666Y-118192500D01*
X172700000Y-118225833D01*
X172566666Y-118259166D01*
X172466666Y-118259166D01*
X172333333Y-118225833D01*
X172266666Y-118192500D01*
X172200000Y-118125833D01*
X172166666Y-118025833D01*
X172166666Y-117959166D01*
X172200000Y-117859166D01*
X172233333Y-117825833D01*
X172166666Y-117325833D02*
X172666666Y-117325833D01*
X172766666Y-117359166D01*
X172833333Y-117425833D01*
X172866666Y-117525833D01*
X172866666Y-117592500D01*
X172866666Y-116659166D02*
X172866666Y-116992500D01*
X172166666Y-116992500D01*
X172800000Y-116025833D02*
X172833333Y-116059166D01*
X172866666Y-116159166D01*
X172866666Y-116225833D01*
X172833333Y-116325833D01*
X172766666Y-116392500D01*
X172700000Y-116425833D01*
X172566666Y-116459166D01*
X172466666Y-116459166D01*
X172333333Y-116425833D01*
X172266666Y-116392500D01*
X172200000Y-116325833D01*
X172166666Y-116225833D01*
X172166666Y-116159166D01*
X172200000Y-116059166D01*
X172233333Y-116025833D01*
X172166666Y-115525833D02*
X172666666Y-115525833D01*
X172766666Y-115559166D01*
X172833333Y-115625833D01*
X172866666Y-115725833D01*
X172866666Y-115792500D01*
X172866666Y-114859166D02*
X172866666Y-115192500D01*
X172166666Y-115192500D01*
X172800000Y-114225833D02*
X172833333Y-114259166D01*
X172866666Y-114359166D01*
X172866666Y-114425833D01*
X172833333Y-114525833D01*
X172766666Y-114592500D01*
X172700000Y-114625833D01*
X172566666Y-114659166D01*
X172466666Y-114659166D01*
X172333333Y-114625833D01*
X172266666Y-114592500D01*
X172200000Y-114525833D01*
X172166666Y-114425833D01*
X172166666Y-114359166D01*
X172200000Y-114259166D01*
X172233333Y-114225833D01*
X178045119Y-115929904D02*
X177778452Y-115548952D01*
X177587976Y-115929904D02*
X177587976Y-115129904D01*
X177892738Y-115129904D01*
X177968928Y-115168000D01*
X178007023Y-115206095D01*
X178045119Y-115282285D01*
X178045119Y-115396571D01*
X178007023Y-115472761D01*
X177968928Y-115510857D01*
X177892738Y-115548952D01*
X177587976Y-115548952D01*
X178311785Y-115129904D02*
X178845119Y-115929904D01*
X178845119Y-115129904D02*
X178311785Y-115929904D01*
X177740357Y-116417904D02*
X177816547Y-116417904D01*
X177892738Y-116456000D01*
X177930833Y-116494095D01*
X177968928Y-116570285D01*
X178007023Y-116722666D01*
X178007023Y-116913142D01*
X177968928Y-117065523D01*
X177930833Y-117141714D01*
X177892738Y-117179809D01*
X177816547Y-117217904D01*
X177740357Y-117217904D01*
X177664166Y-117179809D01*
X177626071Y-117141714D01*
X177587976Y-117065523D01*
X177549880Y-116913142D01*
X177549880Y-116722666D01*
X177587976Y-116570285D01*
X177626071Y-116494095D01*
X177664166Y-116456000D01*
X177740357Y-116417904D01*
X177549880Y-117782095D02*
X177587976Y-117744000D01*
X177664166Y-117705904D01*
X177854642Y-117705904D01*
X177930833Y-117744000D01*
X177968928Y-117782095D01*
X178007023Y-117858285D01*
X178007023Y-117934476D01*
X177968928Y-118048761D01*
X177511785Y-118505904D01*
X178007023Y-118505904D01*
X178007023Y-119032000D02*
X177930833Y-118993904D01*
X177816547Y-118993904D01*
X177702261Y-119032000D01*
X177626071Y-119108190D01*
X177587976Y-119184380D01*
X177549880Y-119336761D01*
X177549880Y-119451047D01*
X177587976Y-119603428D01*
X177626071Y-119679619D01*
X177702261Y-119755809D01*
X177816547Y-119793904D01*
X177892738Y-119793904D01*
X178007023Y-119755809D01*
X178045119Y-119717714D01*
X178045119Y-119451047D01*
X177892738Y-119451047D01*
X178387976Y-119793904D02*
X178387976Y-118993904D01*
X178845119Y-119793904D01*
X178845119Y-118993904D01*
X179226071Y-119793904D02*
X179226071Y-118993904D01*
X179416547Y-118993904D01*
X179530833Y-119032000D01*
X179607023Y-119108190D01*
X179645119Y-119184380D01*
X179683214Y-119336761D01*
X179683214Y-119451047D01*
X179645119Y-119603428D01*
X179607023Y-119679619D01*
X179530833Y-119755809D01*
X179416547Y-119793904D01*
X179226071Y-119793904D01*
D12*
X163380000Y-108247500D02*
X163000000Y-108247500D01*
X163380000Y-127572500D02*
X164380000Y-127572500D01*
X181620000Y-127572500D02*
X180620000Y-127572500D01*
X181620000Y-126792500D02*
X181620000Y-127572500D01*
X163380000Y-126792500D02*
X163380000Y-127572500D01*
G36*
X174785500Y-108828206D02*
G01*
X174861700Y-108860353D01*
X174861700Y-109469953D01*
X174797406Y-109477097D01*
X174730731Y-109479478D01*
X174623873Y-109455666D01*
X174550947Y-109384228D01*
X174508977Y-109275286D01*
X174494987Y-109138959D01*
X174506894Y-109000252D01*
X174542612Y-108898453D01*
X174604525Y-108835945D01*
X174695012Y-108815109D01*
X174785500Y-108828206D01*
G37*
G36*
X174095408Y-109925331D02*
G01*
X173994663Y-109910387D01*
X173895867Y-109885640D01*
X173799973Y-109851328D01*
X173707904Y-109807783D01*
X173620546Y-109755423D01*
X173538742Y-109694752D01*
X173463278Y-109626355D01*
X173394881Y-109550891D01*
X173334210Y-109469086D01*
X173281850Y-109381729D01*
X173238305Y-109289660D01*
X173203993Y-109193766D01*
X173193844Y-109153247D01*
X174197331Y-109153247D01*
X174212280Y-109319934D01*
X174257127Y-109461222D01*
X174331872Y-109577109D01*
X174435721Y-109663099D01*
X174567880Y-109714693D01*
X174728350Y-109731891D01*
X174841459Y-109727723D01*
X174956950Y-109715222D01*
X175064702Y-109696172D01*
X175154594Y-109672359D01*
X175154594Y-109155628D01*
X175395100Y-109155628D01*
X175405816Y-109289573D01*
X175437962Y-109405659D01*
X175490052Y-109504184D01*
X175560597Y-109585444D01*
X175648703Y-109649142D01*
X175753478Y-109694981D01*
X175874029Y-109722663D01*
X176009462Y-109731891D01*
X176202344Y-109714031D01*
X176364269Y-109669978D01*
X176323787Y-109419947D01*
X176189247Y-109458047D01*
X176021369Y-109477097D01*
X175891591Y-109461321D01*
X175788006Y-109413994D01*
X175720141Y-109339282D01*
X175697519Y-109241353D01*
X176423800Y-109241353D01*
X176427372Y-109191347D01*
X176428562Y-109131816D01*
X176414275Y-108959440D01*
X176371412Y-108816961D01*
X176299975Y-108704381D01*
X176201021Y-108623022D01*
X176107216Y-108586509D01*
X176545244Y-108586509D01*
X176595920Y-108752229D01*
X176647935Y-108911252D01*
X176701290Y-109063578D01*
X176755984Y-109209206D01*
X176829406Y-109390843D01*
X176902034Y-109556340D01*
X176973869Y-109705697D01*
X177219137Y-109705697D01*
X177292162Y-109556340D01*
X177368362Y-109390843D01*
X177447737Y-109209206D01*
X177507120Y-109063578D01*
X177563823Y-108911252D01*
X177617848Y-108752229D01*
X177669194Y-108586509D01*
X177371537Y-108586509D01*
X177346832Y-108679973D01*
X177315578Y-108779391D01*
X177280455Y-108882082D01*
X177244141Y-108985369D01*
X177206934Y-109087465D01*
X177169131Y-109186584D01*
X177100075Y-109365178D01*
X177034591Y-109186584D01*
X177000360Y-109087465D01*
X176966725Y-108985369D01*
X176934280Y-108882082D01*
X176903622Y-108779391D01*
X176875940Y-108679973D01*
X176852425Y-108586509D01*
X176545244Y-108586509D01*
X176107216Y-108586509D01*
X176075608Y-108574206D01*
X175923737Y-108557934D01*
X175824916Y-108567459D01*
X175728475Y-108596034D01*
X175638583Y-108643362D01*
X175559406Y-108709144D01*
X175492731Y-108793380D01*
X175440344Y-108896072D01*
X175406411Y-109016920D01*
X175395100Y-109155628D01*
X175154594Y-109155628D01*
X175154594Y-108393628D01*
X177804925Y-108393628D01*
X177950181Y-108598416D01*
X178100200Y-108486497D01*
X178245456Y-108453159D01*
X178383569Y-108501975D01*
X178438337Y-108641278D01*
X178394284Y-108767484D01*
X178282366Y-108896072D01*
X178212119Y-108964235D01*
X178137109Y-109035375D01*
X178062100Y-109110980D01*
X177991853Y-109192537D01*
X177929941Y-109280941D01*
X177879934Y-109377084D01*
X177846895Y-109481859D01*
X177835881Y-109596159D01*
X177834691Y-109646166D01*
X177840644Y-109705697D01*
X178802669Y-109705697D01*
X178802669Y-109462809D01*
X178169256Y-109462809D01*
X178194259Y-109384228D01*
X178254981Y-109299694D01*
X178331181Y-109218731D01*
X178402619Y-109150866D01*
X178524062Y-109031803D01*
X178631219Y-108903216D01*
X178707419Y-108766294D01*
X178735994Y-108619847D01*
X178697894Y-108435300D01*
X178595500Y-108303141D01*
X178447862Y-108224559D01*
X178274031Y-108198366D01*
X178149909Y-108210272D01*
X178025191Y-108245991D01*
X177907616Y-108306712D01*
X177804925Y-108393628D01*
X175154594Y-108393628D01*
X175154594Y-108053109D01*
X174861700Y-108103116D01*
X174861700Y-108612703D01*
X174761687Y-108575794D01*
X174645006Y-108562697D01*
X174509407Y-108580292D01*
X174397885Y-108633076D01*
X174310441Y-108721050D01*
X174247602Y-108839451D01*
X174209899Y-108983517D01*
X174197331Y-109153247D01*
X173193844Y-109153247D01*
X173179246Y-109094970D01*
X173164302Y-108994225D01*
X173159305Y-108892500D01*
X173164302Y-108790775D01*
X173179246Y-108690030D01*
X173203993Y-108591234D01*
X173238305Y-108495340D01*
X173281850Y-108403271D01*
X173334210Y-108315914D01*
X173394881Y-108234109D01*
X173463278Y-108158645D01*
X173538742Y-108090248D01*
X173620546Y-108029577D01*
X173707904Y-107977217D01*
X173799973Y-107933672D01*
X173895867Y-107899360D01*
X173994663Y-107874613D01*
X174095408Y-107859669D01*
X174197133Y-107854672D01*
X178802867Y-107854672D01*
X178904592Y-107859669D01*
X179005337Y-107874613D01*
X179104133Y-107899360D01*
X179200027Y-107933672D01*
X179292096Y-107977217D01*
X179379454Y-108029577D01*
X179461258Y-108090248D01*
X179536722Y-108158645D01*
X179605119Y-108234109D01*
X179665790Y-108315914D01*
X179718150Y-108403271D01*
X179761695Y-108495340D01*
X179796007Y-108591234D01*
X179820754Y-108690030D01*
X179835698Y-108790775D01*
X179840695Y-108892500D01*
X179835698Y-108994225D01*
X179820754Y-109094970D01*
X179796007Y-109193766D01*
X179761695Y-109289660D01*
X179718150Y-109381729D01*
X179665790Y-109469086D01*
X179605119Y-109550891D01*
X179536722Y-109626355D01*
X179461258Y-109694752D01*
X179379454Y-109755423D01*
X179292096Y-109807783D01*
X179200027Y-109851328D01*
X179104133Y-109885640D01*
X179005337Y-109910387D01*
X178904592Y-109925331D01*
X178802867Y-109930328D01*
X174197133Y-109930328D01*
X174095408Y-109925331D01*
G37*
G36*
X176028512Y-108823444D02*
G01*
X176095187Y-108877022D01*
X176133287Y-108952031D01*
X176145194Y-109038947D01*
X175697519Y-109038947D01*
X175717759Y-108950841D01*
X175760622Y-108874641D01*
X175829678Y-108822253D01*
X175928500Y-108803203D01*
X176028512Y-108823444D01*
G37*
X175750000Y-125412500D02*
X169250000Y-125412500D01*
X169250000Y-109972500D02*
X175750000Y-109972500D01*
X166550000Y-114382500D02*
X167550000Y-113882500D01*
X169250000Y-115642500D02*
X169250000Y-109972500D01*
X167940000Y-126712500D02*
X167940000Y-108672500D01*
X175750000Y-109972500D02*
X175750000Y-125412500D01*
X169250000Y-125412500D02*
X169250000Y-119742500D01*
X177060000Y-126712500D02*
X167940000Y-126712500D01*
X167550000Y-113882500D02*
X166550000Y-113382500D01*
X167940000Y-108672500D02*
X177060000Y-108672500D01*
X167940000Y-115642500D02*
X169250000Y-115642500D01*
X169250000Y-119742500D02*
X169250000Y-119742500D01*
X169250000Y-119742500D02*
X167940000Y-119742500D01*
X166550000Y-113382500D02*
X166550000Y-114382500D01*
X177060000Y-108672500D02*
X177060000Y-126712500D01*
%LPC*%
D13*
X178500000Y-123692500D03*
D14*
X164150000Y-109442500D03*
X164150000Y-110712500D03*
X164150000Y-111982500D03*
X164150000Y-113252500D03*
X164150000Y-114522500D03*
X164150000Y-115792500D03*
X164150000Y-117062500D03*
X164150000Y-118332500D03*
X164150000Y-119602500D03*
X164150000Y-120872500D03*
X164150000Y-122142500D03*
X164150000Y-123412500D03*
X164150000Y-124682500D03*
X164150000Y-125952500D03*
D15*
X166790000Y-126572500D03*
X168060000Y-126572500D03*
X169330000Y-126572500D03*
X170600000Y-126572500D03*
X171870000Y-126572500D03*
X173140000Y-126572500D03*
X174410000Y-126572500D03*
X175680000Y-126572500D03*
X176950000Y-126572500D03*
X178220000Y-126572500D03*
D14*
X180850000Y-125952500D03*
X180850000Y-124682500D03*
X180850000Y-123412500D03*
X180850000Y-122142500D03*
X180850000Y-120872500D03*
X180850000Y-119602500D03*
X180850000Y-118332500D03*
X180850000Y-117062500D03*
X180850000Y-115792500D03*
X180850000Y-114522500D03*
X180850000Y-113252500D03*
X180850000Y-111982500D03*
X180850000Y-110712500D03*
X180850000Y-109442500D03*
D13*
X166500000Y-123692500D03*
X178500000Y-111692500D03*
X166500000Y-111692500D03*
G36*
G01*
X170380000Y-114482500D02*
X170380000Y-113282500D01*
G75*
G02*
X170630000Y-113032500I250000J0D01*
G01*
X171830000Y-113032500D01*
G75*
G02*
X172080000Y-113282500I0J-250000D01*
G01*
X172080000Y-114482500D01*
G75*
G02*
X171830000Y-114732500I-250000J0D01*
G01*
X170630000Y-114732500D01*
G75*
G02*
X170380000Y-114482500I0J250000D01*
G01*
G37*
D16*
X173770000Y-113882500D03*
X171230000Y-116422500D03*
X173770000Y-116422500D03*
X171230000Y-118962500D03*
X173770000Y-118962500D03*
X171230000Y-121502500D03*
X173770000Y-121502500D03*
M02*
