%TF.GenerationSoftware,KiCad,Pcbnew,6.0.10+dfsg-1~bpo11+1*%
%TF.ProjectId,project,70726f6a-6563-4742-9e6b-696361645f70,rev?*%
%TF.SameCoordinates,Original*%
%TF.FileFunction,Drillmap*%
%TF.FilePolarity,Positive*%
%FSLAX45Y45*%
G04 Gerber Fmt 4.5, Leading zero omitted, Abs format (unit mm)*
%MOMM*%
%LPD*%
G01*
G04 APERTURE LIST*
%ADD10C,0.100000*%
%ADD11C,0.200000*%
G04 APERTURE END LIST*
D10*
X16350000Y-10740000D02*
G75*
G03*
X16250000Y-10840000I0J-100000D01*
G01*
X16350000Y-12798539D02*
X18150000Y-12798539D01*
X18250000Y-12699250D02*
X18250000Y-10840000D01*
X16250000Y-10840000D02*
X16250000Y-12699250D01*
X16249991Y-12699250D02*
G75*
G03*
X16350000Y-12798539I99649J360D01*
G01*
X18250000Y-10840000D02*
G75*
G03*
X18150000Y-10740000I-100000J0D01*
G01*
X18150000Y-12798530D02*
G75*
G03*
X18250000Y-12699250I360J99640D01*
G01*
X18150000Y-10740000D02*
X16350000Y-10740000D01*
D11*
X16502619Y-13114016D02*
X16502619Y-12914016D01*
X16550238Y-12914016D01*
X16578809Y-12923540D01*
X16597857Y-12942588D01*
X16607381Y-12961635D01*
X16616905Y-12999730D01*
X16616905Y-13028302D01*
X16607381Y-13066397D01*
X16597857Y-13085445D01*
X16578809Y-13104492D01*
X16550238Y-13114016D01*
X16502619Y-13114016D01*
X16702619Y-13114016D02*
X16702619Y-12980683D01*
X16702619Y-13018778D02*
X16712143Y-12999730D01*
X16721667Y-12990207D01*
X16740714Y-12980683D01*
X16759762Y-12980683D01*
X16826429Y-13114016D02*
X16826429Y-12980683D01*
X16826429Y-12914016D02*
X16816905Y-12923540D01*
X16826429Y-12933064D01*
X16835952Y-12923540D01*
X16826429Y-12914016D01*
X16826429Y-12933064D01*
X16950238Y-13114016D02*
X16931190Y-13104492D01*
X16921667Y-13085445D01*
X16921667Y-12914016D01*
X17055000Y-13114016D02*
X17035952Y-13104492D01*
X17026429Y-13085445D01*
X17026429Y-12914016D01*
X17283571Y-13114016D02*
X17283571Y-12914016D01*
X17350238Y-13056873D01*
X17416905Y-12914016D01*
X17416905Y-13114016D01*
X17597857Y-13114016D02*
X17597857Y-13009254D01*
X17588333Y-12990207D01*
X17569286Y-12980683D01*
X17531190Y-12980683D01*
X17512143Y-12990207D01*
X17597857Y-13104492D02*
X17578810Y-13114016D01*
X17531190Y-13114016D01*
X17512143Y-13104492D01*
X17502619Y-13085445D01*
X17502619Y-13066397D01*
X17512143Y-13047349D01*
X17531190Y-13037826D01*
X17578810Y-13037826D01*
X17597857Y-13028302D01*
X17693095Y-12980683D02*
X17693095Y-13180683D01*
X17693095Y-12990207D02*
X17712143Y-12980683D01*
X17750238Y-12980683D01*
X17769286Y-12990207D01*
X17778810Y-12999730D01*
X17788333Y-13018778D01*
X17788333Y-13075921D01*
X17778810Y-13094968D01*
X17769286Y-13104492D01*
X17750238Y-13114016D01*
X17712143Y-13114016D01*
X17693095Y-13104492D01*
X17874048Y-13094968D02*
X17883571Y-13104492D01*
X17874048Y-13114016D01*
X17864524Y-13104492D01*
X17874048Y-13094968D01*
X17874048Y-13114016D01*
X17874048Y-12990207D02*
X17883571Y-12999730D01*
X17874048Y-13009254D01*
X17864524Y-12999730D01*
X17874048Y-12990207D01*
X17874048Y-13009254D01*
M02*
