G04 #@! TF.GenerationSoftware,KiCad,Pcbnew,6.0.10+dfsg-1~bpo11+1*
G04 #@! TF.ProjectId,project,70726f6a-6563-4742-9e6b-696361645f70,rev?*
G04 #@! TF.SameCoordinates,Original*
G04 #@! TF.FileFunction,Legend,Bot*
G04 #@! TF.FilePolarity,Positive*
%FSLAX46Y46*%
G04 Gerber Fmt 4.6, Leading zero omitted, Abs format (unit mm)*
%MOMM*%
%LPD*%
G01*
G04 APERTURE LIST*
G04 #@! TA.AperFunction,Profile*
%ADD10C,0.100000*%
G04 #@! TD*
%ADD11C,0.150000*%
%ADD12C,0.010000*%
%ADD13C,2.100000*%
%ADD14O,2.000000X1.000000*%
%ADD15O,1.000000X2.000000*%
%ADD16C,1.700000*%
G04 APERTURE END LIST*
D10*
X163500000Y-107400000D02*
G75*
G03*
X162500000Y-108400000I0J-1000000D01*
G01*
X163500000Y-127985393D02*
X181500000Y-127985393D01*
X182500000Y-126992500D02*
X182500000Y-108400000D01*
X162500000Y-108400000D02*
X162500000Y-126992500D01*
X162499907Y-126992500D02*
G75*
G03*
X163500000Y-127985393I996493J3600D01*
G01*
X182500000Y-108400000D02*
G75*
G03*
X181500000Y-107400000I-1000000J0D01*
G01*
X181500000Y-127985300D02*
G75*
G03*
X182500000Y-126992500I3600J996400D01*
G01*
X181500000Y-107400000D02*
X163500000Y-107400000D01*
D11*
X168657142Y-119411547D02*
X168657142Y-119144880D01*
X168238095Y-119030595D02*
X168238095Y-119411547D01*
X169038095Y-119411547D01*
X169038095Y-119030595D01*
X168276190Y-118725833D02*
X168238095Y-118611547D01*
X168238095Y-118421071D01*
X168276190Y-118344880D01*
X168314285Y-118306785D01*
X168390476Y-118268690D01*
X168466666Y-118268690D01*
X168542857Y-118306785D01*
X168580952Y-118344880D01*
X168619047Y-118421071D01*
X168657142Y-118573452D01*
X168695238Y-118649642D01*
X168733333Y-118687738D01*
X168809523Y-118725833D01*
X168885714Y-118725833D01*
X168961904Y-118687738D01*
X169000000Y-118649642D01*
X169038095Y-118573452D01*
X169038095Y-118382976D01*
X169000000Y-118268690D01*
X168238095Y-117925833D02*
X169038095Y-117925833D01*
X169038095Y-117621071D01*
X169000000Y-117544880D01*
X168961904Y-117506785D01*
X168885714Y-117468690D01*
X168771428Y-117468690D01*
X168695238Y-117506785D01*
X168657142Y-117544880D01*
X168619047Y-117621071D01*
X168619047Y-117925833D01*
X169038095Y-117202023D02*
X169038095Y-116706785D01*
X168733333Y-116973452D01*
X168733333Y-116859166D01*
X168695238Y-116782976D01*
X168657142Y-116744880D01*
X168580952Y-116706785D01*
X168390476Y-116706785D01*
X168314285Y-116744880D01*
X168276190Y-116782976D01*
X168238095Y-116859166D01*
X168238095Y-117087738D01*
X168276190Y-117163928D01*
X168314285Y-117202023D01*
X168961904Y-116402023D02*
X169000000Y-116363928D01*
X169038095Y-116287738D01*
X169038095Y-116097261D01*
X169000000Y-116021071D01*
X168961904Y-115982976D01*
X168885714Y-115944880D01*
X168809523Y-115944880D01*
X168695238Y-115982976D01*
X168238095Y-116440119D01*
X168238095Y-115944880D01*
X168542857Y-115602023D02*
X168542857Y-114992500D01*
X169038095Y-114687738D02*
X168238095Y-114497261D01*
X168809523Y-114344880D01*
X168238095Y-114192500D01*
X169038095Y-114002023D01*
X168238095Y-113240119D02*
X168619047Y-113506785D01*
X168238095Y-113697261D02*
X169038095Y-113697261D01*
X169038095Y-113392500D01*
X169000000Y-113316309D01*
X168961904Y-113278214D01*
X168885714Y-113240119D01*
X168771428Y-113240119D01*
X168695238Y-113278214D01*
X168657142Y-113316309D01*
X168619047Y-113392500D01*
X168619047Y-113697261D01*
X169038095Y-112744880D02*
X169038095Y-112592500D01*
X169000000Y-112516309D01*
X168923809Y-112440119D01*
X168771428Y-112402023D01*
X168504761Y-112402023D01*
X168352380Y-112440119D01*
X168276190Y-112516309D01*
X168238095Y-112592500D01*
X168238095Y-112744880D01*
X168276190Y-112821071D01*
X168352380Y-112897261D01*
X168504761Y-112935357D01*
X168771428Y-112935357D01*
X168923809Y-112897261D01*
X169000000Y-112821071D01*
X169038095Y-112744880D01*
X169038095Y-111906785D02*
X169038095Y-111754404D01*
X169000000Y-111678214D01*
X168923809Y-111602023D01*
X168771428Y-111563928D01*
X168504761Y-111563928D01*
X168352380Y-111602023D01*
X168276190Y-111678214D01*
X168238095Y-111754404D01*
X168238095Y-111906785D01*
X168276190Y-111982976D01*
X168352380Y-112059166D01*
X168504761Y-112097261D01*
X168771428Y-112097261D01*
X168923809Y-112059166D01*
X169000000Y-111982976D01*
X169038095Y-111906785D01*
X168238095Y-111221071D02*
X169038095Y-111221071D01*
X168466666Y-110954404D01*
X169038095Y-110687738D01*
X168238095Y-110687738D01*
X168542857Y-110306785D02*
X168542857Y-109697261D01*
X169038095Y-109392500D02*
X169038095Y-108897261D01*
X168733333Y-109163928D01*
X168733333Y-109049642D01*
X168695238Y-108973452D01*
X168657142Y-108935357D01*
X168580952Y-108897261D01*
X168390476Y-108897261D01*
X168314285Y-108935357D01*
X168276190Y-108973452D01*
X168238095Y-109049642D01*
X168238095Y-109278214D01*
X168276190Y-109354404D01*
X168314285Y-109392500D01*
X168961904Y-108592500D02*
X169000000Y-108554404D01*
X169038095Y-108478214D01*
X169038095Y-108287738D01*
X169000000Y-108211547D01*
X168961904Y-108173452D01*
X168885714Y-108135357D01*
X168809523Y-108135357D01*
X168695238Y-108173452D01*
X168238095Y-108630595D01*
X168238095Y-108135357D01*
X165738095Y-122168690D02*
X166538095Y-122168690D01*
X165966666Y-121902023D01*
X166538095Y-121635357D01*
X165738095Y-121635357D01*
X165966666Y-121292500D02*
X165966666Y-120911547D01*
X165738095Y-121368690D02*
X166538095Y-121102023D01*
X165738095Y-120835357D01*
X165738095Y-120568690D02*
X166538095Y-120568690D01*
X165738095Y-120111547D02*
X166195238Y-120454404D01*
X166538095Y-120111547D02*
X166080952Y-120568690D01*
X166157142Y-119768690D02*
X166157142Y-119502023D01*
X165738095Y-119387738D02*
X165738095Y-119768690D01*
X166538095Y-119768690D01*
X166538095Y-119387738D01*
X165738095Y-118587738D02*
X166119047Y-118854404D01*
X165738095Y-119044880D02*
X166538095Y-119044880D01*
X166538095Y-118740119D01*
X166500000Y-118663928D01*
X166461904Y-118625833D01*
X166385714Y-118587738D01*
X166271428Y-118587738D01*
X166195238Y-118625833D01*
X166157142Y-118663928D01*
X166119047Y-118740119D01*
X166119047Y-119044880D01*
X165776190Y-118282976D02*
X165738095Y-118168690D01*
X165738095Y-117978214D01*
X165776190Y-117902023D01*
X165814285Y-117863928D01*
X165890476Y-117825833D01*
X165966666Y-117825833D01*
X166042857Y-117863928D01*
X166080952Y-117902023D01*
X166119047Y-117978214D01*
X166157142Y-118130595D01*
X166195238Y-118206785D01*
X166233333Y-118244880D01*
X166309523Y-118282976D01*
X166385714Y-118282976D01*
X166461904Y-118244880D01*
X166500000Y-118206785D01*
X166538095Y-118130595D01*
X166538095Y-117940119D01*
X166500000Y-117825833D01*
X165738095Y-117482976D02*
X166538095Y-117482976D01*
X166538095Y-117178214D01*
X166500000Y-117102023D01*
X166461904Y-117063928D01*
X166385714Y-117025833D01*
X166271428Y-117025833D01*
X166195238Y-117063928D01*
X166157142Y-117102023D01*
X166119047Y-117178214D01*
X166119047Y-117482976D01*
X165966666Y-116721071D02*
X165966666Y-116340119D01*
X165738095Y-116797261D02*
X166538095Y-116530595D01*
X165738095Y-116263928D01*
X165814285Y-115540119D02*
X165776190Y-115578214D01*
X165738095Y-115692500D01*
X165738095Y-115768690D01*
X165776190Y-115882976D01*
X165852380Y-115959166D01*
X165928571Y-115997261D01*
X166080952Y-116035357D01*
X166195238Y-116035357D01*
X166347619Y-115997261D01*
X166423809Y-115959166D01*
X166500000Y-115882976D01*
X166538095Y-115768690D01*
X166538095Y-115692500D01*
X166500000Y-115578214D01*
X166461904Y-115540119D01*
X166157142Y-115197261D02*
X166157142Y-114930595D01*
X165738095Y-114816309D02*
X165738095Y-115197261D01*
X166538095Y-115197261D01*
X166538095Y-114816309D01*
X165814285Y-114473452D02*
X165776190Y-114435357D01*
X165738095Y-114473452D01*
X165776190Y-114511547D01*
X165814285Y-114473452D01*
X165738095Y-114473452D01*
X165738095Y-113711547D02*
X165738095Y-114092500D01*
X166538095Y-114092500D01*
X166538095Y-113559166D02*
X166538095Y-113102023D01*
X165738095Y-113330595D02*
X166538095Y-113330595D01*
G36*
X168596020Y-124601002D02*
G01*
X168461802Y-124353539D01*
X168308581Y-124048269D01*
X168206497Y-123815664D01*
X168172686Y-123692500D01*
X168196715Y-123617317D01*
X168288645Y-123410772D01*
X168432284Y-123120259D01*
X168609666Y-122783167D01*
X169033000Y-122000835D01*
X169477500Y-122000001D01*
X169649444Y-121994702D01*
X169845197Y-121971286D01*
X169920980Y-121935666D01*
X169909633Y-121895838D01*
X169835892Y-121736929D01*
X169716431Y-121516222D01*
X169512902Y-121160278D01*
X169738618Y-120733768D01*
X169964333Y-120307258D01*
X170946308Y-120306545D01*
X171928282Y-120305833D01*
X172082844Y-120648590D01*
X172126272Y-120740941D01*
X172231970Y-120936296D01*
X172306349Y-121033956D01*
X172345099Y-121022316D01*
X172444233Y-120901974D01*
X172562517Y-120691199D01*
X172749742Y-120305833D01*
X173262038Y-120307654D01*
X173774333Y-120309475D01*
X174464724Y-121575623D01*
X175155115Y-122841772D01*
X174930391Y-123266424D01*
X174705666Y-123691075D01*
X174240000Y-123693008D01*
X173774333Y-123694940D01*
X173303339Y-124548796D01*
X173759689Y-125387262D01*
X173318497Y-126190166D01*
X172346630Y-126213962D01*
X171374763Y-126237757D01*
X171142926Y-125811795D01*
X170911088Y-125385833D01*
X170599333Y-125385280D01*
X169033000Y-125382503D01*
X168703469Y-124793166D01*
X170599333Y-124793166D01*
X172885333Y-124793166D01*
X172885333Y-124511487D01*
X172879621Y-124380497D01*
X172840954Y-124280353D01*
X172737477Y-124198830D01*
X172537342Y-124111582D01*
X172208702Y-123994266D01*
X172084450Y-123949782D01*
X171809023Y-123840637D01*
X171625508Y-123752019D01*
X171568473Y-123699825D01*
X171577643Y-123691174D01*
X171703481Y-123630488D01*
X171939860Y-123541478D01*
X172245104Y-123440140D01*
X172506205Y-123356686D01*
X172721929Y-123274719D01*
X172834867Y-123197626D01*
X172878256Y-123100373D01*
X172885333Y-122957927D01*
X172885333Y-122676500D01*
X170599333Y-122676500D01*
X170599333Y-123206341D01*
X171382500Y-123154480D01*
X171656139Y-123137971D01*
X171906382Y-123132380D01*
X172000543Y-123153417D01*
X171937516Y-123207912D01*
X171716194Y-123302694D01*
X171335468Y-123444593D01*
X171297516Y-123458601D01*
X171010975Y-123587325D01*
X170883968Y-123705563D01*
X170918486Y-123822147D01*
X171116521Y-123945909D01*
X171480066Y-124085679D01*
X171510789Y-124096089D01*
X171798671Y-124198657D01*
X172015030Y-124284422D01*
X172115066Y-124335744D01*
X172102300Y-124347174D01*
X171966572Y-124355489D01*
X171715334Y-124348967D01*
X171382500Y-124327967D01*
X170599333Y-124267190D01*
X170599333Y-124793166D01*
X168703469Y-124793166D01*
X168596020Y-124601002D01*
G37*
G36*
X177651011Y-113795698D02*
G01*
X177706071Y-113614186D01*
X177795486Y-113446904D01*
X177915817Y-113300281D01*
X178062441Y-113179949D01*
X178229723Y-113090535D01*
X178411234Y-113035474D01*
X178600000Y-113016883D01*
X178788766Y-113035474D01*
X178970277Y-113090535D01*
X179137559Y-113179949D01*
X179284183Y-113300281D01*
X179404514Y-113446904D01*
X179493929Y-113614186D01*
X179548989Y-113795698D01*
X179567581Y-113984464D01*
X179567581Y-121400536D01*
X179548989Y-121589302D01*
X179493929Y-121770814D01*
X179404514Y-121938096D01*
X179284183Y-122084719D01*
X179137559Y-122205051D01*
X178970277Y-122294465D01*
X178788766Y-122349526D01*
X178600000Y-122368117D01*
X178411234Y-122349526D01*
X178229723Y-122294465D01*
X178062441Y-122205051D01*
X177915817Y-122084719D01*
X177795486Y-121938096D01*
X177706071Y-121770814D01*
X177651011Y-121589302D01*
X177632419Y-121400536D01*
X177632419Y-121400338D01*
X177861812Y-121400338D01*
X179335806Y-121400338D01*
X179335806Y-120507369D01*
X179092919Y-120507369D01*
X179092919Y-121107444D01*
X178761925Y-121107444D01*
X178761925Y-120585950D01*
X178519038Y-120585950D01*
X178519038Y-121107444D01*
X178104700Y-121107444D01*
X178104700Y-120454982D01*
X177861812Y-120454982D01*
X177861812Y-121400338D01*
X177632419Y-121400338D01*
X177632419Y-119807282D01*
X177830856Y-119807282D01*
X177840679Y-119972183D01*
X177870147Y-120100175D01*
X177942775Y-120264482D01*
X178180900Y-120178757D01*
X178109462Y-120025166D01*
X178084459Y-119926046D01*
X178076125Y-119807282D01*
X178091603Y-119684647D01*
X178134466Y-119607257D01*
X178196378Y-119567966D01*
X178266625Y-119557250D01*
X178347587Y-119583444D01*
X178410691Y-119650119D01*
X178460697Y-119740607D01*
X178502369Y-119840619D01*
X178557137Y-119978732D01*
X178635719Y-120108510D01*
X178753591Y-120204950D01*
X178928612Y-120243050D01*
X179113159Y-120209415D01*
X179252462Y-120108510D01*
X179317285Y-120007571D01*
X179356179Y-119884143D01*
X179369144Y-119738225D01*
X179361405Y-119611126D01*
X179338187Y-119501291D01*
X179269131Y-119331032D01*
X179042912Y-119416757D01*
X179100062Y-119548916D01*
X179123875Y-119716794D01*
X179105090Y-119846440D01*
X179048733Y-119924227D01*
X178954806Y-119950157D01*
X178879797Y-119926344D01*
X178822647Y-119865622D01*
X178778594Y-119782278D01*
X178742875Y-119690600D01*
X178684534Y-119546535D01*
X178598809Y-119408422D01*
X178465459Y-119304838D01*
X178375270Y-119274477D01*
X178264244Y-119264357D01*
X178080590Y-119297992D01*
X177943966Y-119398897D01*
X177881127Y-119504069D01*
X177843424Y-119640197D01*
X177830856Y-119807282D01*
X177632419Y-119807282D01*
X177632419Y-119040519D01*
X177861812Y-119040519D01*
X179316756Y-119040519D01*
X179333425Y-118944078D01*
X179344141Y-118835732D01*
X179350094Y-118728575D01*
X179352475Y-118635707D01*
X179339643Y-118462404D01*
X179301146Y-118317148D01*
X179236984Y-118199938D01*
X179143719Y-118113948D01*
X179017909Y-118062354D01*
X178859556Y-118045157D01*
X178699616Y-118062487D01*
X178572219Y-118114477D01*
X178477366Y-118201128D01*
X178411881Y-118319529D01*
X178372591Y-118466770D01*
X178359494Y-118642850D01*
X178359494Y-118747625D01*
X177861812Y-118747625D01*
X177861812Y-119040519D01*
X177632419Y-119040519D01*
X177632419Y-117709400D01*
X178328537Y-117709400D01*
X178616669Y-117709400D01*
X178616669Y-117056938D01*
X178328537Y-117056938D01*
X178328537Y-117709400D01*
X177632419Y-117709400D01*
X177632419Y-116280650D01*
X177830856Y-116280650D01*
X177839191Y-116396141D01*
X177859431Y-116512822D01*
X177885625Y-116616407D01*
X177911819Y-116690225D01*
X178157087Y-116633075D01*
X178107081Y-116491391D01*
X178087436Y-116395843D01*
X178080887Y-116283032D01*
X178096961Y-116155337D01*
X178145181Y-116072291D01*
X178304725Y-116011569D01*
X178403845Y-116034786D01*
X178467841Y-116104438D01*
X178502666Y-116209808D01*
X178514275Y-116340182D01*
X178514275Y-116430669D01*
X178757162Y-116430669D01*
X178757162Y-116321132D01*
X178766687Y-116230644D01*
X178797644Y-116149682D01*
X178854794Y-116091341D01*
X178945281Y-116068719D01*
X179072678Y-116117535D01*
X179119112Y-116252075D01*
X179091728Y-116417572D01*
X179023862Y-116559257D01*
X179238175Y-116664032D01*
X179325091Y-116493772D01*
X179358130Y-116380960D01*
X179369144Y-116254457D01*
X179361405Y-116138668D01*
X179338187Y-116038953D01*
X179251272Y-115887744D01*
X179119112Y-115799638D01*
X178954806Y-115771063D01*
X178785737Y-115821069D01*
X178661912Y-115954419D01*
X178602977Y-115852918D01*
X178521419Y-115777016D01*
X178419620Y-115729689D01*
X178299962Y-115713913D01*
X178111844Y-115747250D01*
X177963016Y-115849644D01*
X177907056Y-115928225D01*
X177865384Y-116025857D01*
X177839488Y-116143133D01*
X177830856Y-116280650D01*
X177632419Y-116280650D01*
X177632419Y-115459119D01*
X177861812Y-115459119D01*
X177921344Y-115465072D01*
X177971350Y-115463882D01*
X178085650Y-115452868D01*
X178190425Y-115419828D01*
X178286568Y-115369822D01*
X178374972Y-115307910D01*
X178456530Y-115237663D01*
X178532134Y-115162653D01*
X178603274Y-115087644D01*
X178671437Y-115017397D01*
X178800025Y-114905478D01*
X178926231Y-114861425D01*
X179065534Y-114916194D01*
X179114350Y-115054307D01*
X179081012Y-115199563D01*
X178969094Y-115349582D01*
X179173881Y-115494838D01*
X179260797Y-115392146D01*
X179321519Y-115274572D01*
X179357237Y-115149854D01*
X179369144Y-115025732D01*
X179342950Y-114851900D01*
X179264369Y-114704263D01*
X179132209Y-114601869D01*
X178947662Y-114563769D01*
X178801216Y-114592344D01*
X178664294Y-114668544D01*
X178535706Y-114775700D01*
X178416644Y-114897144D01*
X178348778Y-114968582D01*
X178267816Y-115044782D01*
X178183281Y-115105503D01*
X178104700Y-115130507D01*
X178104700Y-114497094D01*
X177861812Y-114497094D01*
X177861812Y-115459119D01*
X177632419Y-115459119D01*
X177632419Y-113984464D01*
X177651011Y-113795698D01*
G37*
G36*
X178971773Y-118362756D02*
G01*
X179044103Y-118415441D01*
X179084287Y-118497296D01*
X179097681Y-118602369D01*
X179096491Y-118674997D01*
X179090537Y-118747625D01*
X178614287Y-118747625D01*
X178614287Y-118628563D01*
X178628277Y-118505333D01*
X178670247Y-118416632D01*
X178746149Y-118363053D01*
X178861937Y-118345194D01*
X178971773Y-118362756D01*
G37*
G36*
X172679713Y-107272282D02*
G01*
X172787974Y-107274136D01*
X172884892Y-107277530D01*
X172964041Y-107282467D01*
X173018994Y-107288952D01*
X173043326Y-107296989D01*
X173046921Y-107305196D01*
X173058252Y-107346019D01*
X173074278Y-107415024D01*
X173093805Y-107506703D01*
X173115638Y-107615550D01*
X173138582Y-107736058D01*
X173150841Y-107801857D01*
X173172099Y-107914635D01*
X173190713Y-108011707D01*
X173205672Y-108087882D01*
X173215964Y-108137969D01*
X173220578Y-108156776D01*
X173221529Y-108157483D01*
X173245690Y-108169461D01*
X173296306Y-108192294D01*
X173366662Y-108223130D01*
X173450042Y-108259113D01*
X173539730Y-108297391D01*
X173629011Y-108335109D01*
X173711168Y-108369413D01*
X173779487Y-108397449D01*
X173827252Y-108416364D01*
X173847746Y-108423303D01*
X173854957Y-108420242D01*
X173889272Y-108399872D01*
X173947030Y-108362922D01*
X174023701Y-108312360D01*
X174114752Y-108251157D01*
X174215650Y-108182281D01*
X174270907Y-108144494D01*
X174367785Y-108079282D01*
X174452807Y-108023371D01*
X174521338Y-107979741D01*
X174568740Y-107951377D01*
X174590377Y-107941259D01*
X174602113Y-107948290D01*
X174637182Y-107977697D01*
X174690255Y-108025941D01*
X174756836Y-108088593D01*
X174832426Y-108161225D01*
X174912528Y-108239408D01*
X174992646Y-108318714D01*
X175068282Y-108394713D01*
X175134938Y-108462978D01*
X175188118Y-108519080D01*
X175223324Y-108558590D01*
X175236058Y-108577079D01*
X175231107Y-108587343D01*
X175208143Y-108625030D01*
X175169062Y-108685848D01*
X175116728Y-108765413D01*
X175054004Y-108859343D01*
X174983754Y-108963254D01*
X174731449Y-109334294D01*
X174858947Y-109643580D01*
X174986445Y-109952865D01*
X175431069Y-110036686D01*
X175875693Y-110120506D01*
X175875693Y-111045954D01*
X175431069Y-111129775D01*
X174986445Y-111213595D01*
X174731449Y-111832167D01*
X174983754Y-112203207D01*
X175033494Y-112276644D01*
X175098782Y-112373999D01*
X175154546Y-112458287D01*
X175197922Y-112525131D01*
X175226047Y-112570154D01*
X175236058Y-112588978D01*
X175228939Y-112600539D01*
X175199106Y-112635096D01*
X175150148Y-112687394D01*
X175086560Y-112753000D01*
X175012837Y-112827483D01*
X174933475Y-112906413D01*
X174852969Y-112985356D01*
X174775815Y-113059884D01*
X174706507Y-113125563D01*
X174649543Y-113177963D01*
X174609416Y-113212653D01*
X174590623Y-113225201D01*
X174582549Y-113222282D01*
X174546531Y-113202071D01*
X174487256Y-113165163D01*
X174409370Y-113114550D01*
X174317519Y-113053225D01*
X174216350Y-112984179D01*
X174161174Y-112946287D01*
X174065116Y-112881106D01*
X173981283Y-112825223D01*
X173914223Y-112781617D01*
X173868481Y-112753269D01*
X173848604Y-112743157D01*
X173847503Y-112743323D01*
X173822306Y-112752243D01*
X173770853Y-112772706D01*
X173699865Y-112801860D01*
X173616065Y-112836853D01*
X173526172Y-112874832D01*
X173436909Y-112912945D01*
X173354997Y-112948339D01*
X173287157Y-112978162D01*
X173240110Y-112999561D01*
X173220578Y-113009684D01*
X173218845Y-113015674D01*
X173211031Y-113052066D01*
X173198085Y-113116927D01*
X173181021Y-113205065D01*
X173160849Y-113311287D01*
X173138582Y-113430402D01*
X173126777Y-113493183D01*
X173104252Y-113608412D01*
X173083450Y-113709162D01*
X173065565Y-113789926D01*
X173051792Y-113845198D01*
X173043326Y-113869471D01*
X173034934Y-113873831D01*
X172993928Y-113881063D01*
X172925632Y-113886746D01*
X172836471Y-113890882D01*
X172732872Y-113893477D01*
X172621260Y-113894536D01*
X172508062Y-113894061D01*
X172399704Y-113892059D01*
X172302611Y-113888533D01*
X172223210Y-113883487D01*
X172167928Y-113876927D01*
X172143190Y-113868856D01*
X172140400Y-113863958D01*
X172128431Y-113827430D01*
X172112595Y-113764065D01*
X172094626Y-113681186D01*
X172076259Y-113586118D01*
X172070409Y-113554042D01*
X172043202Y-113405893D01*
X172021337Y-113289461D01*
X172003907Y-113200709D01*
X171990004Y-113135603D01*
X171978723Y-113090106D01*
X171969157Y-113060182D01*
X171960399Y-113041794D01*
X171951543Y-113030907D01*
X171950057Y-113029642D01*
X171919069Y-113011838D01*
X171862366Y-112985494D01*
X171786601Y-112953161D01*
X171698426Y-112917393D01*
X171604493Y-112880744D01*
X171511453Y-112845766D01*
X171425959Y-112815013D01*
X171354664Y-112791038D01*
X171304218Y-112776395D01*
X171281274Y-112773636D01*
X171278297Y-112775481D01*
X171249507Y-112794575D01*
X171196405Y-112830484D01*
X171123883Y-112879878D01*
X171036833Y-112939427D01*
X170940146Y-113005803D01*
X170913544Y-113024020D01*
X170818125Y-113088077D01*
X170732788Y-113143437D01*
X170662595Y-113186939D01*
X170612606Y-113215424D01*
X170587884Y-113225732D01*
X170581384Y-113223511D01*
X170549356Y-113200358D01*
X170497055Y-113154677D01*
X170428001Y-113089741D01*
X170345714Y-113008819D01*
X170253714Y-112915185D01*
X170202219Y-112861665D01*
X170122017Y-112777042D01*
X170053322Y-112702975D01*
X169999748Y-112643441D01*
X169964915Y-112602417D01*
X169952437Y-112583881D01*
X169957062Y-112571146D01*
X169978943Y-112531936D01*
X170014727Y-112474995D01*
X170059883Y-112407750D01*
X170092835Y-112359938D01*
X170158273Y-112264485D01*
X170227772Y-112162625D01*
X170290925Y-112069588D01*
X170414200Y-111887332D01*
X170331480Y-111734341D01*
X170312387Y-111698317D01*
X170279728Y-111632803D01*
X170257181Y-111582140D01*
X170248774Y-111555064D01*
X170259570Y-111546203D01*
X170300677Y-111524199D01*
X170368451Y-111491699D01*
X170458591Y-111450510D01*
X170566795Y-111402442D01*
X170688763Y-111349302D01*
X170820192Y-111292899D01*
X170956782Y-111235042D01*
X171094233Y-111177538D01*
X171228242Y-111122197D01*
X171354509Y-111070826D01*
X171468732Y-111025235D01*
X171566610Y-110987232D01*
X171643843Y-110958624D01*
X171696129Y-110941221D01*
X171719167Y-110936831D01*
X171719840Y-110937128D01*
X171741137Y-110957577D01*
X171774492Y-111000350D01*
X171812989Y-111056617D01*
X171824744Y-111074377D01*
X171936265Y-111209514D01*
X172069094Y-111321356D01*
X172217702Y-111407255D01*
X172376560Y-111464562D01*
X172540140Y-111490631D01*
X172702912Y-111482813D01*
X172847685Y-111451144D01*
X172993876Y-111394282D01*
X173124297Y-111311388D01*
X173248187Y-111197631D01*
X173287765Y-111152933D01*
X173385277Y-111008435D01*
X173450950Y-110852338D01*
X173485370Y-110689167D01*
X173489126Y-110523443D01*
X173462806Y-110359692D01*
X173406997Y-110202436D01*
X173322286Y-110056198D01*
X173209263Y-109925504D01*
X173068513Y-109814874D01*
X173033658Y-109793605D01*
X172874345Y-109721310D01*
X172708448Y-109682915D01*
X172540263Y-109677414D01*
X172374087Y-109703801D01*
X172214216Y-109761070D01*
X172064947Y-109848217D01*
X171930577Y-109964236D01*
X171815401Y-110108122D01*
X171812298Y-110112794D01*
X171773067Y-110168464D01*
X171739714Y-110210189D01*
X171719167Y-110229246D01*
X171703059Y-110226842D01*
X171656156Y-110211891D01*
X171583461Y-110185381D01*
X171489275Y-110149120D01*
X171377902Y-110104916D01*
X171253642Y-110054576D01*
X171120798Y-109999907D01*
X170983673Y-109942718D01*
X170846568Y-109884816D01*
X170713785Y-109828010D01*
X170589626Y-109774106D01*
X170478394Y-109724912D01*
X170384391Y-109682237D01*
X170311918Y-109647887D01*
X170265278Y-109623671D01*
X170248774Y-109611397D01*
X170251009Y-109601189D01*
X170267074Y-109561086D01*
X170295241Y-109501818D01*
X170331480Y-109432119D01*
X170414200Y-109279129D01*
X170290925Y-109096873D01*
X170254421Y-109043027D01*
X170186216Y-108942874D01*
X170117902Y-108843025D01*
X170059883Y-108758711D01*
X170028264Y-108712179D01*
X169988980Y-108651700D01*
X169962088Y-108606857D01*
X169952117Y-108584955D01*
X169956350Y-108575545D01*
X169982279Y-108541531D01*
X170027930Y-108489095D01*
X170088814Y-108422801D01*
X170160439Y-108347213D01*
X170238317Y-108266896D01*
X170317955Y-108186413D01*
X170394865Y-108110329D01*
X170464555Y-108043207D01*
X170522536Y-107989612D01*
X170564316Y-107954108D01*
X170585407Y-107941259D01*
X170589419Y-107942000D01*
X170622080Y-107957293D01*
X170678588Y-107989962D01*
X170753837Y-108036850D01*
X170842725Y-108094801D01*
X170940146Y-108160657D01*
X170967018Y-108179127D01*
X171061577Y-108243982D01*
X171145173Y-108301109D01*
X171212916Y-108347178D01*
X171259914Y-108378859D01*
X171281274Y-108392824D01*
X171282189Y-108393168D01*
X171308322Y-108389046D01*
X171361260Y-108373307D01*
X171434353Y-108348504D01*
X171520948Y-108317189D01*
X171614392Y-108281917D01*
X171708035Y-108245240D01*
X171795223Y-108209712D01*
X171869305Y-108177886D01*
X171923629Y-108152316D01*
X171951543Y-108135553D01*
X171953276Y-108133874D01*
X171962044Y-108121872D01*
X171970885Y-108101603D01*
X171980708Y-108069029D01*
X171992417Y-108020116D01*
X172006920Y-107950827D01*
X172025124Y-107857125D01*
X172047934Y-107734976D01*
X172076259Y-107580342D01*
X172082220Y-107548270D01*
X172100648Y-107456393D01*
X172118108Y-107379107D01*
X172132867Y-107323736D01*
X172143190Y-107297605D01*
X172151803Y-107293233D01*
X172193174Y-107285945D01*
X172261759Y-107280169D01*
X172351132Y-107275910D01*
X172454865Y-107273173D01*
X172566535Y-107271962D01*
X172679713Y-107272282D01*
G37*
D12*
X172679713Y-107272282D02*
X172787974Y-107274136D01*
X172884892Y-107277530D01*
X172964041Y-107282467D01*
X173018994Y-107288952D01*
X173043326Y-107296989D01*
X173046921Y-107305196D01*
X173058252Y-107346019D01*
X173074278Y-107415024D01*
X173093805Y-107506703D01*
X173115638Y-107615550D01*
X173138582Y-107736058D01*
X173150841Y-107801857D01*
X173172099Y-107914635D01*
X173190713Y-108011707D01*
X173205672Y-108087882D01*
X173215964Y-108137969D01*
X173220578Y-108156776D01*
X173221529Y-108157483D01*
X173245690Y-108169461D01*
X173296306Y-108192294D01*
X173366662Y-108223130D01*
X173450042Y-108259113D01*
X173539730Y-108297391D01*
X173629011Y-108335109D01*
X173711168Y-108369413D01*
X173779487Y-108397449D01*
X173827252Y-108416364D01*
X173847746Y-108423303D01*
X173854957Y-108420242D01*
X173889272Y-108399872D01*
X173947030Y-108362922D01*
X174023701Y-108312360D01*
X174114752Y-108251157D01*
X174215650Y-108182281D01*
X174270907Y-108144494D01*
X174367785Y-108079282D01*
X174452807Y-108023371D01*
X174521338Y-107979741D01*
X174568740Y-107951377D01*
X174590377Y-107941259D01*
X174602113Y-107948290D01*
X174637182Y-107977697D01*
X174690255Y-108025941D01*
X174756836Y-108088593D01*
X174832426Y-108161225D01*
X174912528Y-108239408D01*
X174992646Y-108318714D01*
X175068282Y-108394713D01*
X175134938Y-108462978D01*
X175188118Y-108519080D01*
X175223324Y-108558590D01*
X175236058Y-108577079D01*
X175231107Y-108587343D01*
X175208143Y-108625030D01*
X175169062Y-108685848D01*
X175116728Y-108765413D01*
X175054004Y-108859343D01*
X174983754Y-108963254D01*
X174731449Y-109334294D01*
X174858947Y-109643580D01*
X174986445Y-109952865D01*
X175431069Y-110036686D01*
X175875693Y-110120506D01*
X175875693Y-111045954D01*
X175431069Y-111129775D01*
X174986445Y-111213595D01*
X174731449Y-111832167D01*
X174983754Y-112203207D01*
X175033494Y-112276644D01*
X175098782Y-112373999D01*
X175154546Y-112458287D01*
X175197922Y-112525131D01*
X175226047Y-112570154D01*
X175236058Y-112588978D01*
X175228939Y-112600539D01*
X175199106Y-112635096D01*
X175150148Y-112687394D01*
X175086560Y-112753000D01*
X175012837Y-112827483D01*
X174933475Y-112906413D01*
X174852969Y-112985356D01*
X174775815Y-113059884D01*
X174706507Y-113125563D01*
X174649543Y-113177963D01*
X174609416Y-113212653D01*
X174590623Y-113225201D01*
X174582549Y-113222282D01*
X174546531Y-113202071D01*
X174487256Y-113165163D01*
X174409370Y-113114550D01*
X174317519Y-113053225D01*
X174216350Y-112984179D01*
X174161174Y-112946287D01*
X174065116Y-112881106D01*
X173981283Y-112825223D01*
X173914223Y-112781617D01*
X173868481Y-112753269D01*
X173848604Y-112743157D01*
X173847503Y-112743323D01*
X173822306Y-112752243D01*
X173770853Y-112772706D01*
X173699865Y-112801860D01*
X173616065Y-112836853D01*
X173526172Y-112874832D01*
X173436909Y-112912945D01*
X173354997Y-112948339D01*
X173287157Y-112978162D01*
X173240110Y-112999561D01*
X173220578Y-113009684D01*
X173218845Y-113015674D01*
X173211031Y-113052066D01*
X173198085Y-113116927D01*
X173181021Y-113205065D01*
X173160849Y-113311287D01*
X173138582Y-113430402D01*
X173126777Y-113493183D01*
X173104252Y-113608412D01*
X173083450Y-113709162D01*
X173065565Y-113789926D01*
X173051792Y-113845198D01*
X173043326Y-113869471D01*
X173034934Y-113873831D01*
X172993928Y-113881063D01*
X172925632Y-113886746D01*
X172836471Y-113890882D01*
X172732872Y-113893477D01*
X172621260Y-113894536D01*
X172508062Y-113894061D01*
X172399704Y-113892059D01*
X172302611Y-113888533D01*
X172223210Y-113883487D01*
X172167928Y-113876927D01*
X172143190Y-113868856D01*
X172140400Y-113863958D01*
X172128431Y-113827430D01*
X172112595Y-113764065D01*
X172094626Y-113681186D01*
X172076259Y-113586118D01*
X172070409Y-113554042D01*
X172043202Y-113405893D01*
X172021337Y-113289461D01*
X172003907Y-113200709D01*
X171990004Y-113135603D01*
X171978723Y-113090106D01*
X171969157Y-113060182D01*
X171960399Y-113041794D01*
X171951543Y-113030907D01*
X171950057Y-113029642D01*
X171919069Y-113011838D01*
X171862366Y-112985494D01*
X171786601Y-112953161D01*
X171698426Y-112917393D01*
X171604493Y-112880744D01*
X171511453Y-112845766D01*
X171425959Y-112815013D01*
X171354664Y-112791038D01*
X171304218Y-112776395D01*
X171281274Y-112773636D01*
X171278297Y-112775481D01*
X171249507Y-112794575D01*
X171196405Y-112830484D01*
X171123883Y-112879878D01*
X171036833Y-112939427D01*
X170940146Y-113005803D01*
X170913544Y-113024020D01*
X170818125Y-113088077D01*
X170732788Y-113143437D01*
X170662595Y-113186939D01*
X170612606Y-113215424D01*
X170587884Y-113225732D01*
X170581384Y-113223511D01*
X170549356Y-113200358D01*
X170497055Y-113154677D01*
X170428001Y-113089741D01*
X170345714Y-113008819D01*
X170253714Y-112915185D01*
X170202219Y-112861665D01*
X170122017Y-112777042D01*
X170053322Y-112702975D01*
X169999748Y-112643441D01*
X169964915Y-112602417D01*
X169952437Y-112583881D01*
X169957062Y-112571146D01*
X169978943Y-112531936D01*
X170014727Y-112474995D01*
X170059883Y-112407750D01*
X170092835Y-112359938D01*
X170158273Y-112264485D01*
X170227772Y-112162625D01*
X170290925Y-112069588D01*
X170414200Y-111887332D01*
X170331480Y-111734341D01*
X170312387Y-111698317D01*
X170279728Y-111632803D01*
X170257181Y-111582140D01*
X170248774Y-111555064D01*
X170259570Y-111546203D01*
X170300677Y-111524199D01*
X170368451Y-111491699D01*
X170458591Y-111450510D01*
X170566795Y-111402442D01*
X170688763Y-111349302D01*
X170820192Y-111292899D01*
X170956782Y-111235042D01*
X171094233Y-111177538D01*
X171228242Y-111122197D01*
X171354509Y-111070826D01*
X171468732Y-111025235D01*
X171566610Y-110987232D01*
X171643843Y-110958624D01*
X171696129Y-110941221D01*
X171719167Y-110936831D01*
X171719840Y-110937128D01*
X171741137Y-110957577D01*
X171774492Y-111000350D01*
X171812989Y-111056617D01*
X171824744Y-111074377D01*
X171936265Y-111209514D01*
X172069094Y-111321356D01*
X172217702Y-111407255D01*
X172376560Y-111464562D01*
X172540140Y-111490631D01*
X172702912Y-111482813D01*
X172847685Y-111451144D01*
X172993876Y-111394282D01*
X173124297Y-111311388D01*
X173248187Y-111197631D01*
X173287765Y-111152933D01*
X173385277Y-111008435D01*
X173450950Y-110852338D01*
X173485370Y-110689167D01*
X173489126Y-110523443D01*
X173462806Y-110359692D01*
X173406997Y-110202436D01*
X173322286Y-110056198D01*
X173209263Y-109925504D01*
X173068513Y-109814874D01*
X173033658Y-109793605D01*
X172874345Y-109721310D01*
X172708448Y-109682915D01*
X172540263Y-109677414D01*
X172374087Y-109703801D01*
X172214216Y-109761070D01*
X172064947Y-109848217D01*
X171930577Y-109964236D01*
X171815401Y-110108122D01*
X171812298Y-110112794D01*
X171773067Y-110168464D01*
X171739714Y-110210189D01*
X171719167Y-110229246D01*
X171703059Y-110226842D01*
X171656156Y-110211891D01*
X171583461Y-110185381D01*
X171489275Y-110149120D01*
X171377902Y-110104916D01*
X171253642Y-110054576D01*
X171120798Y-109999907D01*
X170983673Y-109942718D01*
X170846568Y-109884816D01*
X170713785Y-109828010D01*
X170589626Y-109774106D01*
X170478394Y-109724912D01*
X170384391Y-109682237D01*
X170311918Y-109647887D01*
X170265278Y-109623671D01*
X170248774Y-109611397D01*
X170251009Y-109601189D01*
X170267074Y-109561086D01*
X170295241Y-109501818D01*
X170331480Y-109432119D01*
X170414200Y-109279129D01*
X170290925Y-109096873D01*
X170254421Y-109043027D01*
X170186216Y-108942874D01*
X170117902Y-108843025D01*
X170059883Y-108758711D01*
X170028264Y-108712179D01*
X169988980Y-108651700D01*
X169962088Y-108606857D01*
X169952117Y-108584955D01*
X169956350Y-108575545D01*
X169982279Y-108541531D01*
X170027930Y-108489095D01*
X170088814Y-108422801D01*
X170160439Y-108347213D01*
X170238317Y-108266896D01*
X170317955Y-108186413D01*
X170394865Y-108110329D01*
X170464555Y-108043207D01*
X170522536Y-107989612D01*
X170564316Y-107954108D01*
X170585407Y-107941259D01*
X170589419Y-107942000D01*
X170622080Y-107957293D01*
X170678588Y-107989962D01*
X170753837Y-108036850D01*
X170842725Y-108094801D01*
X170940146Y-108160657D01*
X170967018Y-108179127D01*
X171061577Y-108243982D01*
X171145173Y-108301109D01*
X171212916Y-108347178D01*
X171259914Y-108378859D01*
X171281274Y-108392824D01*
X171282189Y-108393168D01*
X171308322Y-108389046D01*
X171361260Y-108373307D01*
X171434353Y-108348504D01*
X171520948Y-108317189D01*
X171614392Y-108281917D01*
X171708035Y-108245240D01*
X171795223Y-108209712D01*
X171869305Y-108177886D01*
X171923629Y-108152316D01*
X171951543Y-108135553D01*
X171953276Y-108133874D01*
X171962044Y-108121872D01*
X171970885Y-108101603D01*
X171980708Y-108069029D01*
X171992417Y-108020116D01*
X172006920Y-107950827D01*
X172025124Y-107857125D01*
X172047934Y-107734976D01*
X172076259Y-107580342D01*
X172082220Y-107548270D01*
X172100648Y-107456393D01*
X172118108Y-107379107D01*
X172132867Y-107323736D01*
X172143190Y-107297605D01*
X172151803Y-107293233D01*
X172193174Y-107285945D01*
X172261759Y-107280169D01*
X172351132Y-107275910D01*
X172454865Y-107273173D01*
X172566535Y-107271962D01*
X172679713Y-107272282D01*
G36*
X175842800Y-119965316D02*
G01*
X175944532Y-119930258D01*
X176073517Y-119909224D01*
X176229753Y-119902213D01*
X176384667Y-119909224D01*
X176512857Y-119930258D01*
X176614325Y-119965316D01*
X176713445Y-120043004D01*
X176746484Y-120149863D01*
X176713445Y-120255233D01*
X176614325Y-120333219D01*
X176512857Y-120368938D01*
X176384667Y-120390369D01*
X176229753Y-120397513D01*
X176073517Y-120390369D01*
X175944532Y-120368938D01*
X175842800Y-120333219D01*
X175743680Y-120255233D01*
X175710641Y-120149863D01*
X175711377Y-120147481D01*
X176096403Y-120147481D01*
X176142838Y-120245113D01*
X176253566Y-120280831D01*
X176365484Y-120245113D01*
X176413109Y-120147481D01*
X176365484Y-120053422D01*
X176253566Y-120016513D01*
X176142838Y-120053422D01*
X176096403Y-120147481D01*
X175711377Y-120147481D01*
X175743680Y-120043004D01*
X175842800Y-119965316D01*
G37*
G36*
X176242850Y-116361294D02*
G01*
X176317859Y-116399394D01*
X176371438Y-116466069D01*
X176391678Y-116566081D01*
X176372628Y-116664903D01*
X176320241Y-116733959D01*
X176244041Y-116776822D01*
X176155934Y-116797063D01*
X176155934Y-116349388D01*
X176242850Y-116361294D01*
G37*
G36*
X176366675Y-117709081D02*
G01*
X176379772Y-117799569D01*
X176358936Y-117890056D01*
X176296428Y-117951969D01*
X176194630Y-117987688D01*
X176055922Y-117999594D01*
X175919595Y-117985604D01*
X175810653Y-117943634D01*
X175739216Y-117870709D01*
X175715403Y-117763850D01*
X175717784Y-117697175D01*
X175724928Y-117632881D01*
X176334528Y-117632881D01*
X176366675Y-117709081D01*
G37*
G36*
X175264800Y-112399131D02*
G01*
X175279778Y-112298154D01*
X175304582Y-112199132D01*
X175338972Y-112103018D01*
X175382617Y-112010738D01*
X175435098Y-111923180D01*
X175495907Y-111841187D01*
X175564461Y-111765550D01*
X175640098Y-111696996D01*
X175722091Y-111636187D01*
X175809649Y-111583706D01*
X175901929Y-111540061D01*
X175998043Y-111505671D01*
X176097065Y-111480867D01*
X176198042Y-111465889D01*
X176300000Y-111460880D01*
X176401958Y-111465889D01*
X176502935Y-111480867D01*
X176601957Y-111505671D01*
X176698071Y-111540061D01*
X176790351Y-111583706D01*
X176877909Y-111636187D01*
X176959902Y-111696996D01*
X177035539Y-111765550D01*
X177104093Y-111841187D01*
X177164902Y-111923180D01*
X177217383Y-112010738D01*
X177261028Y-112103018D01*
X177295418Y-112199132D01*
X177320222Y-112298154D01*
X177335200Y-112399131D01*
X177340209Y-112501089D01*
X177340209Y-124283911D01*
X177335200Y-124385869D01*
X177320222Y-124486846D01*
X177295418Y-124585868D01*
X177261028Y-124681982D01*
X177217383Y-124774262D01*
X177164902Y-124861820D01*
X177104093Y-124943813D01*
X177035539Y-125019450D01*
X176959902Y-125088004D01*
X176877909Y-125148813D01*
X176790351Y-125201294D01*
X176698071Y-125244939D01*
X176601957Y-125279329D01*
X176502935Y-125304133D01*
X176401958Y-125319111D01*
X176300000Y-125324120D01*
X176198042Y-125319111D01*
X176097065Y-125304133D01*
X175998043Y-125279329D01*
X175901929Y-125244939D01*
X175809649Y-125201294D01*
X175722091Y-125148813D01*
X175640098Y-125088004D01*
X175564461Y-125019450D01*
X175495907Y-124943813D01*
X175435098Y-124861820D01*
X175382617Y-124774262D01*
X175338972Y-124681982D01*
X175304582Y-124585868D01*
X175279778Y-124486846D01*
X175264800Y-124385869D01*
X175259791Y-124283911D01*
X175259791Y-123855088D01*
X175489184Y-123855088D01*
X175638542Y-123926922D01*
X175804039Y-123999550D01*
X175985675Y-124072972D01*
X176131303Y-124127666D01*
X176283629Y-124181021D01*
X176442652Y-124233037D01*
X176608372Y-124283713D01*
X176608372Y-123976531D01*
X176514908Y-123953016D01*
X176415491Y-123925334D01*
X176312799Y-123894676D01*
X176209512Y-123862231D01*
X176107416Y-123828596D01*
X176008297Y-123794366D01*
X175829703Y-123728881D01*
X176008297Y-123659825D01*
X176107416Y-123622023D01*
X176209512Y-123584816D01*
X176312799Y-123548502D01*
X176415491Y-123513378D01*
X176514908Y-123482124D01*
X176608372Y-123457419D01*
X176608372Y-123159763D01*
X176442652Y-123211108D01*
X176283629Y-123265133D01*
X176131303Y-123321836D01*
X175985675Y-123381219D01*
X175804039Y-123460594D01*
X175638542Y-123536794D01*
X175489184Y-123609819D01*
X175489184Y-123855088D01*
X175259791Y-123855088D01*
X175259791Y-122988313D01*
X175489184Y-122988313D01*
X175548716Y-122994266D01*
X175598722Y-122993075D01*
X175713022Y-122982062D01*
X175817797Y-122949022D01*
X175913940Y-122899016D01*
X176002344Y-122837103D01*
X176083902Y-122766856D01*
X176159506Y-122691847D01*
X176230646Y-122616838D01*
X176298809Y-122546591D01*
X176427397Y-122434672D01*
X176553603Y-122390619D01*
X176692906Y-122445388D01*
X176741722Y-122583500D01*
X176708384Y-122728756D01*
X176596466Y-122878775D01*
X176801253Y-123024031D01*
X176888169Y-122921340D01*
X176948891Y-122803766D01*
X176984609Y-122679048D01*
X176996516Y-122554925D01*
X176970322Y-122381094D01*
X176891741Y-122233456D01*
X176759581Y-122131063D01*
X176575034Y-122092963D01*
X176428588Y-122121538D01*
X176291666Y-122197738D01*
X176163078Y-122304894D01*
X176044016Y-122426338D01*
X175976150Y-122497775D01*
X175895188Y-122573975D01*
X175810653Y-122634697D01*
X175732072Y-122659700D01*
X175732072Y-122026288D01*
X175489184Y-122026288D01*
X175489184Y-122988313D01*
X175259791Y-122988313D01*
X175259791Y-121338106D01*
X175462991Y-121338106D01*
X175477278Y-121419069D01*
X175518950Y-121486934D01*
X175585625Y-121534559D01*
X175677303Y-121552419D01*
X175766600Y-121534559D01*
X175832084Y-121486934D01*
X175872566Y-121419069D01*
X175886853Y-121338106D01*
X175832084Y-121190469D01*
X175677303Y-121126175D01*
X175517759Y-121190469D01*
X175462991Y-121338106D01*
X175259791Y-121338106D01*
X175259791Y-120149863D01*
X175458228Y-120149863D01*
X175479395Y-120303321D01*
X175542895Y-120430321D01*
X175648728Y-120530863D01*
X175756480Y-120588161D01*
X175889234Y-120629089D01*
X176046992Y-120653646D01*
X176229753Y-120661831D01*
X176410430Y-120653497D01*
X176566700Y-120628494D01*
X176698562Y-120586822D01*
X176806016Y-120528481D01*
X176911849Y-120427146D01*
X176975349Y-120300940D01*
X176996516Y-120149863D01*
X176975481Y-119996404D01*
X176912378Y-119869404D01*
X176807206Y-119768863D01*
X176700124Y-119711564D01*
X176568188Y-119670636D01*
X176411398Y-119646079D01*
X176229753Y-119637894D01*
X176046992Y-119646079D01*
X175889234Y-119670636D01*
X175756480Y-119711564D01*
X175648728Y-119768863D01*
X175542895Y-119869404D01*
X175479395Y-119996404D01*
X175458228Y-120149863D01*
X175259791Y-120149863D01*
X175259791Y-118956856D01*
X175462991Y-118956856D01*
X175477278Y-119037819D01*
X175518950Y-119105684D01*
X175585625Y-119153309D01*
X175677303Y-119171169D01*
X175766600Y-119153309D01*
X175832084Y-119105684D01*
X175872566Y-119037819D01*
X175886853Y-118956856D01*
X175832084Y-118809219D01*
X175677303Y-118744925D01*
X175517759Y-118809219D01*
X175462991Y-118956856D01*
X175259791Y-118956856D01*
X175259791Y-117766231D01*
X175462991Y-117766231D01*
X175480189Y-117926701D01*
X175531782Y-118058860D01*
X175617772Y-118162709D01*
X175733659Y-118237454D01*
X175874947Y-118282301D01*
X176041634Y-118297250D01*
X176211365Y-118284682D01*
X176355430Y-118246979D01*
X176473831Y-118184141D01*
X176561805Y-118096696D01*
X176614590Y-117985174D01*
X176632184Y-117849575D01*
X176619088Y-117732894D01*
X176582178Y-117632881D01*
X177091766Y-117632881D01*
X177141772Y-117339988D01*
X175522522Y-117339988D01*
X175498709Y-117429880D01*
X175479659Y-117537631D01*
X175467158Y-117653122D01*
X175462991Y-117766231D01*
X175259791Y-117766231D01*
X175259791Y-116485119D01*
X175462991Y-116485119D01*
X175472218Y-116620552D01*
X175499900Y-116741103D01*
X175545739Y-116845878D01*
X175609438Y-116933984D01*
X175690698Y-117004529D01*
X175789222Y-117056619D01*
X175905308Y-117088766D01*
X176039253Y-117099481D01*
X176177961Y-117088170D01*
X176298809Y-117054238D01*
X176401501Y-117001850D01*
X176485738Y-116935175D01*
X176551520Y-116855998D01*
X176598847Y-116766106D01*
X176627422Y-116669666D01*
X176636947Y-116570844D01*
X176620675Y-116418973D01*
X176571859Y-116293560D01*
X176490500Y-116194606D01*
X176377920Y-116123169D01*
X176235442Y-116080306D01*
X176063066Y-116066019D01*
X176003534Y-116067209D01*
X175953528Y-116070781D01*
X175953528Y-116797063D01*
X175855599Y-116774441D01*
X175780888Y-116706575D01*
X175733560Y-116602991D01*
X175717784Y-116473213D01*
X175736834Y-116305334D01*
X175774934Y-116170794D01*
X175524903Y-116130313D01*
X175480850Y-116292238D01*
X175462991Y-116485119D01*
X175259791Y-116485119D01*
X175259791Y-115520713D01*
X175489184Y-115520713D01*
X175638542Y-115592547D01*
X175804039Y-115665175D01*
X175985675Y-115738597D01*
X176131303Y-115793291D01*
X176283629Y-115846646D01*
X176442652Y-115898662D01*
X176608372Y-115949338D01*
X176608372Y-115642156D01*
X176514908Y-115618641D01*
X176415491Y-115590959D01*
X176312799Y-115560301D01*
X176209512Y-115527856D01*
X176107416Y-115494221D01*
X176008297Y-115459991D01*
X175829703Y-115394506D01*
X176008297Y-115325450D01*
X176107416Y-115287648D01*
X176209512Y-115250441D01*
X176312799Y-115214127D01*
X176415491Y-115179003D01*
X176514908Y-115147749D01*
X176608372Y-115123044D01*
X176608372Y-114825388D01*
X176442652Y-114876733D01*
X176283629Y-114930758D01*
X176131303Y-114987461D01*
X175985675Y-115046844D01*
X175804039Y-115126219D01*
X175638542Y-115202419D01*
X175489184Y-115275444D01*
X175489184Y-115520713D01*
X175259791Y-115520713D01*
X175259791Y-114194356D01*
X175462991Y-114194356D01*
X175477278Y-114275319D01*
X175518950Y-114343184D01*
X175585625Y-114390809D01*
X175677303Y-114408669D01*
X175766600Y-114390809D01*
X175832084Y-114343184D01*
X175872566Y-114275319D01*
X175886853Y-114194356D01*
X175832084Y-114046719D01*
X175677303Y-113982425D01*
X175517759Y-114046719D01*
X175462991Y-114194356D01*
X175259791Y-114194356D01*
X175259791Y-113463313D01*
X175489184Y-113463313D01*
X175548716Y-113469266D01*
X175598722Y-113468075D01*
X175713022Y-113457062D01*
X175817797Y-113424022D01*
X175913940Y-113374016D01*
X176002344Y-113312103D01*
X176083902Y-113241856D01*
X176159506Y-113166847D01*
X176230646Y-113091838D01*
X176298809Y-113021591D01*
X176427397Y-112909672D01*
X176553603Y-112865619D01*
X176692906Y-112920388D01*
X176741722Y-113058500D01*
X176708384Y-113203756D01*
X176596466Y-113353775D01*
X176801253Y-113499031D01*
X176888169Y-113396340D01*
X176948891Y-113278766D01*
X176984609Y-113154048D01*
X176996516Y-113029925D01*
X176970322Y-112856094D01*
X176891741Y-112708456D01*
X176759581Y-112606063D01*
X176575034Y-112567963D01*
X176428588Y-112596538D01*
X176291666Y-112672738D01*
X176163078Y-112779894D01*
X176044016Y-112901338D01*
X175976150Y-112972775D01*
X175895188Y-113048975D01*
X175810653Y-113109697D01*
X175732072Y-113134700D01*
X175732072Y-112501288D01*
X175489184Y-112501288D01*
X175489184Y-113463313D01*
X175259791Y-113463313D01*
X175259791Y-112501089D01*
X175264800Y-112399131D01*
G37*
%LPC*%
D13*
X178500000Y-123692500D03*
D14*
X164150000Y-109442500D03*
X164150000Y-110712500D03*
X164150000Y-111982500D03*
X164150000Y-113252500D03*
X164150000Y-114522500D03*
X164150000Y-115792500D03*
X164150000Y-117062500D03*
X164150000Y-118332500D03*
X164150000Y-119602500D03*
X164150000Y-120872500D03*
X164150000Y-122142500D03*
X164150000Y-123412500D03*
X164150000Y-124682500D03*
X164150000Y-125952500D03*
D15*
X166790000Y-126572500D03*
X168060000Y-126572500D03*
X169330000Y-126572500D03*
X170600000Y-126572500D03*
X171870000Y-126572500D03*
X173140000Y-126572500D03*
X174410000Y-126572500D03*
X175680000Y-126572500D03*
X176950000Y-126572500D03*
X178220000Y-126572500D03*
D14*
X180850000Y-125952500D03*
X180850000Y-124682500D03*
X180850000Y-123412500D03*
X180850000Y-122142500D03*
X180850000Y-120872500D03*
X180850000Y-119602500D03*
X180850000Y-118332500D03*
X180850000Y-117062500D03*
X180850000Y-115792500D03*
X180850000Y-114522500D03*
X180850000Y-113252500D03*
X180850000Y-111982500D03*
X180850000Y-110712500D03*
X180850000Y-109442500D03*
D13*
X166500000Y-123692500D03*
X178500000Y-111692500D03*
X166500000Y-111692500D03*
G36*
G01*
X170380000Y-114482500D02*
X170380000Y-113282500D01*
G75*
G02*
X170630000Y-113032500I250000J0D01*
G01*
X171830000Y-113032500D01*
G75*
G02*
X172080000Y-113282500I0J-250000D01*
G01*
X172080000Y-114482500D01*
G75*
G02*
X171830000Y-114732500I-250000J0D01*
G01*
X170630000Y-114732500D01*
G75*
G02*
X170380000Y-114482500I0J250000D01*
G01*
G37*
D16*
X173770000Y-113882500D03*
X171230000Y-116422500D03*
X173770000Y-116422500D03*
X171230000Y-118962500D03*
X173770000Y-118962500D03*
X171230000Y-121502500D03*
X173770000Y-121502500D03*
M02*
