%TF.GenerationSoftware,KiCad,Pcbnew,6.0.10+dfsg-1~bpo11+1*%
%TF.ProjectId,project,70726f6a-6563-4742-9e6b-696361645f70,rev?*%
%TF.SameCoordinates,Original*%
%TF.FileFunction,Drillmap*%
%TF.FilePolarity,Positive*%
%FSLAX45Y45*%
G04 Gerber Fmt 4.5, Leading zero omitted, Abs format (unit mm)*
%MOMM*%
%LPD*%
G01*
G04 APERTURE LIST*
%ADD10C,0.100000*%
%ADD11C,0.200000*%
%ADD12C,0.085000*%
%ADD13C,0.135000*%
G04 APERTURE END LIST*
D10*
X16350000Y-10740000D02*
G75*
G03*
X16250000Y-10840000I0J-100000D01*
G01*
X16350000Y-12798539D02*
X18150000Y-12798539D01*
X18250000Y-12699250D02*
X18250000Y-10840000D01*
X16250000Y-10840000D02*
X16250000Y-12699250D01*
X16249991Y-12699250D02*
G75*
G03*
X16350000Y-12798539I99649J360D01*
G01*
X18250000Y-10840000D02*
G75*
G03*
X18150000Y-10740000I-100000J0D01*
G01*
X18150000Y-12798530D02*
G75*
G03*
X18250000Y-12699250I360J99640D01*
G01*
X18150000Y-10740000D02*
X16350000Y-10740000D01*
D11*
D12*
X16322500Y-10901750D02*
X16407500Y-10986750D01*
X16407500Y-10901750D02*
X16322500Y-10986750D01*
X16322500Y-11028750D02*
X16407500Y-11113750D01*
X16407500Y-11028750D02*
X16322500Y-11113750D01*
X16322500Y-11155750D02*
X16407500Y-11240750D01*
X16407500Y-11155750D02*
X16322500Y-11240750D01*
X16322500Y-11282750D02*
X16407500Y-11367750D01*
X16407500Y-11282750D02*
X16322500Y-11367750D01*
X16322500Y-11409750D02*
X16407500Y-11494750D01*
X16407500Y-11409750D02*
X16322500Y-11494750D01*
X16322500Y-11536750D02*
X16407500Y-11621750D01*
X16407500Y-11536750D02*
X16322500Y-11621750D01*
X16322500Y-11663750D02*
X16407500Y-11748750D01*
X16407500Y-11663750D02*
X16322500Y-11748750D01*
X16322500Y-11790750D02*
X16407500Y-11875750D01*
X16407500Y-11790750D02*
X16322500Y-11875750D01*
X16322500Y-11917750D02*
X16407500Y-12002750D01*
X16407500Y-11917750D02*
X16322500Y-12002750D01*
X16322500Y-12044750D02*
X16407500Y-12129750D01*
X16407500Y-12044750D02*
X16322500Y-12129750D01*
X16322500Y-12171750D02*
X16407500Y-12256750D01*
X16407500Y-12171750D02*
X16322500Y-12256750D01*
X16322500Y-12298750D02*
X16407500Y-12383750D01*
X16407500Y-12298750D02*
X16322500Y-12383750D01*
X16322500Y-12425750D02*
X16407500Y-12510750D01*
X16407500Y-12425750D02*
X16322500Y-12510750D01*
X16322500Y-12552750D02*
X16407500Y-12637750D01*
X16407500Y-12552750D02*
X16322500Y-12637750D01*
X16636500Y-12664750D02*
X16721500Y-12749750D01*
X16721500Y-12664750D02*
X16636500Y-12749750D01*
X16763500Y-12664750D02*
X16848500Y-12749750D01*
X16848500Y-12664750D02*
X16763500Y-12749750D01*
X16890500Y-12664750D02*
X16975500Y-12749750D01*
X16975500Y-12664750D02*
X16890500Y-12749750D01*
X17017500Y-12664750D02*
X17102500Y-12749750D01*
X17102500Y-12664750D02*
X17017500Y-12749750D01*
X17144500Y-12664750D02*
X17229500Y-12749750D01*
X17229500Y-12664750D02*
X17144500Y-12749750D01*
X17271500Y-12664750D02*
X17356500Y-12749750D01*
X17356500Y-12664750D02*
X17271500Y-12749750D01*
X17398500Y-12664750D02*
X17483500Y-12749750D01*
X17483500Y-12664750D02*
X17398500Y-12749750D01*
X17525500Y-12664750D02*
X17610500Y-12749750D01*
X17610500Y-12664750D02*
X17525500Y-12749750D01*
X17652500Y-12664750D02*
X17737500Y-12749750D01*
X17737500Y-12664750D02*
X17652500Y-12749750D01*
X17779500Y-12664750D02*
X17864500Y-12749750D01*
X17864500Y-12664750D02*
X17779500Y-12749750D01*
X18092500Y-10901750D02*
X18177500Y-10986750D01*
X18177500Y-10901750D02*
X18092500Y-10986750D01*
X18092500Y-11028750D02*
X18177500Y-11113750D01*
X18177500Y-11028750D02*
X18092500Y-11113750D01*
X18092500Y-11155750D02*
X18177500Y-11240750D01*
X18177500Y-11155750D02*
X18092500Y-11240750D01*
X18092500Y-11282750D02*
X18177500Y-11367750D01*
X18177500Y-11282750D02*
X18092500Y-11367750D01*
X18092500Y-11409750D02*
X18177500Y-11494750D01*
X18177500Y-11409750D02*
X18092500Y-11494750D01*
X18092500Y-11536750D02*
X18177500Y-11621750D01*
X18177500Y-11536750D02*
X18092500Y-11621750D01*
X18092500Y-11663750D02*
X18177500Y-11748750D01*
X18177500Y-11663750D02*
X18092500Y-11748750D01*
X18092500Y-11790750D02*
X18177500Y-11875750D01*
X18177500Y-11790750D02*
X18092500Y-11875750D01*
X18092500Y-11917750D02*
X18177500Y-12002750D01*
X18177500Y-11917750D02*
X18092500Y-12002750D01*
X18092500Y-12044750D02*
X18177500Y-12129750D01*
X18177500Y-12044750D02*
X18092500Y-12129750D01*
X18092500Y-12171750D02*
X18177500Y-12256750D01*
X18177500Y-12171750D02*
X18092500Y-12256750D01*
X18092500Y-12298750D02*
X18177500Y-12383750D01*
X18177500Y-12298750D02*
X18092500Y-12383750D01*
X18092500Y-12425750D02*
X18177500Y-12510750D01*
X18177500Y-12425750D02*
X18092500Y-12510750D01*
X18092500Y-12552750D02*
X18177500Y-12637750D01*
X18177500Y-12552750D02*
X18092500Y-12637750D01*
D10*
X17173000Y-11388250D02*
G75*
G03*
X17173000Y-11388250I-50000J0D01*
G01*
X17173000Y-11642250D02*
G75*
G03*
X17173000Y-11642250I-50000J0D01*
G01*
X17173000Y-11896250D02*
G75*
G03*
X17173000Y-11896250I-50000J0D01*
G01*
X17173000Y-12150250D02*
G75*
G03*
X17173000Y-12150250I-50000J0D01*
G01*
X17427000Y-11388250D02*
G75*
G03*
X17427000Y-11388250I-50000J0D01*
G01*
X17427000Y-11642250D02*
G75*
G03*
X17427000Y-11642250I-50000J0D01*
G01*
X17427000Y-11896250D02*
G75*
G03*
X17427000Y-11896250I-50000J0D01*
G01*
X17427000Y-12150250D02*
G75*
G03*
X17427000Y-12150250I-50000J0D01*
G01*
D13*
X16650000Y-11101750D02*
X16650000Y-11236750D01*
X16582500Y-11169250D02*
X16717500Y-11169250D01*
X16650000Y-12301750D02*
X16650000Y-12436750D01*
X16582500Y-12369250D02*
X16717500Y-12369250D01*
X17850000Y-11101750D02*
X17850000Y-11236750D01*
X17782500Y-11169250D02*
X17917500Y-11169250D01*
X17850000Y-12301750D02*
X17850000Y-12436750D01*
X17782500Y-12369250D02*
X17917500Y-12369250D01*
D11*
X16502619Y-13114016D02*
X16502619Y-12914016D01*
X16550238Y-12914016D01*
X16578809Y-12923540D01*
X16597857Y-12942588D01*
X16607381Y-12961635D01*
X16616905Y-12999730D01*
X16616905Y-13028302D01*
X16607381Y-13066397D01*
X16597857Y-13085445D01*
X16578809Y-13104492D01*
X16550238Y-13114016D01*
X16502619Y-13114016D01*
X16702619Y-13114016D02*
X16702619Y-12980683D01*
X16702619Y-13018778D02*
X16712143Y-12999730D01*
X16721667Y-12990207D01*
X16740714Y-12980683D01*
X16759762Y-12980683D01*
X16826429Y-13114016D02*
X16826429Y-12980683D01*
X16826429Y-12914016D02*
X16816905Y-12923540D01*
X16826429Y-12933064D01*
X16835952Y-12923540D01*
X16826429Y-12914016D01*
X16826429Y-12933064D01*
X16950238Y-13114016D02*
X16931190Y-13104492D01*
X16921667Y-13085445D01*
X16921667Y-12914016D01*
X17055000Y-13114016D02*
X17035952Y-13104492D01*
X17026429Y-13085445D01*
X17026429Y-12914016D01*
X17283571Y-13114016D02*
X17283571Y-12914016D01*
X17350238Y-13056873D01*
X17416905Y-12914016D01*
X17416905Y-13114016D01*
X17597857Y-13114016D02*
X17597857Y-13009254D01*
X17588333Y-12990207D01*
X17569286Y-12980683D01*
X17531190Y-12980683D01*
X17512143Y-12990207D01*
X17597857Y-13104492D02*
X17578810Y-13114016D01*
X17531190Y-13114016D01*
X17512143Y-13104492D01*
X17502619Y-13085445D01*
X17502619Y-13066397D01*
X17512143Y-13047349D01*
X17531190Y-13037826D01*
X17578810Y-13037826D01*
X17597857Y-13028302D01*
X17693095Y-12980683D02*
X17693095Y-13180683D01*
X17693095Y-12990207D02*
X17712143Y-12980683D01*
X17750238Y-12980683D01*
X17769286Y-12990207D01*
X17778810Y-12999730D01*
X17788333Y-13018778D01*
X17788333Y-13075921D01*
X17778810Y-13094968D01*
X17769286Y-13104492D01*
X17750238Y-13114016D01*
X17712143Y-13114016D01*
X17693095Y-13104492D01*
X17874048Y-13094968D02*
X17883571Y-13104492D01*
X17874048Y-13114016D01*
X17864524Y-13104492D01*
X17874048Y-13094968D01*
X17874048Y-13114016D01*
X17874048Y-12990207D02*
X17883571Y-12999730D01*
X17874048Y-13009254D01*
X17864524Y-12999730D01*
X17874048Y-12990207D01*
X17874048Y-13009254D01*
D12*
X16160000Y-13401040D02*
X16245000Y-13486040D01*
X16245000Y-13401040D02*
X16160000Y-13486040D01*
D11*
X16540714Y-13334016D02*
X16559762Y-13334016D01*
X16578809Y-13343540D01*
X16588333Y-13353064D01*
X16597857Y-13372111D01*
X16607381Y-13410207D01*
X16607381Y-13457826D01*
X16597857Y-13495921D01*
X16588333Y-13514968D01*
X16578809Y-13524492D01*
X16559762Y-13534016D01*
X16540714Y-13534016D01*
X16521667Y-13524492D01*
X16512143Y-13514968D01*
X16502619Y-13495921D01*
X16493095Y-13457826D01*
X16493095Y-13410207D01*
X16502619Y-13372111D01*
X16512143Y-13353064D01*
X16521667Y-13343540D01*
X16540714Y-13334016D01*
X16693095Y-13514968D02*
X16702619Y-13524492D01*
X16693095Y-13534016D01*
X16683571Y-13524492D01*
X16693095Y-13514968D01*
X16693095Y-13534016D01*
X16816905Y-13419730D02*
X16797857Y-13410207D01*
X16788333Y-13400683D01*
X16778810Y-13381635D01*
X16778810Y-13372111D01*
X16788333Y-13353064D01*
X16797857Y-13343540D01*
X16816905Y-13334016D01*
X16855000Y-13334016D01*
X16874048Y-13343540D01*
X16883571Y-13353064D01*
X16893095Y-13372111D01*
X16893095Y-13381635D01*
X16883571Y-13400683D01*
X16874048Y-13410207D01*
X16855000Y-13419730D01*
X16816905Y-13419730D01*
X16797857Y-13429254D01*
X16788333Y-13438778D01*
X16778810Y-13457826D01*
X16778810Y-13495921D01*
X16788333Y-13514968D01*
X16797857Y-13524492D01*
X16816905Y-13534016D01*
X16855000Y-13534016D01*
X16874048Y-13524492D01*
X16883571Y-13514968D01*
X16893095Y-13495921D01*
X16893095Y-13457826D01*
X16883571Y-13438778D01*
X16874048Y-13429254D01*
X16855000Y-13419730D01*
X17074048Y-13334016D02*
X16978810Y-13334016D01*
X16969286Y-13429254D01*
X16978810Y-13419730D01*
X16997857Y-13410207D01*
X17045476Y-13410207D01*
X17064524Y-13419730D01*
X17074048Y-13429254D01*
X17083571Y-13448302D01*
X17083571Y-13495921D01*
X17074048Y-13514968D01*
X17064524Y-13524492D01*
X17045476Y-13534016D01*
X16997857Y-13534016D01*
X16978810Y-13524492D01*
X16969286Y-13514968D01*
X17207381Y-13334016D02*
X17226429Y-13334016D01*
X17245476Y-13343540D01*
X17255000Y-13353064D01*
X17264524Y-13372111D01*
X17274048Y-13410207D01*
X17274048Y-13457826D01*
X17264524Y-13495921D01*
X17255000Y-13514968D01*
X17245476Y-13524492D01*
X17226429Y-13534016D01*
X17207381Y-13534016D01*
X17188333Y-13524492D01*
X17178810Y-13514968D01*
X17169286Y-13495921D01*
X17159762Y-13457826D01*
X17159762Y-13410207D01*
X17169286Y-13372111D01*
X17178810Y-13353064D01*
X17188333Y-13343540D01*
X17207381Y-13334016D01*
X17359762Y-13534016D02*
X17359762Y-13400683D01*
X17359762Y-13419730D02*
X17369286Y-13410207D01*
X17388333Y-13400683D01*
X17416905Y-13400683D01*
X17435952Y-13410207D01*
X17445476Y-13429254D01*
X17445476Y-13534016D01*
X17445476Y-13429254D02*
X17455000Y-13410207D01*
X17474048Y-13400683D01*
X17502619Y-13400683D01*
X17521667Y-13410207D01*
X17531190Y-13429254D01*
X17531190Y-13534016D01*
X17626429Y-13534016D02*
X17626429Y-13400683D01*
X17626429Y-13419730D02*
X17635952Y-13410207D01*
X17655000Y-13400683D01*
X17683571Y-13400683D01*
X17702619Y-13410207D01*
X17712143Y-13429254D01*
X17712143Y-13534016D01*
X17712143Y-13429254D02*
X17721667Y-13410207D01*
X17740714Y-13400683D01*
X17769286Y-13400683D01*
X17788333Y-13410207D01*
X17797857Y-13429254D01*
X17797857Y-13534016D01*
X18188333Y-13324492D02*
X18016905Y-13581635D01*
X18445476Y-13334016D02*
X18464524Y-13334016D01*
X18483571Y-13343540D01*
X18493095Y-13353064D01*
X18502619Y-13372111D01*
X18512143Y-13410207D01*
X18512143Y-13457826D01*
X18502619Y-13495921D01*
X18493095Y-13514968D01*
X18483571Y-13524492D01*
X18464524Y-13534016D01*
X18445476Y-13534016D01*
X18426429Y-13524492D01*
X18416905Y-13514968D01*
X18407381Y-13495921D01*
X18397857Y-13457826D01*
X18397857Y-13410207D01*
X18407381Y-13372111D01*
X18416905Y-13353064D01*
X18426429Y-13343540D01*
X18445476Y-13334016D01*
X18597857Y-13514968D02*
X18607381Y-13524492D01*
X18597857Y-13534016D01*
X18588333Y-13524492D01*
X18597857Y-13514968D01*
X18597857Y-13534016D01*
X18731190Y-13334016D02*
X18750238Y-13334016D01*
X18769286Y-13343540D01*
X18778810Y-13353064D01*
X18788333Y-13372111D01*
X18797857Y-13410207D01*
X18797857Y-13457826D01*
X18788333Y-13495921D01*
X18778810Y-13514968D01*
X18769286Y-13524492D01*
X18750238Y-13534016D01*
X18731190Y-13534016D01*
X18712143Y-13524492D01*
X18702619Y-13514968D01*
X18693095Y-13495921D01*
X18683571Y-13457826D01*
X18683571Y-13410207D01*
X18693095Y-13372111D01*
X18702619Y-13353064D01*
X18712143Y-13343540D01*
X18731190Y-13334016D01*
X18864524Y-13334016D02*
X18988333Y-13334016D01*
X18921667Y-13410207D01*
X18950238Y-13410207D01*
X18969286Y-13419730D01*
X18978810Y-13429254D01*
X18988333Y-13448302D01*
X18988333Y-13495921D01*
X18978810Y-13514968D01*
X18969286Y-13524492D01*
X18950238Y-13534016D01*
X18893095Y-13534016D01*
X18874048Y-13524492D01*
X18864524Y-13514968D01*
X19055000Y-13334016D02*
X19178810Y-13334016D01*
X19112143Y-13410207D01*
X19140714Y-13410207D01*
X19159762Y-13419730D01*
X19169286Y-13429254D01*
X19178810Y-13448302D01*
X19178810Y-13495921D01*
X19169286Y-13514968D01*
X19159762Y-13524492D01*
X19140714Y-13534016D01*
X19083571Y-13534016D01*
X19064524Y-13524492D01*
X19055000Y-13514968D01*
X19359762Y-13334016D02*
X19264524Y-13334016D01*
X19255000Y-13429254D01*
X19264524Y-13419730D01*
X19283571Y-13410207D01*
X19331190Y-13410207D01*
X19350238Y-13419730D01*
X19359762Y-13429254D01*
X19369286Y-13448302D01*
X19369286Y-13495921D01*
X19359762Y-13514968D01*
X19350238Y-13524492D01*
X19331190Y-13534016D01*
X19283571Y-13534016D01*
X19264524Y-13524492D01*
X19255000Y-13514968D01*
X19445476Y-13334016D02*
X19445476Y-13372111D01*
X19521667Y-13334016D02*
X19521667Y-13372111D01*
X19816905Y-13610207D02*
X19807381Y-13600683D01*
X19788333Y-13572111D01*
X19778810Y-13553064D01*
X19769286Y-13524492D01*
X19759762Y-13476873D01*
X19759762Y-13438778D01*
X19769286Y-13391159D01*
X19778810Y-13362588D01*
X19788333Y-13343540D01*
X19807381Y-13314968D01*
X19816905Y-13305445D01*
X19874048Y-13334016D02*
X19997857Y-13334016D01*
X19931190Y-13410207D01*
X19959762Y-13410207D01*
X19978810Y-13419730D01*
X19988333Y-13429254D01*
X19997857Y-13448302D01*
X19997857Y-13495921D01*
X19988333Y-13514968D01*
X19978810Y-13524492D01*
X19959762Y-13534016D01*
X19902619Y-13534016D01*
X19883571Y-13524492D01*
X19874048Y-13514968D01*
X20112143Y-13419730D02*
X20093095Y-13410207D01*
X20083571Y-13400683D01*
X20074048Y-13381635D01*
X20074048Y-13372111D01*
X20083571Y-13353064D01*
X20093095Y-13343540D01*
X20112143Y-13334016D01*
X20150238Y-13334016D01*
X20169286Y-13343540D01*
X20178810Y-13353064D01*
X20188333Y-13372111D01*
X20188333Y-13381635D01*
X20178810Y-13400683D01*
X20169286Y-13410207D01*
X20150238Y-13419730D01*
X20112143Y-13419730D01*
X20093095Y-13429254D01*
X20083571Y-13438778D01*
X20074048Y-13457826D01*
X20074048Y-13495921D01*
X20083571Y-13514968D01*
X20093095Y-13524492D01*
X20112143Y-13534016D01*
X20150238Y-13534016D01*
X20169286Y-13524492D01*
X20178810Y-13514968D01*
X20188333Y-13495921D01*
X20188333Y-13457826D01*
X20178810Y-13438778D01*
X20169286Y-13429254D01*
X20150238Y-13419730D01*
X20426429Y-13534016D02*
X20426429Y-13334016D01*
X20512143Y-13534016D02*
X20512143Y-13429254D01*
X20502619Y-13410207D01*
X20483571Y-13400683D01*
X20455000Y-13400683D01*
X20435952Y-13410207D01*
X20426429Y-13419730D01*
X20635952Y-13534016D02*
X20616905Y-13524492D01*
X20607381Y-13514968D01*
X20597857Y-13495921D01*
X20597857Y-13438778D01*
X20607381Y-13419730D01*
X20616905Y-13410207D01*
X20635952Y-13400683D01*
X20664524Y-13400683D01*
X20683571Y-13410207D01*
X20693095Y-13419730D01*
X20702619Y-13438778D01*
X20702619Y-13495921D01*
X20693095Y-13514968D01*
X20683571Y-13524492D01*
X20664524Y-13534016D01*
X20635952Y-13534016D01*
X20816905Y-13534016D02*
X20797857Y-13524492D01*
X20788333Y-13505445D01*
X20788333Y-13334016D01*
X20969286Y-13524492D02*
X20950238Y-13534016D01*
X20912143Y-13534016D01*
X20893095Y-13524492D01*
X20883571Y-13505445D01*
X20883571Y-13429254D01*
X20893095Y-13410207D01*
X20912143Y-13400683D01*
X20950238Y-13400683D01*
X20969286Y-13410207D01*
X20978810Y-13429254D01*
X20978810Y-13448302D01*
X20883571Y-13467349D01*
X21055000Y-13524492D02*
X21074048Y-13534016D01*
X21112143Y-13534016D01*
X21131190Y-13524492D01*
X21140714Y-13505445D01*
X21140714Y-13495921D01*
X21131190Y-13476873D01*
X21112143Y-13467349D01*
X21083571Y-13467349D01*
X21064524Y-13457826D01*
X21055000Y-13438778D01*
X21055000Y-13429254D01*
X21064524Y-13410207D01*
X21083571Y-13400683D01*
X21112143Y-13400683D01*
X21131190Y-13410207D01*
X21207381Y-13610207D02*
X21216905Y-13600683D01*
X21235952Y-13572111D01*
X21245476Y-13553064D01*
X21255000Y-13524492D01*
X21264524Y-13476873D01*
X21264524Y-13438778D01*
X21255000Y-13391159D01*
X21245476Y-13362588D01*
X21235952Y-13343540D01*
X21216905Y-13314968D01*
X21207381Y-13305445D01*
D10*
X16245000Y-13707540D02*
G75*
G03*
X16245000Y-13707540I-50000J0D01*
G01*
D11*
X16607381Y-13798016D02*
X16493095Y-13798016D01*
X16550238Y-13798016D02*
X16550238Y-13598016D01*
X16531190Y-13626588D01*
X16512143Y-13645635D01*
X16493095Y-13655159D01*
X16693095Y-13778968D02*
X16702619Y-13788492D01*
X16693095Y-13798016D01*
X16683571Y-13788492D01*
X16693095Y-13778968D01*
X16693095Y-13798016D01*
X16826429Y-13598016D02*
X16845476Y-13598016D01*
X16864524Y-13607540D01*
X16874048Y-13617064D01*
X16883571Y-13636111D01*
X16893095Y-13674207D01*
X16893095Y-13721826D01*
X16883571Y-13759921D01*
X16874048Y-13778968D01*
X16864524Y-13788492D01*
X16845476Y-13798016D01*
X16826429Y-13798016D01*
X16807381Y-13788492D01*
X16797857Y-13778968D01*
X16788333Y-13759921D01*
X16778810Y-13721826D01*
X16778810Y-13674207D01*
X16788333Y-13636111D01*
X16797857Y-13617064D01*
X16807381Y-13607540D01*
X16826429Y-13598016D01*
X17016905Y-13598016D02*
X17035952Y-13598016D01*
X17055000Y-13607540D01*
X17064524Y-13617064D01*
X17074048Y-13636111D01*
X17083571Y-13674207D01*
X17083571Y-13721826D01*
X17074048Y-13759921D01*
X17064524Y-13778968D01*
X17055000Y-13788492D01*
X17035952Y-13798016D01*
X17016905Y-13798016D01*
X16997857Y-13788492D01*
X16988333Y-13778968D01*
X16978810Y-13759921D01*
X16969286Y-13721826D01*
X16969286Y-13674207D01*
X16978810Y-13636111D01*
X16988333Y-13617064D01*
X16997857Y-13607540D01*
X17016905Y-13598016D01*
X17207381Y-13598016D02*
X17226429Y-13598016D01*
X17245476Y-13607540D01*
X17255000Y-13617064D01*
X17264524Y-13636111D01*
X17274048Y-13674207D01*
X17274048Y-13721826D01*
X17264524Y-13759921D01*
X17255000Y-13778968D01*
X17245476Y-13788492D01*
X17226429Y-13798016D01*
X17207381Y-13798016D01*
X17188333Y-13788492D01*
X17178810Y-13778968D01*
X17169286Y-13759921D01*
X17159762Y-13721826D01*
X17159762Y-13674207D01*
X17169286Y-13636111D01*
X17178810Y-13617064D01*
X17188333Y-13607540D01*
X17207381Y-13598016D01*
X17359762Y-13798016D02*
X17359762Y-13664683D01*
X17359762Y-13683730D02*
X17369286Y-13674207D01*
X17388333Y-13664683D01*
X17416905Y-13664683D01*
X17435952Y-13674207D01*
X17445476Y-13693254D01*
X17445476Y-13798016D01*
X17445476Y-13693254D02*
X17455000Y-13674207D01*
X17474048Y-13664683D01*
X17502619Y-13664683D01*
X17521667Y-13674207D01*
X17531190Y-13693254D01*
X17531190Y-13798016D01*
X17626429Y-13798016D02*
X17626429Y-13664683D01*
X17626429Y-13683730D02*
X17635952Y-13674207D01*
X17655000Y-13664683D01*
X17683571Y-13664683D01*
X17702619Y-13674207D01*
X17712143Y-13693254D01*
X17712143Y-13798016D01*
X17712143Y-13693254D02*
X17721667Y-13674207D01*
X17740714Y-13664683D01*
X17769286Y-13664683D01*
X17788333Y-13674207D01*
X17797857Y-13693254D01*
X17797857Y-13798016D01*
X18188333Y-13588492D02*
X18016905Y-13845635D01*
X18445476Y-13598016D02*
X18464524Y-13598016D01*
X18483571Y-13607540D01*
X18493095Y-13617064D01*
X18502619Y-13636111D01*
X18512143Y-13674207D01*
X18512143Y-13721826D01*
X18502619Y-13759921D01*
X18493095Y-13778968D01*
X18483571Y-13788492D01*
X18464524Y-13798016D01*
X18445476Y-13798016D01*
X18426429Y-13788492D01*
X18416905Y-13778968D01*
X18407381Y-13759921D01*
X18397857Y-13721826D01*
X18397857Y-13674207D01*
X18407381Y-13636111D01*
X18416905Y-13617064D01*
X18426429Y-13607540D01*
X18445476Y-13598016D01*
X18597857Y-13778968D02*
X18607381Y-13788492D01*
X18597857Y-13798016D01*
X18588333Y-13788492D01*
X18597857Y-13778968D01*
X18597857Y-13798016D01*
X18731190Y-13598016D02*
X18750238Y-13598016D01*
X18769286Y-13607540D01*
X18778810Y-13617064D01*
X18788333Y-13636111D01*
X18797857Y-13674207D01*
X18797857Y-13721826D01*
X18788333Y-13759921D01*
X18778810Y-13778968D01*
X18769286Y-13788492D01*
X18750238Y-13798016D01*
X18731190Y-13798016D01*
X18712143Y-13788492D01*
X18702619Y-13778968D01*
X18693095Y-13759921D01*
X18683571Y-13721826D01*
X18683571Y-13674207D01*
X18693095Y-13636111D01*
X18702619Y-13617064D01*
X18712143Y-13607540D01*
X18731190Y-13598016D01*
X18864524Y-13598016D02*
X18988333Y-13598016D01*
X18921667Y-13674207D01*
X18950238Y-13674207D01*
X18969286Y-13683730D01*
X18978810Y-13693254D01*
X18988333Y-13712302D01*
X18988333Y-13759921D01*
X18978810Y-13778968D01*
X18969286Y-13788492D01*
X18950238Y-13798016D01*
X18893095Y-13798016D01*
X18874048Y-13788492D01*
X18864524Y-13778968D01*
X19083571Y-13798016D02*
X19121667Y-13798016D01*
X19140714Y-13788492D01*
X19150238Y-13778968D01*
X19169286Y-13750397D01*
X19178810Y-13712302D01*
X19178810Y-13636111D01*
X19169286Y-13617064D01*
X19159762Y-13607540D01*
X19140714Y-13598016D01*
X19102619Y-13598016D01*
X19083571Y-13607540D01*
X19074048Y-13617064D01*
X19064524Y-13636111D01*
X19064524Y-13683730D01*
X19074048Y-13702778D01*
X19083571Y-13712302D01*
X19102619Y-13721826D01*
X19140714Y-13721826D01*
X19159762Y-13712302D01*
X19169286Y-13702778D01*
X19178810Y-13683730D01*
X19350238Y-13664683D02*
X19350238Y-13798016D01*
X19302619Y-13588492D02*
X19255000Y-13731349D01*
X19378810Y-13731349D01*
X19445476Y-13598016D02*
X19445476Y-13636111D01*
X19521667Y-13598016D02*
X19521667Y-13636111D01*
X19816905Y-13874207D02*
X19807381Y-13864683D01*
X19788333Y-13836111D01*
X19778810Y-13817064D01*
X19769286Y-13788492D01*
X19759762Y-13740873D01*
X19759762Y-13702778D01*
X19769286Y-13655159D01*
X19778810Y-13626588D01*
X19788333Y-13607540D01*
X19807381Y-13578968D01*
X19816905Y-13569445D01*
X19921667Y-13683730D02*
X19902619Y-13674207D01*
X19893095Y-13664683D01*
X19883571Y-13645635D01*
X19883571Y-13636111D01*
X19893095Y-13617064D01*
X19902619Y-13607540D01*
X19921667Y-13598016D01*
X19959762Y-13598016D01*
X19978810Y-13607540D01*
X19988333Y-13617064D01*
X19997857Y-13636111D01*
X19997857Y-13645635D01*
X19988333Y-13664683D01*
X19978810Y-13674207D01*
X19959762Y-13683730D01*
X19921667Y-13683730D01*
X19902619Y-13693254D01*
X19893095Y-13702778D01*
X19883571Y-13721826D01*
X19883571Y-13759921D01*
X19893095Y-13778968D01*
X19902619Y-13788492D01*
X19921667Y-13798016D01*
X19959762Y-13798016D01*
X19978810Y-13788492D01*
X19988333Y-13778968D01*
X19997857Y-13759921D01*
X19997857Y-13721826D01*
X19988333Y-13702778D01*
X19978810Y-13693254D01*
X19959762Y-13683730D01*
X20235952Y-13798016D02*
X20235952Y-13598016D01*
X20321667Y-13798016D02*
X20321667Y-13693254D01*
X20312143Y-13674207D01*
X20293095Y-13664683D01*
X20264524Y-13664683D01*
X20245476Y-13674207D01*
X20235952Y-13683730D01*
X20445476Y-13798016D02*
X20426429Y-13788492D01*
X20416905Y-13778968D01*
X20407381Y-13759921D01*
X20407381Y-13702778D01*
X20416905Y-13683730D01*
X20426429Y-13674207D01*
X20445476Y-13664683D01*
X20474048Y-13664683D01*
X20493095Y-13674207D01*
X20502619Y-13683730D01*
X20512143Y-13702778D01*
X20512143Y-13759921D01*
X20502619Y-13778968D01*
X20493095Y-13788492D01*
X20474048Y-13798016D01*
X20445476Y-13798016D01*
X20626429Y-13798016D02*
X20607381Y-13788492D01*
X20597857Y-13769445D01*
X20597857Y-13598016D01*
X20778810Y-13788492D02*
X20759762Y-13798016D01*
X20721667Y-13798016D01*
X20702619Y-13788492D01*
X20693095Y-13769445D01*
X20693095Y-13693254D01*
X20702619Y-13674207D01*
X20721667Y-13664683D01*
X20759762Y-13664683D01*
X20778810Y-13674207D01*
X20788333Y-13693254D01*
X20788333Y-13712302D01*
X20693095Y-13731349D01*
X20864524Y-13788492D02*
X20883571Y-13798016D01*
X20921667Y-13798016D01*
X20940714Y-13788492D01*
X20950238Y-13769445D01*
X20950238Y-13759921D01*
X20940714Y-13740873D01*
X20921667Y-13731349D01*
X20893095Y-13731349D01*
X20874048Y-13721826D01*
X20864524Y-13702778D01*
X20864524Y-13693254D01*
X20874048Y-13674207D01*
X20893095Y-13664683D01*
X20921667Y-13664683D01*
X20940714Y-13674207D01*
X21016905Y-13874207D02*
X21026429Y-13864683D01*
X21045476Y-13836111D01*
X21055000Y-13817064D01*
X21064524Y-13788492D01*
X21074048Y-13740873D01*
X21074048Y-13702778D01*
X21064524Y-13655159D01*
X21055000Y-13626588D01*
X21045476Y-13607540D01*
X21026429Y-13578968D01*
X21016905Y-13569445D01*
D13*
X16177500Y-13904040D02*
X16177500Y-14039040D01*
X16110000Y-13971540D02*
X16245000Y-13971540D01*
D11*
X16607381Y-14062016D02*
X16493095Y-14062016D01*
X16550238Y-14062016D02*
X16550238Y-13862016D01*
X16531190Y-13890588D01*
X16512143Y-13909635D01*
X16493095Y-13919159D01*
X16693095Y-14042968D02*
X16702619Y-14052492D01*
X16693095Y-14062016D01*
X16683571Y-14052492D01*
X16693095Y-14042968D01*
X16693095Y-14062016D01*
X16769286Y-13862016D02*
X16893095Y-13862016D01*
X16826429Y-13938207D01*
X16855000Y-13938207D01*
X16874048Y-13947730D01*
X16883571Y-13957254D01*
X16893095Y-13976302D01*
X16893095Y-14023921D01*
X16883571Y-14042968D01*
X16874048Y-14052492D01*
X16855000Y-14062016D01*
X16797857Y-14062016D01*
X16778810Y-14052492D01*
X16769286Y-14042968D01*
X17074048Y-13862016D02*
X16978810Y-13862016D01*
X16969286Y-13957254D01*
X16978810Y-13947730D01*
X16997857Y-13938207D01*
X17045476Y-13938207D01*
X17064524Y-13947730D01*
X17074048Y-13957254D01*
X17083571Y-13976302D01*
X17083571Y-14023921D01*
X17074048Y-14042968D01*
X17064524Y-14052492D01*
X17045476Y-14062016D01*
X16997857Y-14062016D01*
X16978810Y-14052492D01*
X16969286Y-14042968D01*
X17207381Y-13862016D02*
X17226429Y-13862016D01*
X17245476Y-13871540D01*
X17255000Y-13881064D01*
X17264524Y-13900111D01*
X17274048Y-13938207D01*
X17274048Y-13985826D01*
X17264524Y-14023921D01*
X17255000Y-14042968D01*
X17245476Y-14052492D01*
X17226429Y-14062016D01*
X17207381Y-14062016D01*
X17188333Y-14052492D01*
X17178810Y-14042968D01*
X17169286Y-14023921D01*
X17159762Y-13985826D01*
X17159762Y-13938207D01*
X17169286Y-13900111D01*
X17178810Y-13881064D01*
X17188333Y-13871540D01*
X17207381Y-13862016D01*
X17359762Y-14062016D02*
X17359762Y-13928683D01*
X17359762Y-13947730D02*
X17369286Y-13938207D01*
X17388333Y-13928683D01*
X17416905Y-13928683D01*
X17435952Y-13938207D01*
X17445476Y-13957254D01*
X17445476Y-14062016D01*
X17445476Y-13957254D02*
X17455000Y-13938207D01*
X17474048Y-13928683D01*
X17502619Y-13928683D01*
X17521667Y-13938207D01*
X17531190Y-13957254D01*
X17531190Y-14062016D01*
X17626429Y-14062016D02*
X17626429Y-13928683D01*
X17626429Y-13947730D02*
X17635952Y-13938207D01*
X17655000Y-13928683D01*
X17683571Y-13928683D01*
X17702619Y-13938207D01*
X17712143Y-13957254D01*
X17712143Y-14062016D01*
X17712143Y-13957254D02*
X17721667Y-13938207D01*
X17740714Y-13928683D01*
X17769286Y-13928683D01*
X17788333Y-13938207D01*
X17797857Y-13957254D01*
X17797857Y-14062016D01*
X18188333Y-13852492D02*
X18016905Y-14109635D01*
X18445476Y-13862016D02*
X18464524Y-13862016D01*
X18483571Y-13871540D01*
X18493095Y-13881064D01*
X18502619Y-13900111D01*
X18512143Y-13938207D01*
X18512143Y-13985826D01*
X18502619Y-14023921D01*
X18493095Y-14042968D01*
X18483571Y-14052492D01*
X18464524Y-14062016D01*
X18445476Y-14062016D01*
X18426429Y-14052492D01*
X18416905Y-14042968D01*
X18407381Y-14023921D01*
X18397857Y-13985826D01*
X18397857Y-13938207D01*
X18407381Y-13900111D01*
X18416905Y-13881064D01*
X18426429Y-13871540D01*
X18445476Y-13862016D01*
X18597857Y-14042968D02*
X18607381Y-14052492D01*
X18597857Y-14062016D01*
X18588333Y-14052492D01*
X18597857Y-14042968D01*
X18597857Y-14062016D01*
X18731190Y-13862016D02*
X18750238Y-13862016D01*
X18769286Y-13871540D01*
X18778810Y-13881064D01*
X18788333Y-13900111D01*
X18797857Y-13938207D01*
X18797857Y-13985826D01*
X18788333Y-14023921D01*
X18778810Y-14042968D01*
X18769286Y-14052492D01*
X18750238Y-14062016D01*
X18731190Y-14062016D01*
X18712143Y-14052492D01*
X18702619Y-14042968D01*
X18693095Y-14023921D01*
X18683571Y-13985826D01*
X18683571Y-13938207D01*
X18693095Y-13900111D01*
X18702619Y-13881064D01*
X18712143Y-13871540D01*
X18731190Y-13862016D01*
X18978810Y-13862016D02*
X18883571Y-13862016D01*
X18874048Y-13957254D01*
X18883571Y-13947730D01*
X18902619Y-13938207D01*
X18950238Y-13938207D01*
X18969286Y-13947730D01*
X18978810Y-13957254D01*
X18988333Y-13976302D01*
X18988333Y-14023921D01*
X18978810Y-14042968D01*
X18969286Y-14052492D01*
X18950238Y-14062016D01*
X18902619Y-14062016D01*
X18883571Y-14052492D01*
X18874048Y-14042968D01*
X19055000Y-13862016D02*
X19178810Y-13862016D01*
X19112143Y-13938207D01*
X19140714Y-13938207D01*
X19159762Y-13947730D01*
X19169286Y-13957254D01*
X19178810Y-13976302D01*
X19178810Y-14023921D01*
X19169286Y-14042968D01*
X19159762Y-14052492D01*
X19140714Y-14062016D01*
X19083571Y-14062016D01*
X19064524Y-14052492D01*
X19055000Y-14042968D01*
X19369286Y-14062016D02*
X19255000Y-14062016D01*
X19312143Y-14062016D02*
X19312143Y-13862016D01*
X19293095Y-13890588D01*
X19274048Y-13909635D01*
X19255000Y-13919159D01*
X19445476Y-13862016D02*
X19445476Y-13900111D01*
X19521667Y-13862016D02*
X19521667Y-13900111D01*
X19816905Y-14138207D02*
X19807381Y-14128683D01*
X19788333Y-14100111D01*
X19778810Y-14081064D01*
X19769286Y-14052492D01*
X19759762Y-14004873D01*
X19759762Y-13966778D01*
X19769286Y-13919159D01*
X19778810Y-13890588D01*
X19788333Y-13871540D01*
X19807381Y-13842968D01*
X19816905Y-13833445D01*
X19978810Y-13928683D02*
X19978810Y-14062016D01*
X19931190Y-13852492D02*
X19883571Y-13995349D01*
X20007381Y-13995349D01*
X20235952Y-14062016D02*
X20235952Y-13862016D01*
X20321667Y-14062016D02*
X20321667Y-13957254D01*
X20312143Y-13938207D01*
X20293095Y-13928683D01*
X20264524Y-13928683D01*
X20245476Y-13938207D01*
X20235952Y-13947730D01*
X20445476Y-14062016D02*
X20426429Y-14052492D01*
X20416905Y-14042968D01*
X20407381Y-14023921D01*
X20407381Y-13966778D01*
X20416905Y-13947730D01*
X20426429Y-13938207D01*
X20445476Y-13928683D01*
X20474048Y-13928683D01*
X20493095Y-13938207D01*
X20502619Y-13947730D01*
X20512143Y-13966778D01*
X20512143Y-14023921D01*
X20502619Y-14042968D01*
X20493095Y-14052492D01*
X20474048Y-14062016D01*
X20445476Y-14062016D01*
X20626429Y-14062016D02*
X20607381Y-14052492D01*
X20597857Y-14033445D01*
X20597857Y-13862016D01*
X20778810Y-14052492D02*
X20759762Y-14062016D01*
X20721667Y-14062016D01*
X20702619Y-14052492D01*
X20693095Y-14033445D01*
X20693095Y-13957254D01*
X20702619Y-13938207D01*
X20721667Y-13928683D01*
X20759762Y-13928683D01*
X20778810Y-13938207D01*
X20788333Y-13957254D01*
X20788333Y-13976302D01*
X20693095Y-13995349D01*
X20864524Y-14052492D02*
X20883571Y-14062016D01*
X20921667Y-14062016D01*
X20940714Y-14052492D01*
X20950238Y-14033445D01*
X20950238Y-14023921D01*
X20940714Y-14004873D01*
X20921667Y-13995349D01*
X20893095Y-13995349D01*
X20874048Y-13985826D01*
X20864524Y-13966778D01*
X20864524Y-13957254D01*
X20874048Y-13938207D01*
X20893095Y-13928683D01*
X20921667Y-13928683D01*
X20940714Y-13938207D01*
X21016905Y-14138207D02*
X21026429Y-14128683D01*
X21045476Y-14100111D01*
X21055000Y-14081064D01*
X21064524Y-14052492D01*
X21074048Y-14004873D01*
X21074048Y-13966778D01*
X21064524Y-13919159D01*
X21055000Y-13890588D01*
X21045476Y-13871540D01*
X21026429Y-13842968D01*
X21016905Y-13833445D01*
M02*
