G04 #@! TF.GenerationSoftware,KiCad,Pcbnew,6.0.10+dfsg-1~bpo11+1*
G04 #@! TF.ProjectId,project,70726f6a-6563-4742-9e6b-696361645f70,rev?*
G04 #@! TF.SameCoordinates,Original*
G04 #@! TF.FileFunction,Legend,Top*
G04 #@! TF.FilePolarity,Positive*
%FSLAX46Y46*%
G04 Gerber Fmt 4.6, Leading zero omitted, Abs format (unit mm)*
%MOMM*%
%LPD*%
G01*
G04 APERTURE LIST*
G04 #@! TA.AperFunction,Profile*
%ADD10C,0.100000*%
G04 #@! TD*
%ADD11C,0.150000*%
%ADD12C,0.120000*%
%ADD13O,2.000000X1.000000*%
%ADD14C,2.200000*%
%ADD15C,1.700000*%
G04 APERTURE END LIST*
D10*
X164500000Y-130000000D02*
X180500000Y-130000000D01*
X182500000Y-128000000D02*
X182500000Y-102000000D01*
X162500000Y-102000000D02*
X162500000Y-128000000D01*
X164500000Y-100000000D02*
G75*
G03*
X162500000Y-102000000I0J-2000000D01*
G01*
X162500000Y-128000000D02*
G75*
G03*
X164500000Y-130000000I2000000J0D01*
G01*
X182500000Y-102000000D02*
G75*
G03*
X180500000Y-100000000I-2000000J0D01*
G01*
X180500000Y-100000000D02*
X164500000Y-100000000D01*
X180500000Y-130000000D02*
G75*
G03*
X182500000Y-128000000I0J2000000D01*
G01*
D11*
X166336190Y-107633904D02*
X166069523Y-107252952D01*
X165879047Y-107633904D02*
X165879047Y-106833904D01*
X166183809Y-106833904D01*
X166260000Y-106872000D01*
X166298095Y-106910095D01*
X166336190Y-106986285D01*
X166336190Y-107100571D01*
X166298095Y-107176761D01*
X166260000Y-107214857D01*
X166183809Y-107252952D01*
X165879047Y-107252952D01*
X166640952Y-107595809D02*
X166755238Y-107633904D01*
X166945714Y-107633904D01*
X167021904Y-107595809D01*
X167060000Y-107557714D01*
X167098095Y-107481523D01*
X167098095Y-107405333D01*
X167060000Y-107329142D01*
X167021904Y-107291047D01*
X166945714Y-107252952D01*
X166793333Y-107214857D01*
X166717142Y-107176761D01*
X166679047Y-107138666D01*
X166640952Y-107062476D01*
X166640952Y-106986285D01*
X166679047Y-106910095D01*
X166717142Y-106872000D01*
X166793333Y-106833904D01*
X166983809Y-106833904D01*
X167098095Y-106872000D01*
X167326666Y-106833904D02*
X167783809Y-106833904D01*
X167555238Y-107633904D02*
X167555238Y-106833904D01*
X165726666Y-108693333D02*
X166107619Y-108693333D01*
X165650476Y-108921904D02*
X165917142Y-108121904D01*
X166183809Y-108921904D01*
X166450476Y-108921904D02*
X166450476Y-108121904D01*
X166640952Y-108121904D01*
X166755238Y-108160000D01*
X166831428Y-108236190D01*
X166869523Y-108312380D01*
X166907619Y-108464761D01*
X166907619Y-108579047D01*
X166869523Y-108731428D01*
X166831428Y-108807619D01*
X166755238Y-108883809D01*
X166640952Y-108921904D01*
X166450476Y-108921904D01*
X167707619Y-108845714D02*
X167669523Y-108883809D01*
X167555238Y-108921904D01*
X167479047Y-108921904D01*
X167364761Y-108883809D01*
X167288571Y-108807619D01*
X167250476Y-108731428D01*
X167212380Y-108579047D01*
X167212380Y-108464761D01*
X167250476Y-108312380D01*
X167288571Y-108236190D01*
X167364761Y-108160000D01*
X167479047Y-108121904D01*
X167555238Y-108121904D01*
X167669523Y-108160000D01*
X167707619Y-108198095D01*
X165269523Y-111078857D02*
X165536190Y-111078857D01*
X165650476Y-111497904D02*
X165269523Y-111497904D01*
X165269523Y-110697904D01*
X165650476Y-110697904D01*
X165993333Y-111497904D02*
X165993333Y-110697904D01*
X166450476Y-111497904D01*
X166450476Y-110697904D01*
X166945714Y-114073904D02*
X166488571Y-114073904D01*
X166717142Y-114073904D02*
X166717142Y-113273904D01*
X166640952Y-113388190D01*
X166564761Y-113464380D01*
X166488571Y-113502476D01*
X167631428Y-113273904D02*
X167479047Y-113273904D01*
X167402857Y-113312000D01*
X167364761Y-113350095D01*
X167288571Y-113464380D01*
X167250476Y-113616761D01*
X167250476Y-113921523D01*
X167288571Y-113997714D01*
X167326666Y-114035809D01*
X167402857Y-114073904D01*
X167555238Y-114073904D01*
X167631428Y-114035809D01*
X167669523Y-113997714D01*
X167707619Y-113921523D01*
X167707619Y-113731047D01*
X167669523Y-113654857D01*
X167631428Y-113616761D01*
X167555238Y-113578666D01*
X167402857Y-113578666D01*
X167326666Y-113616761D01*
X167288571Y-113654857D01*
X167250476Y-113731047D01*
X166945714Y-116649904D02*
X166488571Y-116649904D01*
X166717142Y-116649904D02*
X166717142Y-115849904D01*
X166640952Y-115964190D01*
X166564761Y-116040380D01*
X166488571Y-116078476D01*
X167631428Y-116116571D02*
X167631428Y-116649904D01*
X167440952Y-115811809D02*
X167250476Y-116383238D01*
X167745714Y-116383238D01*
X166945714Y-119225904D02*
X166488571Y-119225904D01*
X166717142Y-119225904D02*
X166717142Y-118425904D01*
X166640952Y-118540190D01*
X166564761Y-118616380D01*
X166488571Y-118654476D01*
X167250476Y-118502095D02*
X167288571Y-118464000D01*
X167364761Y-118425904D01*
X167555238Y-118425904D01*
X167631428Y-118464000D01*
X167669523Y-118502095D01*
X167707619Y-118578285D01*
X167707619Y-118654476D01*
X167669523Y-118768761D01*
X167212380Y-119225904D01*
X167707619Y-119225904D01*
X166945714Y-121801904D02*
X166488571Y-121801904D01*
X166717142Y-121801904D02*
X166717142Y-121001904D01*
X166640952Y-121116190D01*
X166564761Y-121192380D01*
X166488571Y-121230476D01*
X167212380Y-121001904D02*
X167707619Y-121001904D01*
X167440952Y-121306666D01*
X167555238Y-121306666D01*
X167631428Y-121344761D01*
X167669523Y-121382857D01*
X167707619Y-121459047D01*
X167707619Y-121649523D01*
X167669523Y-121725714D01*
X167631428Y-121763809D01*
X167555238Y-121801904D01*
X167326666Y-121801904D01*
X167250476Y-121763809D01*
X167212380Y-121725714D01*
X165879047Y-123577904D02*
X166145714Y-124377904D01*
X166412380Y-123577904D01*
X167021904Y-124339809D02*
X166945714Y-124377904D01*
X166793333Y-124377904D01*
X166717142Y-124339809D01*
X166679047Y-124301714D01*
X166640952Y-124225523D01*
X166640952Y-123996952D01*
X166679047Y-123920761D01*
X166717142Y-123882666D01*
X166793333Y-123844571D01*
X166945714Y-123844571D01*
X167021904Y-123882666D01*
X167707619Y-124339809D02*
X167631428Y-124377904D01*
X167479047Y-124377904D01*
X167402857Y-124339809D01*
X167364761Y-124301714D01*
X167326666Y-124225523D01*
X167326666Y-123996952D01*
X167364761Y-123920761D01*
X167402857Y-123882666D01*
X167479047Y-123844571D01*
X167631428Y-123844571D01*
X167707619Y-123882666D01*
X177251190Y-105545904D02*
X177708333Y-105545904D01*
X177479761Y-106345904D02*
X177479761Y-105545904D01*
X177898809Y-105545904D02*
X178432142Y-106345904D01*
X178432142Y-105545904D02*
X177898809Y-106345904D01*
X177822619Y-108921904D02*
X177555952Y-108540952D01*
X177365476Y-108921904D02*
X177365476Y-108121904D01*
X177670238Y-108121904D01*
X177746428Y-108160000D01*
X177784523Y-108198095D01*
X177822619Y-108274285D01*
X177822619Y-108388571D01*
X177784523Y-108464761D01*
X177746428Y-108502857D01*
X177670238Y-108540952D01*
X177365476Y-108540952D01*
X178089285Y-108121904D02*
X178622619Y-108921904D01*
X178622619Y-108121904D02*
X178089285Y-108921904D01*
X177746428Y-110697904D02*
X177365476Y-110697904D01*
X177327380Y-111078857D01*
X177365476Y-111040761D01*
X177441666Y-111002666D01*
X177632142Y-111002666D01*
X177708333Y-111040761D01*
X177746428Y-111078857D01*
X177784523Y-111155047D01*
X177784523Y-111345523D01*
X177746428Y-111421714D01*
X177708333Y-111459809D01*
X177632142Y-111497904D01*
X177441666Y-111497904D01*
X177365476Y-111459809D01*
X177327380Y-111421714D01*
X177708333Y-113540571D02*
X177708333Y-114073904D01*
X177517857Y-113235809D02*
X177327380Y-113807238D01*
X177822619Y-113807238D01*
X177517857Y-115849904D02*
X177594047Y-115849904D01*
X177670238Y-115888000D01*
X177708333Y-115926095D01*
X177746428Y-116002285D01*
X177784523Y-116154666D01*
X177784523Y-116345142D01*
X177746428Y-116497523D01*
X177708333Y-116573714D01*
X177670238Y-116611809D01*
X177594047Y-116649904D01*
X177517857Y-116649904D01*
X177441666Y-116611809D01*
X177403571Y-116573714D01*
X177365476Y-116497523D01*
X177327380Y-116345142D01*
X177327380Y-116154666D01*
X177365476Y-116002285D01*
X177403571Y-115926095D01*
X177441666Y-115888000D01*
X177517857Y-115849904D01*
X177327380Y-118502095D02*
X177365476Y-118464000D01*
X177441666Y-118425904D01*
X177632142Y-118425904D01*
X177708333Y-118464000D01*
X177746428Y-118502095D01*
X177784523Y-118578285D01*
X177784523Y-118654476D01*
X177746428Y-118768761D01*
X177289285Y-119225904D01*
X177784523Y-119225904D01*
X177784523Y-121801904D02*
X177327380Y-121801904D01*
X177555952Y-121801904D02*
X177555952Y-121001904D01*
X177479761Y-121116190D01*
X177403571Y-121192380D01*
X177327380Y-121230476D01*
X178508333Y-121001904D02*
X178127380Y-121001904D01*
X178089285Y-121382857D01*
X178127380Y-121344761D01*
X178203571Y-121306666D01*
X178394047Y-121306666D01*
X178470238Y-121344761D01*
X178508333Y-121382857D01*
X178546428Y-121459047D01*
X178546428Y-121649523D01*
X178508333Y-121725714D01*
X178470238Y-121763809D01*
X178394047Y-121801904D01*
X178203571Y-121801904D01*
X178127380Y-121763809D01*
X178089285Y-121725714D01*
X177784523Y-123616000D02*
X177708333Y-123577904D01*
X177594047Y-123577904D01*
X177479761Y-123616000D01*
X177403571Y-123692190D01*
X177365476Y-123768380D01*
X177327380Y-123920761D01*
X177327380Y-124035047D01*
X177365476Y-124187428D01*
X177403571Y-124263619D01*
X177479761Y-124339809D01*
X177594047Y-124377904D01*
X177670238Y-124377904D01*
X177784523Y-124339809D01*
X177822619Y-124301714D01*
X177822619Y-124035047D01*
X177670238Y-124035047D01*
X178165476Y-124377904D02*
X178165476Y-123577904D01*
X178622619Y-124377904D01*
X178622619Y-123577904D01*
X179003571Y-124377904D02*
X179003571Y-123577904D01*
X179194047Y-123577904D01*
X179308333Y-123616000D01*
X179384523Y-123692190D01*
X179422619Y-123768380D01*
X179460714Y-123920761D01*
X179460714Y-124035047D01*
X179422619Y-124187428D01*
X179384523Y-124263619D01*
X179308333Y-124339809D01*
X179194047Y-124377904D01*
X179003571Y-124377904D01*
X161342380Y-126884404D02*
X162151904Y-126884404D01*
X162247142Y-126836785D01*
X162294761Y-126789166D01*
X162342380Y-126693928D01*
X162342380Y-126503452D01*
X162294761Y-126408214D01*
X162247142Y-126360595D01*
X162151904Y-126312976D01*
X161342380Y-126312976D01*
X162342380Y-125312976D02*
X162342380Y-125884404D01*
X162342380Y-125598690D02*
X161342380Y-125598690D01*
X161485238Y-125693928D01*
X161580476Y-125789166D01*
X161628095Y-125884404D01*
D12*
X181620000Y-127572500D02*
X180620000Y-127572500D01*
X181620000Y-126792500D02*
X181620000Y-127572500D01*
X163380000Y-126792500D02*
X163380000Y-127572500D01*
X163380000Y-108247500D02*
X163000000Y-108247500D01*
X163380000Y-101832500D02*
X181620000Y-101832500D01*
X163380000Y-101832500D02*
X163380000Y-108247500D01*
X181620000Y-101832500D02*
X181620000Y-108247500D01*
X163380000Y-127572500D02*
X164380000Y-127572500D01*
G36*
X181619295Y-101442926D02*
G01*
X182045257Y-101674763D01*
X182021462Y-102646630D01*
X181997666Y-103618497D01*
X181194762Y-104059689D01*
X180356296Y-103603339D01*
X179502440Y-104074333D01*
X179500508Y-104540000D01*
X179498575Y-105005666D01*
X179073924Y-105230391D01*
X178649272Y-105455115D01*
X177383123Y-104764724D01*
X176116975Y-104074333D01*
X176115154Y-103562038D01*
X176113815Y-103185333D01*
X178484000Y-103185333D01*
X178765427Y-103185333D01*
X178907873Y-103178256D01*
X179005126Y-103134867D01*
X179082219Y-103021929D01*
X179164186Y-102806205D01*
X179247640Y-102545104D01*
X179348978Y-102239860D01*
X179437988Y-102003481D01*
X179498674Y-101877643D01*
X179507325Y-101868473D01*
X179559519Y-101925508D01*
X179648137Y-102109023D01*
X179757282Y-102384450D01*
X179801766Y-102508702D01*
X179919082Y-102837342D01*
X180006330Y-103037477D01*
X180087853Y-103140954D01*
X180187997Y-103179621D01*
X180318987Y-103185333D01*
X180600666Y-103185333D01*
X180600666Y-100899333D01*
X180074690Y-100899333D01*
X180135467Y-101682500D01*
X180156467Y-102015334D01*
X180162989Y-102266572D01*
X180154674Y-102402300D01*
X180143244Y-102415066D01*
X180091922Y-102315030D01*
X180006157Y-102098671D01*
X179903589Y-101810789D01*
X179893179Y-101780066D01*
X179753409Y-101416521D01*
X179629647Y-101218486D01*
X179513063Y-101183968D01*
X179394825Y-101310975D01*
X179266101Y-101597516D01*
X179252093Y-101635468D01*
X179110194Y-102016194D01*
X179015412Y-102237516D01*
X178960917Y-102300543D01*
X178939880Y-102206382D01*
X178945471Y-101956139D01*
X178961980Y-101682500D01*
X179013841Y-100899333D01*
X178484000Y-100899333D01*
X178484000Y-103185333D01*
X176113815Y-103185333D01*
X176113333Y-103049742D01*
X176498699Y-102862517D01*
X176709474Y-102744233D01*
X176829816Y-102645099D01*
X176841456Y-102606349D01*
X176743796Y-102531970D01*
X176548441Y-102426272D01*
X176456090Y-102382844D01*
X176113333Y-102228282D01*
X176114045Y-101246308D01*
X176114758Y-100264333D01*
X176541268Y-100038618D01*
X176967778Y-99812902D01*
X177323722Y-100016431D01*
X177544429Y-100135892D01*
X177703338Y-100209633D01*
X177743166Y-100220980D01*
X177778786Y-100145197D01*
X177802202Y-99949444D01*
X177807501Y-99777500D01*
X177808335Y-99333000D01*
X178590667Y-98909666D01*
X178927759Y-98732284D01*
X179218272Y-98588645D01*
X179424817Y-98496715D01*
X179500000Y-98472686D01*
X179623164Y-98506497D01*
X179855769Y-98608581D01*
X180161039Y-98761802D01*
X180408502Y-98896020D01*
X181190003Y-99333000D01*
X181192780Y-100899333D01*
X181193333Y-101211088D01*
X181619295Y-101442926D01*
G37*
G36*
X169488126Y-130048989D02*
G01*
X169306615Y-129993929D01*
X169139333Y-129904514D01*
X168992709Y-129784183D01*
X168872378Y-129637559D01*
X168782964Y-129470277D01*
X168727903Y-129288766D01*
X168709311Y-129100000D01*
X168727903Y-128911234D01*
X168782964Y-128729723D01*
X168788696Y-128719000D01*
X169677091Y-128719000D01*
X169727767Y-128884720D01*
X169779782Y-129043743D01*
X169833137Y-129196069D01*
X169887831Y-129341697D01*
X169961253Y-129523333D01*
X170033881Y-129688830D01*
X170105716Y-129838188D01*
X170350984Y-129838188D01*
X170424009Y-129688830D01*
X170500209Y-129523333D01*
X170579584Y-129341697D01*
X170638967Y-129196069D01*
X170695670Y-129043743D01*
X170749695Y-128884720D01*
X170801041Y-128719000D01*
X170503384Y-128719000D01*
X170478679Y-128812464D01*
X170447425Y-128911881D01*
X170412302Y-129014573D01*
X170375987Y-129117859D01*
X170338780Y-129219955D01*
X170300978Y-129319075D01*
X170231922Y-129497669D01*
X170166437Y-129319075D01*
X170132207Y-129219955D01*
X170098572Y-129117859D01*
X170066127Y-129014573D01*
X170035469Y-128911881D01*
X170007787Y-128812464D01*
X169984272Y-128719000D01*
X169677091Y-128719000D01*
X168788696Y-128719000D01*
X168872378Y-128562441D01*
X168902187Y-128526119D01*
X170936772Y-128526119D01*
X171082028Y-128730906D01*
X171232047Y-128618988D01*
X171377303Y-128585650D01*
X171515416Y-128634466D01*
X171570184Y-128773769D01*
X171526131Y-128899975D01*
X171414213Y-129028563D01*
X171343966Y-129096726D01*
X171268956Y-129167866D01*
X171193947Y-129243470D01*
X171123700Y-129325028D01*
X171061787Y-129413432D01*
X171011781Y-129509575D01*
X170978741Y-129614350D01*
X170967728Y-129728650D01*
X170966537Y-129778656D01*
X170972491Y-129838188D01*
X171934516Y-129838188D01*
X171934516Y-129650069D01*
X172408384Y-129650069D01*
X172426244Y-129741747D01*
X172473869Y-129808422D01*
X172541734Y-129850094D01*
X172622697Y-129864381D01*
X172770334Y-129809613D01*
X172834628Y-129650069D01*
X172770334Y-129495288D01*
X172622697Y-129440519D01*
X172541734Y-129454806D01*
X172473869Y-129495288D01*
X172426244Y-129560772D01*
X172408384Y-129650069D01*
X171934516Y-129650069D01*
X171934516Y-129595300D01*
X171301103Y-129595300D01*
X171326106Y-129516719D01*
X171386828Y-129432184D01*
X171463028Y-129351222D01*
X171534466Y-129283356D01*
X171655909Y-129164294D01*
X171711472Y-129097619D01*
X173298972Y-129097619D01*
X173307157Y-129280380D01*
X173331714Y-129438138D01*
X173372642Y-129570892D01*
X173429941Y-129678644D01*
X173530482Y-129784477D01*
X173657482Y-129847977D01*
X173810941Y-129869144D01*
X173964399Y-129847977D01*
X174091399Y-129784477D01*
X174191941Y-129678644D01*
X174249239Y-129570892D01*
X174290167Y-129438138D01*
X174314724Y-129280380D01*
X174322909Y-129097619D01*
X174314724Y-128915974D01*
X174290167Y-128759184D01*
X174249239Y-128627247D01*
X174191941Y-128520166D01*
X174091399Y-128414994D01*
X173964399Y-128351891D01*
X173810941Y-128330856D01*
X173659864Y-128352023D01*
X173533657Y-128415523D01*
X173432322Y-128521356D01*
X173373981Y-128628810D01*
X173332309Y-128760672D01*
X173307306Y-128916941D01*
X173298972Y-129097619D01*
X171711472Y-129097619D01*
X171763066Y-129035706D01*
X171839266Y-128898784D01*
X171867841Y-128752338D01*
X171829741Y-128567791D01*
X171727347Y-128435631D01*
X171579709Y-128357050D01*
X171405878Y-128330856D01*
X171281755Y-128342763D01*
X171157037Y-128378481D01*
X171039463Y-128439203D01*
X170936772Y-128526119D01*
X168902187Y-128526119D01*
X168992709Y-128415817D01*
X169139333Y-128295486D01*
X169306615Y-128206071D01*
X169488126Y-128151011D01*
X169676892Y-128132419D01*
X174323108Y-128132419D01*
X174511874Y-128151011D01*
X174693385Y-128206071D01*
X174860667Y-128295486D01*
X175007291Y-128415817D01*
X175127622Y-128562441D01*
X175217036Y-128729723D01*
X175272097Y-128911234D01*
X175290689Y-129100000D01*
X175272097Y-129288766D01*
X175217036Y-129470277D01*
X175127622Y-129637559D01*
X175007291Y-129784183D01*
X174860667Y-129904514D01*
X174693385Y-129993929D01*
X174511874Y-130048989D01*
X174323108Y-130067581D01*
X169676892Y-130067581D01*
X169488126Y-130048989D01*
G37*
G36*
X173810941Y-129616731D02*
G01*
X173705570Y-129583691D01*
X173627584Y-129484572D01*
X173591866Y-129382840D01*
X173570434Y-129253855D01*
X173563291Y-129097619D01*
X173564389Y-129073806D01*
X173679972Y-129073806D01*
X173715691Y-129184534D01*
X173813322Y-129230969D01*
X173907381Y-129184534D01*
X173944291Y-129073806D01*
X173907381Y-128961888D01*
X173813322Y-128914263D01*
X173715691Y-128961888D01*
X173679972Y-129073806D01*
X173564389Y-129073806D01*
X173570434Y-128942705D01*
X173591866Y-128814515D01*
X173627584Y-128713047D01*
X173705570Y-128613927D01*
X173810941Y-128580888D01*
X173917799Y-128613927D01*
X173995487Y-128713047D01*
X174030545Y-128814515D01*
X174051579Y-128942705D01*
X174058591Y-129097619D01*
X174051579Y-129253855D01*
X174030545Y-129382840D01*
X173995487Y-129484572D01*
X173917799Y-129583691D01*
X173813322Y-129615995D01*
X173810941Y-129616731D01*
G37*
X169267500Y-117050000D02*
X167957500Y-117050000D01*
X177077500Y-100900000D02*
X177077500Y-129100000D01*
X166567500Y-105610000D02*
X166567500Y-106610000D01*
X167567500Y-106110000D02*
X166567500Y-105610000D01*
X167957500Y-129100000D02*
X167957500Y-100900000D01*
X169267500Y-127800000D02*
X169267500Y-117050000D01*
X167957500Y-100900000D02*
X177077500Y-100900000D01*
X175767500Y-102200000D02*
X175767500Y-127800000D01*
X175767500Y-127800000D02*
X169267500Y-127800000D01*
X169267500Y-102200000D02*
X175767500Y-102200000D01*
X167957500Y-112950000D02*
X169267500Y-112950000D01*
X169267500Y-117050000D02*
X169267500Y-117050000D01*
X166567500Y-106610000D02*
X167567500Y-106110000D01*
X177077500Y-129100000D02*
X167957500Y-129100000D01*
X169267500Y-112950000D02*
X169267500Y-102200000D01*
%LPC*%
D13*
X164150000Y-109442500D03*
X164150000Y-110712500D03*
X164150000Y-111982500D03*
X164150000Y-113252500D03*
X164150000Y-114522500D03*
X164150000Y-115792500D03*
X164150000Y-117062500D03*
X164150000Y-118332500D03*
X164150000Y-119602500D03*
X164150000Y-120872500D03*
X164150000Y-122142500D03*
X164150000Y-123412500D03*
X164150000Y-124682500D03*
X164150000Y-125952500D03*
X180850000Y-125952500D03*
X180850000Y-124682500D03*
X180850000Y-123412500D03*
X180850000Y-122142500D03*
X180850000Y-120872500D03*
X180850000Y-119602500D03*
X180850000Y-118332500D03*
X180850000Y-117062500D03*
X180850000Y-115792500D03*
X180850000Y-114522500D03*
X180850000Y-113252500D03*
X180850000Y-111982500D03*
X180850000Y-110712500D03*
X180850000Y-109442500D03*
D14*
X164500000Y-105000000D03*
X180500000Y-105000000D03*
G36*
G01*
X170397500Y-106710000D02*
X170397500Y-105510000D01*
G75*
G02*
X170647500Y-105260000I250000J0D01*
G01*
X171847500Y-105260000D01*
G75*
G02*
X172097500Y-105510000I0J-250000D01*
G01*
X172097500Y-106710000D01*
G75*
G02*
X171847500Y-106960000I-250000J0D01*
G01*
X170647500Y-106960000D01*
G75*
G02*
X170397500Y-106710000I0J250000D01*
G01*
G37*
D15*
X173787500Y-106110000D03*
X171247500Y-108650000D03*
X173787500Y-108650000D03*
X171247500Y-111190000D03*
X173787500Y-111190000D03*
X171247500Y-113730000D03*
X173787500Y-113730000D03*
X171247500Y-116270000D03*
X173787500Y-116270000D03*
X171247500Y-118810000D03*
X173787500Y-118810000D03*
X171247500Y-121350000D03*
X173787500Y-121350000D03*
X171247500Y-123890000D03*
X173787500Y-123890000D03*
M02*
