G04 #@! TF.GenerationSoftware,KiCad,Pcbnew,6.0.10+dfsg-1~bpo11+1*
G04 #@! TF.ProjectId,project,70726f6a-6563-4742-9e6b-696361645f70,rev?*
G04 #@! TF.SameCoordinates,Original*
G04 #@! TF.FileFunction,Copper,L2,Bot*
G04 #@! TF.FilePolarity,Positive*
%FSLAX46Y46*%
G04 Gerber Fmt 4.6, Leading zero omitted, Abs format (unit mm)*
%MOMM*%
%LPD*%
G01*
G04 APERTURE LIST*
G04 #@! TA.AperFunction,Profile*
%ADD10C,0.100000*%
G04 #@! TD*
G04 #@! TA.AperFunction,ComponentPad*
%ADD11O,2.000000X1.000000*%
G04 #@! TD*
G04 #@! TA.AperFunction,ComponentPad*
%ADD12C,1.700000*%
G04 #@! TD*
G04 #@! TA.AperFunction,ViaPad*
%ADD13C,1.500000*%
G04 #@! TD*
G04 #@! TA.AperFunction,Conductor*
%ADD14C,1.500000*%
G04 #@! TD*
G04 APERTURE END LIST*
D10*
X164500000Y-130000000D02*
X180500000Y-130000000D01*
X182500000Y-128000000D02*
X182500000Y-102000000D01*
X162500000Y-102000000D02*
X162500000Y-128000000D01*
X164500000Y-100000000D02*
G75*
G03*
X162500000Y-102000000I0J-2000000D01*
G01*
X162500000Y-128000000D02*
G75*
G03*
X164500000Y-130000000I2000000J0D01*
G01*
X182500000Y-102000000D02*
G75*
G03*
X180500000Y-100000000I-2000000J0D01*
G01*
X180500000Y-100000000D02*
X164500000Y-100000000D01*
X180500000Y-130000000D02*
G75*
G03*
X182500000Y-128000000I0J2000000D01*
G01*
D11*
X164150000Y-109442500D03*
X164150000Y-110712500D03*
X164150000Y-111982500D03*
X164150000Y-113252500D03*
X164150000Y-114522500D03*
X164150000Y-115792500D03*
X164150000Y-117062500D03*
X164150000Y-118332500D03*
X164150000Y-119602500D03*
X164150000Y-120872500D03*
X164150000Y-122142500D03*
X164150000Y-123412500D03*
X164150000Y-124682500D03*
X164150000Y-125952500D03*
X180850000Y-125952500D03*
X180850000Y-124682500D03*
X180850000Y-123412500D03*
X180850000Y-122142500D03*
X180850000Y-120872500D03*
X180850000Y-119602500D03*
X180850000Y-118332500D03*
X180850000Y-117062500D03*
X180850000Y-115792500D03*
X180850000Y-114522500D03*
X180850000Y-113252500D03*
X180850000Y-111982500D03*
X180850000Y-110712500D03*
X180850000Y-109442500D03*
G04 #@! TA.AperFunction,ComponentPad*
G36*
G01*
X170397500Y-106710000D02*
X170397500Y-105510000D01*
G75*
G02*
X170647500Y-105260000I250000J0D01*
G01*
X171847500Y-105260000D01*
G75*
G02*
X172097500Y-105510000I0J-250000D01*
G01*
X172097500Y-106710000D01*
G75*
G02*
X171847500Y-106960000I-250000J0D01*
G01*
X170647500Y-106960000D01*
G75*
G02*
X170397500Y-106710000I0J250000D01*
G01*
G37*
G04 #@! TD.AperFunction*
D12*
X173787500Y-106110000D03*
X171247500Y-108650000D03*
X173787500Y-108650000D03*
X171247500Y-111190000D03*
X173787500Y-111190000D03*
X171247500Y-113730000D03*
X173787500Y-113730000D03*
X171247500Y-116270000D03*
X173787500Y-116270000D03*
X171247500Y-118810000D03*
X173787500Y-118810000D03*
X171247500Y-121350000D03*
X173787500Y-121350000D03*
X171247500Y-123890000D03*
X173787500Y-123890000D03*
D13*
X168500000Y-118000000D03*
X167000000Y-111000000D03*
D14*
X168500000Y-112500000D02*
X168500000Y-118000000D01*
X167000000Y-111000000D02*
X168500000Y-112500000D01*
G04 #@! TA.AperFunction,Conductor*
G36*
X180478274Y-100402051D02*
G01*
X180500000Y-100405492D01*
X180509793Y-100403941D01*
X180516150Y-100403941D01*
X180536131Y-100403084D01*
X180698466Y-100414695D01*
X180718642Y-100416138D01*
X180736436Y-100418696D01*
X180941826Y-100463376D01*
X180959074Y-100468440D01*
X181156015Y-100541896D01*
X181172367Y-100549364D01*
X181356847Y-100650097D01*
X181371971Y-100659817D01*
X181540239Y-100785781D01*
X181553825Y-100797554D01*
X181702446Y-100946175D01*
X181714219Y-100959761D01*
X181840183Y-101128029D01*
X181849903Y-101143153D01*
X181950636Y-101327633D01*
X181958104Y-101343985D01*
X182031560Y-101540926D01*
X182036625Y-101558176D01*
X182081304Y-101763564D01*
X182083862Y-101781358D01*
X182096916Y-101963869D01*
X182096059Y-101983850D01*
X182096059Y-101990207D01*
X182094508Y-102000000D01*
X182096059Y-102009793D01*
X182097949Y-102021726D01*
X182099500Y-102041436D01*
X182099500Y-104307915D01*
X182079498Y-104376036D01*
X182025842Y-104422529D01*
X181955568Y-104432633D01*
X181890988Y-104403139D01*
X181861737Y-104366095D01*
X181776454Y-104202268D01*
X181776453Y-104202267D01*
X181774065Y-104197679D01*
X181625917Y-104000364D01*
X181447532Y-103829896D01*
X181419212Y-103810577D01*
X181247979Y-103693770D01*
X181247980Y-103693770D01*
X181243700Y-103690851D01*
X181131798Y-103638908D01*
X181024591Y-103589144D01*
X181024587Y-103589143D01*
X181019896Y-103586965D01*
X180782129Y-103521026D01*
X180776992Y-103520477D01*
X180584043Y-103499856D01*
X180584035Y-103499856D01*
X180580708Y-103499500D01*
X180437446Y-103499500D01*
X180434873Y-103499712D01*
X180434862Y-103499712D01*
X180259240Y-103514151D01*
X180259234Y-103514152D01*
X180254089Y-103514575D01*
X180014783Y-103574684D01*
X179788507Y-103673072D01*
X179581339Y-103807095D01*
X179577514Y-103810575D01*
X179577512Y-103810577D01*
X179556281Y-103829896D01*
X179398842Y-103973154D01*
X179395643Y-103977205D01*
X179395639Y-103977209D01*
X179249119Y-104162736D01*
X179249116Y-104162741D01*
X179245918Y-104166790D01*
X179243425Y-104171306D01*
X179243423Y-104171309D01*
X179135896Y-104366095D01*
X179126673Y-104382802D01*
X179124949Y-104387671D01*
X179124947Y-104387675D01*
X179046035Y-104610515D01*
X179044309Y-104615390D01*
X179001039Y-104858306D01*
X178998025Y-105105028D01*
X179035347Y-105348930D01*
X179112003Y-105583460D01*
X179114393Y-105588051D01*
X179170824Y-105696453D01*
X179225935Y-105802321D01*
X179229038Y-105806454D01*
X179229040Y-105806457D01*
X179370978Y-105995501D01*
X179374083Y-105999636D01*
X179552468Y-106170104D01*
X179556740Y-106173018D01*
X179556741Y-106173019D01*
X179585893Y-106192905D01*
X179756300Y-106309149D01*
X179808308Y-106333290D01*
X179975409Y-106410856D01*
X179975413Y-106410857D01*
X179980104Y-106413035D01*
X180217871Y-106478974D01*
X180223008Y-106479523D01*
X180415957Y-106500144D01*
X180415965Y-106500144D01*
X180419292Y-106500500D01*
X180562554Y-106500500D01*
X180565127Y-106500288D01*
X180565138Y-106500288D01*
X180740760Y-106485849D01*
X180740766Y-106485848D01*
X180745911Y-106485425D01*
X180985217Y-106425316D01*
X181124787Y-106364629D01*
X181206744Y-106328993D01*
X181206745Y-106328993D01*
X181211493Y-106326928D01*
X181418661Y-106192905D01*
X181440516Y-106173019D01*
X181503756Y-106115475D01*
X181601158Y-106026846D01*
X181604357Y-106022795D01*
X181604361Y-106022791D01*
X181750881Y-105837264D01*
X181750884Y-105837259D01*
X181754082Y-105833210D01*
X181756577Y-105828691D01*
X181756580Y-105828686D01*
X181863191Y-105635560D01*
X181913624Y-105585589D01*
X181983067Y-105570817D01*
X182049472Y-105595933D01*
X182091757Y-105652964D01*
X182099500Y-105696453D01*
X182099500Y-108491157D01*
X182079498Y-108559278D01*
X182025842Y-108605771D01*
X181955568Y-108615875D01*
X181912799Y-108601571D01*
X181754415Y-108514498D01*
X181743142Y-108509666D01*
X181566462Y-108453620D01*
X181554468Y-108451070D01*
X181410239Y-108434893D01*
X181403215Y-108434500D01*
X181122115Y-108434500D01*
X181106876Y-108438975D01*
X181105671Y-108440365D01*
X181104000Y-108448048D01*
X181104000Y-109570500D01*
X181083998Y-109638621D01*
X181030342Y-109685114D01*
X180978000Y-109696500D01*
X179392076Y-109696500D01*
X179378545Y-109700473D01*
X179377425Y-109708268D01*
X179409138Y-109816021D01*
X179413731Y-109827389D01*
X179499607Y-109991654D01*
X179506325Y-110001921D01*
X179575641Y-110088134D01*
X179602737Y-110153756D01*
X179590053Y-110223611D01*
X179579380Y-110241145D01*
X179569733Y-110254423D01*
X179569730Y-110254428D01*
X179565849Y-110259770D01*
X179488856Y-110432697D01*
X179477115Y-110487934D01*
X179451370Y-110609057D01*
X179449500Y-110617854D01*
X179449500Y-110807146D01*
X179488856Y-110992303D01*
X179565849Y-111165230D01*
X179569729Y-111170571D01*
X179569730Y-111170572D01*
X179644467Y-111273439D01*
X179668326Y-111340307D01*
X179652245Y-111409459D01*
X179644467Y-111421561D01*
X179565849Y-111529770D01*
X179488856Y-111702697D01*
X179468560Y-111798183D01*
X179454108Y-111866177D01*
X179449500Y-111887854D01*
X179449500Y-112077146D01*
X179450872Y-112083599D01*
X179450872Y-112083603D01*
X179464497Y-112147701D01*
X179488856Y-112262303D01*
X179565849Y-112435230D01*
X179569729Y-112440571D01*
X179569730Y-112440572D01*
X179644467Y-112543439D01*
X179668326Y-112610307D01*
X179652245Y-112679459D01*
X179644467Y-112691561D01*
X179565849Y-112799770D01*
X179488856Y-112972697D01*
X179482636Y-113001960D01*
X179462253Y-113097857D01*
X179449500Y-113157854D01*
X179449500Y-113347146D01*
X179488856Y-113532303D01*
X179565849Y-113705230D01*
X179569729Y-113710571D01*
X179569730Y-113710572D01*
X179644467Y-113813439D01*
X179668326Y-113880307D01*
X179652245Y-113949459D01*
X179644467Y-113961561D01*
X179565849Y-114069770D01*
X179488856Y-114242697D01*
X179449500Y-114427854D01*
X179449500Y-114617146D01*
X179488856Y-114802303D01*
X179565849Y-114975230D01*
X179569729Y-114980571D01*
X179569730Y-114980572D01*
X179644467Y-115083439D01*
X179668326Y-115150307D01*
X179652245Y-115219459D01*
X179644467Y-115231561D01*
X179565849Y-115339770D01*
X179488856Y-115512697D01*
X179468022Y-115610712D01*
X179462253Y-115637857D01*
X179449500Y-115697854D01*
X179449500Y-115887146D01*
X179488856Y-116072303D01*
X179565849Y-116245230D01*
X179569729Y-116250571D01*
X179569730Y-116250572D01*
X179644467Y-116353439D01*
X179668326Y-116420307D01*
X179652245Y-116489459D01*
X179644467Y-116501561D01*
X179565849Y-116609770D01*
X179488856Y-116782697D01*
X179449500Y-116967854D01*
X179449500Y-117157146D01*
X179488856Y-117342303D01*
X179565849Y-117515230D01*
X179569729Y-117520571D01*
X179569730Y-117520572D01*
X179644467Y-117623439D01*
X179668326Y-117690307D01*
X179652245Y-117759459D01*
X179644467Y-117771561D01*
X179565849Y-117879770D01*
X179488856Y-118052697D01*
X179487204Y-118060470D01*
X179462253Y-118177857D01*
X179449500Y-118237854D01*
X179449500Y-118427146D01*
X179450872Y-118433599D01*
X179450872Y-118433603D01*
X179452692Y-118442164D01*
X179488856Y-118612303D01*
X179565849Y-118785230D01*
X179569729Y-118790571D01*
X179569730Y-118790572D01*
X179644467Y-118893439D01*
X179668326Y-118960307D01*
X179652245Y-119029459D01*
X179644467Y-119041561D01*
X179575654Y-119136275D01*
X179565849Y-119149770D01*
X179488856Y-119322697D01*
X179449500Y-119507854D01*
X179449500Y-119697146D01*
X179488856Y-119882303D01*
X179565849Y-120055230D01*
X179569729Y-120060571D01*
X179569730Y-120060572D01*
X179644467Y-120163439D01*
X179668326Y-120230307D01*
X179652245Y-120299459D01*
X179644467Y-120311561D01*
X179565849Y-120419770D01*
X179488856Y-120592697D01*
X179468022Y-120690712D01*
X179462253Y-120717857D01*
X179449500Y-120777854D01*
X179449500Y-120967146D01*
X179488856Y-121152303D01*
X179565849Y-121325230D01*
X179569729Y-121330571D01*
X179569730Y-121330572D01*
X179644467Y-121433439D01*
X179668326Y-121500307D01*
X179652245Y-121569459D01*
X179644467Y-121581561D01*
X179565849Y-121689770D01*
X179488856Y-121862697D01*
X179449500Y-122047854D01*
X179449500Y-122237146D01*
X179488856Y-122422303D01*
X179565849Y-122595230D01*
X179569729Y-122600571D01*
X179569730Y-122600572D01*
X179644467Y-122703439D01*
X179668326Y-122770307D01*
X179652245Y-122839459D01*
X179644467Y-122851561D01*
X179565849Y-122959770D01*
X179488856Y-123132697D01*
X179468022Y-123230712D01*
X179457047Y-123282350D01*
X179449500Y-123317854D01*
X179449500Y-123507146D01*
X179450872Y-123513599D01*
X179450872Y-123513603D01*
X179468022Y-123594288D01*
X179488856Y-123692303D01*
X179565849Y-123865230D01*
X179569729Y-123870571D01*
X179569730Y-123870572D01*
X179644467Y-123973439D01*
X179668326Y-124040307D01*
X179652245Y-124109459D01*
X179644467Y-124121561D01*
X179565849Y-124229770D01*
X179488856Y-124402697D01*
X179449500Y-124587854D01*
X179449500Y-124777146D01*
X179488856Y-124962303D01*
X179565849Y-125135230D01*
X179569729Y-125140571D01*
X179569730Y-125140572D01*
X179644467Y-125243439D01*
X179668326Y-125310307D01*
X179652245Y-125379459D01*
X179644467Y-125391561D01*
X179565849Y-125499770D01*
X179488856Y-125672697D01*
X179449500Y-125857854D01*
X179449500Y-126047146D01*
X179488856Y-126232303D01*
X179565849Y-126405230D01*
X179677112Y-126558371D01*
X179682014Y-126562784D01*
X179682015Y-126562786D01*
X179810092Y-126678107D01*
X179817784Y-126685033D01*
X179981716Y-126779679D01*
X180161744Y-126838174D01*
X180168305Y-126838864D01*
X180168307Y-126838864D01*
X180221963Y-126844503D01*
X180302808Y-126853000D01*
X181397192Y-126853000D01*
X181478037Y-126844503D01*
X181531693Y-126838864D01*
X181531695Y-126838864D01*
X181538256Y-126838174D01*
X181718284Y-126779679D01*
X181882216Y-126685033D01*
X181889186Y-126678757D01*
X181890641Y-126678059D01*
X181892467Y-126676732D01*
X181892710Y-126677066D01*
X181953192Y-126648037D01*
X182023646Y-126656799D01*
X182078179Y-126702260D01*
X182099500Y-126772390D01*
X182099500Y-127958564D01*
X182097949Y-127978274D01*
X182094508Y-128000000D01*
X182096059Y-128009793D01*
X182096059Y-128016150D01*
X182096916Y-128036131D01*
X182085305Y-128198466D01*
X182083862Y-128218642D01*
X182081304Y-128236436D01*
X182036625Y-128441824D01*
X182031560Y-128459074D01*
X181958104Y-128656015D01*
X181950636Y-128672367D01*
X181849903Y-128856847D01*
X181840183Y-128871971D01*
X181714219Y-129040239D01*
X181702446Y-129053825D01*
X181553825Y-129202446D01*
X181540239Y-129214219D01*
X181371971Y-129340183D01*
X181356847Y-129349903D01*
X181172367Y-129450636D01*
X181156015Y-129458104D01*
X180959074Y-129531560D01*
X180941826Y-129536624D01*
X180771907Y-129573588D01*
X180736436Y-129581304D01*
X180718642Y-129583862D01*
X180698466Y-129585305D01*
X180536131Y-129596916D01*
X180516150Y-129596059D01*
X180509793Y-129596059D01*
X180500000Y-129594508D01*
X180478287Y-129597947D01*
X180478274Y-129597949D01*
X180458564Y-129599500D01*
X164541436Y-129599500D01*
X164521726Y-129597949D01*
X164521714Y-129597947D01*
X164500000Y-129594508D01*
X164490207Y-129596059D01*
X164483850Y-129596059D01*
X164463869Y-129596916D01*
X164301534Y-129585305D01*
X164281358Y-129583862D01*
X164263564Y-129581304D01*
X164228093Y-129573588D01*
X164058174Y-129536624D01*
X164040926Y-129531560D01*
X163843985Y-129458104D01*
X163827633Y-129450636D01*
X163643153Y-129349903D01*
X163628029Y-129340183D01*
X163459761Y-129214219D01*
X163446175Y-129202446D01*
X163297554Y-129053825D01*
X163285781Y-129040239D01*
X163159817Y-128871971D01*
X163150097Y-128856847D01*
X163049364Y-128672367D01*
X163041896Y-128656015D01*
X162968440Y-128459074D01*
X162963375Y-128441824D01*
X162918696Y-128236436D01*
X162916138Y-128218642D01*
X162914695Y-128198466D01*
X162903084Y-128036131D01*
X162903941Y-128016150D01*
X162903941Y-128009793D01*
X162905492Y-128000000D01*
X162902051Y-127978274D01*
X162900500Y-127958564D01*
X162900500Y-126772390D01*
X162920502Y-126704269D01*
X162974158Y-126657776D01*
X163044432Y-126647672D01*
X163107268Y-126677097D01*
X163107533Y-126676732D01*
X163109425Y-126678107D01*
X163110814Y-126678757D01*
X163117784Y-126685033D01*
X163281716Y-126779679D01*
X163461744Y-126838174D01*
X163468305Y-126838864D01*
X163468307Y-126838864D01*
X163521963Y-126844503D01*
X163602808Y-126853000D01*
X164697192Y-126853000D01*
X164778037Y-126844503D01*
X164831693Y-126838864D01*
X164831695Y-126838864D01*
X164838256Y-126838174D01*
X165018284Y-126779679D01*
X165182216Y-126685033D01*
X165189908Y-126678107D01*
X165317985Y-126562786D01*
X165317986Y-126562784D01*
X165322888Y-126558371D01*
X165434151Y-126405230D01*
X165511144Y-126232303D01*
X165550500Y-126047146D01*
X165550500Y-125857854D01*
X165511144Y-125672697D01*
X165434151Y-125499770D01*
X165355533Y-125391561D01*
X165331674Y-125324693D01*
X165347755Y-125255541D01*
X165355533Y-125243439D01*
X165430270Y-125140572D01*
X165430271Y-125140571D01*
X165434151Y-125135230D01*
X165511144Y-124962303D01*
X165550500Y-124777146D01*
X165550500Y-124587854D01*
X165511144Y-124402697D01*
X165434151Y-124229770D01*
X165355533Y-124121561D01*
X165331674Y-124054693D01*
X165347755Y-123985541D01*
X165355533Y-123973439D01*
X165416155Y-123890000D01*
X169992223Y-123890000D01*
X170011293Y-124107977D01*
X170067925Y-124319330D01*
X170070247Y-124324310D01*
X170070248Y-124324312D01*
X170119123Y-124429123D01*
X170160398Y-124517638D01*
X170285902Y-124696877D01*
X170440623Y-124851598D01*
X170445131Y-124854755D01*
X170445134Y-124854757D01*
X170589497Y-124955841D01*
X170619861Y-124977102D01*
X170624843Y-124979425D01*
X170624848Y-124979428D01*
X170792200Y-125057465D01*
X170818170Y-125069575D01*
X170823478Y-125070997D01*
X170823480Y-125070998D01*
X170889245Y-125088620D01*
X171029523Y-125126207D01*
X171247500Y-125145277D01*
X171465477Y-125126207D01*
X171605755Y-125088620D01*
X171671520Y-125070998D01*
X171671522Y-125070997D01*
X171676830Y-125069575D01*
X171702800Y-125057465D01*
X171794182Y-125014853D01*
X173027477Y-125014853D01*
X173032758Y-125021907D01*
X173194256Y-125116279D01*
X173203542Y-125120729D01*
X173402501Y-125196703D01*
X173412399Y-125199579D01*
X173621095Y-125242038D01*
X173631323Y-125243257D01*
X173844150Y-125251062D01*
X173854436Y-125250595D01*
X174065685Y-125223534D01*
X174075762Y-125221392D01*
X174279755Y-125160191D01*
X174289342Y-125156433D01*
X174480598Y-125062738D01*
X174489444Y-125057465D01*
X174536747Y-125023723D01*
X174545148Y-125013023D01*
X174538160Y-124999870D01*
X173800312Y-124262022D01*
X173786368Y-124254408D01*
X173784535Y-124254539D01*
X173777920Y-124258790D01*
X173034237Y-125002473D01*
X173027477Y-125014853D01*
X171794182Y-125014853D01*
X171870152Y-124979428D01*
X171870157Y-124979425D01*
X171875139Y-124977102D01*
X171905503Y-124955841D01*
X172049866Y-124854757D01*
X172049869Y-124854755D01*
X172054377Y-124851598D01*
X172209098Y-124696877D01*
X172334602Y-124517638D01*
X172338725Y-124508798D01*
X172341955Y-124501870D01*
X172388871Y-124448585D01*
X172457148Y-124429123D01*
X172525108Y-124449664D01*
X172568615Y-124498306D01*
X172573915Y-124508798D01*
X172653960Y-124639420D01*
X172664416Y-124648880D01*
X172673194Y-124645096D01*
X173415478Y-123902812D01*
X173421856Y-123891132D01*
X174151908Y-123891132D01*
X174152039Y-123892965D01*
X174156290Y-123899580D01*
X174897974Y-124641264D01*
X174909984Y-124647823D01*
X174921723Y-124638855D01*
X174952504Y-124596019D01*
X174957815Y-124587180D01*
X175052170Y-124396267D01*
X175055969Y-124386672D01*
X175117876Y-124182915D01*
X175120055Y-124172834D01*
X175148090Y-123959887D01*
X175148609Y-123953212D01*
X175150072Y-123893364D01*
X175149878Y-123886646D01*
X175132281Y-123672604D01*
X175130596Y-123662424D01*
X175078714Y-123455875D01*
X175075394Y-123446124D01*
X174990472Y-123250814D01*
X174985605Y-123241739D01*
X174920563Y-123141197D01*
X174909877Y-123131995D01*
X174900312Y-123136398D01*
X174159522Y-123877188D01*
X174151908Y-123891132D01*
X173421856Y-123891132D01*
X173423092Y-123888868D01*
X173422961Y-123887035D01*
X173418710Y-123880420D01*
X172677349Y-123139059D01*
X172665813Y-123132759D01*
X172653531Y-123142382D01*
X172605589Y-123212662D01*
X172600504Y-123221613D01*
X172572405Y-123282148D01*
X172525581Y-123335515D01*
X172457338Y-123355096D01*
X172389342Y-123334672D01*
X172343923Y-123282350D01*
X172336925Y-123267344D01*
X172334602Y-123262362D01*
X172209098Y-123083123D01*
X172054377Y-122928402D01*
X172049869Y-122925245D01*
X172049866Y-122925243D01*
X171879648Y-122806055D01*
X171879645Y-122806053D01*
X171875139Y-122802898D01*
X171870157Y-122800575D01*
X171870152Y-122800572D01*
X171727805Y-122734195D01*
X171674520Y-122687278D01*
X171655059Y-122619000D01*
X171675601Y-122551040D01*
X171727805Y-122505805D01*
X171870152Y-122439428D01*
X171870157Y-122439425D01*
X171875139Y-122437102D01*
X171905503Y-122415841D01*
X172049866Y-122314757D01*
X172049869Y-122314755D01*
X172054377Y-122311598D01*
X172209098Y-122156877D01*
X172334602Y-121977638D01*
X172403305Y-121830305D01*
X172450223Y-121777020D01*
X172518500Y-121757559D01*
X172586460Y-121778101D01*
X172631695Y-121830305D01*
X172700398Y-121977638D01*
X172825902Y-122156877D01*
X172980623Y-122311598D01*
X172985131Y-122314755D01*
X172985134Y-122314757D01*
X173129497Y-122415841D01*
X173159861Y-122437102D01*
X173164843Y-122439425D01*
X173164848Y-122439428D01*
X173180163Y-122446569D01*
X173233448Y-122493486D01*
X173252909Y-122561764D01*
X173232367Y-122629724D01*
X173185093Y-122672527D01*
X173065966Y-122734540D01*
X173057234Y-122740039D01*
X173037177Y-122755099D01*
X173028723Y-122766427D01*
X173035468Y-122778758D01*
X173774688Y-123517978D01*
X173788632Y-123525592D01*
X173790465Y-123525461D01*
X173797080Y-123521210D01*
X174540889Y-122777401D01*
X174547910Y-122764544D01*
X174541111Y-122755213D01*
X174537054Y-122752518D01*
X174388452Y-122670485D01*
X174338482Y-122620053D01*
X174323710Y-122550610D01*
X174348826Y-122484205D01*
X174396096Y-122445982D01*
X174410152Y-122439428D01*
X174410157Y-122439425D01*
X174415139Y-122437102D01*
X174445503Y-122415841D01*
X174589866Y-122314757D01*
X174589869Y-122314755D01*
X174594377Y-122311598D01*
X174749098Y-122156877D01*
X174874602Y-121977638D01*
X174967075Y-121779330D01*
X175023707Y-121567977D01*
X175042777Y-121350000D01*
X175023707Y-121132023D01*
X174967075Y-120920670D01*
X174903558Y-120784457D01*
X174876925Y-120727343D01*
X174876923Y-120727340D01*
X174874602Y-120722362D01*
X174749098Y-120543123D01*
X174594377Y-120388402D01*
X174589869Y-120385245D01*
X174589866Y-120385243D01*
X174419648Y-120266055D01*
X174419645Y-120266053D01*
X174415139Y-120262898D01*
X174410157Y-120260575D01*
X174410152Y-120260572D01*
X174267805Y-120194195D01*
X174214520Y-120147278D01*
X174195059Y-120079000D01*
X174215601Y-120011040D01*
X174267805Y-119965805D01*
X174410152Y-119899428D01*
X174410157Y-119899425D01*
X174415139Y-119897102D01*
X174445503Y-119875841D01*
X174589866Y-119774757D01*
X174589869Y-119774755D01*
X174594377Y-119771598D01*
X174749098Y-119616877D01*
X174874602Y-119437638D01*
X174967075Y-119239330D01*
X175023707Y-119027977D01*
X175042777Y-118810000D01*
X175023707Y-118592023D01*
X174967075Y-118380670D01*
X174956108Y-118357151D01*
X174876925Y-118187343D01*
X174876923Y-118187340D01*
X174874602Y-118182362D01*
X174749098Y-118003123D01*
X174594377Y-117848402D01*
X174589869Y-117845245D01*
X174589866Y-117845243D01*
X174419648Y-117726055D01*
X174419645Y-117726053D01*
X174415139Y-117722898D01*
X174410157Y-117720575D01*
X174410152Y-117720572D01*
X174267805Y-117654195D01*
X174214520Y-117607278D01*
X174195059Y-117539000D01*
X174215601Y-117471040D01*
X174267805Y-117425805D01*
X174410152Y-117359428D01*
X174410157Y-117359425D01*
X174415139Y-117357102D01*
X174445503Y-117335841D01*
X174589866Y-117234757D01*
X174589869Y-117234755D01*
X174594377Y-117231598D01*
X174749098Y-117076877D01*
X174874602Y-116897638D01*
X174967075Y-116699330D01*
X175023707Y-116487977D01*
X175042777Y-116270000D01*
X175023707Y-116052023D01*
X174967075Y-115840670D01*
X174903558Y-115704457D01*
X174876925Y-115647343D01*
X174876923Y-115647340D01*
X174874602Y-115642362D01*
X174749098Y-115463123D01*
X174594377Y-115308402D01*
X174589869Y-115305245D01*
X174589866Y-115305243D01*
X174419648Y-115186055D01*
X174419645Y-115186053D01*
X174415139Y-115182898D01*
X174410157Y-115180575D01*
X174410152Y-115180572D01*
X174267805Y-115114195D01*
X174214520Y-115067278D01*
X174195059Y-114999000D01*
X174215601Y-114931040D01*
X174267805Y-114885805D01*
X174410152Y-114819428D01*
X174410157Y-114819425D01*
X174415139Y-114817102D01*
X174445503Y-114795841D01*
X174589866Y-114694757D01*
X174589869Y-114694755D01*
X174594377Y-114691598D01*
X174749098Y-114536877D01*
X174874602Y-114357638D01*
X174967075Y-114159330D01*
X175023707Y-113947977D01*
X175042777Y-113730000D01*
X175023707Y-113512023D01*
X174967075Y-113300670D01*
X174903558Y-113164457D01*
X174876925Y-113107343D01*
X174876923Y-113107340D01*
X174874602Y-113102362D01*
X174749098Y-112923123D01*
X174594377Y-112768402D01*
X174589869Y-112765245D01*
X174589866Y-112765243D01*
X174419648Y-112646055D01*
X174419645Y-112646053D01*
X174415139Y-112642898D01*
X174410157Y-112640575D01*
X174410152Y-112640572D01*
X174267805Y-112574195D01*
X174214520Y-112527278D01*
X174195059Y-112459000D01*
X174215601Y-112391040D01*
X174267805Y-112345805D01*
X174410152Y-112279428D01*
X174410157Y-112279425D01*
X174415139Y-112277102D01*
X174436274Y-112262303D01*
X174589866Y-112154757D01*
X174589869Y-112154755D01*
X174594377Y-112151598D01*
X174749098Y-111996877D01*
X174874602Y-111817638D01*
X174916930Y-111726867D01*
X174964752Y-111624312D01*
X174964753Y-111624310D01*
X174967075Y-111619330D01*
X174969635Y-111609778D01*
X174995817Y-111512065D01*
X175023707Y-111407977D01*
X175042777Y-111190000D01*
X175023707Y-110972023D01*
X174977045Y-110797877D01*
X174968498Y-110765980D01*
X174968497Y-110765978D01*
X174967075Y-110760670D01*
X174943305Y-110709695D01*
X174876925Y-110567343D01*
X174876923Y-110567340D01*
X174874602Y-110562362D01*
X174749098Y-110383123D01*
X174594377Y-110228402D01*
X174589869Y-110225245D01*
X174589866Y-110225243D01*
X174419648Y-110106055D01*
X174419645Y-110106053D01*
X174415139Y-110102898D01*
X174410157Y-110100575D01*
X174410152Y-110100572D01*
X174267805Y-110034195D01*
X174214520Y-109987278D01*
X174195059Y-109919000D01*
X174215601Y-109851040D01*
X174267805Y-109805805D01*
X174410152Y-109739428D01*
X174410157Y-109739425D01*
X174415139Y-109737102D01*
X174419648Y-109733945D01*
X174589866Y-109614757D01*
X174589869Y-109614755D01*
X174594377Y-109611598D01*
X174749098Y-109456877D01*
X174874602Y-109277638D01*
X174917663Y-109185295D01*
X179378544Y-109185295D01*
X179385299Y-109188500D01*
X180577885Y-109188500D01*
X180593124Y-109184025D01*
X180594329Y-109182635D01*
X180596000Y-109174952D01*
X180596000Y-108452615D01*
X180591525Y-108437376D01*
X180590135Y-108436171D01*
X180582452Y-108434500D01*
X180303343Y-108434500D01*
X180297195Y-108434801D01*
X180159397Y-108448312D01*
X180147362Y-108450695D01*
X179969924Y-108504267D01*
X179958584Y-108508941D01*
X179794923Y-108595960D01*
X179784706Y-108602749D01*
X179641067Y-108719897D01*
X179632363Y-108728541D01*
X179514216Y-108871356D01*
X179507356Y-108881527D01*
X179419196Y-109044576D01*
X179414444Y-109055881D01*
X179378750Y-109171192D01*
X179378544Y-109185295D01*
X174917663Y-109185295D01*
X174964752Y-109084312D01*
X174964753Y-109084310D01*
X174967075Y-109079330D01*
X175023707Y-108867977D01*
X175042777Y-108650000D01*
X175023707Y-108432023D01*
X174967075Y-108220670D01*
X174874602Y-108022362D01*
X174749098Y-107843123D01*
X174594377Y-107688402D01*
X174589869Y-107685245D01*
X174589866Y-107685243D01*
X174419648Y-107566055D01*
X174419645Y-107566053D01*
X174415139Y-107562898D01*
X174410157Y-107560575D01*
X174410152Y-107560572D01*
X174267805Y-107494195D01*
X174214520Y-107447278D01*
X174195059Y-107379000D01*
X174215601Y-107311040D01*
X174267805Y-107265805D01*
X174410152Y-107199428D01*
X174410157Y-107199425D01*
X174415139Y-107197102D01*
X174536870Y-107111865D01*
X174589866Y-107074757D01*
X174589869Y-107074755D01*
X174594377Y-107071598D01*
X174749098Y-106916877D01*
X174874602Y-106737638D01*
X174967075Y-106539330D01*
X174977480Y-106500500D01*
X174997625Y-106425316D01*
X175023707Y-106327977D01*
X175042777Y-106110000D01*
X175023707Y-105892023D01*
X174967075Y-105680670D01*
X174964752Y-105675688D01*
X174876925Y-105487343D01*
X174876923Y-105487340D01*
X174874602Y-105482362D01*
X174749098Y-105303123D01*
X174594377Y-105148402D01*
X174589869Y-105145245D01*
X174589866Y-105145243D01*
X174419648Y-105026055D01*
X174419645Y-105026053D01*
X174415139Y-105022898D01*
X174410157Y-105020575D01*
X174410152Y-105020572D01*
X174221812Y-104932748D01*
X174221811Y-104932747D01*
X174216830Y-104930425D01*
X174211522Y-104929003D01*
X174211520Y-104929002D01*
X174125839Y-104906044D01*
X174005477Y-104873793D01*
X173787500Y-104854723D01*
X173569523Y-104873793D01*
X173449161Y-104906044D01*
X173363480Y-104929002D01*
X173363478Y-104929003D01*
X173358170Y-104930425D01*
X173353190Y-104932747D01*
X173353188Y-104932748D01*
X173164843Y-105020575D01*
X173164840Y-105020577D01*
X173159862Y-105022898D01*
X172980623Y-105148402D01*
X172825902Y-105303123D01*
X172720873Y-105453121D01*
X172665418Y-105497449D01*
X172594798Y-105504758D01*
X172531438Y-105472728D01*
X172495452Y-105411527D01*
X172495402Y-105411297D01*
X172495098Y-105407431D01*
X172486988Y-105379514D01*
X172451456Y-105257215D01*
X172451455Y-105257214D01*
X172449244Y-105249602D01*
X172365581Y-105108135D01*
X172249365Y-104991919D01*
X172107898Y-104908256D01*
X172100286Y-104906045D01*
X172100285Y-104906044D01*
X171956254Y-104864199D01*
X171956255Y-104864199D01*
X171950069Y-104862402D01*
X171936916Y-104861367D01*
X171915653Y-104859693D01*
X171915640Y-104859692D01*
X171913194Y-104859500D01*
X170581806Y-104859500D01*
X170579360Y-104859692D01*
X170579347Y-104859693D01*
X170558084Y-104861367D01*
X170544931Y-104862402D01*
X170538745Y-104864199D01*
X170538746Y-104864199D01*
X170394715Y-104906044D01*
X170394714Y-104906045D01*
X170387102Y-104908256D01*
X170245635Y-104991919D01*
X170129419Y-105108135D01*
X170045756Y-105249602D01*
X170043545Y-105257214D01*
X170043544Y-105257215D01*
X170028896Y-105307635D01*
X169999902Y-105407431D01*
X169999397Y-105413850D01*
X169997193Y-105441847D01*
X169997192Y-105441860D01*
X169997000Y-105444306D01*
X169997000Y-106775694D01*
X169997192Y-106778140D01*
X169997193Y-106778153D01*
X169998867Y-106799416D01*
X169999902Y-106812569D01*
X170001699Y-106818754D01*
X170030207Y-106916877D01*
X170045756Y-106970398D01*
X170129419Y-107111865D01*
X170245635Y-107228081D01*
X170387102Y-107311744D01*
X170394714Y-107313955D01*
X170394715Y-107313956D01*
X170538748Y-107355802D01*
X170538751Y-107355803D01*
X170542131Y-107356785D01*
X170542132Y-107356785D01*
X170544931Y-107357598D01*
X170544780Y-107358118D01*
X170604411Y-107388131D01*
X170640504Y-107449269D01*
X170637814Y-107520214D01*
X170597195Y-107578443D01*
X170590632Y-107583365D01*
X170440623Y-107688402D01*
X170285902Y-107843123D01*
X170160398Y-108022362D01*
X170067925Y-108220670D01*
X170011293Y-108432023D01*
X169992223Y-108650000D01*
X170011293Y-108867977D01*
X170067925Y-109079330D01*
X170070247Y-109084310D01*
X170070248Y-109084312D01*
X170117338Y-109185295D01*
X170160398Y-109277638D01*
X170285902Y-109456877D01*
X170440623Y-109611598D01*
X170445131Y-109614755D01*
X170445134Y-109614757D01*
X170615352Y-109733945D01*
X170619861Y-109737102D01*
X170624843Y-109739425D01*
X170624848Y-109739428D01*
X170767195Y-109805805D01*
X170820480Y-109852722D01*
X170839941Y-109921000D01*
X170819399Y-109988960D01*
X170767195Y-110034195D01*
X170624843Y-110100575D01*
X170624840Y-110100577D01*
X170619862Y-110102898D01*
X170440623Y-110228402D01*
X170285902Y-110383123D01*
X170160398Y-110562362D01*
X170158077Y-110567340D01*
X170158075Y-110567343D01*
X170091695Y-110709695D01*
X170067925Y-110760670D01*
X170066503Y-110765978D01*
X170066502Y-110765980D01*
X170057955Y-110797877D01*
X170011293Y-110972023D01*
X169992223Y-111190000D01*
X170011293Y-111407977D01*
X170039183Y-111512065D01*
X170065366Y-111609778D01*
X170067925Y-111619330D01*
X170070247Y-111624310D01*
X170070248Y-111624312D01*
X170118071Y-111726867D01*
X170160398Y-111817638D01*
X170285902Y-111996877D01*
X170440623Y-112151598D01*
X170445131Y-112154755D01*
X170445134Y-112154757D01*
X170598726Y-112262303D01*
X170619861Y-112277102D01*
X170624843Y-112279425D01*
X170624848Y-112279428D01*
X170767195Y-112345805D01*
X170820480Y-112392722D01*
X170839941Y-112461000D01*
X170819399Y-112528960D01*
X170767195Y-112574195D01*
X170624843Y-112640575D01*
X170624840Y-112640577D01*
X170619862Y-112642898D01*
X170440623Y-112768402D01*
X170285902Y-112923123D01*
X170160398Y-113102362D01*
X170158077Y-113107340D01*
X170158075Y-113107343D01*
X170131442Y-113164457D01*
X170067925Y-113300670D01*
X170011293Y-113512023D01*
X169992223Y-113730000D01*
X170011293Y-113947977D01*
X170067925Y-114159330D01*
X170160398Y-114357638D01*
X170285902Y-114536877D01*
X170440623Y-114691598D01*
X170445131Y-114694755D01*
X170445134Y-114694757D01*
X170589497Y-114795841D01*
X170619861Y-114817102D01*
X170624843Y-114819425D01*
X170624848Y-114819428D01*
X170767195Y-114885805D01*
X170820480Y-114932722D01*
X170839941Y-115001000D01*
X170819399Y-115068960D01*
X170767195Y-115114195D01*
X170624843Y-115180575D01*
X170624840Y-115180577D01*
X170619862Y-115182898D01*
X170440623Y-115308402D01*
X170285902Y-115463123D01*
X170160398Y-115642362D01*
X170158077Y-115647340D01*
X170158075Y-115647343D01*
X170131442Y-115704457D01*
X170067925Y-115840670D01*
X170011293Y-116052023D01*
X169992223Y-116270000D01*
X170011293Y-116487977D01*
X170067925Y-116699330D01*
X170160398Y-116897638D01*
X170285902Y-117076877D01*
X170440623Y-117231598D01*
X170445131Y-117234755D01*
X170445134Y-117234757D01*
X170589497Y-117335841D01*
X170619861Y-117357102D01*
X170624843Y-117359425D01*
X170624848Y-117359428D01*
X170767195Y-117425805D01*
X170820480Y-117472722D01*
X170839941Y-117541000D01*
X170819399Y-117608960D01*
X170767195Y-117654195D01*
X170624843Y-117720575D01*
X170624840Y-117720577D01*
X170619862Y-117722898D01*
X170440623Y-117848402D01*
X170285902Y-118003123D01*
X170160398Y-118182362D01*
X170158077Y-118187340D01*
X170158075Y-118187343D01*
X170078892Y-118357151D01*
X170067925Y-118380670D01*
X170011293Y-118592023D01*
X169992223Y-118810000D01*
X170011293Y-119027977D01*
X170067925Y-119239330D01*
X170160398Y-119437638D01*
X170285902Y-119616877D01*
X170440623Y-119771598D01*
X170445131Y-119774755D01*
X170445134Y-119774757D01*
X170589497Y-119875841D01*
X170619861Y-119897102D01*
X170624843Y-119899425D01*
X170624848Y-119899428D01*
X170767195Y-119965805D01*
X170820480Y-120012722D01*
X170839941Y-120081000D01*
X170819399Y-120148960D01*
X170767195Y-120194195D01*
X170624843Y-120260575D01*
X170624840Y-120260577D01*
X170619862Y-120262898D01*
X170440623Y-120388402D01*
X170285902Y-120543123D01*
X170160398Y-120722362D01*
X170158077Y-120727340D01*
X170158075Y-120727343D01*
X170131442Y-120784457D01*
X170067925Y-120920670D01*
X170011293Y-121132023D01*
X169992223Y-121350000D01*
X170011293Y-121567977D01*
X170067925Y-121779330D01*
X170160398Y-121977638D01*
X170285902Y-122156877D01*
X170440623Y-122311598D01*
X170445131Y-122314755D01*
X170445134Y-122314757D01*
X170589497Y-122415841D01*
X170619861Y-122437102D01*
X170624843Y-122439425D01*
X170624848Y-122439428D01*
X170767195Y-122505805D01*
X170820480Y-122552722D01*
X170839941Y-122621000D01*
X170819399Y-122688960D01*
X170767195Y-122734195D01*
X170624843Y-122800575D01*
X170624840Y-122800577D01*
X170619862Y-122802898D01*
X170440623Y-122928402D01*
X170285902Y-123083123D01*
X170160398Y-123262362D01*
X170158077Y-123267340D01*
X170158075Y-123267343D01*
X170131442Y-123324457D01*
X170067925Y-123460670D01*
X170011293Y-123672023D01*
X169992223Y-123890000D01*
X165416155Y-123890000D01*
X165430270Y-123870572D01*
X165430271Y-123870571D01*
X165434151Y-123865230D01*
X165511144Y-123692303D01*
X165531978Y-123594288D01*
X165549128Y-123513603D01*
X165549128Y-123513599D01*
X165550500Y-123507146D01*
X165550500Y-123317854D01*
X165542954Y-123282350D01*
X165531978Y-123230712D01*
X165511144Y-123132697D01*
X165434151Y-122959770D01*
X165355533Y-122851561D01*
X165331674Y-122784693D01*
X165347755Y-122715541D01*
X165355533Y-122703439D01*
X165430270Y-122600572D01*
X165430271Y-122600571D01*
X165434151Y-122595230D01*
X165511144Y-122422303D01*
X165550500Y-122237146D01*
X165550500Y-122047854D01*
X165511144Y-121862697D01*
X165434151Y-121689770D01*
X165355533Y-121581561D01*
X165331674Y-121514693D01*
X165347755Y-121445541D01*
X165355533Y-121433439D01*
X165430270Y-121330572D01*
X165430271Y-121330571D01*
X165434151Y-121325230D01*
X165511144Y-121152303D01*
X165550500Y-120967146D01*
X165550500Y-120777854D01*
X165537748Y-120717857D01*
X165531978Y-120690712D01*
X165511144Y-120592697D01*
X165434151Y-120419770D01*
X165355533Y-120311561D01*
X165331674Y-120244693D01*
X165347755Y-120175541D01*
X165355533Y-120163439D01*
X165430270Y-120060572D01*
X165430271Y-120060571D01*
X165434151Y-120055230D01*
X165511144Y-119882303D01*
X165550500Y-119697146D01*
X165550500Y-119507854D01*
X165511144Y-119322697D01*
X165434151Y-119149770D01*
X165424347Y-119136275D01*
X165355533Y-119041561D01*
X165331674Y-118974693D01*
X165347755Y-118905541D01*
X165355533Y-118893439D01*
X165430270Y-118790572D01*
X165430271Y-118790571D01*
X165434151Y-118785230D01*
X165511144Y-118612303D01*
X165547308Y-118442164D01*
X165549128Y-118433603D01*
X165549128Y-118433599D01*
X165550500Y-118427146D01*
X165550500Y-118237854D01*
X165537748Y-118177857D01*
X165512796Y-118060470D01*
X165511144Y-118052697D01*
X165434151Y-117879770D01*
X165355533Y-117771561D01*
X165331674Y-117704693D01*
X165347755Y-117635541D01*
X165355533Y-117623439D01*
X165430270Y-117520572D01*
X165430271Y-117520571D01*
X165434151Y-117515230D01*
X165511144Y-117342303D01*
X165550500Y-117157146D01*
X165550500Y-116967854D01*
X165511144Y-116782697D01*
X165434151Y-116609770D01*
X165355533Y-116501561D01*
X165331674Y-116434693D01*
X165347755Y-116365541D01*
X165355533Y-116353439D01*
X165430270Y-116250572D01*
X165430271Y-116250571D01*
X165434151Y-116245230D01*
X165511144Y-116072303D01*
X165550500Y-115887146D01*
X165550500Y-115697854D01*
X165537748Y-115637857D01*
X165531978Y-115610712D01*
X165511144Y-115512697D01*
X165434151Y-115339770D01*
X165355533Y-115231561D01*
X165331674Y-115164693D01*
X165347755Y-115095541D01*
X165355533Y-115083439D01*
X165430270Y-114980572D01*
X165430271Y-114980571D01*
X165434151Y-114975230D01*
X165511144Y-114802303D01*
X165550500Y-114617146D01*
X165550500Y-114427854D01*
X165511144Y-114242697D01*
X165434151Y-114069770D01*
X165355533Y-113961561D01*
X165331674Y-113894693D01*
X165347755Y-113825541D01*
X165355533Y-113813439D01*
X165430270Y-113710572D01*
X165430271Y-113710571D01*
X165434151Y-113705230D01*
X165511144Y-113532303D01*
X165550500Y-113347146D01*
X165550500Y-113157854D01*
X165537748Y-113097857D01*
X165517364Y-113001960D01*
X165511144Y-112972697D01*
X165434151Y-112799770D01*
X165355533Y-112691561D01*
X165331674Y-112624693D01*
X165347755Y-112555541D01*
X165355533Y-112543439D01*
X165430270Y-112440572D01*
X165430271Y-112440571D01*
X165434151Y-112435230D01*
X165511144Y-112262303D01*
X165535503Y-112147701D01*
X165549128Y-112083603D01*
X165549128Y-112083599D01*
X165550500Y-112077146D01*
X165550500Y-111887854D01*
X165545893Y-111866177D01*
X165531440Y-111798183D01*
X165511144Y-111702697D01*
X165434151Y-111529770D01*
X165355533Y-111421561D01*
X165331674Y-111354693D01*
X165347755Y-111285541D01*
X165355533Y-111273439D01*
X165430270Y-111170572D01*
X165430271Y-111170571D01*
X165434151Y-111165230D01*
X165494250Y-111030246D01*
X165844967Y-111030246D01*
X165845646Y-111035979D01*
X165853466Y-111102048D01*
X165854068Y-111108606D01*
X165858796Y-111180749D01*
X165860216Y-111186341D01*
X165860218Y-111186352D01*
X165864224Y-111202123D01*
X165867229Y-111218332D01*
X165869820Y-111240227D01*
X165891263Y-111309287D01*
X165893047Y-111315613D01*
X165908544Y-111376629D01*
X165910845Y-111385690D01*
X165913260Y-111390929D01*
X165913262Y-111390934D01*
X165920077Y-111405716D01*
X165925985Y-111421107D01*
X165930810Y-111436648D01*
X165930812Y-111436654D01*
X165932523Y-111442163D01*
X165935211Y-111447272D01*
X165966187Y-111506147D01*
X165969105Y-111512065D01*
X165980049Y-111535804D01*
X165999369Y-111577714D01*
X166012099Y-111595727D01*
X166020706Y-111609771D01*
X166030976Y-111629292D01*
X166056915Y-111662195D01*
X166075738Y-111686073D01*
X166079683Y-111691357D01*
X166118071Y-111745674D01*
X166121405Y-111750391D01*
X166125539Y-111754418D01*
X166195664Y-111822731D01*
X166196837Y-111823890D01*
X167312595Y-112939648D01*
X167346621Y-113001960D01*
X167349500Y-113028743D01*
X167349500Y-117924021D01*
X167348627Y-117938831D01*
X167344967Y-117969754D01*
X167345345Y-117975520D01*
X167349230Y-118034796D01*
X167349500Y-118043037D01*
X167349500Y-118053641D01*
X167352719Y-118088669D01*
X167352973Y-118091910D01*
X167358796Y-118180749D01*
X167360220Y-118186355D01*
X167360699Y-118189381D01*
X167362819Y-118201723D01*
X167363390Y-118204803D01*
X167363919Y-118210560D01*
X167388090Y-118296264D01*
X167388925Y-118299379D01*
X167410845Y-118385690D01*
X167413263Y-118390936D01*
X167414304Y-118393875D01*
X167418652Y-118405660D01*
X167419747Y-118408513D01*
X167421314Y-118414069D01*
X167423864Y-118419240D01*
X167423866Y-118419245D01*
X167460694Y-118493923D01*
X167462114Y-118496901D01*
X167499369Y-118577714D01*
X167502704Y-118582433D01*
X167504308Y-118585211D01*
X167510647Y-118595865D01*
X167512282Y-118598533D01*
X167514835Y-118603710D01*
X167552719Y-118654442D01*
X167568098Y-118675037D01*
X167570037Y-118677706D01*
X167618068Y-118745670D01*
X167618071Y-118745674D01*
X167621405Y-118750391D01*
X167625545Y-118754425D01*
X167627569Y-118756794D01*
X167635863Y-118766252D01*
X167637898Y-118768512D01*
X167641349Y-118773133D01*
X167645586Y-118777049D01*
X167645589Y-118777053D01*
X167706716Y-118833559D01*
X167709108Y-118835829D01*
X167768722Y-118893902D01*
X167768728Y-118893907D01*
X167772865Y-118897937D01*
X167777667Y-118901146D01*
X167780069Y-118903091D01*
X167789935Y-118910868D01*
X167792376Y-118912741D01*
X167796619Y-118916663D01*
X167801504Y-118919746D01*
X167801509Y-118919749D01*
X167871917Y-118964173D01*
X167874661Y-118965955D01*
X167948677Y-119015411D01*
X167953986Y-119017692D01*
X167956784Y-119019211D01*
X167967756Y-119024984D01*
X167970565Y-119026415D01*
X167975446Y-119029495D01*
X167980810Y-119031635D01*
X168058115Y-119062476D01*
X168061161Y-119063737D01*
X168142953Y-119098878D01*
X168148579Y-119100151D01*
X168151505Y-119101102D01*
X168163578Y-119104851D01*
X168166485Y-119105712D01*
X168171840Y-119107848D01*
X168237553Y-119120919D01*
X168259145Y-119125214D01*
X168262371Y-119125900D01*
X168289675Y-119132078D01*
X168349186Y-119145544D01*
X168354963Y-119145771D01*
X168358038Y-119146176D01*
X168370445Y-119147644D01*
X168373553Y-119147971D01*
X168379225Y-119149099D01*
X168385002Y-119149175D01*
X168385005Y-119149175D01*
X168430458Y-119149770D01*
X168468215Y-119150264D01*
X168471472Y-119150349D01*
X168560470Y-119153846D01*
X168566194Y-119153016D01*
X168569337Y-119152851D01*
X168581687Y-119152042D01*
X168584874Y-119151791D01*
X168590654Y-119151867D01*
X168678415Y-119136787D01*
X168681631Y-119136278D01*
X168705658Y-119132794D01*
X168764016Y-119124333D01*
X168764022Y-119124332D01*
X168769730Y-119123504D01*
X168775194Y-119121649D01*
X168778236Y-119120919D01*
X168790336Y-119117846D01*
X168793355Y-119117037D01*
X168799047Y-119116059D01*
X168804461Y-119114061D01*
X168804467Y-119114060D01*
X168882574Y-119085244D01*
X168885684Y-119084143D01*
X168969955Y-119055537D01*
X168974991Y-119052717D01*
X168977834Y-119051451D01*
X168989212Y-119046206D01*
X168992015Y-119044869D01*
X168997425Y-119042873D01*
X169073915Y-118997366D01*
X169076772Y-118995716D01*
X169149407Y-118955039D01*
X169149409Y-118955037D01*
X169154442Y-118952219D01*
X169158880Y-118948528D01*
X169161480Y-118946741D01*
X169171638Y-118939562D01*
X169174179Y-118937716D01*
X169179144Y-118934762D01*
X169246097Y-118876046D01*
X169248580Y-118873926D01*
X169317012Y-118817012D01*
X169320704Y-118812573D01*
X169322866Y-118810411D01*
X169331641Y-118801403D01*
X169333772Y-118799157D01*
X169338119Y-118795345D01*
X169393241Y-118725423D01*
X169395279Y-118722905D01*
X169452219Y-118654442D01*
X169455042Y-118649401D01*
X169456825Y-118646807D01*
X169463729Y-118636475D01*
X169465448Y-118633829D01*
X169469024Y-118629292D01*
X169474785Y-118618342D01*
X169510465Y-118550527D01*
X169512038Y-118547629D01*
X169552715Y-118474994D01*
X169555537Y-118469955D01*
X169557394Y-118464483D01*
X169558681Y-118461593D01*
X169563588Y-118450171D01*
X169564786Y-118447279D01*
X169567477Y-118442164D01*
X169585013Y-118385690D01*
X169593875Y-118357151D01*
X169594893Y-118354016D01*
X169613434Y-118299396D01*
X169623504Y-118269730D01*
X169624333Y-118264014D01*
X169625070Y-118260943D01*
X169627804Y-118248863D01*
X169628467Y-118245743D01*
X169630180Y-118240227D01*
X169640643Y-118151824D01*
X169641073Y-118148558D01*
X169653314Y-118064140D01*
X169653314Y-118064137D01*
X169653846Y-118060470D01*
X169655429Y-118000000D01*
X169651029Y-117952116D01*
X169650500Y-117940587D01*
X169650500Y-112543037D01*
X169650770Y-112534796D01*
X169655033Y-112469754D01*
X169644564Y-112381309D01*
X169644222Y-112378043D01*
X169636610Y-112295194D01*
X169636609Y-112295191D01*
X169636081Y-112289440D01*
X169634512Y-112283878D01*
X169633949Y-112280839D01*
X169631499Y-112268519D01*
X169630858Y-112265506D01*
X169630180Y-112259773D01*
X169628466Y-112254252D01*
X169603795Y-112174799D01*
X169602858Y-112171636D01*
X169580256Y-112091493D01*
X169580251Y-112091479D01*
X169578686Y-112085931D01*
X169576134Y-112080756D01*
X169575025Y-112077867D01*
X169570389Y-112066248D01*
X169569190Y-112063354D01*
X169567477Y-112057837D01*
X169526033Y-111979064D01*
X169524539Y-111976133D01*
X169487723Y-111901476D01*
X169487720Y-111901471D01*
X169485165Y-111896290D01*
X169481707Y-111891659D01*
X169480056Y-111888965D01*
X169473379Y-111878382D01*
X169471708Y-111875809D01*
X169469024Y-111870708D01*
X169413902Y-111800785D01*
X169411905Y-111798183D01*
X169362104Y-111731491D01*
X169362103Y-111731490D01*
X169358651Y-111726867D01*
X169297878Y-111670689D01*
X169294313Y-111667260D01*
X167879032Y-110251980D01*
X167867169Y-110238274D01*
X167862104Y-110231491D01*
X167862103Y-110231490D01*
X167858651Y-110226867D01*
X167797865Y-110170677D01*
X167794300Y-110167248D01*
X167775596Y-110148544D01*
X167761428Y-110136761D01*
X167756469Y-110132412D01*
X167703381Y-110083337D01*
X167684721Y-110071564D01*
X167671394Y-110061880D01*
X167654442Y-110047781D01*
X167649408Y-110044962D01*
X167649404Y-110044959D01*
X167591373Y-110012460D01*
X167585705Y-110009088D01*
X167574346Y-110001921D01*
X167524554Y-109970505D01*
X167504065Y-109962330D01*
X167489192Y-109955236D01*
X167486615Y-109953793D01*
X167469955Y-109944463D01*
X167464493Y-109942609D01*
X167464491Y-109942608D01*
X167401494Y-109921223D01*
X167395326Y-109918948D01*
X167328160Y-109892152D01*
X167322501Y-109891026D01*
X167322500Y-109891026D01*
X167306528Y-109887849D01*
X167290612Y-109883584D01*
X167275199Y-109878352D01*
X167275191Y-109878350D01*
X167269729Y-109876496D01*
X167211198Y-109868009D01*
X167198177Y-109866121D01*
X167191677Y-109865004D01*
X167126443Y-109852028D01*
X167126438Y-109852028D01*
X167120775Y-109850901D01*
X167114999Y-109850825D01*
X167114996Y-109850825D01*
X167098728Y-109850612D01*
X167082302Y-109849319D01*
X167066188Y-109846983D01*
X167060470Y-109846154D01*
X166988204Y-109848993D01*
X166981629Y-109849079D01*
X166909346Y-109848133D01*
X166903649Y-109849112D01*
X166903648Y-109849112D01*
X166887615Y-109851867D01*
X166871225Y-109853590D01*
X166854962Y-109854229D01*
X166854961Y-109854229D01*
X166849187Y-109854456D01*
X166797634Y-109866121D01*
X166778679Y-109870410D01*
X166772210Y-109871697D01*
X166706643Y-109882963D01*
X166706640Y-109882964D01*
X166700953Y-109883941D01*
X166695537Y-109885939D01*
X166680265Y-109891573D01*
X166664470Y-109896252D01*
X166642953Y-109901121D01*
X166596684Y-109921000D01*
X166576513Y-109929666D01*
X166570393Y-109932107D01*
X166563303Y-109934723D01*
X166507990Y-109955129D01*
X166507988Y-109955130D01*
X166502575Y-109957127D01*
X166497616Y-109960077D01*
X166497608Y-109960081D01*
X166483619Y-109968403D01*
X166468941Y-109975882D01*
X166453986Y-109982308D01*
X166448677Y-109984589D01*
X166443877Y-109987796D01*
X166443872Y-109987799D01*
X166388561Y-110024757D01*
X166382981Y-110028278D01*
X166325817Y-110062286D01*
X166325813Y-110062289D01*
X166320856Y-110065238D01*
X166304272Y-110079782D01*
X166291206Y-110089807D01*
X166281524Y-110096277D01*
X166272865Y-110102063D01*
X166268728Y-110106093D01*
X166268723Y-110106097D01*
X166221074Y-110152513D01*
X166216234Y-110156988D01*
X166161881Y-110204655D01*
X166158303Y-110209194D01*
X166158299Y-110209198D01*
X166148229Y-110221972D01*
X166137202Y-110234219D01*
X166125551Y-110245569D01*
X166125545Y-110245576D01*
X166121405Y-110249609D01*
X166079657Y-110308680D01*
X166075749Y-110313914D01*
X166030976Y-110370708D01*
X166024444Y-110383123D01*
X166020708Y-110390224D01*
X166012100Y-110404271D01*
X165999369Y-110422285D01*
X165996949Y-110427533D01*
X165996948Y-110427536D01*
X165969105Y-110487934D01*
X165966189Y-110493848D01*
X165932523Y-110557836D01*
X165930809Y-110563356D01*
X165925982Y-110578901D01*
X165920076Y-110594286D01*
X165913266Y-110609057D01*
X165913264Y-110609063D01*
X165910845Y-110614310D01*
X165909423Y-110619910D01*
X165909421Y-110619915D01*
X165893051Y-110684374D01*
X165891260Y-110690724D01*
X165871533Y-110754253D01*
X165871531Y-110754263D01*
X165869820Y-110759773D01*
X165869142Y-110765505D01*
X165869141Y-110765508D01*
X165867229Y-110781667D01*
X165864224Y-110797877D01*
X165860218Y-110813648D01*
X165860216Y-110813659D01*
X165858796Y-110819251D01*
X165858418Y-110825012D01*
X165858418Y-110825015D01*
X165854069Y-110891381D01*
X165853468Y-110897935D01*
X165844967Y-110969754D01*
X165845345Y-110975522D01*
X165846409Y-110991762D01*
X165846409Y-111008238D01*
X165844967Y-111030246D01*
X165494250Y-111030246D01*
X165511144Y-110992303D01*
X165550500Y-110807146D01*
X165550500Y-110617854D01*
X165548631Y-110609057D01*
X165522885Y-110487934D01*
X165511144Y-110432697D01*
X165483544Y-110370708D01*
X165436839Y-110265806D01*
X165436837Y-110265802D01*
X165434151Y-110259770D01*
X165420533Y-110241026D01*
X165396676Y-110174158D01*
X165412758Y-110105006D01*
X165425386Y-110086652D01*
X165485784Y-110013644D01*
X165492644Y-110003473D01*
X165580804Y-109840424D01*
X165585556Y-109829119D01*
X165621250Y-109713808D01*
X165621456Y-109699705D01*
X165614701Y-109696500D01*
X164022000Y-109696500D01*
X163953879Y-109676498D01*
X163907386Y-109622842D01*
X163896000Y-109570500D01*
X163896000Y-109170385D01*
X164404000Y-109170385D01*
X164408475Y-109185624D01*
X164409865Y-109186829D01*
X164417548Y-109188500D01*
X165607924Y-109188500D01*
X165621455Y-109184527D01*
X165622575Y-109176732D01*
X165590862Y-109068979D01*
X165586269Y-109057611D01*
X165500393Y-108893346D01*
X165493679Y-108883085D01*
X165377532Y-108738627D01*
X165368954Y-108729868D01*
X165226961Y-108610722D01*
X165216841Y-108603792D01*
X165054415Y-108514498D01*
X165043142Y-108509666D01*
X164866462Y-108453620D01*
X164854468Y-108451070D01*
X164710239Y-108434893D01*
X164703215Y-108434500D01*
X164422115Y-108434500D01*
X164406876Y-108438975D01*
X164405671Y-108440365D01*
X164404000Y-108448048D01*
X164404000Y-109170385D01*
X163896000Y-109170385D01*
X163896000Y-108452615D01*
X163891525Y-108437376D01*
X163890135Y-108436171D01*
X163882452Y-108434500D01*
X163603343Y-108434500D01*
X163597195Y-108434801D01*
X163459397Y-108448312D01*
X163447362Y-108450695D01*
X163269924Y-108504267D01*
X163258584Y-108508941D01*
X163089482Y-108598853D01*
X163088721Y-108597422D01*
X163028420Y-108616130D01*
X162960002Y-108597168D01*
X162912697Y-108544227D01*
X162900500Y-108490145D01*
X162900500Y-105692085D01*
X162920502Y-105623964D01*
X162974158Y-105577471D01*
X163044432Y-105567367D01*
X163109012Y-105596861D01*
X163138263Y-105633905D01*
X163170824Y-105696453D01*
X163225935Y-105802321D01*
X163229038Y-105806454D01*
X163229040Y-105806457D01*
X163370978Y-105995501D01*
X163374083Y-105999636D01*
X163552468Y-106170104D01*
X163556740Y-106173018D01*
X163556741Y-106173019D01*
X163585893Y-106192905D01*
X163756300Y-106309149D01*
X163808308Y-106333290D01*
X163975409Y-106410856D01*
X163975413Y-106410857D01*
X163980104Y-106413035D01*
X164217871Y-106478974D01*
X164223008Y-106479523D01*
X164415957Y-106500144D01*
X164415965Y-106500144D01*
X164419292Y-106500500D01*
X164562554Y-106500500D01*
X164565127Y-106500288D01*
X164565138Y-106500288D01*
X164740760Y-106485849D01*
X164740766Y-106485848D01*
X164745911Y-106485425D01*
X164985217Y-106425316D01*
X165124787Y-106364629D01*
X165206744Y-106328993D01*
X165206745Y-106328993D01*
X165211493Y-106326928D01*
X165418661Y-106192905D01*
X165440516Y-106173019D01*
X165503756Y-106115475D01*
X165601158Y-106026846D01*
X165604357Y-106022795D01*
X165604361Y-106022791D01*
X165750881Y-105837264D01*
X165750884Y-105837259D01*
X165754082Y-105833210D01*
X165756577Y-105828691D01*
X165870830Y-105621722D01*
X165870832Y-105621718D01*
X165873327Y-105617198D01*
X165880858Y-105595933D01*
X165953965Y-105389485D01*
X165953966Y-105389481D01*
X165955691Y-105384610D01*
X165962957Y-105343818D01*
X165998055Y-105146783D01*
X165998056Y-105146777D01*
X165998961Y-105141694D01*
X166001559Y-104929002D01*
X166001912Y-104900142D01*
X166001912Y-104900140D01*
X166001975Y-104894972D01*
X165964653Y-104651070D01*
X165887997Y-104416540D01*
X165831450Y-104307915D01*
X165776454Y-104202268D01*
X165776453Y-104202267D01*
X165774065Y-104197679D01*
X165625917Y-104000364D01*
X165447532Y-103829896D01*
X165419212Y-103810577D01*
X165247979Y-103693770D01*
X165247980Y-103693770D01*
X165243700Y-103690851D01*
X165131798Y-103638908D01*
X165024591Y-103589144D01*
X165024587Y-103589143D01*
X165019896Y-103586965D01*
X164782129Y-103521026D01*
X164776992Y-103520477D01*
X164584043Y-103499856D01*
X164584035Y-103499856D01*
X164580708Y-103499500D01*
X164437446Y-103499500D01*
X164434873Y-103499712D01*
X164434862Y-103499712D01*
X164259240Y-103514151D01*
X164259234Y-103514152D01*
X164254089Y-103514575D01*
X164014783Y-103574684D01*
X163788507Y-103673072D01*
X163581339Y-103807095D01*
X163577514Y-103810575D01*
X163577512Y-103810577D01*
X163556281Y-103829896D01*
X163398842Y-103973154D01*
X163395643Y-103977205D01*
X163395639Y-103977209D01*
X163249119Y-104162736D01*
X163249116Y-104162741D01*
X163245918Y-104166790D01*
X163243424Y-104171308D01*
X163243420Y-104171314D01*
X163136809Y-104364440D01*
X163086376Y-104414411D01*
X163016933Y-104429183D01*
X162950528Y-104404067D01*
X162908243Y-104347036D01*
X162900500Y-104303547D01*
X162900500Y-102041436D01*
X162902051Y-102021726D01*
X162903941Y-102009793D01*
X162905492Y-102000000D01*
X162903941Y-101990207D01*
X162903941Y-101983850D01*
X162903084Y-101963869D01*
X162916138Y-101781358D01*
X162918696Y-101763564D01*
X162963375Y-101558176D01*
X162968440Y-101540926D01*
X163041896Y-101343985D01*
X163049364Y-101327633D01*
X163150097Y-101143153D01*
X163159817Y-101128029D01*
X163285781Y-100959761D01*
X163297554Y-100946175D01*
X163446175Y-100797554D01*
X163459761Y-100785781D01*
X163628029Y-100659817D01*
X163643153Y-100650097D01*
X163827633Y-100549364D01*
X163843985Y-100541896D01*
X164040926Y-100468440D01*
X164058174Y-100463376D01*
X164263564Y-100418696D01*
X164281358Y-100416138D01*
X164301534Y-100414695D01*
X164463869Y-100403084D01*
X164483850Y-100403941D01*
X164490207Y-100403941D01*
X164500000Y-100405492D01*
X164521726Y-100402051D01*
X164541436Y-100400500D01*
X180458564Y-100400500D01*
X180478274Y-100402051D01*
G37*
G04 #@! TD.AperFunction*
M02*
