%TF.GenerationSoftware,KiCad,Pcbnew,6.0.10+dfsg-1~bpo11+1*%
%TF.ProjectId,project,70726f6a-6563-4742-9e6b-696361645f70,rev?*%
%TF.SameCoordinates,Original*%
%TF.FileFunction,Drillmap*%
%TF.FilePolarity,Positive*%
%FSLAX45Y45*%
G04 Gerber Fmt 4.5, Leading zero omitted, Abs format (unit mm)*
%MOMM*%
%LPD*%
G01*
G04 APERTURE LIST*
%ADD10C,0.100000*%
%ADD11C,0.200000*%
%ADD12C,0.220000*%
G04 APERTURE END LIST*
D10*
X16450000Y-13000000D02*
X18050000Y-13000000D01*
X18250000Y-12800000D02*
X18250000Y-10200000D01*
X16250000Y-10200000D02*
X16250000Y-12800000D01*
X16450000Y-10000000D02*
G75*
G03*
X16250000Y-10200000I0J-200000D01*
G01*
X16250000Y-12800000D02*
G75*
G03*
X16450000Y-13000000I200000J0D01*
G01*
X18250000Y-10200000D02*
G75*
G03*
X18050000Y-10000000I-200000J0D01*
G01*
X18050000Y-10000000D02*
X16450000Y-10000000D01*
X18050000Y-13000000D02*
G75*
G03*
X18250000Y-12800000I0J200000D01*
G01*
D11*
D12*
X16340000Y-10390000D02*
X16560000Y-10610000D01*
X16560000Y-10390000D02*
X16340000Y-10610000D01*
X17940000Y-10390000D02*
X18160000Y-10610000D01*
X18160000Y-10390000D02*
X17940000Y-10610000D01*
D11*
X16502619Y-13315476D02*
X16502619Y-13115476D01*
X16550238Y-13115476D01*
X16578809Y-13125000D01*
X16597857Y-13144048D01*
X16607381Y-13163095D01*
X16616905Y-13201190D01*
X16616905Y-13229762D01*
X16607381Y-13267857D01*
X16597857Y-13286905D01*
X16578809Y-13305952D01*
X16550238Y-13315476D01*
X16502619Y-13315476D01*
X16702619Y-13315476D02*
X16702619Y-13182143D01*
X16702619Y-13220238D02*
X16712143Y-13201190D01*
X16721667Y-13191667D01*
X16740714Y-13182143D01*
X16759762Y-13182143D01*
X16826429Y-13315476D02*
X16826429Y-13182143D01*
X16826429Y-13115476D02*
X16816905Y-13125000D01*
X16826429Y-13134524D01*
X16835952Y-13125000D01*
X16826429Y-13115476D01*
X16826429Y-13134524D01*
X16950238Y-13315476D02*
X16931190Y-13305952D01*
X16921667Y-13286905D01*
X16921667Y-13115476D01*
X17055000Y-13315476D02*
X17035952Y-13305952D01*
X17026429Y-13286905D01*
X17026429Y-13115476D01*
X17283571Y-13315476D02*
X17283571Y-13115476D01*
X17350238Y-13258333D01*
X17416905Y-13115476D01*
X17416905Y-13315476D01*
X17597857Y-13315476D02*
X17597857Y-13210714D01*
X17588333Y-13191667D01*
X17569286Y-13182143D01*
X17531190Y-13182143D01*
X17512143Y-13191667D01*
X17597857Y-13305952D02*
X17578810Y-13315476D01*
X17531190Y-13315476D01*
X17512143Y-13305952D01*
X17502619Y-13286905D01*
X17502619Y-13267857D01*
X17512143Y-13248809D01*
X17531190Y-13239286D01*
X17578810Y-13239286D01*
X17597857Y-13229762D01*
X17693095Y-13182143D02*
X17693095Y-13382143D01*
X17693095Y-13191667D02*
X17712143Y-13182143D01*
X17750238Y-13182143D01*
X17769286Y-13191667D01*
X17778810Y-13201190D01*
X17788333Y-13220238D01*
X17788333Y-13277381D01*
X17778810Y-13296428D01*
X17769286Y-13305952D01*
X17750238Y-13315476D01*
X17712143Y-13315476D01*
X17693095Y-13305952D01*
X17874048Y-13296428D02*
X17883571Y-13305952D01*
X17874048Y-13315476D01*
X17864524Y-13305952D01*
X17874048Y-13296428D01*
X17874048Y-13315476D01*
X17874048Y-13191667D02*
X17883571Y-13201190D01*
X17874048Y-13210714D01*
X17864524Y-13201190D01*
X17874048Y-13191667D01*
X17874048Y-13210714D01*
X16045000Y-13545000D02*
X16245000Y-13745000D01*
X16245000Y-13545000D02*
X16045000Y-13745000D01*
X16493095Y-13554524D02*
X16502619Y-13545000D01*
X16521667Y-13535476D01*
X16569286Y-13535476D01*
X16588333Y-13545000D01*
X16597857Y-13554524D01*
X16607381Y-13573571D01*
X16607381Y-13592619D01*
X16597857Y-13621190D01*
X16483571Y-13735476D01*
X16607381Y-13735476D01*
X16693095Y-13716428D02*
X16702619Y-13725952D01*
X16693095Y-13735476D01*
X16683571Y-13725952D01*
X16693095Y-13716428D01*
X16693095Y-13735476D01*
X16778810Y-13554524D02*
X16788333Y-13545000D01*
X16807381Y-13535476D01*
X16855000Y-13535476D01*
X16874048Y-13545000D01*
X16883571Y-13554524D01*
X16893095Y-13573571D01*
X16893095Y-13592619D01*
X16883571Y-13621190D01*
X16769286Y-13735476D01*
X16893095Y-13735476D01*
X17016905Y-13535476D02*
X17035952Y-13535476D01*
X17055000Y-13545000D01*
X17064524Y-13554524D01*
X17074048Y-13573571D01*
X17083571Y-13611667D01*
X17083571Y-13659286D01*
X17074048Y-13697381D01*
X17064524Y-13716428D01*
X17055000Y-13725952D01*
X17035952Y-13735476D01*
X17016905Y-13735476D01*
X16997857Y-13725952D01*
X16988333Y-13716428D01*
X16978810Y-13697381D01*
X16969286Y-13659286D01*
X16969286Y-13611667D01*
X16978810Y-13573571D01*
X16988333Y-13554524D01*
X16997857Y-13545000D01*
X17016905Y-13535476D01*
X17207381Y-13535476D02*
X17226429Y-13535476D01*
X17245476Y-13545000D01*
X17255000Y-13554524D01*
X17264524Y-13573571D01*
X17274048Y-13611667D01*
X17274048Y-13659286D01*
X17264524Y-13697381D01*
X17255000Y-13716428D01*
X17245476Y-13725952D01*
X17226429Y-13735476D01*
X17207381Y-13735476D01*
X17188333Y-13725952D01*
X17178810Y-13716428D01*
X17169286Y-13697381D01*
X17159762Y-13659286D01*
X17159762Y-13611667D01*
X17169286Y-13573571D01*
X17178810Y-13554524D01*
X17188333Y-13545000D01*
X17207381Y-13535476D01*
X17359762Y-13735476D02*
X17359762Y-13602143D01*
X17359762Y-13621190D02*
X17369286Y-13611667D01*
X17388333Y-13602143D01*
X17416905Y-13602143D01*
X17435952Y-13611667D01*
X17445476Y-13630714D01*
X17445476Y-13735476D01*
X17445476Y-13630714D02*
X17455000Y-13611667D01*
X17474048Y-13602143D01*
X17502619Y-13602143D01*
X17521667Y-13611667D01*
X17531190Y-13630714D01*
X17531190Y-13735476D01*
X17626429Y-13735476D02*
X17626429Y-13602143D01*
X17626429Y-13621190D02*
X17635952Y-13611667D01*
X17655000Y-13602143D01*
X17683571Y-13602143D01*
X17702619Y-13611667D01*
X17712143Y-13630714D01*
X17712143Y-13735476D01*
X17712143Y-13630714D02*
X17721667Y-13611667D01*
X17740714Y-13602143D01*
X17769286Y-13602143D01*
X17788333Y-13611667D01*
X17797857Y-13630714D01*
X17797857Y-13735476D01*
X18188333Y-13525952D02*
X18016905Y-13783095D01*
X18445476Y-13535476D02*
X18464524Y-13535476D01*
X18483571Y-13545000D01*
X18493095Y-13554524D01*
X18502619Y-13573571D01*
X18512143Y-13611667D01*
X18512143Y-13659286D01*
X18502619Y-13697381D01*
X18493095Y-13716428D01*
X18483571Y-13725952D01*
X18464524Y-13735476D01*
X18445476Y-13735476D01*
X18426429Y-13725952D01*
X18416905Y-13716428D01*
X18407381Y-13697381D01*
X18397857Y-13659286D01*
X18397857Y-13611667D01*
X18407381Y-13573571D01*
X18416905Y-13554524D01*
X18426429Y-13545000D01*
X18445476Y-13535476D01*
X18597857Y-13716428D02*
X18607381Y-13725952D01*
X18597857Y-13735476D01*
X18588333Y-13725952D01*
X18597857Y-13716428D01*
X18597857Y-13735476D01*
X18731190Y-13535476D02*
X18750238Y-13535476D01*
X18769286Y-13545000D01*
X18778810Y-13554524D01*
X18788333Y-13573571D01*
X18797857Y-13611667D01*
X18797857Y-13659286D01*
X18788333Y-13697381D01*
X18778810Y-13716428D01*
X18769286Y-13725952D01*
X18750238Y-13735476D01*
X18731190Y-13735476D01*
X18712143Y-13725952D01*
X18702619Y-13716428D01*
X18693095Y-13697381D01*
X18683571Y-13659286D01*
X18683571Y-13611667D01*
X18693095Y-13573571D01*
X18702619Y-13554524D01*
X18712143Y-13545000D01*
X18731190Y-13535476D01*
X18912143Y-13621190D02*
X18893095Y-13611667D01*
X18883571Y-13602143D01*
X18874048Y-13583095D01*
X18874048Y-13573571D01*
X18883571Y-13554524D01*
X18893095Y-13545000D01*
X18912143Y-13535476D01*
X18950238Y-13535476D01*
X18969286Y-13545000D01*
X18978810Y-13554524D01*
X18988333Y-13573571D01*
X18988333Y-13583095D01*
X18978810Y-13602143D01*
X18969286Y-13611667D01*
X18950238Y-13621190D01*
X18912143Y-13621190D01*
X18893095Y-13630714D01*
X18883571Y-13640238D01*
X18874048Y-13659286D01*
X18874048Y-13697381D01*
X18883571Y-13716428D01*
X18893095Y-13725952D01*
X18912143Y-13735476D01*
X18950238Y-13735476D01*
X18969286Y-13725952D01*
X18978810Y-13716428D01*
X18988333Y-13697381D01*
X18988333Y-13659286D01*
X18978810Y-13640238D01*
X18969286Y-13630714D01*
X18950238Y-13621190D01*
X19159762Y-13535476D02*
X19121667Y-13535476D01*
X19102619Y-13545000D01*
X19093095Y-13554524D01*
X19074048Y-13583095D01*
X19064524Y-13621190D01*
X19064524Y-13697381D01*
X19074048Y-13716428D01*
X19083571Y-13725952D01*
X19102619Y-13735476D01*
X19140714Y-13735476D01*
X19159762Y-13725952D01*
X19169286Y-13716428D01*
X19178810Y-13697381D01*
X19178810Y-13649762D01*
X19169286Y-13630714D01*
X19159762Y-13621190D01*
X19140714Y-13611667D01*
X19102619Y-13611667D01*
X19083571Y-13621190D01*
X19074048Y-13630714D01*
X19064524Y-13649762D01*
X19350238Y-13535476D02*
X19312143Y-13535476D01*
X19293095Y-13545000D01*
X19283571Y-13554524D01*
X19264524Y-13583095D01*
X19255000Y-13621190D01*
X19255000Y-13697381D01*
X19264524Y-13716428D01*
X19274048Y-13725952D01*
X19293095Y-13735476D01*
X19331190Y-13735476D01*
X19350238Y-13725952D01*
X19359762Y-13716428D01*
X19369286Y-13697381D01*
X19369286Y-13649762D01*
X19359762Y-13630714D01*
X19350238Y-13621190D01*
X19331190Y-13611667D01*
X19293095Y-13611667D01*
X19274048Y-13621190D01*
X19264524Y-13630714D01*
X19255000Y-13649762D01*
X19445476Y-13535476D02*
X19445476Y-13573571D01*
X19521667Y-13535476D02*
X19521667Y-13573571D01*
X19816905Y-13811667D02*
X19807381Y-13802143D01*
X19788333Y-13773571D01*
X19778810Y-13754524D01*
X19769286Y-13725952D01*
X19759762Y-13678333D01*
X19759762Y-13640238D01*
X19769286Y-13592619D01*
X19778810Y-13564048D01*
X19788333Y-13545000D01*
X19807381Y-13516428D01*
X19816905Y-13506905D01*
X19883571Y-13554524D02*
X19893095Y-13545000D01*
X19912143Y-13535476D01*
X19959762Y-13535476D01*
X19978810Y-13545000D01*
X19988333Y-13554524D01*
X19997857Y-13573571D01*
X19997857Y-13592619D01*
X19988333Y-13621190D01*
X19874048Y-13735476D01*
X19997857Y-13735476D01*
X20235952Y-13735476D02*
X20235952Y-13535476D01*
X20321667Y-13735476D02*
X20321667Y-13630714D01*
X20312143Y-13611667D01*
X20293095Y-13602143D01*
X20264524Y-13602143D01*
X20245476Y-13611667D01*
X20235952Y-13621190D01*
X20445476Y-13735476D02*
X20426429Y-13725952D01*
X20416905Y-13716428D01*
X20407381Y-13697381D01*
X20407381Y-13640238D01*
X20416905Y-13621190D01*
X20426429Y-13611667D01*
X20445476Y-13602143D01*
X20474048Y-13602143D01*
X20493095Y-13611667D01*
X20502619Y-13621190D01*
X20512143Y-13640238D01*
X20512143Y-13697381D01*
X20502619Y-13716428D01*
X20493095Y-13725952D01*
X20474048Y-13735476D01*
X20445476Y-13735476D01*
X20626429Y-13735476D02*
X20607381Y-13725952D01*
X20597857Y-13706905D01*
X20597857Y-13535476D01*
X20778810Y-13725952D02*
X20759762Y-13735476D01*
X20721667Y-13735476D01*
X20702619Y-13725952D01*
X20693095Y-13706905D01*
X20693095Y-13630714D01*
X20702619Y-13611667D01*
X20721667Y-13602143D01*
X20759762Y-13602143D01*
X20778810Y-13611667D01*
X20788333Y-13630714D01*
X20788333Y-13649762D01*
X20693095Y-13668809D01*
X20864524Y-13725952D02*
X20883571Y-13735476D01*
X20921667Y-13735476D01*
X20940714Y-13725952D01*
X20950238Y-13706905D01*
X20950238Y-13697381D01*
X20940714Y-13678333D01*
X20921667Y-13668809D01*
X20893095Y-13668809D01*
X20874048Y-13659286D01*
X20864524Y-13640238D01*
X20864524Y-13630714D01*
X20874048Y-13611667D01*
X20893095Y-13602143D01*
X20921667Y-13602143D01*
X20940714Y-13611667D01*
X21016905Y-13811667D02*
X21026429Y-13802143D01*
X21045476Y-13773571D01*
X21055000Y-13754524D01*
X21064524Y-13725952D01*
X21074048Y-13678333D01*
X21074048Y-13640238D01*
X21064524Y-13592619D01*
X21055000Y-13564048D01*
X21045476Y-13545000D01*
X21026429Y-13516428D01*
X21016905Y-13506905D01*
X21378810Y-13811667D02*
X21369286Y-13802143D01*
X21350238Y-13773571D01*
X21340714Y-13754524D01*
X21331190Y-13725952D01*
X21321667Y-13678333D01*
X21321667Y-13640238D01*
X21331190Y-13592619D01*
X21340714Y-13564048D01*
X21350238Y-13545000D01*
X21369286Y-13516428D01*
X21378810Y-13506905D01*
X21455000Y-13602143D02*
X21455000Y-13735476D01*
X21455000Y-13621190D02*
X21464524Y-13611667D01*
X21483571Y-13602143D01*
X21512143Y-13602143D01*
X21531190Y-13611667D01*
X21540714Y-13630714D01*
X21540714Y-13735476D01*
X21664524Y-13735476D02*
X21645476Y-13725952D01*
X21635952Y-13716428D01*
X21626429Y-13697381D01*
X21626429Y-13640238D01*
X21635952Y-13621190D01*
X21645476Y-13611667D01*
X21664524Y-13602143D01*
X21693095Y-13602143D01*
X21712143Y-13611667D01*
X21721667Y-13621190D01*
X21731190Y-13640238D01*
X21731190Y-13697381D01*
X21721667Y-13716428D01*
X21712143Y-13725952D01*
X21693095Y-13735476D01*
X21664524Y-13735476D01*
X21788333Y-13602143D02*
X21864524Y-13602143D01*
X21816905Y-13535476D02*
X21816905Y-13706905D01*
X21826429Y-13725952D01*
X21845476Y-13735476D01*
X21864524Y-13735476D01*
X22083571Y-13602143D02*
X22083571Y-13802143D01*
X22083571Y-13611667D02*
X22102619Y-13602143D01*
X22140714Y-13602143D01*
X22159762Y-13611667D01*
X22169286Y-13621190D01*
X22178810Y-13640238D01*
X22178810Y-13697381D01*
X22169286Y-13716428D01*
X22159762Y-13725952D01*
X22140714Y-13735476D01*
X22102619Y-13735476D01*
X22083571Y-13725952D01*
X22293095Y-13735476D02*
X22274048Y-13725952D01*
X22264524Y-13706905D01*
X22264524Y-13535476D01*
X22455000Y-13735476D02*
X22455000Y-13630714D01*
X22445476Y-13611667D01*
X22426428Y-13602143D01*
X22388333Y-13602143D01*
X22369286Y-13611667D01*
X22455000Y-13725952D02*
X22435952Y-13735476D01*
X22388333Y-13735476D01*
X22369286Y-13725952D01*
X22359762Y-13706905D01*
X22359762Y-13687857D01*
X22369286Y-13668809D01*
X22388333Y-13659286D01*
X22435952Y-13659286D01*
X22455000Y-13649762D01*
X22521667Y-13602143D02*
X22597857Y-13602143D01*
X22550238Y-13535476D02*
X22550238Y-13706905D01*
X22559762Y-13725952D01*
X22578809Y-13735476D01*
X22597857Y-13735476D01*
X22740714Y-13725952D02*
X22721667Y-13735476D01*
X22683571Y-13735476D01*
X22664524Y-13725952D01*
X22655000Y-13706905D01*
X22655000Y-13630714D01*
X22664524Y-13611667D01*
X22683571Y-13602143D01*
X22721667Y-13602143D01*
X22740714Y-13611667D01*
X22750238Y-13630714D01*
X22750238Y-13649762D01*
X22655000Y-13668809D01*
X22921667Y-13735476D02*
X22921667Y-13535476D01*
X22921667Y-13725952D02*
X22902619Y-13735476D01*
X22864524Y-13735476D01*
X22845476Y-13725952D01*
X22835952Y-13716428D01*
X22826428Y-13697381D01*
X22826428Y-13640238D01*
X22835952Y-13621190D01*
X22845476Y-13611667D01*
X22864524Y-13602143D01*
X22902619Y-13602143D01*
X22921667Y-13611667D01*
X22997857Y-13811667D02*
X23007381Y-13802143D01*
X23026428Y-13773571D01*
X23035952Y-13754524D01*
X23045476Y-13725952D01*
X23055000Y-13678333D01*
X23055000Y-13640238D01*
X23045476Y-13592619D01*
X23035952Y-13564048D01*
X23026428Y-13545000D01*
X23007381Y-13516428D01*
X22997857Y-13506905D01*
M02*
