%TF.GenerationSoftware,KiCad,Pcbnew,6.0.10+dfsg-1~bpo11+1*%
%TF.ProjectId,project,70726f6a-6563-4742-9e6b-696361645f70,rev?*%
%TF.SameCoordinates,Original*%
%TF.FileFunction,Drillmap*%
%TF.FilePolarity,Positive*%
%FSLAX45Y45*%
G04 Gerber Fmt 4.5, Leading zero omitted, Abs format (unit mm)*
%MOMM*%
%LPD*%
G01*
G04 APERTURE LIST*
%ADD10C,0.100000*%
%ADD11C,0.200000*%
%ADD12C,0.085000*%
G04 APERTURE END LIST*
D10*
X16450000Y-13000000D02*
X18050000Y-13000000D01*
X18250000Y-12800000D02*
X18250000Y-10200000D01*
X16250000Y-10200000D02*
X16250000Y-12800000D01*
X16450000Y-10000000D02*
G75*
G03*
X16250000Y-10200000I0J-200000D01*
G01*
X16250000Y-12800000D02*
G75*
G03*
X16450000Y-13000000I200000J0D01*
G01*
X18250000Y-10200000D02*
G75*
G03*
X18050000Y-10000000I-200000J0D01*
G01*
X18050000Y-10000000D02*
X16450000Y-10000000D01*
X18050000Y-13000000D02*
G75*
G03*
X18250000Y-12800000I0J200000D01*
G01*
D11*
D12*
X16322500Y-10901750D02*
X16407500Y-10986750D01*
X16407500Y-10901750D02*
X16322500Y-10986750D01*
X16322500Y-11028750D02*
X16407500Y-11113750D01*
X16407500Y-11028750D02*
X16322500Y-11113750D01*
X16322500Y-11155750D02*
X16407500Y-11240750D01*
X16407500Y-11155750D02*
X16322500Y-11240750D01*
X16322500Y-11282750D02*
X16407500Y-11367750D01*
X16407500Y-11282750D02*
X16322500Y-11367750D01*
X16322500Y-11409750D02*
X16407500Y-11494750D01*
X16407500Y-11409750D02*
X16322500Y-11494750D01*
X16322500Y-11536750D02*
X16407500Y-11621750D01*
X16407500Y-11536750D02*
X16322500Y-11621750D01*
X16322500Y-11663750D02*
X16407500Y-11748750D01*
X16407500Y-11663750D02*
X16322500Y-11748750D01*
X16322500Y-11790750D02*
X16407500Y-11875750D01*
X16407500Y-11790750D02*
X16322500Y-11875750D01*
X16322500Y-11917750D02*
X16407500Y-12002750D01*
X16407500Y-11917750D02*
X16322500Y-12002750D01*
X16322500Y-12044750D02*
X16407500Y-12129750D01*
X16407500Y-12044750D02*
X16322500Y-12129750D01*
X16322500Y-12171750D02*
X16407500Y-12256750D01*
X16407500Y-12171750D02*
X16322500Y-12256750D01*
X16322500Y-12298750D02*
X16407500Y-12383750D01*
X16407500Y-12298750D02*
X16322500Y-12383750D01*
X16322500Y-12425750D02*
X16407500Y-12510750D01*
X16407500Y-12425750D02*
X16322500Y-12510750D01*
X16322500Y-12552750D02*
X16407500Y-12637750D01*
X16407500Y-12552750D02*
X16322500Y-12637750D01*
X18092500Y-10901750D02*
X18177500Y-10986750D01*
X18177500Y-10901750D02*
X18092500Y-10986750D01*
X18092500Y-11028750D02*
X18177500Y-11113750D01*
X18177500Y-11028750D02*
X18092500Y-11113750D01*
X18092500Y-11155750D02*
X18177500Y-11240750D01*
X18177500Y-11155750D02*
X18092500Y-11240750D01*
X18092500Y-11282750D02*
X18177500Y-11367750D01*
X18177500Y-11282750D02*
X18092500Y-11367750D01*
X18092500Y-11409750D02*
X18177500Y-11494750D01*
X18177500Y-11409750D02*
X18092500Y-11494750D01*
X18092500Y-11536750D02*
X18177500Y-11621750D01*
X18177500Y-11536750D02*
X18092500Y-11621750D01*
X18092500Y-11663750D02*
X18177500Y-11748750D01*
X18177500Y-11663750D02*
X18092500Y-11748750D01*
X18092500Y-11790750D02*
X18177500Y-11875750D01*
X18177500Y-11790750D02*
X18092500Y-11875750D01*
X18092500Y-11917750D02*
X18177500Y-12002750D01*
X18177500Y-11917750D02*
X18092500Y-12002750D01*
X18092500Y-12044750D02*
X18177500Y-12129750D01*
X18177500Y-12044750D02*
X18092500Y-12129750D01*
X18092500Y-12171750D02*
X18177500Y-12256750D01*
X18177500Y-12171750D02*
X18092500Y-12256750D01*
X18092500Y-12298750D02*
X18177500Y-12383750D01*
X18177500Y-12298750D02*
X18092500Y-12383750D01*
X18092500Y-12425750D02*
X18177500Y-12510750D01*
X18177500Y-12425750D02*
X18092500Y-12510750D01*
X18092500Y-12552750D02*
X18177500Y-12637750D01*
X18177500Y-12552750D02*
X18092500Y-12637750D01*
D10*
X16750000Y-11100000D02*
G75*
G03*
X16750000Y-11100000I-50000J0D01*
G01*
X16900000Y-11800000D02*
G75*
G03*
X16900000Y-11800000I-50000J0D01*
G01*
X17124750Y-10561000D02*
X17124750Y-10661000D01*
X17074750Y-10611000D02*
X17174750Y-10611000D01*
X17124750Y-10815000D02*
X17124750Y-10915000D01*
X17074750Y-10865000D02*
X17174750Y-10865000D01*
X17124750Y-11069000D02*
X17124750Y-11169000D01*
X17074750Y-11119000D02*
X17174750Y-11119000D01*
X17124750Y-11323000D02*
X17124750Y-11423000D01*
X17074750Y-11373000D02*
X17174750Y-11373000D01*
X17124750Y-11577000D02*
X17124750Y-11677000D01*
X17074750Y-11627000D02*
X17174750Y-11627000D01*
X17124750Y-11831000D02*
X17124750Y-11931000D01*
X17074750Y-11881000D02*
X17174750Y-11881000D01*
X17124750Y-12085000D02*
X17124750Y-12185000D01*
X17074750Y-12135000D02*
X17174750Y-12135000D01*
X17124750Y-12339000D02*
X17124750Y-12439000D01*
X17074750Y-12389000D02*
X17174750Y-12389000D01*
X17378750Y-10561000D02*
X17378750Y-10661000D01*
X17328750Y-10611000D02*
X17428750Y-10611000D01*
X17378750Y-10815000D02*
X17378750Y-10915000D01*
X17328750Y-10865000D02*
X17428750Y-10865000D01*
X17378750Y-11069000D02*
X17378750Y-11169000D01*
X17328750Y-11119000D02*
X17428750Y-11119000D01*
X17378750Y-11323000D02*
X17378750Y-11423000D01*
X17328750Y-11373000D02*
X17428750Y-11373000D01*
X17378750Y-11577000D02*
X17378750Y-11677000D01*
X17328750Y-11627000D02*
X17428750Y-11627000D01*
X17378750Y-11831000D02*
X17378750Y-11931000D01*
X17328750Y-11881000D02*
X17428750Y-11881000D01*
X17378750Y-12085000D02*
X17378750Y-12185000D01*
X17328750Y-12135000D02*
X17428750Y-12135000D01*
X17378750Y-12339000D02*
X17378750Y-12439000D01*
X17328750Y-12389000D02*
X17428750Y-12389000D01*
D11*
X16502619Y-13315476D02*
X16502619Y-13115476D01*
X16550238Y-13115476D01*
X16578809Y-13125000D01*
X16597857Y-13144048D01*
X16607381Y-13163095D01*
X16616905Y-13201190D01*
X16616905Y-13229762D01*
X16607381Y-13267857D01*
X16597857Y-13286905D01*
X16578809Y-13305952D01*
X16550238Y-13315476D01*
X16502619Y-13315476D01*
X16702619Y-13315476D02*
X16702619Y-13182143D01*
X16702619Y-13220238D02*
X16712143Y-13201190D01*
X16721667Y-13191667D01*
X16740714Y-13182143D01*
X16759762Y-13182143D01*
X16826429Y-13315476D02*
X16826429Y-13182143D01*
X16826429Y-13115476D02*
X16816905Y-13125000D01*
X16826429Y-13134524D01*
X16835952Y-13125000D01*
X16826429Y-13115476D01*
X16826429Y-13134524D01*
X16950238Y-13315476D02*
X16931190Y-13305952D01*
X16921667Y-13286905D01*
X16921667Y-13115476D01*
X17055000Y-13315476D02*
X17035952Y-13305952D01*
X17026429Y-13286905D01*
X17026429Y-13115476D01*
X17283571Y-13315476D02*
X17283571Y-13115476D01*
X17350238Y-13258333D01*
X17416905Y-13115476D01*
X17416905Y-13315476D01*
X17597857Y-13315476D02*
X17597857Y-13210714D01*
X17588333Y-13191667D01*
X17569286Y-13182143D01*
X17531190Y-13182143D01*
X17512143Y-13191667D01*
X17597857Y-13305952D02*
X17578810Y-13315476D01*
X17531190Y-13315476D01*
X17512143Y-13305952D01*
X17502619Y-13286905D01*
X17502619Y-13267857D01*
X17512143Y-13248809D01*
X17531190Y-13239286D01*
X17578810Y-13239286D01*
X17597857Y-13229762D01*
X17693095Y-13182143D02*
X17693095Y-13382143D01*
X17693095Y-13191667D02*
X17712143Y-13182143D01*
X17750238Y-13182143D01*
X17769286Y-13191667D01*
X17778810Y-13201190D01*
X17788333Y-13220238D01*
X17788333Y-13277381D01*
X17778810Y-13296428D01*
X17769286Y-13305952D01*
X17750238Y-13315476D01*
X17712143Y-13315476D01*
X17693095Y-13305952D01*
X17874048Y-13296428D02*
X17883571Y-13305952D01*
X17874048Y-13315476D01*
X17864524Y-13305952D01*
X17874048Y-13296428D01*
X17874048Y-13315476D01*
X17874048Y-13191667D02*
X17883571Y-13201190D01*
X17874048Y-13210714D01*
X17864524Y-13201190D01*
X17874048Y-13191667D01*
X17874048Y-13210714D01*
D12*
X16160000Y-13602500D02*
X16245000Y-13687500D01*
X16245000Y-13602500D02*
X16160000Y-13687500D01*
D11*
X16540714Y-13535476D02*
X16559762Y-13535476D01*
X16578809Y-13545000D01*
X16588333Y-13554524D01*
X16597857Y-13573571D01*
X16607381Y-13611667D01*
X16607381Y-13659286D01*
X16597857Y-13697381D01*
X16588333Y-13716428D01*
X16578809Y-13725952D01*
X16559762Y-13735476D01*
X16540714Y-13735476D01*
X16521667Y-13725952D01*
X16512143Y-13716428D01*
X16502619Y-13697381D01*
X16493095Y-13659286D01*
X16493095Y-13611667D01*
X16502619Y-13573571D01*
X16512143Y-13554524D01*
X16521667Y-13545000D01*
X16540714Y-13535476D01*
X16693095Y-13716428D02*
X16702619Y-13725952D01*
X16693095Y-13735476D01*
X16683571Y-13725952D01*
X16693095Y-13716428D01*
X16693095Y-13735476D01*
X16816905Y-13621190D02*
X16797857Y-13611667D01*
X16788333Y-13602143D01*
X16778810Y-13583095D01*
X16778810Y-13573571D01*
X16788333Y-13554524D01*
X16797857Y-13545000D01*
X16816905Y-13535476D01*
X16855000Y-13535476D01*
X16874048Y-13545000D01*
X16883571Y-13554524D01*
X16893095Y-13573571D01*
X16893095Y-13583095D01*
X16883571Y-13602143D01*
X16874048Y-13611667D01*
X16855000Y-13621190D01*
X16816905Y-13621190D01*
X16797857Y-13630714D01*
X16788333Y-13640238D01*
X16778810Y-13659286D01*
X16778810Y-13697381D01*
X16788333Y-13716428D01*
X16797857Y-13725952D01*
X16816905Y-13735476D01*
X16855000Y-13735476D01*
X16874048Y-13725952D01*
X16883571Y-13716428D01*
X16893095Y-13697381D01*
X16893095Y-13659286D01*
X16883571Y-13640238D01*
X16874048Y-13630714D01*
X16855000Y-13621190D01*
X17074048Y-13535476D02*
X16978810Y-13535476D01*
X16969286Y-13630714D01*
X16978810Y-13621190D01*
X16997857Y-13611667D01*
X17045476Y-13611667D01*
X17064524Y-13621190D01*
X17074048Y-13630714D01*
X17083571Y-13649762D01*
X17083571Y-13697381D01*
X17074048Y-13716428D01*
X17064524Y-13725952D01*
X17045476Y-13735476D01*
X16997857Y-13735476D01*
X16978810Y-13725952D01*
X16969286Y-13716428D01*
X17207381Y-13535476D02*
X17226429Y-13535476D01*
X17245476Y-13545000D01*
X17255000Y-13554524D01*
X17264524Y-13573571D01*
X17274048Y-13611667D01*
X17274048Y-13659286D01*
X17264524Y-13697381D01*
X17255000Y-13716428D01*
X17245476Y-13725952D01*
X17226429Y-13735476D01*
X17207381Y-13735476D01*
X17188333Y-13725952D01*
X17178810Y-13716428D01*
X17169286Y-13697381D01*
X17159762Y-13659286D01*
X17159762Y-13611667D01*
X17169286Y-13573571D01*
X17178810Y-13554524D01*
X17188333Y-13545000D01*
X17207381Y-13535476D01*
X17359762Y-13735476D02*
X17359762Y-13602143D01*
X17359762Y-13621190D02*
X17369286Y-13611667D01*
X17388333Y-13602143D01*
X17416905Y-13602143D01*
X17435952Y-13611667D01*
X17445476Y-13630714D01*
X17445476Y-13735476D01*
X17445476Y-13630714D02*
X17455000Y-13611667D01*
X17474048Y-13602143D01*
X17502619Y-13602143D01*
X17521667Y-13611667D01*
X17531190Y-13630714D01*
X17531190Y-13735476D01*
X17626429Y-13735476D02*
X17626429Y-13602143D01*
X17626429Y-13621190D02*
X17635952Y-13611667D01*
X17655000Y-13602143D01*
X17683571Y-13602143D01*
X17702619Y-13611667D01*
X17712143Y-13630714D01*
X17712143Y-13735476D01*
X17712143Y-13630714D02*
X17721667Y-13611667D01*
X17740714Y-13602143D01*
X17769286Y-13602143D01*
X17788333Y-13611667D01*
X17797857Y-13630714D01*
X17797857Y-13735476D01*
X18188333Y-13525952D02*
X18016905Y-13783095D01*
X18445476Y-13535476D02*
X18464524Y-13535476D01*
X18483571Y-13545000D01*
X18493095Y-13554524D01*
X18502619Y-13573571D01*
X18512143Y-13611667D01*
X18512143Y-13659286D01*
X18502619Y-13697381D01*
X18493095Y-13716428D01*
X18483571Y-13725952D01*
X18464524Y-13735476D01*
X18445476Y-13735476D01*
X18426429Y-13725952D01*
X18416905Y-13716428D01*
X18407381Y-13697381D01*
X18397857Y-13659286D01*
X18397857Y-13611667D01*
X18407381Y-13573571D01*
X18416905Y-13554524D01*
X18426429Y-13545000D01*
X18445476Y-13535476D01*
X18597857Y-13716428D02*
X18607381Y-13725952D01*
X18597857Y-13735476D01*
X18588333Y-13725952D01*
X18597857Y-13716428D01*
X18597857Y-13735476D01*
X18731190Y-13535476D02*
X18750238Y-13535476D01*
X18769286Y-13545000D01*
X18778810Y-13554524D01*
X18788333Y-13573571D01*
X18797857Y-13611667D01*
X18797857Y-13659286D01*
X18788333Y-13697381D01*
X18778810Y-13716428D01*
X18769286Y-13725952D01*
X18750238Y-13735476D01*
X18731190Y-13735476D01*
X18712143Y-13725952D01*
X18702619Y-13716428D01*
X18693095Y-13697381D01*
X18683571Y-13659286D01*
X18683571Y-13611667D01*
X18693095Y-13573571D01*
X18702619Y-13554524D01*
X18712143Y-13545000D01*
X18731190Y-13535476D01*
X18864524Y-13535476D02*
X18988333Y-13535476D01*
X18921667Y-13611667D01*
X18950238Y-13611667D01*
X18969286Y-13621190D01*
X18978810Y-13630714D01*
X18988333Y-13649762D01*
X18988333Y-13697381D01*
X18978810Y-13716428D01*
X18969286Y-13725952D01*
X18950238Y-13735476D01*
X18893095Y-13735476D01*
X18874048Y-13725952D01*
X18864524Y-13716428D01*
X19055000Y-13535476D02*
X19178810Y-13535476D01*
X19112143Y-13611667D01*
X19140714Y-13611667D01*
X19159762Y-13621190D01*
X19169286Y-13630714D01*
X19178810Y-13649762D01*
X19178810Y-13697381D01*
X19169286Y-13716428D01*
X19159762Y-13725952D01*
X19140714Y-13735476D01*
X19083571Y-13735476D01*
X19064524Y-13725952D01*
X19055000Y-13716428D01*
X19359762Y-13535476D02*
X19264524Y-13535476D01*
X19255000Y-13630714D01*
X19264524Y-13621190D01*
X19283571Y-13611667D01*
X19331190Y-13611667D01*
X19350238Y-13621190D01*
X19359762Y-13630714D01*
X19369286Y-13649762D01*
X19369286Y-13697381D01*
X19359762Y-13716428D01*
X19350238Y-13725952D01*
X19331190Y-13735476D01*
X19283571Y-13735476D01*
X19264524Y-13725952D01*
X19255000Y-13716428D01*
X19445476Y-13535476D02*
X19445476Y-13573571D01*
X19521667Y-13535476D02*
X19521667Y-13573571D01*
X19816905Y-13811667D02*
X19807381Y-13802143D01*
X19788333Y-13773571D01*
X19778810Y-13754524D01*
X19769286Y-13725952D01*
X19759762Y-13678333D01*
X19759762Y-13640238D01*
X19769286Y-13592619D01*
X19778810Y-13564048D01*
X19788333Y-13545000D01*
X19807381Y-13516428D01*
X19816905Y-13506905D01*
X19883571Y-13554524D02*
X19893095Y-13545000D01*
X19912143Y-13535476D01*
X19959762Y-13535476D01*
X19978810Y-13545000D01*
X19988333Y-13554524D01*
X19997857Y-13573571D01*
X19997857Y-13592619D01*
X19988333Y-13621190D01*
X19874048Y-13735476D01*
X19997857Y-13735476D01*
X20112143Y-13621190D02*
X20093095Y-13611667D01*
X20083571Y-13602143D01*
X20074048Y-13583095D01*
X20074048Y-13573571D01*
X20083571Y-13554524D01*
X20093095Y-13545000D01*
X20112143Y-13535476D01*
X20150238Y-13535476D01*
X20169286Y-13545000D01*
X20178810Y-13554524D01*
X20188333Y-13573571D01*
X20188333Y-13583095D01*
X20178810Y-13602143D01*
X20169286Y-13611667D01*
X20150238Y-13621190D01*
X20112143Y-13621190D01*
X20093095Y-13630714D01*
X20083571Y-13640238D01*
X20074048Y-13659286D01*
X20074048Y-13697381D01*
X20083571Y-13716428D01*
X20093095Y-13725952D01*
X20112143Y-13735476D01*
X20150238Y-13735476D01*
X20169286Y-13725952D01*
X20178810Y-13716428D01*
X20188333Y-13697381D01*
X20188333Y-13659286D01*
X20178810Y-13640238D01*
X20169286Y-13630714D01*
X20150238Y-13621190D01*
X20426429Y-13735476D02*
X20426429Y-13535476D01*
X20512143Y-13735476D02*
X20512143Y-13630714D01*
X20502619Y-13611667D01*
X20483571Y-13602143D01*
X20455000Y-13602143D01*
X20435952Y-13611667D01*
X20426429Y-13621190D01*
X20635952Y-13735476D02*
X20616905Y-13725952D01*
X20607381Y-13716428D01*
X20597857Y-13697381D01*
X20597857Y-13640238D01*
X20607381Y-13621190D01*
X20616905Y-13611667D01*
X20635952Y-13602143D01*
X20664524Y-13602143D01*
X20683571Y-13611667D01*
X20693095Y-13621190D01*
X20702619Y-13640238D01*
X20702619Y-13697381D01*
X20693095Y-13716428D01*
X20683571Y-13725952D01*
X20664524Y-13735476D01*
X20635952Y-13735476D01*
X20816905Y-13735476D02*
X20797857Y-13725952D01*
X20788333Y-13706905D01*
X20788333Y-13535476D01*
X20969286Y-13725952D02*
X20950238Y-13735476D01*
X20912143Y-13735476D01*
X20893095Y-13725952D01*
X20883571Y-13706905D01*
X20883571Y-13630714D01*
X20893095Y-13611667D01*
X20912143Y-13602143D01*
X20950238Y-13602143D01*
X20969286Y-13611667D01*
X20978810Y-13630714D01*
X20978810Y-13649762D01*
X20883571Y-13668809D01*
X21055000Y-13725952D02*
X21074048Y-13735476D01*
X21112143Y-13735476D01*
X21131190Y-13725952D01*
X21140714Y-13706905D01*
X21140714Y-13697381D01*
X21131190Y-13678333D01*
X21112143Y-13668809D01*
X21083571Y-13668809D01*
X21064524Y-13659286D01*
X21055000Y-13640238D01*
X21055000Y-13630714D01*
X21064524Y-13611667D01*
X21083571Y-13602143D01*
X21112143Y-13602143D01*
X21131190Y-13611667D01*
X21207381Y-13811667D02*
X21216905Y-13802143D01*
X21235952Y-13773571D01*
X21245476Y-13754524D01*
X21255000Y-13725952D01*
X21264524Y-13678333D01*
X21264524Y-13640238D01*
X21255000Y-13592619D01*
X21245476Y-13564048D01*
X21235952Y-13545000D01*
X21216905Y-13516428D01*
X21207381Y-13506905D01*
D10*
X16245000Y-13909000D02*
G75*
G03*
X16245000Y-13909000I-50000J0D01*
G01*
D11*
X16607381Y-13999476D02*
X16493095Y-13999476D01*
X16550238Y-13999476D02*
X16550238Y-13799476D01*
X16531190Y-13828048D01*
X16512143Y-13847095D01*
X16493095Y-13856619D01*
X16693095Y-13980428D02*
X16702619Y-13989952D01*
X16693095Y-13999476D01*
X16683571Y-13989952D01*
X16693095Y-13980428D01*
X16693095Y-13999476D01*
X16826429Y-13799476D02*
X16845476Y-13799476D01*
X16864524Y-13809000D01*
X16874048Y-13818524D01*
X16883571Y-13837571D01*
X16893095Y-13875667D01*
X16893095Y-13923286D01*
X16883571Y-13961381D01*
X16874048Y-13980428D01*
X16864524Y-13989952D01*
X16845476Y-13999476D01*
X16826429Y-13999476D01*
X16807381Y-13989952D01*
X16797857Y-13980428D01*
X16788333Y-13961381D01*
X16778810Y-13923286D01*
X16778810Y-13875667D01*
X16788333Y-13837571D01*
X16797857Y-13818524D01*
X16807381Y-13809000D01*
X16826429Y-13799476D01*
X17016905Y-13799476D02*
X17035952Y-13799476D01*
X17055000Y-13809000D01*
X17064524Y-13818524D01*
X17074048Y-13837571D01*
X17083571Y-13875667D01*
X17083571Y-13923286D01*
X17074048Y-13961381D01*
X17064524Y-13980428D01*
X17055000Y-13989952D01*
X17035952Y-13999476D01*
X17016905Y-13999476D01*
X16997857Y-13989952D01*
X16988333Y-13980428D01*
X16978810Y-13961381D01*
X16969286Y-13923286D01*
X16969286Y-13875667D01*
X16978810Y-13837571D01*
X16988333Y-13818524D01*
X16997857Y-13809000D01*
X17016905Y-13799476D01*
X17207381Y-13799476D02*
X17226429Y-13799476D01*
X17245476Y-13809000D01*
X17255000Y-13818524D01*
X17264524Y-13837571D01*
X17274048Y-13875667D01*
X17274048Y-13923286D01*
X17264524Y-13961381D01*
X17255000Y-13980428D01*
X17245476Y-13989952D01*
X17226429Y-13999476D01*
X17207381Y-13999476D01*
X17188333Y-13989952D01*
X17178810Y-13980428D01*
X17169286Y-13961381D01*
X17159762Y-13923286D01*
X17159762Y-13875667D01*
X17169286Y-13837571D01*
X17178810Y-13818524D01*
X17188333Y-13809000D01*
X17207381Y-13799476D01*
X17359762Y-13999476D02*
X17359762Y-13866143D01*
X17359762Y-13885190D02*
X17369286Y-13875667D01*
X17388333Y-13866143D01*
X17416905Y-13866143D01*
X17435952Y-13875667D01*
X17445476Y-13894714D01*
X17445476Y-13999476D01*
X17445476Y-13894714D02*
X17455000Y-13875667D01*
X17474048Y-13866143D01*
X17502619Y-13866143D01*
X17521667Y-13875667D01*
X17531190Y-13894714D01*
X17531190Y-13999476D01*
X17626429Y-13999476D02*
X17626429Y-13866143D01*
X17626429Y-13885190D02*
X17635952Y-13875667D01*
X17655000Y-13866143D01*
X17683571Y-13866143D01*
X17702619Y-13875667D01*
X17712143Y-13894714D01*
X17712143Y-13999476D01*
X17712143Y-13894714D02*
X17721667Y-13875667D01*
X17740714Y-13866143D01*
X17769286Y-13866143D01*
X17788333Y-13875667D01*
X17797857Y-13894714D01*
X17797857Y-13999476D01*
X18188333Y-13789952D02*
X18016905Y-14047095D01*
X18445476Y-13799476D02*
X18464524Y-13799476D01*
X18483571Y-13809000D01*
X18493095Y-13818524D01*
X18502619Y-13837571D01*
X18512143Y-13875667D01*
X18512143Y-13923286D01*
X18502619Y-13961381D01*
X18493095Y-13980428D01*
X18483571Y-13989952D01*
X18464524Y-13999476D01*
X18445476Y-13999476D01*
X18426429Y-13989952D01*
X18416905Y-13980428D01*
X18407381Y-13961381D01*
X18397857Y-13923286D01*
X18397857Y-13875667D01*
X18407381Y-13837571D01*
X18416905Y-13818524D01*
X18426429Y-13809000D01*
X18445476Y-13799476D01*
X18597857Y-13980428D02*
X18607381Y-13989952D01*
X18597857Y-13999476D01*
X18588333Y-13989952D01*
X18597857Y-13980428D01*
X18597857Y-13999476D01*
X18731190Y-13799476D02*
X18750238Y-13799476D01*
X18769286Y-13809000D01*
X18778810Y-13818524D01*
X18788333Y-13837571D01*
X18797857Y-13875667D01*
X18797857Y-13923286D01*
X18788333Y-13961381D01*
X18778810Y-13980428D01*
X18769286Y-13989952D01*
X18750238Y-13999476D01*
X18731190Y-13999476D01*
X18712143Y-13989952D01*
X18702619Y-13980428D01*
X18693095Y-13961381D01*
X18683571Y-13923286D01*
X18683571Y-13875667D01*
X18693095Y-13837571D01*
X18702619Y-13818524D01*
X18712143Y-13809000D01*
X18731190Y-13799476D01*
X18864524Y-13799476D02*
X18988333Y-13799476D01*
X18921667Y-13875667D01*
X18950238Y-13875667D01*
X18969286Y-13885190D01*
X18978810Y-13894714D01*
X18988333Y-13913762D01*
X18988333Y-13961381D01*
X18978810Y-13980428D01*
X18969286Y-13989952D01*
X18950238Y-13999476D01*
X18893095Y-13999476D01*
X18874048Y-13989952D01*
X18864524Y-13980428D01*
X19083571Y-13999476D02*
X19121667Y-13999476D01*
X19140714Y-13989952D01*
X19150238Y-13980428D01*
X19169286Y-13951857D01*
X19178810Y-13913762D01*
X19178810Y-13837571D01*
X19169286Y-13818524D01*
X19159762Y-13809000D01*
X19140714Y-13799476D01*
X19102619Y-13799476D01*
X19083571Y-13809000D01*
X19074048Y-13818524D01*
X19064524Y-13837571D01*
X19064524Y-13885190D01*
X19074048Y-13904238D01*
X19083571Y-13913762D01*
X19102619Y-13923286D01*
X19140714Y-13923286D01*
X19159762Y-13913762D01*
X19169286Y-13904238D01*
X19178810Y-13885190D01*
X19350238Y-13866143D02*
X19350238Y-13999476D01*
X19302619Y-13789952D02*
X19255000Y-13932809D01*
X19378810Y-13932809D01*
X19445476Y-13799476D02*
X19445476Y-13837571D01*
X19521667Y-13799476D02*
X19521667Y-13837571D01*
X19816905Y-14075667D02*
X19807381Y-14066143D01*
X19788333Y-14037571D01*
X19778810Y-14018524D01*
X19769286Y-13989952D01*
X19759762Y-13942333D01*
X19759762Y-13904238D01*
X19769286Y-13856619D01*
X19778810Y-13828048D01*
X19788333Y-13809000D01*
X19807381Y-13780428D01*
X19816905Y-13770905D01*
X19883571Y-13818524D02*
X19893095Y-13809000D01*
X19912143Y-13799476D01*
X19959762Y-13799476D01*
X19978810Y-13809000D01*
X19988333Y-13818524D01*
X19997857Y-13837571D01*
X19997857Y-13856619D01*
X19988333Y-13885190D01*
X19874048Y-13999476D01*
X19997857Y-13999476D01*
X20235952Y-13999476D02*
X20235952Y-13799476D01*
X20321667Y-13999476D02*
X20321667Y-13894714D01*
X20312143Y-13875667D01*
X20293095Y-13866143D01*
X20264524Y-13866143D01*
X20245476Y-13875667D01*
X20235952Y-13885190D01*
X20445476Y-13999476D02*
X20426429Y-13989952D01*
X20416905Y-13980428D01*
X20407381Y-13961381D01*
X20407381Y-13904238D01*
X20416905Y-13885190D01*
X20426429Y-13875667D01*
X20445476Y-13866143D01*
X20474048Y-13866143D01*
X20493095Y-13875667D01*
X20502619Y-13885190D01*
X20512143Y-13904238D01*
X20512143Y-13961381D01*
X20502619Y-13980428D01*
X20493095Y-13989952D01*
X20474048Y-13999476D01*
X20445476Y-13999476D01*
X20626429Y-13999476D02*
X20607381Y-13989952D01*
X20597857Y-13970905D01*
X20597857Y-13799476D01*
X20778810Y-13989952D02*
X20759762Y-13999476D01*
X20721667Y-13999476D01*
X20702619Y-13989952D01*
X20693095Y-13970905D01*
X20693095Y-13894714D01*
X20702619Y-13875667D01*
X20721667Y-13866143D01*
X20759762Y-13866143D01*
X20778810Y-13875667D01*
X20788333Y-13894714D01*
X20788333Y-13913762D01*
X20693095Y-13932809D01*
X20864524Y-13989952D02*
X20883571Y-13999476D01*
X20921667Y-13999476D01*
X20940714Y-13989952D01*
X20950238Y-13970905D01*
X20950238Y-13961381D01*
X20940714Y-13942333D01*
X20921667Y-13932809D01*
X20893095Y-13932809D01*
X20874048Y-13923286D01*
X20864524Y-13904238D01*
X20864524Y-13894714D01*
X20874048Y-13875667D01*
X20893095Y-13866143D01*
X20921667Y-13866143D01*
X20940714Y-13875667D01*
X21016905Y-14075667D02*
X21026429Y-14066143D01*
X21045476Y-14037571D01*
X21055000Y-14018524D01*
X21064524Y-13989952D01*
X21074048Y-13942333D01*
X21074048Y-13904238D01*
X21064524Y-13856619D01*
X21055000Y-13828048D01*
X21045476Y-13809000D01*
X21026429Y-13780428D01*
X21016905Y-13770905D01*
D10*
X16195000Y-14123000D02*
X16195000Y-14223000D01*
X16145000Y-14173000D02*
X16245000Y-14173000D01*
D11*
X16607381Y-14263476D02*
X16493095Y-14263476D01*
X16550238Y-14263476D02*
X16550238Y-14063476D01*
X16531190Y-14092048D01*
X16512143Y-14111095D01*
X16493095Y-14120619D01*
X16693095Y-14244428D02*
X16702619Y-14253952D01*
X16693095Y-14263476D01*
X16683571Y-14253952D01*
X16693095Y-14244428D01*
X16693095Y-14263476D01*
X16826429Y-14063476D02*
X16845476Y-14063476D01*
X16864524Y-14073000D01*
X16874048Y-14082524D01*
X16883571Y-14101571D01*
X16893095Y-14139667D01*
X16893095Y-14187286D01*
X16883571Y-14225381D01*
X16874048Y-14244428D01*
X16864524Y-14253952D01*
X16845476Y-14263476D01*
X16826429Y-14263476D01*
X16807381Y-14253952D01*
X16797857Y-14244428D01*
X16788333Y-14225381D01*
X16778810Y-14187286D01*
X16778810Y-14139667D01*
X16788333Y-14101571D01*
X16797857Y-14082524D01*
X16807381Y-14073000D01*
X16826429Y-14063476D01*
X17016905Y-14063476D02*
X17035952Y-14063476D01*
X17055000Y-14073000D01*
X17064524Y-14082524D01*
X17074048Y-14101571D01*
X17083571Y-14139667D01*
X17083571Y-14187286D01*
X17074048Y-14225381D01*
X17064524Y-14244428D01*
X17055000Y-14253952D01*
X17035952Y-14263476D01*
X17016905Y-14263476D01*
X16997857Y-14253952D01*
X16988333Y-14244428D01*
X16978810Y-14225381D01*
X16969286Y-14187286D01*
X16969286Y-14139667D01*
X16978810Y-14101571D01*
X16988333Y-14082524D01*
X16997857Y-14073000D01*
X17016905Y-14063476D01*
X17207381Y-14063476D02*
X17226429Y-14063476D01*
X17245476Y-14073000D01*
X17255000Y-14082524D01*
X17264524Y-14101571D01*
X17274048Y-14139667D01*
X17274048Y-14187286D01*
X17264524Y-14225381D01*
X17255000Y-14244428D01*
X17245476Y-14253952D01*
X17226429Y-14263476D01*
X17207381Y-14263476D01*
X17188333Y-14253952D01*
X17178810Y-14244428D01*
X17169286Y-14225381D01*
X17159762Y-14187286D01*
X17159762Y-14139667D01*
X17169286Y-14101571D01*
X17178810Y-14082524D01*
X17188333Y-14073000D01*
X17207381Y-14063476D01*
X17359762Y-14263476D02*
X17359762Y-14130143D01*
X17359762Y-14149190D02*
X17369286Y-14139667D01*
X17388333Y-14130143D01*
X17416905Y-14130143D01*
X17435952Y-14139667D01*
X17445476Y-14158714D01*
X17445476Y-14263476D01*
X17445476Y-14158714D02*
X17455000Y-14139667D01*
X17474048Y-14130143D01*
X17502619Y-14130143D01*
X17521667Y-14139667D01*
X17531190Y-14158714D01*
X17531190Y-14263476D01*
X17626429Y-14263476D02*
X17626429Y-14130143D01*
X17626429Y-14149190D02*
X17635952Y-14139667D01*
X17655000Y-14130143D01*
X17683571Y-14130143D01*
X17702619Y-14139667D01*
X17712143Y-14158714D01*
X17712143Y-14263476D01*
X17712143Y-14158714D02*
X17721667Y-14139667D01*
X17740714Y-14130143D01*
X17769286Y-14130143D01*
X17788333Y-14139667D01*
X17797857Y-14158714D01*
X17797857Y-14263476D01*
X18188333Y-14053952D02*
X18016905Y-14311095D01*
X18445476Y-14063476D02*
X18464524Y-14063476D01*
X18483571Y-14073000D01*
X18493095Y-14082524D01*
X18502619Y-14101571D01*
X18512143Y-14139667D01*
X18512143Y-14187286D01*
X18502619Y-14225381D01*
X18493095Y-14244428D01*
X18483571Y-14253952D01*
X18464524Y-14263476D01*
X18445476Y-14263476D01*
X18426429Y-14253952D01*
X18416905Y-14244428D01*
X18407381Y-14225381D01*
X18397857Y-14187286D01*
X18397857Y-14139667D01*
X18407381Y-14101571D01*
X18416905Y-14082524D01*
X18426429Y-14073000D01*
X18445476Y-14063476D01*
X18597857Y-14244428D02*
X18607381Y-14253952D01*
X18597857Y-14263476D01*
X18588333Y-14253952D01*
X18597857Y-14244428D01*
X18597857Y-14263476D01*
X18731190Y-14063476D02*
X18750238Y-14063476D01*
X18769286Y-14073000D01*
X18778810Y-14082524D01*
X18788333Y-14101571D01*
X18797857Y-14139667D01*
X18797857Y-14187286D01*
X18788333Y-14225381D01*
X18778810Y-14244428D01*
X18769286Y-14253952D01*
X18750238Y-14263476D01*
X18731190Y-14263476D01*
X18712143Y-14253952D01*
X18702619Y-14244428D01*
X18693095Y-14225381D01*
X18683571Y-14187286D01*
X18683571Y-14139667D01*
X18693095Y-14101571D01*
X18702619Y-14082524D01*
X18712143Y-14073000D01*
X18731190Y-14063476D01*
X18864524Y-14063476D02*
X18988333Y-14063476D01*
X18921667Y-14139667D01*
X18950238Y-14139667D01*
X18969286Y-14149190D01*
X18978810Y-14158714D01*
X18988333Y-14177762D01*
X18988333Y-14225381D01*
X18978810Y-14244428D01*
X18969286Y-14253952D01*
X18950238Y-14263476D01*
X18893095Y-14263476D01*
X18874048Y-14253952D01*
X18864524Y-14244428D01*
X19083571Y-14263476D02*
X19121667Y-14263476D01*
X19140714Y-14253952D01*
X19150238Y-14244428D01*
X19169286Y-14215857D01*
X19178810Y-14177762D01*
X19178810Y-14101571D01*
X19169286Y-14082524D01*
X19159762Y-14073000D01*
X19140714Y-14063476D01*
X19102619Y-14063476D01*
X19083571Y-14073000D01*
X19074048Y-14082524D01*
X19064524Y-14101571D01*
X19064524Y-14149190D01*
X19074048Y-14168238D01*
X19083571Y-14177762D01*
X19102619Y-14187286D01*
X19140714Y-14187286D01*
X19159762Y-14177762D01*
X19169286Y-14168238D01*
X19178810Y-14149190D01*
X19350238Y-14130143D02*
X19350238Y-14263476D01*
X19302619Y-14053952D02*
X19255000Y-14196809D01*
X19378810Y-14196809D01*
X19445476Y-14063476D02*
X19445476Y-14101571D01*
X19521667Y-14063476D02*
X19521667Y-14101571D01*
X19816905Y-14339667D02*
X19807381Y-14330143D01*
X19788333Y-14301571D01*
X19778810Y-14282524D01*
X19769286Y-14253952D01*
X19759762Y-14206333D01*
X19759762Y-14168238D01*
X19769286Y-14120619D01*
X19778810Y-14092048D01*
X19788333Y-14073000D01*
X19807381Y-14044428D01*
X19816905Y-14034905D01*
X19997857Y-14263476D02*
X19883571Y-14263476D01*
X19940714Y-14263476D02*
X19940714Y-14063476D01*
X19921667Y-14092048D01*
X19902619Y-14111095D01*
X19883571Y-14120619D01*
X20169286Y-14063476D02*
X20131190Y-14063476D01*
X20112143Y-14073000D01*
X20102619Y-14082524D01*
X20083571Y-14111095D01*
X20074048Y-14149190D01*
X20074048Y-14225381D01*
X20083571Y-14244428D01*
X20093095Y-14253952D01*
X20112143Y-14263476D01*
X20150238Y-14263476D01*
X20169286Y-14253952D01*
X20178810Y-14244428D01*
X20188333Y-14225381D01*
X20188333Y-14177762D01*
X20178810Y-14158714D01*
X20169286Y-14149190D01*
X20150238Y-14139667D01*
X20112143Y-14139667D01*
X20093095Y-14149190D01*
X20083571Y-14158714D01*
X20074048Y-14177762D01*
X20426429Y-14263476D02*
X20426429Y-14063476D01*
X20512143Y-14263476D02*
X20512143Y-14158714D01*
X20502619Y-14139667D01*
X20483571Y-14130143D01*
X20455000Y-14130143D01*
X20435952Y-14139667D01*
X20426429Y-14149190D01*
X20635952Y-14263476D02*
X20616905Y-14253952D01*
X20607381Y-14244428D01*
X20597857Y-14225381D01*
X20597857Y-14168238D01*
X20607381Y-14149190D01*
X20616905Y-14139667D01*
X20635952Y-14130143D01*
X20664524Y-14130143D01*
X20683571Y-14139667D01*
X20693095Y-14149190D01*
X20702619Y-14168238D01*
X20702619Y-14225381D01*
X20693095Y-14244428D01*
X20683571Y-14253952D01*
X20664524Y-14263476D01*
X20635952Y-14263476D01*
X20816905Y-14263476D02*
X20797857Y-14253952D01*
X20788333Y-14234905D01*
X20788333Y-14063476D01*
X20969286Y-14253952D02*
X20950238Y-14263476D01*
X20912143Y-14263476D01*
X20893095Y-14253952D01*
X20883571Y-14234905D01*
X20883571Y-14158714D01*
X20893095Y-14139667D01*
X20912143Y-14130143D01*
X20950238Y-14130143D01*
X20969286Y-14139667D01*
X20978810Y-14158714D01*
X20978810Y-14177762D01*
X20883571Y-14196809D01*
X21055000Y-14253952D02*
X21074048Y-14263476D01*
X21112143Y-14263476D01*
X21131190Y-14253952D01*
X21140714Y-14234905D01*
X21140714Y-14225381D01*
X21131190Y-14206333D01*
X21112143Y-14196809D01*
X21083571Y-14196809D01*
X21064524Y-14187286D01*
X21055000Y-14168238D01*
X21055000Y-14158714D01*
X21064524Y-14139667D01*
X21083571Y-14130143D01*
X21112143Y-14130143D01*
X21131190Y-14139667D01*
X21207381Y-14339667D02*
X21216905Y-14330143D01*
X21235952Y-14301571D01*
X21245476Y-14282524D01*
X21255000Y-14253952D01*
X21264524Y-14206333D01*
X21264524Y-14168238D01*
X21255000Y-14120619D01*
X21245476Y-14092048D01*
X21235952Y-14073000D01*
X21216905Y-14044428D01*
X21207381Y-14034905D01*
M02*
