G04 #@! TF.GenerationSoftware,KiCad,Pcbnew,6.0.10+dfsg-1~bpo11+1*
G04 #@! TF.ProjectId,project,70726f6a-6563-4742-9e6b-696361645f70,rev?*
G04 #@! TF.SameCoordinates,Original*
G04 #@! TF.FileFunction,Copper,L1,Top*
G04 #@! TF.FilePolarity,Positive*
%FSLAX46Y46*%
G04 Gerber Fmt 4.6, Leading zero omitted, Abs format (unit mm)*
%MOMM*%
%LPD*%
G01*
G04 APERTURE LIST*
G04 #@! TA.AperFunction,Profile*
%ADD10C,0.100000*%
G04 #@! TD*
G04 #@! TA.AperFunction,ComponentPad*
%ADD11C,2.100000*%
G04 #@! TD*
G04 #@! TA.AperFunction,ComponentPad*
%ADD12O,2.000000X1.000000*%
G04 #@! TD*
G04 #@! TA.AperFunction,ComponentPad*
%ADD13O,1.000000X2.000000*%
G04 #@! TD*
G04 #@! TA.AperFunction,ComponentPad*
%ADD14C,1.700000*%
G04 #@! TD*
G04 #@! TA.AperFunction,Conductor*
%ADD15C,0.300000*%
G04 #@! TD*
G04 #@! TA.AperFunction,Conductor*
%ADD16C,0.400000*%
G04 #@! TD*
G04 #@! TA.AperFunction,Conductor*
%ADD17C,0.700000*%
G04 #@! TD*
G04 APERTURE END LIST*
D10*
X163500000Y-107400000D02*
G75*
G03*
X162500000Y-108400000I0J-1000000D01*
G01*
X163500000Y-127985393D02*
X181500000Y-127985393D01*
X182500000Y-126992500D02*
X182500000Y-108400000D01*
X162500000Y-108400000D02*
X162500000Y-126992500D01*
X162499907Y-126992500D02*
G75*
G03*
X163500000Y-127985393I996493J3600D01*
G01*
X182500000Y-108400000D02*
G75*
G03*
X181500000Y-107400000I-1000000J0D01*
G01*
X181500000Y-127985300D02*
G75*
G03*
X182500000Y-126992500I3600J996400D01*
G01*
X181500000Y-107400000D02*
X163500000Y-107400000D01*
D11*
X178500000Y-123692500D03*
D12*
X164150000Y-109442500D03*
X164150000Y-110712500D03*
X164150000Y-111982500D03*
X164150000Y-113252500D03*
X164150000Y-114522500D03*
X164150000Y-115792500D03*
X164150000Y-117062500D03*
X164150000Y-118332500D03*
X164150000Y-119602500D03*
X164150000Y-120872500D03*
X164150000Y-122142500D03*
X164150000Y-123412500D03*
X164150000Y-124682500D03*
X164150000Y-125952500D03*
D13*
X166790000Y-126572500D03*
X168060000Y-126572500D03*
X169330000Y-126572500D03*
X170600000Y-126572500D03*
X171870000Y-126572500D03*
X173140000Y-126572500D03*
X174410000Y-126572500D03*
X175680000Y-126572500D03*
X176950000Y-126572500D03*
X178220000Y-126572500D03*
D12*
X180850000Y-125952500D03*
X180850000Y-124682500D03*
X180850000Y-123412500D03*
X180850000Y-122142500D03*
X180850000Y-120872500D03*
X180850000Y-119602500D03*
X180850000Y-118332500D03*
X180850000Y-117062500D03*
X180850000Y-115792500D03*
X180850000Y-114522500D03*
X180850000Y-113252500D03*
X180850000Y-111982500D03*
X180850000Y-110712500D03*
X180850000Y-109442500D03*
D11*
X166500000Y-123692500D03*
X178500000Y-111692500D03*
X166500000Y-111692500D03*
G04 #@! TA.AperFunction,ComponentPad*
G36*
G01*
X170380000Y-114482500D02*
X170380000Y-113282500D01*
G75*
G02*
X170630000Y-113032500I250000J0D01*
G01*
X171830000Y-113032500D01*
G75*
G02*
X172080000Y-113282500I0J-250000D01*
G01*
X172080000Y-114482500D01*
G75*
G02*
X171830000Y-114732500I-250000J0D01*
G01*
X170630000Y-114732500D01*
G75*
G02*
X170380000Y-114482500I0J250000D01*
G01*
G37*
G04 #@! TD.AperFunction*
D14*
X173770000Y-113882500D03*
X171230000Y-116422500D03*
X173770000Y-116422500D03*
X171230000Y-118962500D03*
X173770000Y-118962500D03*
X171230000Y-121502500D03*
X173770000Y-121502500D03*
D15*
X169030000Y-116422500D02*
X171230000Y-116422500D01*
X164590000Y-111982500D02*
X169030000Y-116422500D01*
X163650000Y-111982500D02*
X164590000Y-111982500D01*
D16*
X173500000Y-112192500D02*
X175592500Y-112192500D01*
X171230000Y-121502500D02*
X172500000Y-120232500D01*
X172500000Y-120232500D02*
X172500000Y-113192500D01*
X172500000Y-113192500D02*
X173500000Y-112192500D01*
X176652500Y-113252500D02*
X181350000Y-113252500D01*
X175592500Y-112192500D02*
X176652500Y-113252500D01*
D15*
X174602082Y-123792500D02*
X170500000Y-123792500D01*
X170500000Y-123792500D02*
X169500000Y-122792500D01*
X176950000Y-127072500D02*
X176950000Y-126140418D01*
X176950000Y-126140418D02*
X174602082Y-123792500D01*
X169500000Y-120692500D02*
X171230000Y-118962500D01*
X169500000Y-122792500D02*
X169500000Y-120692500D01*
D16*
X175190000Y-113882500D02*
X173770000Y-113882500D01*
X181350000Y-114522500D02*
X175830000Y-114522500D01*
X175830000Y-114522500D02*
X175190000Y-113882500D01*
D15*
X176300000Y-118952500D02*
X173770000Y-116422500D01*
X177509188Y-124722500D02*
X177037106Y-124722500D01*
X181350000Y-125952500D02*
X179760000Y-125952500D01*
X177037106Y-124722500D02*
X176300000Y-123985394D01*
X179760000Y-125952500D02*
X179000000Y-125192500D01*
X179000000Y-125192500D02*
X177979188Y-125192500D01*
X177979188Y-125192500D02*
X177509188Y-124722500D01*
X176300000Y-123985394D02*
X176300000Y-118952500D01*
X178220000Y-127072500D02*
X178220000Y-126140418D01*
X178220000Y-126140418D02*
X177302082Y-125222500D01*
X175500000Y-120792500D02*
X173770000Y-119062500D01*
X175500000Y-123892500D02*
X175500000Y-120792500D01*
X173770000Y-119062500D02*
X173770000Y-118962500D01*
X176830000Y-125222500D02*
X175500000Y-123892500D01*
X177302082Y-125222500D02*
X176830000Y-125222500D01*
D17*
X165697056Y-110092500D02*
X168900000Y-110092500D01*
X165077056Y-110712500D02*
X165697056Y-110092500D01*
X163650000Y-110712500D02*
X165077056Y-110712500D01*
X171230000Y-112422500D02*
X171230000Y-113882500D01*
X168900000Y-110092500D02*
X171230000Y-112422500D01*
G04 #@! TA.AperFunction,Conductor*
G36*
X165580572Y-113751596D02*
G01*
X168630118Y-116801142D01*
X168633771Y-116804951D01*
X168675799Y-116850656D01*
X168683099Y-116855182D01*
X168683100Y-116855183D01*
X168712783Y-116873587D01*
X168722553Y-116880301D01*
X168757216Y-116906612D01*
X168771193Y-116912146D01*
X168791202Y-116922209D01*
X168796688Y-116925611D01*
X168796692Y-116925613D01*
X168803986Y-116930135D01*
X168812228Y-116932529D01*
X168812231Y-116932531D01*
X168845784Y-116942279D01*
X168856997Y-116946118D01*
X168897453Y-116962135D01*
X168905996Y-116963033D01*
X168905997Y-116963033D01*
X168912402Y-116963706D01*
X168934380Y-116968018D01*
X168948825Y-116972215D01*
X168955408Y-116972698D01*
X168955411Y-116972699D01*
X168957208Y-116972831D01*
X168957219Y-116972831D01*
X168959515Y-116973000D01*
X168994219Y-116973000D01*
X169007390Y-116973690D01*
X169047454Y-116977901D01*
X169055919Y-116976469D01*
X169055928Y-116976469D01*
X169066000Y-116974765D01*
X169087013Y-116973000D01*
X170026657Y-116973000D01*
X170094778Y-116993002D01*
X170136719Y-117041020D01*
X170137820Y-117040385D01*
X170140575Y-117045155D01*
X170142898Y-117050138D01*
X170268402Y-117229377D01*
X170423123Y-117384098D01*
X170427631Y-117387255D01*
X170427634Y-117387257D01*
X170597852Y-117506445D01*
X170602361Y-117509602D01*
X170607343Y-117511925D01*
X170607348Y-117511928D01*
X170749695Y-117578305D01*
X170802980Y-117625222D01*
X170822441Y-117693500D01*
X170801899Y-117761460D01*
X170749695Y-117806695D01*
X170607343Y-117873075D01*
X170607340Y-117873077D01*
X170602362Y-117875398D01*
X170423123Y-118000902D01*
X170268402Y-118155623D01*
X170142898Y-118334862D01*
X170050425Y-118533170D01*
X169993793Y-118744523D01*
X169974723Y-118962500D01*
X169993793Y-119180477D01*
X170007790Y-119232714D01*
X170025621Y-119299261D01*
X170023931Y-119370237D01*
X169993009Y-119420967D01*
X169121358Y-120292618D01*
X169117549Y-120296271D01*
X169071844Y-120338299D01*
X169048901Y-120375302D01*
X169042200Y-120385052D01*
X169015888Y-120419717D01*
X169010354Y-120433695D01*
X169000293Y-120453699D01*
X168992365Y-120466486D01*
X168989968Y-120474737D01*
X168989967Y-120474739D01*
X168980225Y-120508272D01*
X168976380Y-120519502D01*
X168960364Y-120559953D01*
X168959466Y-120568494D01*
X168959466Y-120568495D01*
X168958792Y-120574908D01*
X168954480Y-120596883D01*
X168950285Y-120611325D01*
X168949500Y-120622015D01*
X168949500Y-120656717D01*
X168948810Y-120669887D01*
X168944599Y-120709954D01*
X168946031Y-120718419D01*
X168946031Y-120718428D01*
X168947735Y-120728500D01*
X168949500Y-120749513D01*
X168949500Y-122777500D01*
X168949391Y-122782743D01*
X168946790Y-122844794D01*
X168948752Y-122853159D01*
X168956727Y-122887162D01*
X168958890Y-122898833D01*
X168964794Y-122941932D01*
X168968206Y-122949816D01*
X168968206Y-122949817D01*
X168970765Y-122955730D01*
X168977799Y-122976999D01*
X168981232Y-122991636D01*
X168985369Y-122999161D01*
X168985370Y-122999164D01*
X169002195Y-123029768D01*
X169007411Y-123040413D01*
X169024695Y-123080355D01*
X169034158Y-123092041D01*
X169046645Y-123110625D01*
X169053893Y-123123808D01*
X169060897Y-123131922D01*
X169085433Y-123156458D01*
X169094258Y-123166259D01*
X169114206Y-123190892D01*
X169119614Y-123197570D01*
X169126612Y-123202543D01*
X169126617Y-123202548D01*
X169134948Y-123208468D01*
X169151054Y-123222079D01*
X170100130Y-124171155D01*
X170103783Y-124174964D01*
X170145799Y-124220656D01*
X170160499Y-124229770D01*
X170182783Y-124243587D01*
X170192565Y-124250310D01*
X170227217Y-124276612D01*
X170241195Y-124282146D01*
X170261199Y-124292207D01*
X170273986Y-124300135D01*
X170282237Y-124302532D01*
X170282239Y-124302533D01*
X170315772Y-124312275D01*
X170327002Y-124316120D01*
X170367453Y-124332136D01*
X170375995Y-124333034D01*
X170376000Y-124333035D01*
X170382409Y-124333709D01*
X170404385Y-124338020D01*
X170412488Y-124340374D01*
X170418825Y-124342215D01*
X170425803Y-124342727D01*
X170427208Y-124342831D01*
X170427219Y-124342831D01*
X170429515Y-124343000D01*
X170464210Y-124343000D01*
X170477381Y-124343690D01*
X170517455Y-124347902D01*
X170525927Y-124346469D01*
X170525929Y-124346469D01*
X170536002Y-124344765D01*
X170557015Y-124343000D01*
X174321867Y-124343000D01*
X174389988Y-124363002D01*
X174410962Y-124379905D01*
X175176317Y-125145260D01*
X175210343Y-125207572D01*
X175205278Y-125278387D01*
X175161283Y-125336291D01*
X175119061Y-125366967D01*
X175052193Y-125390826D01*
X174983042Y-125374745D01*
X174970939Y-125366967D01*
X174868072Y-125292230D01*
X174868071Y-125292229D01*
X174862730Y-125288349D01*
X174689803Y-125211356D01*
X174591788Y-125190522D01*
X174511103Y-125173372D01*
X174511099Y-125173372D01*
X174504646Y-125172000D01*
X174315354Y-125172000D01*
X174308901Y-125173372D01*
X174308897Y-125173372D01*
X174228212Y-125190522D01*
X174130197Y-125211356D01*
X173957270Y-125288349D01*
X173951929Y-125292229D01*
X173951928Y-125292230D01*
X173849061Y-125366967D01*
X173782193Y-125390826D01*
X173713041Y-125374745D01*
X173700939Y-125366967D01*
X173598072Y-125292230D01*
X173598071Y-125292229D01*
X173592730Y-125288349D01*
X173419803Y-125211356D01*
X173321788Y-125190522D01*
X173241103Y-125173372D01*
X173241099Y-125173372D01*
X173234646Y-125172000D01*
X173045354Y-125172000D01*
X173038901Y-125173372D01*
X173038897Y-125173372D01*
X172958212Y-125190522D01*
X172860197Y-125211356D01*
X172687270Y-125288349D01*
X172681929Y-125292229D01*
X172681928Y-125292230D01*
X172579061Y-125366967D01*
X172512193Y-125390826D01*
X172443041Y-125374745D01*
X172430939Y-125366967D01*
X172328072Y-125292230D01*
X172328071Y-125292229D01*
X172322730Y-125288349D01*
X172149803Y-125211356D01*
X172051788Y-125190522D01*
X171971103Y-125173372D01*
X171971099Y-125173372D01*
X171964646Y-125172000D01*
X171775354Y-125172000D01*
X171768901Y-125173372D01*
X171768897Y-125173372D01*
X171688212Y-125190522D01*
X171590197Y-125211356D01*
X171417270Y-125288349D01*
X171411929Y-125292229D01*
X171411928Y-125292230D01*
X171309061Y-125366967D01*
X171242193Y-125390826D01*
X171173041Y-125374745D01*
X171160939Y-125366967D01*
X171058072Y-125292230D01*
X171058071Y-125292229D01*
X171052730Y-125288349D01*
X170879803Y-125211356D01*
X170781788Y-125190522D01*
X170701103Y-125173372D01*
X170701099Y-125173372D01*
X170694646Y-125172000D01*
X170505354Y-125172000D01*
X170498901Y-125173372D01*
X170498897Y-125173372D01*
X170418212Y-125190522D01*
X170320197Y-125211356D01*
X170147270Y-125288349D01*
X170141929Y-125292229D01*
X170141928Y-125292230D01*
X170039061Y-125366967D01*
X169972193Y-125390826D01*
X169903041Y-125374745D01*
X169890939Y-125366967D01*
X169788072Y-125292230D01*
X169788071Y-125292229D01*
X169782730Y-125288349D01*
X169609803Y-125211356D01*
X169511788Y-125190522D01*
X169431103Y-125173372D01*
X169431099Y-125173372D01*
X169424646Y-125172000D01*
X169235354Y-125172000D01*
X169228901Y-125173372D01*
X169228897Y-125173372D01*
X169148212Y-125190522D01*
X169050197Y-125211356D01*
X168877270Y-125288349D01*
X168871929Y-125292229D01*
X168871928Y-125292230D01*
X168769061Y-125366967D01*
X168702193Y-125390826D01*
X168633041Y-125374745D01*
X168620939Y-125366967D01*
X168518072Y-125292230D01*
X168518071Y-125292229D01*
X168512730Y-125288349D01*
X168339803Y-125211356D01*
X168241788Y-125190522D01*
X168161103Y-125173372D01*
X168161099Y-125173372D01*
X168154646Y-125172000D01*
X167965354Y-125172000D01*
X167958901Y-125173372D01*
X167958897Y-125173372D01*
X167878212Y-125190522D01*
X167780197Y-125211356D01*
X167607270Y-125288349D01*
X167601929Y-125292229D01*
X167601928Y-125292230D01*
X167541283Y-125336291D01*
X167454129Y-125399612D01*
X167327467Y-125540284D01*
X167324164Y-125546005D01*
X167247288Y-125679159D01*
X167232821Y-125704216D01*
X167174326Y-125884244D01*
X167159500Y-126025308D01*
X167159500Y-127119692D01*
X167161320Y-127137006D01*
X167173132Y-127249392D01*
X167174326Y-127260756D01*
X167176366Y-127267034D01*
X167226054Y-127419957D01*
X167228082Y-127490924D01*
X167191419Y-127551722D01*
X167127707Y-127583048D01*
X167106221Y-127584893D01*
X163540474Y-127584893D01*
X163521216Y-127583412D01*
X163498535Y-127579904D01*
X163488748Y-127581490D01*
X163478828Y-127581526D01*
X163478825Y-127580629D01*
X163463163Y-127581037D01*
X163379990Y-127571969D01*
X163352462Y-127565790D01*
X163253166Y-127531448D01*
X163227699Y-127519297D01*
X163138535Y-127463719D01*
X163116413Y-127446208D01*
X163041850Y-127372182D01*
X163024179Y-127350187D01*
X162967957Y-127261425D01*
X162955623Y-127236047D01*
X162920565Y-127137006D01*
X162914187Y-127109522D01*
X162904558Y-127026755D01*
X162904860Y-127010747D01*
X162904009Y-127010750D01*
X162903973Y-127000833D01*
X162905489Y-126991035D01*
X162902123Y-126970268D01*
X162900500Y-126950108D01*
X162900500Y-126772390D01*
X162920502Y-126704269D01*
X162974158Y-126657776D01*
X163044432Y-126647672D01*
X163107268Y-126677097D01*
X163107533Y-126676732D01*
X163109425Y-126678107D01*
X163110814Y-126678757D01*
X163117784Y-126685033D01*
X163281716Y-126779679D01*
X163461744Y-126838174D01*
X163468305Y-126838864D01*
X163468307Y-126838864D01*
X163521963Y-126844503D01*
X163602808Y-126853000D01*
X164697192Y-126853000D01*
X164778037Y-126844503D01*
X164831693Y-126838864D01*
X164831695Y-126838864D01*
X164838256Y-126838174D01*
X165018284Y-126779679D01*
X165182216Y-126685033D01*
X165189908Y-126678107D01*
X165317985Y-126562786D01*
X165317986Y-126562784D01*
X165322888Y-126558371D01*
X165380182Y-126479512D01*
X165430270Y-126410572D01*
X165430271Y-126410571D01*
X165434151Y-126405230D01*
X165511144Y-126232303D01*
X165550500Y-126047146D01*
X165550500Y-125857854D01*
X165511144Y-125672697D01*
X165434151Y-125499770D01*
X165364945Y-125404515D01*
X165355533Y-125391561D01*
X165331674Y-125324693D01*
X165347755Y-125255541D01*
X165355533Y-125243439D01*
X165430270Y-125140572D01*
X165430271Y-125140571D01*
X165434151Y-125135230D01*
X165511144Y-124962303D01*
X165550500Y-124777146D01*
X165550500Y-124587854D01*
X165511144Y-124402697D01*
X165434151Y-124229770D01*
X165429081Y-124222791D01*
X165355533Y-124121561D01*
X165331674Y-124054693D01*
X165347755Y-123985541D01*
X165355533Y-123973439D01*
X165430270Y-123870572D01*
X165430271Y-123870571D01*
X165434151Y-123865230D01*
X165511144Y-123692303D01*
X165550500Y-123507146D01*
X165550500Y-123317854D01*
X165541825Y-123277038D01*
X165524933Y-123197570D01*
X165511144Y-123132697D01*
X165434151Y-122959770D01*
X165381399Y-122887162D01*
X165355533Y-122851561D01*
X165331674Y-122784693D01*
X165347755Y-122715541D01*
X165355533Y-122703439D01*
X165430270Y-122600572D01*
X165430271Y-122600571D01*
X165434151Y-122595230D01*
X165511144Y-122422303D01*
X165550500Y-122237146D01*
X165550500Y-122047854D01*
X165511144Y-121862697D01*
X165434151Y-121689770D01*
X165355533Y-121581561D01*
X165331674Y-121514693D01*
X165347755Y-121445541D01*
X165355533Y-121433439D01*
X165430270Y-121330572D01*
X165430271Y-121330571D01*
X165434151Y-121325230D01*
X165511144Y-121152303D01*
X165539154Y-121020525D01*
X165549128Y-120973603D01*
X165549128Y-120973599D01*
X165550500Y-120967146D01*
X165550500Y-120777854D01*
X165537985Y-120718972D01*
X165524224Y-120654236D01*
X165511144Y-120592697D01*
X165434151Y-120419770D01*
X165405499Y-120380333D01*
X165355533Y-120311561D01*
X165331674Y-120244693D01*
X165347755Y-120175541D01*
X165355533Y-120163439D01*
X165430270Y-120060572D01*
X165430271Y-120060571D01*
X165434151Y-120055230D01*
X165511144Y-119882303D01*
X165550500Y-119697146D01*
X165550500Y-119507854D01*
X165548796Y-119499834D01*
X165531978Y-119420712D01*
X165511144Y-119322697D01*
X165434151Y-119149770D01*
X165355533Y-119041561D01*
X165331674Y-118974693D01*
X165347755Y-118905541D01*
X165355533Y-118893439D01*
X165430270Y-118790572D01*
X165430271Y-118790571D01*
X165434151Y-118785230D01*
X165511144Y-118612303D01*
X165550500Y-118427146D01*
X165550500Y-118237854D01*
X165533981Y-118160135D01*
X165531978Y-118150712D01*
X165511144Y-118052697D01*
X165434151Y-117879770D01*
X165355533Y-117771561D01*
X165331674Y-117704693D01*
X165347755Y-117635541D01*
X165355533Y-117623439D01*
X165430270Y-117520572D01*
X165430271Y-117520571D01*
X165434151Y-117515230D01*
X165511144Y-117342303D01*
X165550500Y-117157146D01*
X165550500Y-116967854D01*
X165548613Y-116958973D01*
X165515462Y-116803012D01*
X165511144Y-116782697D01*
X165434151Y-116609770D01*
X165355533Y-116501561D01*
X165331674Y-116434693D01*
X165347755Y-116365541D01*
X165355533Y-116353439D01*
X165430270Y-116250572D01*
X165430271Y-116250571D01*
X165434151Y-116245230D01*
X165511144Y-116072303D01*
X165550500Y-115887146D01*
X165550500Y-115697854D01*
X165533981Y-115620135D01*
X165531978Y-115610712D01*
X165511144Y-115512697D01*
X165434151Y-115339770D01*
X165355533Y-115231561D01*
X165331674Y-115164693D01*
X165347755Y-115095541D01*
X165355533Y-115083439D01*
X165430270Y-114980572D01*
X165430271Y-114980571D01*
X165434151Y-114975230D01*
X165511144Y-114802303D01*
X165550500Y-114617146D01*
X165550500Y-114427854D01*
X165511144Y-114242697D01*
X165434151Y-114069770D01*
X165355533Y-113961561D01*
X165331674Y-113894693D01*
X165347755Y-113825541D01*
X165355532Y-113813440D01*
X165389542Y-113766630D01*
X165445762Y-113723277D01*
X165516498Y-113717200D01*
X165580572Y-113751596D01*
G37*
G04 #@! TD.AperFunction*
G04 #@! TA.AperFunction,Conductor*
G36*
X175009119Y-114550854D02*
G01*
X175371703Y-114913438D01*
X175382570Y-114925828D01*
X175401718Y-114950782D01*
X175508296Y-115032562D01*
X175527159Y-115047036D01*
X175673238Y-115107544D01*
X175830000Y-115128182D01*
X175838188Y-115127104D01*
X175861173Y-115124078D01*
X175877619Y-115123000D01*
X179476053Y-115123000D01*
X179544174Y-115143002D01*
X179590667Y-115196658D01*
X179600771Y-115266932D01*
X179577990Y-115323059D01*
X179565849Y-115339770D01*
X179488856Y-115512697D01*
X179468022Y-115610712D01*
X179466020Y-115620135D01*
X179449500Y-115697854D01*
X179449500Y-115887146D01*
X179488856Y-116072303D01*
X179565849Y-116245230D01*
X179569729Y-116250571D01*
X179569730Y-116250572D01*
X179644467Y-116353439D01*
X179668326Y-116420307D01*
X179652245Y-116489459D01*
X179644467Y-116501561D01*
X179565849Y-116609770D01*
X179488856Y-116782697D01*
X179484538Y-116803012D01*
X179451388Y-116958973D01*
X179449500Y-116967854D01*
X179449500Y-117157146D01*
X179488856Y-117342303D01*
X179565849Y-117515230D01*
X179569729Y-117520571D01*
X179569730Y-117520572D01*
X179644467Y-117623439D01*
X179668326Y-117690307D01*
X179652245Y-117759459D01*
X179644467Y-117771561D01*
X179565849Y-117879770D01*
X179488856Y-118052697D01*
X179468022Y-118150712D01*
X179466020Y-118160135D01*
X179449500Y-118237854D01*
X179449500Y-118427146D01*
X179488856Y-118612303D01*
X179565849Y-118785230D01*
X179569729Y-118790571D01*
X179569730Y-118790572D01*
X179644467Y-118893439D01*
X179668326Y-118960307D01*
X179652245Y-119029459D01*
X179644467Y-119041561D01*
X179565849Y-119149770D01*
X179488856Y-119322697D01*
X179468022Y-119420712D01*
X179451205Y-119499834D01*
X179449500Y-119507854D01*
X179449500Y-119697146D01*
X179488856Y-119882303D01*
X179565849Y-120055230D01*
X179569729Y-120060571D01*
X179569730Y-120060572D01*
X179644467Y-120163439D01*
X179668326Y-120230307D01*
X179652245Y-120299459D01*
X179644467Y-120311561D01*
X179594502Y-120380333D01*
X179565849Y-120419770D01*
X179488856Y-120592697D01*
X179475776Y-120654236D01*
X179462016Y-120718972D01*
X179449500Y-120777854D01*
X179449500Y-120967146D01*
X179450872Y-120973599D01*
X179450872Y-120973603D01*
X179460846Y-121020525D01*
X179488856Y-121152303D01*
X179565849Y-121325230D01*
X179569729Y-121330571D01*
X179569730Y-121330572D01*
X179644467Y-121433439D01*
X179668326Y-121500307D01*
X179652245Y-121569459D01*
X179644467Y-121581561D01*
X179565849Y-121689770D01*
X179488856Y-121862697D01*
X179449500Y-122047854D01*
X179449500Y-122237146D01*
X179488856Y-122422303D01*
X179565849Y-122595230D01*
X179569729Y-122600571D01*
X179569730Y-122600572D01*
X179644467Y-122703439D01*
X179668326Y-122770307D01*
X179652245Y-122839459D01*
X179644467Y-122851561D01*
X179618602Y-122887162D01*
X179565849Y-122959770D01*
X179488856Y-123132697D01*
X179475067Y-123197570D01*
X179458176Y-123277038D01*
X179449500Y-123317854D01*
X179449500Y-123507146D01*
X179488856Y-123692303D01*
X179565849Y-123865230D01*
X179569729Y-123870571D01*
X179569730Y-123870572D01*
X179644467Y-123973439D01*
X179668326Y-124040307D01*
X179652245Y-124109459D01*
X179644467Y-124121561D01*
X179570920Y-124222791D01*
X179565849Y-124229770D01*
X179488856Y-124402697D01*
X179449500Y-124587854D01*
X179449500Y-124594456D01*
X179448810Y-124601023D01*
X179447388Y-124600874D01*
X179429498Y-124661800D01*
X179375842Y-124708293D01*
X179305568Y-124718397D01*
X179273180Y-124707375D01*
X179272779Y-124708386D01*
X179258804Y-124702854D01*
X179238801Y-124692793D01*
X179226014Y-124684865D01*
X179217763Y-124682468D01*
X179217761Y-124682467D01*
X179184228Y-124672725D01*
X179172995Y-124668879D01*
X179155116Y-124661800D01*
X179132547Y-124652864D01*
X179124006Y-124651966D01*
X179124005Y-124651966D01*
X179117592Y-124651292D01*
X179095617Y-124646980D01*
X179081175Y-124642785D01*
X179073692Y-124642235D01*
X179072792Y-124642169D01*
X179072781Y-124642169D01*
X179070485Y-124642000D01*
X179035783Y-124642000D01*
X179022613Y-124641310D01*
X179012384Y-124640235D01*
X178982546Y-124637099D01*
X178974081Y-124638531D01*
X178974072Y-124638531D01*
X178964000Y-124640235D01*
X178942987Y-124642000D01*
X178259402Y-124642000D01*
X178191281Y-124621998D01*
X178170307Y-124605095D01*
X177909070Y-124343858D01*
X177905417Y-124340049D01*
X177869203Y-124300667D01*
X177863389Y-124294344D01*
X177826386Y-124271401D01*
X177816636Y-124264700D01*
X177781971Y-124238388D01*
X177767992Y-124232854D01*
X177747989Y-124222793D01*
X177735202Y-124214865D01*
X177726951Y-124212468D01*
X177726949Y-124212467D01*
X177693416Y-124202725D01*
X177682183Y-124198879D01*
X177641735Y-124182864D01*
X177633194Y-124181966D01*
X177633193Y-124181966D01*
X177626780Y-124181292D01*
X177604805Y-124176980D01*
X177590363Y-124172785D01*
X177582880Y-124172235D01*
X177581980Y-124172169D01*
X177581969Y-124172169D01*
X177579673Y-124172000D01*
X177544971Y-124172000D01*
X177531801Y-124171310D01*
X177521572Y-124170235D01*
X177491734Y-124167099D01*
X177483269Y-124168531D01*
X177483260Y-124168531D01*
X177473188Y-124170235D01*
X177452175Y-124172000D01*
X177317320Y-124172000D01*
X177249199Y-124151998D01*
X177228225Y-124135095D01*
X176887405Y-123794275D01*
X176853379Y-123731963D01*
X176850500Y-123705180D01*
X176850500Y-118967493D01*
X176850611Y-118962217D01*
X176852850Y-118908791D01*
X176853210Y-118900206D01*
X176851248Y-118891841D01*
X176843273Y-118857838D01*
X176841110Y-118846167D01*
X176836372Y-118811581D01*
X176835206Y-118803068D01*
X176829235Y-118789270D01*
X176822201Y-118768001D01*
X176820730Y-118761728D01*
X176820729Y-118761726D01*
X176818768Y-118753364D01*
X176797805Y-118715234D01*
X176792583Y-118704573D01*
X176778716Y-118672527D01*
X176778715Y-118672526D01*
X176775305Y-118664645D01*
X176765842Y-118652959D01*
X176753351Y-118634371D01*
X176746106Y-118621192D01*
X176741791Y-118616193D01*
X176740613Y-118614828D01*
X176740607Y-118614822D01*
X176739102Y-118613078D01*
X176714567Y-118588543D01*
X176705742Y-118578742D01*
X176685794Y-118554108D01*
X176685793Y-118554107D01*
X176680386Y-118547430D01*
X176673384Y-118542454D01*
X176673382Y-118542452D01*
X176665051Y-118536532D01*
X176648945Y-118522921D01*
X175006991Y-116880967D01*
X174972965Y-116818655D01*
X174974379Y-116759261D01*
X175004783Y-116645790D01*
X175006207Y-116640477D01*
X175025277Y-116422500D01*
X175006207Y-116204523D01*
X174949575Y-115993170D01*
X174857102Y-115794862D01*
X174731598Y-115615623D01*
X174576877Y-115460902D01*
X174572369Y-115457745D01*
X174572366Y-115457743D01*
X174402148Y-115338555D01*
X174402146Y-115338554D01*
X174397639Y-115335398D01*
X174392657Y-115333075D01*
X174392652Y-115333072D01*
X174250305Y-115266695D01*
X174197020Y-115219778D01*
X174177559Y-115151500D01*
X174198101Y-115083540D01*
X174250305Y-115038305D01*
X174392652Y-114971928D01*
X174392657Y-114971925D01*
X174397639Y-114969602D01*
X174424517Y-114950782D01*
X174572366Y-114847257D01*
X174572369Y-114847255D01*
X174576877Y-114844098D01*
X174731598Y-114689377D01*
X174816812Y-114567678D01*
X174872267Y-114523350D01*
X174942887Y-114516041D01*
X175009119Y-114550854D01*
G37*
G04 #@! TD.AperFunction*
G04 #@! TA.AperFunction,Conductor*
G36*
X173283852Y-120115581D02*
G01*
X173340670Y-120142075D01*
X173345978Y-120143497D01*
X173345980Y-120143498D01*
X173411745Y-120161120D01*
X173552023Y-120198707D01*
X173770000Y-120217777D01*
X173987977Y-120198707D01*
X173993287Y-120197284D01*
X173993294Y-120197283D01*
X174027894Y-120188012D01*
X174098871Y-120189702D01*
X174149599Y-120220624D01*
X174912595Y-120983620D01*
X174946621Y-121045932D01*
X174949500Y-121072715D01*
X174949500Y-123152320D01*
X174929498Y-123220441D01*
X174875842Y-123266934D01*
X174805568Y-123277038D01*
X174788352Y-123273318D01*
X174786314Y-123272726D01*
X174775077Y-123268879D01*
X174770165Y-123266934D01*
X174734629Y-123252864D01*
X174726088Y-123251966D01*
X174726087Y-123251966D01*
X174719674Y-123251292D01*
X174697699Y-123246980D01*
X174683257Y-123242785D01*
X174675774Y-123242236D01*
X174674874Y-123242169D01*
X174674863Y-123242169D01*
X174672567Y-123242000D01*
X174637865Y-123242000D01*
X174624695Y-123241310D01*
X174614466Y-123240235D01*
X174584628Y-123237099D01*
X174576163Y-123238531D01*
X174576154Y-123238531D01*
X174566082Y-123240235D01*
X174545069Y-123242000D01*
X170780216Y-123242000D01*
X170712095Y-123221998D01*
X170691121Y-123205096D01*
X170087405Y-122601381D01*
X170053380Y-122539068D01*
X170050500Y-122512285D01*
X170050500Y-122395127D01*
X170070502Y-122327006D01*
X170124158Y-122280513D01*
X170194432Y-122270409D01*
X170259012Y-122299903D01*
X170268370Y-122309409D01*
X170268402Y-122309377D01*
X170423123Y-122464098D01*
X170427631Y-122467255D01*
X170427634Y-122467257D01*
X170491941Y-122512285D01*
X170602361Y-122589602D01*
X170607343Y-122591925D01*
X170607348Y-122591928D01*
X170716708Y-122642923D01*
X170800670Y-122682075D01*
X170805978Y-122683497D01*
X170805980Y-122683498D01*
X170871745Y-122701120D01*
X171012023Y-122738707D01*
X171230000Y-122757777D01*
X171447977Y-122738707D01*
X171588255Y-122701120D01*
X171654020Y-122683498D01*
X171654022Y-122683497D01*
X171659330Y-122682075D01*
X171743292Y-122642923D01*
X171852652Y-122591928D01*
X171852657Y-122591925D01*
X171857639Y-122589602D01*
X171968059Y-122512285D01*
X172032366Y-122467257D01*
X172032369Y-122467255D01*
X172036877Y-122464098D01*
X172191598Y-122309377D01*
X172317102Y-122130138D01*
X172409575Y-121931830D01*
X172466207Y-121720477D01*
X172485277Y-121502500D01*
X172466207Y-121284523D01*
X172449322Y-121221507D01*
X172451012Y-121150531D01*
X172481934Y-121099801D01*
X172890938Y-120690797D01*
X172903329Y-120679929D01*
X172921736Y-120665805D01*
X172928282Y-120660782D01*
X173024536Y-120535341D01*
X173085044Y-120389262D01*
X173100500Y-120271861D01*
X173105682Y-120232500D01*
X173105101Y-120228084D01*
X173124606Y-120161655D01*
X173178262Y-120115162D01*
X173248536Y-120105058D01*
X173283852Y-120115581D01*
G37*
G04 #@! TD.AperFunction*
G04 #@! TA.AperFunction,Conductor*
G36*
X168605064Y-110863002D02*
G01*
X168626038Y-110879905D01*
X170290738Y-112544605D01*
X170324764Y-112606917D01*
X170319699Y-112677732D01*
X170277152Y-112734568D01*
X170265784Y-112742153D01*
X170249004Y-112752077D01*
X170228135Y-112764419D01*
X170111919Y-112880635D01*
X170028256Y-113022102D01*
X170026045Y-113029714D01*
X170026044Y-113029715D01*
X170011396Y-113080135D01*
X169982402Y-113179931D01*
X169981897Y-113186350D01*
X169979693Y-113214347D01*
X169979692Y-113214360D01*
X169979500Y-113216806D01*
X169979500Y-114548194D01*
X169979692Y-114550640D01*
X169979693Y-114550653D01*
X169979709Y-114550854D01*
X169982402Y-114585069D01*
X169984199Y-114591254D01*
X170012707Y-114689377D01*
X170028256Y-114742898D01*
X170111919Y-114884365D01*
X170228135Y-115000581D01*
X170369602Y-115084244D01*
X170377214Y-115086455D01*
X170377215Y-115086456D01*
X170521248Y-115128302D01*
X170521251Y-115128303D01*
X170524631Y-115129285D01*
X170524632Y-115129285D01*
X170527431Y-115130098D01*
X170527280Y-115130618D01*
X170586911Y-115160631D01*
X170623004Y-115221769D01*
X170620314Y-115292714D01*
X170579695Y-115350943D01*
X170573132Y-115355865D01*
X170423123Y-115460902D01*
X170268402Y-115615623D01*
X170142898Y-115794862D01*
X170140575Y-115799843D01*
X170137820Y-115804615D01*
X170136697Y-115803967D01*
X170093938Y-115852533D01*
X170026657Y-115872000D01*
X169310215Y-115872000D01*
X169242094Y-115851998D01*
X169221120Y-115835095D01*
X165583567Y-112197542D01*
X165549541Y-112135230D01*
X165549434Y-112090278D01*
X165548437Y-112090173D01*
X165549127Y-112083604D01*
X165550500Y-112077146D01*
X165550500Y-111887854D01*
X165511144Y-111702697D01*
X165470147Y-111610617D01*
X165436839Y-111535806D01*
X165436837Y-111535802D01*
X165434151Y-111529770D01*
X165430270Y-111524428D01*
X165428622Y-111521574D01*
X165411886Y-111452578D01*
X165435108Y-111385487D01*
X165468658Y-111353205D01*
X165475755Y-111348552D01*
X165479475Y-111346205D01*
X165536417Y-111311652D01*
X165536424Y-111311647D01*
X165541216Y-111308739D01*
X165549508Y-111301415D01*
X165549530Y-111301440D01*
X165552625Y-111298694D01*
X165555619Y-111296191D01*
X165561741Y-111292177D01*
X165614440Y-111236547D01*
X165616817Y-111234106D01*
X165971018Y-110879905D01*
X166033330Y-110845879D01*
X166060113Y-110843000D01*
X168536943Y-110843000D01*
X168605064Y-110863002D01*
G37*
G04 #@! TD.AperFunction*
G04 #@! TA.AperFunction,Conductor*
G36*
X181478274Y-107802051D02*
G01*
X181490207Y-107803941D01*
X181500000Y-107805492D01*
X181509793Y-107803941D01*
X181519711Y-107803941D01*
X181519711Y-107804838D01*
X181535377Y-107804486D01*
X181565593Y-107807891D01*
X181619297Y-107813942D01*
X181646799Y-107820219D01*
X181746718Y-107855182D01*
X181772134Y-107867422D01*
X181861763Y-107923740D01*
X181883822Y-107941332D01*
X181958668Y-108016178D01*
X181976260Y-108038237D01*
X182032578Y-108127866D01*
X182044818Y-108153282D01*
X182079781Y-108253201D01*
X182086058Y-108280703D01*
X182095514Y-108364622D01*
X182095162Y-108380289D01*
X182096059Y-108380289D01*
X182096059Y-108390207D01*
X182094508Y-108400000D01*
X182096059Y-108409793D01*
X182097949Y-108421726D01*
X182099500Y-108441436D01*
X182099500Y-109892610D01*
X182079498Y-109960731D01*
X182025842Y-110007224D01*
X181955568Y-110017328D01*
X181892732Y-109987903D01*
X181892467Y-109988268D01*
X181890575Y-109986893D01*
X181889186Y-109986243D01*
X181887124Y-109984386D01*
X181887123Y-109984385D01*
X181882216Y-109979967D01*
X181718284Y-109885321D01*
X181538256Y-109826826D01*
X181531695Y-109826136D01*
X181531693Y-109826136D01*
X181478037Y-109820497D01*
X181397192Y-109812000D01*
X180302808Y-109812000D01*
X180221963Y-109820497D01*
X180168307Y-109826136D01*
X180168305Y-109826136D01*
X180161744Y-109826826D01*
X179981716Y-109885321D01*
X179817784Y-109979967D01*
X179812877Y-109984385D01*
X179812876Y-109984386D01*
X179776291Y-110017328D01*
X179677112Y-110106629D01*
X179565849Y-110259770D01*
X179488856Y-110432697D01*
X179449500Y-110617854D01*
X179449500Y-110807146D01*
X179488856Y-110992303D01*
X179565849Y-111165230D01*
X179569729Y-111170571D01*
X179569730Y-111170572D01*
X179644467Y-111273439D01*
X179668326Y-111340307D01*
X179652245Y-111409459D01*
X179644467Y-111421561D01*
X179565849Y-111529770D01*
X179488856Y-111702697D01*
X179449500Y-111887854D01*
X179449500Y-112077146D01*
X179450872Y-112083599D01*
X179450872Y-112083603D01*
X179453640Y-112096625D01*
X179488856Y-112262303D01*
X179565849Y-112435230D01*
X179577990Y-112451941D01*
X179601847Y-112518806D01*
X179585767Y-112587957D01*
X179534854Y-112637438D01*
X179476053Y-112652000D01*
X176953425Y-112652000D01*
X176885304Y-112631998D01*
X176864330Y-112615095D01*
X176050797Y-111801562D01*
X176039929Y-111789171D01*
X176025805Y-111770764D01*
X176020782Y-111764218D01*
X175895341Y-111667964D01*
X175749262Y-111607456D01*
X175631861Y-111592000D01*
X175592500Y-111586818D01*
X175584312Y-111587896D01*
X175561327Y-111590922D01*
X175544881Y-111592000D01*
X173547626Y-111592000D01*
X173531179Y-111590922D01*
X173508188Y-111587895D01*
X173500000Y-111586817D01*
X173491812Y-111587895D01*
X173477272Y-111589809D01*
X173343238Y-111607456D01*
X173197159Y-111667964D01*
X173071718Y-111764218D01*
X173066695Y-111770764D01*
X173052571Y-111789171D01*
X173041703Y-111801562D01*
X172198967Y-112644298D01*
X172136655Y-112678324D01*
X172074741Y-112676206D01*
X172071369Y-112675227D01*
X172011526Y-112637025D01*
X171981838Y-112572534D01*
X171980500Y-112554224D01*
X171980500Y-112488960D01*
X171981933Y-112470010D01*
X171984049Y-112456104D01*
X171984049Y-112456100D01*
X171985149Y-112448870D01*
X171980915Y-112396817D01*
X171980500Y-112386602D01*
X171980500Y-112378678D01*
X171977244Y-112350751D01*
X171976816Y-112346415D01*
X171971555Y-112281738D01*
X171971554Y-112281734D01*
X171970961Y-112274441D01*
X171968705Y-112267476D01*
X171967545Y-112261673D01*
X171966191Y-112255944D01*
X171965343Y-112248672D01*
X171940694Y-112180764D01*
X171939277Y-112176636D01*
X171919283Y-112114917D01*
X171919282Y-112114915D01*
X171917027Y-112107954D01*
X171913232Y-112101700D01*
X171910769Y-112096321D01*
X171908126Y-112091043D01*
X171905631Y-112084169D01*
X171896698Y-112070543D01*
X171866047Y-112023794D01*
X171863700Y-112020074D01*
X171829148Y-111963134D01*
X171829145Y-111963130D01*
X171826239Y-111958341D01*
X171818916Y-111950048D01*
X171818940Y-111950027D01*
X171816195Y-111946932D01*
X171813690Y-111943936D01*
X171809677Y-111937815D01*
X171754066Y-111885134D01*
X171751625Y-111882757D01*
X169477678Y-109608811D01*
X169465291Y-109594398D01*
X169456959Y-109583075D01*
X169456955Y-109583071D01*
X169452617Y-109577176D01*
X169412800Y-109543349D01*
X169405296Y-109536429D01*
X169399697Y-109530830D01*
X169377649Y-109513386D01*
X169374273Y-109510617D01*
X169324825Y-109468608D01*
X169324822Y-109468606D01*
X169319245Y-109463868D01*
X169312726Y-109460540D01*
X169307816Y-109457265D01*
X169302796Y-109454164D01*
X169297051Y-109449619D01*
X169231651Y-109419053D01*
X169227705Y-109417125D01*
X169218350Y-109412348D01*
X169163384Y-109384281D01*
X169156275Y-109382542D01*
X169150740Y-109380483D01*
X169145132Y-109378617D01*
X169138507Y-109375521D01*
X169131347Y-109374032D01*
X169131345Y-109374031D01*
X169067807Y-109360815D01*
X169063518Y-109359844D01*
X169029577Y-109351539D01*
X168993394Y-109342685D01*
X168987794Y-109342338D01*
X168987790Y-109342337D01*
X168982352Y-109342000D01*
X168982354Y-109341968D01*
X168978224Y-109341721D01*
X168974344Y-109341375D01*
X168967169Y-109339882D01*
X168959848Y-109340080D01*
X168959847Y-109340080D01*
X168890600Y-109341954D01*
X168887192Y-109342000D01*
X165763510Y-109342000D01*
X165744560Y-109340567D01*
X165730660Y-109338452D01*
X165730656Y-109338452D01*
X165723426Y-109337352D01*
X165716134Y-109337945D01*
X165716131Y-109337945D01*
X165671381Y-109341585D01*
X165661167Y-109342000D01*
X165653234Y-109342000D01*
X165647359Y-109342685D01*
X165625320Y-109345254D01*
X165620945Y-109345687D01*
X165590782Y-109348140D01*
X165548997Y-109351539D01*
X165542035Y-109353794D01*
X165536240Y-109354952D01*
X165530498Y-109356309D01*
X165523228Y-109357157D01*
X165455320Y-109381806D01*
X165451192Y-109383223D01*
X165389473Y-109403217D01*
X165389471Y-109403218D01*
X165382510Y-109405473D01*
X165376256Y-109409268D01*
X165370877Y-109411731D01*
X165365601Y-109414373D01*
X165358725Y-109416869D01*
X165313506Y-109446516D01*
X165298357Y-109456448D01*
X165294637Y-109458795D01*
X165237695Y-109493348D01*
X165237688Y-109493353D01*
X165232896Y-109496261D01*
X165224604Y-109503585D01*
X165224582Y-109503560D01*
X165221487Y-109506306D01*
X165218493Y-109508809D01*
X165212371Y-109512823D01*
X165207338Y-109518136D01*
X165159673Y-109568452D01*
X165157295Y-109570894D01*
X164937858Y-109790331D01*
X164875546Y-109824357D01*
X164835593Y-109826546D01*
X164799688Y-109822772D01*
X164697192Y-109812000D01*
X163602808Y-109812000D01*
X163521963Y-109820497D01*
X163468307Y-109826136D01*
X163468305Y-109826136D01*
X163461744Y-109826826D01*
X163281716Y-109885321D01*
X163117784Y-109979967D01*
X163112877Y-109984385D01*
X163112876Y-109984386D01*
X163110814Y-109986243D01*
X163109359Y-109986941D01*
X163107533Y-109988268D01*
X163107290Y-109987934D01*
X163046808Y-110016963D01*
X162976354Y-110008201D01*
X162921821Y-109962740D01*
X162900500Y-109892610D01*
X162900500Y-108441436D01*
X162902051Y-108421726D01*
X162903941Y-108409793D01*
X162905492Y-108400000D01*
X162903941Y-108390207D01*
X162903941Y-108380289D01*
X162904838Y-108380289D01*
X162904486Y-108364622D01*
X162913942Y-108280703D01*
X162920219Y-108253201D01*
X162955182Y-108153282D01*
X162967422Y-108127866D01*
X163023740Y-108038237D01*
X163041332Y-108016178D01*
X163116178Y-107941332D01*
X163138237Y-107923740D01*
X163227866Y-107867422D01*
X163253282Y-107855182D01*
X163353201Y-107820219D01*
X163380703Y-107813942D01*
X163434407Y-107807891D01*
X163464623Y-107804486D01*
X163480289Y-107804838D01*
X163480289Y-107803941D01*
X163490207Y-107803941D01*
X163500000Y-107805492D01*
X163521726Y-107802051D01*
X163541436Y-107800500D01*
X181458564Y-107800500D01*
X181478274Y-107802051D01*
G37*
G04 #@! TD.AperFunction*
M02*
