G04 #@! TF.GenerationSoftware,KiCad,Pcbnew,6.0.10+dfsg-1~bpo11+1*
G04 #@! TF.ProjectId,project,70726f6a-6563-4742-9e6b-696361645f70,rev?*
G04 #@! TF.SameCoordinates,Original*
G04 #@! TF.FileFunction,Legend,Top*
G04 #@! TF.FilePolarity,Positive*
%FSLAX46Y46*%
G04 Gerber Fmt 4.6, Leading zero omitted, Abs format (unit mm)*
%MOMM*%
%LPD*%
G01*
G04 APERTURE LIST*
G04 #@! TA.AperFunction,Profile*
%ADD10C,0.100000*%
G04 #@! TD*
%ADD11C,0.150000*%
%ADD12C,0.120000*%
%ADD13O,2.000000X1.000000*%
%ADD14C,2.200000*%
%ADD15C,1.700000*%
G04 APERTURE END LIST*
D10*
X163500000Y-107400000D02*
G75*
G03*
X162500000Y-108400000I0J-1000000D01*
G01*
X163500000Y-128100000D02*
X181500000Y-128100000D01*
X182500000Y-127100000D02*
X182500000Y-108400000D01*
X162500000Y-108400000D02*
X162500000Y-127100000D01*
X162500000Y-127100000D02*
G75*
G03*
X163500000Y-128100000I1000000J0D01*
G01*
X182500000Y-108400000D02*
G75*
G03*
X181500000Y-107400000I-1000000J0D01*
G01*
X181500000Y-128100000D02*
G75*
G03*
X182500000Y-127100000I0J1000000D01*
G01*
X181500000Y-107400000D02*
X163500000Y-107400000D01*
D11*
X165521547Y-112197904D02*
X165788214Y-112997904D01*
X166054880Y-112197904D01*
X166664404Y-112959809D02*
X166588214Y-112997904D01*
X166435833Y-112997904D01*
X166359642Y-112959809D01*
X166321547Y-112921714D01*
X166283452Y-112845523D01*
X166283452Y-112616952D01*
X166321547Y-112540761D01*
X166359642Y-112502666D01*
X166435833Y-112464571D01*
X166588214Y-112464571D01*
X166664404Y-112502666D01*
X167350119Y-112959809D02*
X167273928Y-112997904D01*
X167121547Y-112997904D01*
X167045357Y-112959809D01*
X167007261Y-112921714D01*
X166969166Y-112845523D01*
X166969166Y-112616952D01*
X167007261Y-112540761D01*
X167045357Y-112502666D01*
X167121547Y-112464571D01*
X167273928Y-112464571D01*
X167350119Y-112502666D01*
X165978690Y-115573904D02*
X165712023Y-115192952D01*
X165521547Y-115573904D02*
X165521547Y-114773904D01*
X165826309Y-114773904D01*
X165902500Y-114812000D01*
X165940595Y-114850095D01*
X165978690Y-114926285D01*
X165978690Y-115040571D01*
X165940595Y-115116761D01*
X165902500Y-115154857D01*
X165826309Y-115192952D01*
X165521547Y-115192952D01*
X166283452Y-115535809D02*
X166397738Y-115573904D01*
X166588214Y-115573904D01*
X166664404Y-115535809D01*
X166702500Y-115497714D01*
X166740595Y-115421523D01*
X166740595Y-115345333D01*
X166702500Y-115269142D01*
X166664404Y-115231047D01*
X166588214Y-115192952D01*
X166435833Y-115154857D01*
X166359642Y-115116761D01*
X166321547Y-115078666D01*
X166283452Y-115002476D01*
X166283452Y-114926285D01*
X166321547Y-114850095D01*
X166359642Y-114812000D01*
X166435833Y-114773904D01*
X166626309Y-114773904D01*
X166740595Y-114812000D01*
X166969166Y-114773904D02*
X167426309Y-114773904D01*
X167197738Y-115573904D02*
X167197738Y-114773904D01*
X166969166Y-118149904D02*
X167388214Y-117616571D01*
X166969166Y-117616571D02*
X167388214Y-118149904D01*
X166207261Y-119925904D02*
X166664404Y-119925904D01*
X166435833Y-120725904D02*
X166435833Y-119925904D01*
X166854880Y-119925904D02*
X167388214Y-120725904D01*
X167388214Y-119925904D02*
X166854880Y-120725904D01*
X178045119Y-113997904D02*
X177778452Y-113616952D01*
X177587976Y-113997904D02*
X177587976Y-113197904D01*
X177892738Y-113197904D01*
X177968928Y-113236000D01*
X178007023Y-113274095D01*
X178045119Y-113350285D01*
X178045119Y-113464571D01*
X178007023Y-113540761D01*
X177968928Y-113578857D01*
X177892738Y-113616952D01*
X177587976Y-113616952D01*
X178311785Y-113197904D02*
X178845119Y-113997904D01*
X178845119Y-113197904D02*
X178311785Y-113997904D01*
X177587976Y-116573904D02*
X177587976Y-115773904D01*
X178121309Y-115773904D02*
X178273690Y-115773904D01*
X178349880Y-115812000D01*
X178426071Y-115888190D01*
X178464166Y-116040571D01*
X178464166Y-116307238D01*
X178426071Y-116459619D01*
X178349880Y-116535809D01*
X178273690Y-116573904D01*
X178121309Y-116573904D01*
X178045119Y-116535809D01*
X177968928Y-116459619D01*
X177930833Y-116307238D01*
X177930833Y-116040571D01*
X177968928Y-115888190D01*
X178045119Y-115812000D01*
X178121309Y-115773904D01*
X178959404Y-115773904D02*
X179035595Y-115773904D01*
X179111785Y-115812000D01*
X179149880Y-115850095D01*
X179187976Y-115926285D01*
X179226071Y-116078666D01*
X179226071Y-116269142D01*
X179187976Y-116421523D01*
X179149880Y-116497714D01*
X179111785Y-116535809D01*
X179035595Y-116573904D01*
X178959404Y-116573904D01*
X178883214Y-116535809D01*
X178845119Y-116497714D01*
X178807023Y-116421523D01*
X178768928Y-116269142D01*
X178768928Y-116078666D01*
X178807023Y-115926285D01*
X178845119Y-115850095D01*
X178883214Y-115812000D01*
X178959404Y-115773904D01*
X177511785Y-119149904D02*
X177930833Y-118616571D01*
X177511785Y-118616571D02*
X177930833Y-119149904D01*
X178007023Y-120964000D02*
X177930833Y-120925904D01*
X177816547Y-120925904D01*
X177702261Y-120964000D01*
X177626071Y-121040190D01*
X177587976Y-121116380D01*
X177549880Y-121268761D01*
X177549880Y-121383047D01*
X177587976Y-121535428D01*
X177626071Y-121611619D01*
X177702261Y-121687809D01*
X177816547Y-121725904D01*
X177892738Y-121725904D01*
X178007023Y-121687809D01*
X178045119Y-121649714D01*
X178045119Y-121383047D01*
X177892738Y-121383047D01*
X178387976Y-121725904D02*
X178387976Y-120925904D01*
X178845119Y-121725904D01*
X178845119Y-120925904D01*
X179226071Y-121725904D02*
X179226071Y-120925904D01*
X179416547Y-120925904D01*
X179530833Y-120964000D01*
X179607023Y-121040190D01*
X179645119Y-121116380D01*
X179683214Y-121268761D01*
X179683214Y-121383047D01*
X179645119Y-121535428D01*
X179607023Y-121611619D01*
X179530833Y-121687809D01*
X179416547Y-121725904D01*
X179226071Y-121725904D01*
X161342380Y-126884404D02*
X162151904Y-126884404D01*
X162247142Y-126836785D01*
X162294761Y-126789166D01*
X162342380Y-126693928D01*
X162342380Y-126503452D01*
X162294761Y-126408214D01*
X162247142Y-126360595D01*
X162151904Y-126312976D01*
X161342380Y-126312976D01*
X162342380Y-125312976D02*
X162342380Y-125884404D01*
X162342380Y-125598690D02*
X161342380Y-125598690D01*
X161485238Y-125693928D01*
X161580476Y-125789166D01*
X161628095Y-125884404D01*
X170896666Y-110794880D02*
X170896666Y-111509166D01*
X170849047Y-111652023D01*
X170753809Y-111747261D01*
X170610952Y-111794880D01*
X170515714Y-111794880D01*
X171896666Y-111794880D02*
X171325238Y-111794880D01*
X171610952Y-111794880D02*
X171610952Y-110794880D01*
X171515714Y-110937738D01*
X171420476Y-111032976D01*
X171325238Y-111080595D01*
D12*
X181620000Y-127572500D02*
X180620000Y-127572500D01*
X181620000Y-126792500D02*
X181620000Y-127572500D01*
X163380000Y-126792500D02*
X163380000Y-127572500D01*
X163380000Y-108247500D02*
X163000000Y-108247500D01*
X163380000Y-101832500D02*
X181620000Y-101832500D01*
X163380000Y-101832500D02*
X163380000Y-108247500D01*
X181620000Y-101832500D02*
X181620000Y-108247500D01*
X163380000Y-127572500D02*
X164380000Y-127572500D01*
G36*
X165332419Y-111179674D02*
G01*
X165332419Y-110545468D01*
X165530856Y-110545468D01*
X165541870Y-110671972D01*
X165574909Y-110784784D01*
X165661825Y-110955043D01*
X165876137Y-110850268D01*
X165808272Y-110708584D01*
X165780887Y-110543087D01*
X165827322Y-110408546D01*
X165954719Y-110359730D01*
X166045206Y-110382352D01*
X166102356Y-110440693D01*
X166133312Y-110521655D01*
X166142837Y-110612143D01*
X166142837Y-110721680D01*
X166385725Y-110721680D01*
X166385725Y-110631193D01*
X166397334Y-110500820D01*
X166432159Y-110395449D01*
X166496155Y-110325798D01*
X166595275Y-110302580D01*
X166754819Y-110363302D01*
X166803039Y-110446348D01*
X166819112Y-110574043D01*
X166812564Y-110686855D01*
X166792919Y-110782402D01*
X166742912Y-110924087D01*
X166988181Y-110981237D01*
X167014375Y-110907418D01*
X167040569Y-110803834D01*
X167060809Y-110687152D01*
X167069144Y-110571662D01*
X167060512Y-110434145D01*
X167034616Y-110316868D01*
X166992944Y-110219237D01*
X166936984Y-110140655D01*
X166788156Y-110038262D01*
X166600037Y-110004924D01*
X166480380Y-110020700D01*
X166378581Y-110068027D01*
X166297023Y-110143930D01*
X166238087Y-110245430D01*
X166114262Y-110112080D01*
X165945194Y-110062074D01*
X165780887Y-110090649D01*
X165648728Y-110178755D01*
X165561812Y-110329965D01*
X165538595Y-110429680D01*
X165530856Y-110545468D01*
X165332419Y-110545468D01*
X165332419Y-109316743D01*
X165530856Y-109316743D01*
X165542762Y-109440866D01*
X165578481Y-109565584D01*
X165639203Y-109683158D01*
X165726119Y-109785849D01*
X165930906Y-109640593D01*
X165818987Y-109490574D01*
X165785650Y-109345318D01*
X165834466Y-109207205D01*
X165973769Y-109152437D01*
X166099975Y-109196490D01*
X166228562Y-109308409D01*
X166296726Y-109378655D01*
X166367866Y-109453665D01*
X166443470Y-109528674D01*
X166525028Y-109598921D01*
X166613432Y-109660834D01*
X166709575Y-109710840D01*
X166814350Y-109743880D01*
X166928650Y-109754893D01*
X166978656Y-109756084D01*
X167038187Y-109750130D01*
X167038187Y-108788105D01*
X166795300Y-108788105D01*
X166795300Y-109421518D01*
X166716719Y-109396515D01*
X166632184Y-109335793D01*
X166551222Y-109259593D01*
X166483356Y-109188155D01*
X166364294Y-109066712D01*
X166235706Y-108959555D01*
X166098784Y-108883355D01*
X165952337Y-108854780D01*
X165767791Y-108892880D01*
X165635631Y-108995274D01*
X165557050Y-109142912D01*
X165530856Y-109316743D01*
X165332419Y-109316743D01*
X165332419Y-108787907D01*
X165351011Y-108599141D01*
X165406072Y-108417630D01*
X165495486Y-108250348D01*
X165615817Y-108103724D01*
X165762441Y-107983393D01*
X165929723Y-107893979D01*
X166111234Y-107838918D01*
X166300000Y-107820326D01*
X166488766Y-107838918D01*
X166670277Y-107893979D01*
X166837559Y-107983393D01*
X166984183Y-108103724D01*
X167104514Y-108250348D01*
X167193928Y-108417630D01*
X167248989Y-108599141D01*
X167267581Y-108787907D01*
X167267581Y-111179674D01*
X165332419Y-111179674D01*
G37*
G36*
X178646447Y-125183567D02*
G01*
X178558341Y-125163327D01*
X178482141Y-125120464D01*
X178429753Y-125051408D01*
X178410703Y-124952586D01*
X178430944Y-124852573D01*
X178484522Y-124785898D01*
X178559531Y-124747798D01*
X178646447Y-124735892D01*
X178646447Y-125183567D01*
G37*
G36*
X179084597Y-126083680D02*
G01*
X179086978Y-126150355D01*
X179063166Y-126257213D01*
X178991728Y-126330139D01*
X178882786Y-126372109D01*
X178746459Y-126386098D01*
X178607752Y-126374192D01*
X178505953Y-126338473D01*
X178443445Y-126276561D01*
X178422609Y-126186073D01*
X178435706Y-126095586D01*
X178467853Y-126019386D01*
X179077453Y-126019386D01*
X179084597Y-126083680D01*
G37*
G36*
X179532831Y-126785678D02*
G01*
X179517887Y-126886423D01*
X179493140Y-126985219D01*
X179458828Y-127081113D01*
X179415283Y-127173182D01*
X179362923Y-127260540D01*
X179302252Y-127342344D01*
X179233855Y-127417808D01*
X179158391Y-127486205D01*
X179076586Y-127546876D01*
X178989229Y-127599236D01*
X178897160Y-127642781D01*
X178801266Y-127677093D01*
X178702470Y-127701840D01*
X178601725Y-127716784D01*
X178500000Y-127721781D01*
X178398275Y-127716784D01*
X178297530Y-127701840D01*
X178198734Y-127677093D01*
X178102840Y-127642781D01*
X178010771Y-127599236D01*
X177923414Y-127546876D01*
X177841609Y-127486205D01*
X177766145Y-127417808D01*
X177697748Y-127342344D01*
X177637077Y-127260540D01*
X177584717Y-127173182D01*
X177541172Y-127081113D01*
X177506860Y-126985219D01*
X177482113Y-126886423D01*
X177467169Y-126785678D01*
X177462172Y-126683953D01*
X177462172Y-125726492D01*
X177660609Y-125726492D01*
X177710616Y-126019386D01*
X178220203Y-126019386D01*
X178183294Y-126119398D01*
X178170197Y-126236080D01*
X178187792Y-126371679D01*
X178240576Y-126483201D01*
X178328550Y-126570645D01*
X178446951Y-126633484D01*
X178591017Y-126671187D01*
X178760747Y-126683755D01*
X178927434Y-126668806D01*
X179068722Y-126623959D01*
X179184609Y-126549214D01*
X179270599Y-126445365D01*
X179322193Y-126313206D01*
X179339391Y-126152736D01*
X179335223Y-126039627D01*
X179322722Y-125924136D01*
X179303672Y-125816384D01*
X179279859Y-125726492D01*
X177660609Y-125726492D01*
X177462172Y-125726492D01*
X177462172Y-124957348D01*
X178165434Y-124957348D01*
X178174959Y-125056170D01*
X178203534Y-125152611D01*
X178250862Y-125242503D01*
X178316644Y-125321680D01*
X178400880Y-125388355D01*
X178503572Y-125440742D01*
X178624420Y-125474675D01*
X178763128Y-125485986D01*
X178897073Y-125475270D01*
X179013159Y-125443123D01*
X179111684Y-125391034D01*
X179192944Y-125320489D01*
X179256642Y-125232383D01*
X179302481Y-125127608D01*
X179330163Y-125007057D01*
X179339391Y-124871623D01*
X179321531Y-124678742D01*
X179277478Y-124516817D01*
X179027447Y-124557298D01*
X179065547Y-124691839D01*
X179084597Y-124859717D01*
X179068821Y-124989495D01*
X179021494Y-125093080D01*
X178946782Y-125160945D01*
X178848853Y-125183567D01*
X178848853Y-124457286D01*
X178798847Y-124453714D01*
X178739316Y-124452523D01*
X178566940Y-124466811D01*
X178424461Y-124509673D01*
X178311881Y-124581111D01*
X178230522Y-124680065D01*
X178181706Y-124805478D01*
X178165434Y-124957348D01*
X177462172Y-124957348D01*
X177462172Y-124335842D01*
X178194009Y-124335842D01*
X178359729Y-124285166D01*
X178518752Y-124233151D01*
X178671078Y-124179796D01*
X178816706Y-124125102D01*
X178998343Y-124051680D01*
X179163840Y-123979052D01*
X179313197Y-123907217D01*
X179313197Y-123661948D01*
X179163840Y-123588923D01*
X178998343Y-123512723D01*
X178816706Y-123433348D01*
X178671078Y-123373966D01*
X178518752Y-123317263D01*
X178359729Y-123263238D01*
X178194009Y-123211892D01*
X178194009Y-123509548D01*
X178287473Y-123534254D01*
X178386891Y-123565508D01*
X178489582Y-123600631D01*
X178592869Y-123636945D01*
X178694965Y-123674152D01*
X178794084Y-123711955D01*
X178972678Y-123781011D01*
X178794084Y-123846495D01*
X178694965Y-123880726D01*
X178592869Y-123914361D01*
X178489582Y-123946805D01*
X178386891Y-123977464D01*
X178287473Y-124005146D01*
X178194009Y-124028661D01*
X178194009Y-124335842D01*
X177462172Y-124335842D01*
X177462172Y-122607055D01*
X177805866Y-122607055D01*
X177817772Y-122731177D01*
X177853491Y-122855895D01*
X177914212Y-122973470D01*
X178001128Y-123076161D01*
X178205916Y-122930905D01*
X178093997Y-122780886D01*
X178060659Y-122635630D01*
X178109475Y-122497517D01*
X178248778Y-122442748D01*
X178374984Y-122486802D01*
X178503572Y-122598720D01*
X178571735Y-122668967D01*
X178642875Y-122743977D01*
X178718480Y-122818986D01*
X178800037Y-122889233D01*
X178888441Y-122951145D01*
X178984584Y-123001152D01*
X179089359Y-123034191D01*
X179203659Y-123045205D01*
X179253666Y-123046395D01*
X179313197Y-123040442D01*
X179313197Y-122078417D01*
X179070309Y-122078417D01*
X179070309Y-122711830D01*
X178991728Y-122686827D01*
X178907194Y-122626105D01*
X178826231Y-122549905D01*
X178758366Y-122478467D01*
X178639303Y-122357023D01*
X178510716Y-122249867D01*
X178373794Y-122173667D01*
X178227347Y-122145092D01*
X178042800Y-122183192D01*
X177910641Y-122285586D01*
X177832059Y-122433223D01*
X177805866Y-122607055D01*
X177462172Y-122607055D01*
X177462172Y-122078219D01*
X179537828Y-122078219D01*
X179537828Y-126683953D01*
X179532831Y-126785678D01*
G37*
G36*
X167248989Y-126875993D02*
G01*
X167193929Y-127057505D01*
X167104514Y-127224787D01*
X166984183Y-127371411D01*
X166837559Y-127491742D01*
X166670277Y-127581156D01*
X166488766Y-127636217D01*
X166300000Y-127654809D01*
X166111234Y-127636217D01*
X165929723Y-127581156D01*
X165762441Y-127491742D01*
X165615817Y-127371411D01*
X165495486Y-127224787D01*
X165406071Y-127057505D01*
X165351011Y-126875993D01*
X165332419Y-126687227D01*
X165332419Y-126687029D01*
X165564194Y-126687029D01*
X167038188Y-126687029D01*
X167038188Y-125741673D01*
X166795300Y-125741673D01*
X166795300Y-126394135D01*
X166380962Y-126394135D01*
X166380962Y-125872641D01*
X166138075Y-125872641D01*
X166138075Y-126394135D01*
X165807081Y-126394135D01*
X165807081Y-125794060D01*
X165564194Y-125794060D01*
X165564194Y-126687029D01*
X165332419Y-126687029D01*
X165332419Y-125024916D01*
X165530856Y-125024916D01*
X165543821Y-125170834D01*
X165582715Y-125294262D01*
X165647538Y-125395201D01*
X165786841Y-125496106D01*
X165971388Y-125529741D01*
X166146409Y-125491641D01*
X166264281Y-125395201D01*
X166342863Y-125265423D01*
X166397631Y-125127310D01*
X166439303Y-125027298D01*
X166489309Y-124936810D01*
X166552413Y-124870135D01*
X166633375Y-124843941D01*
X166703622Y-124854657D01*
X166765534Y-124893948D01*
X166808397Y-124971338D01*
X166823875Y-125093973D01*
X166815541Y-125212737D01*
X166790538Y-125311857D01*
X166719100Y-125465448D01*
X166957225Y-125551173D01*
X167029853Y-125386866D01*
X167059321Y-125258874D01*
X167069144Y-125093973D01*
X167056576Y-124926888D01*
X167018873Y-124790760D01*
X166956034Y-124685588D01*
X166819410Y-124584683D01*
X166635756Y-124551048D01*
X166524730Y-124561168D01*
X166434541Y-124591529D01*
X166301191Y-124695113D01*
X166215466Y-124833226D01*
X166157125Y-124977291D01*
X166121406Y-125068970D01*
X166077353Y-125152313D01*
X166020203Y-125213035D01*
X165945194Y-125236848D01*
X165851267Y-125210918D01*
X165794910Y-125133131D01*
X165776125Y-125003485D01*
X165799938Y-124835607D01*
X165857088Y-124703448D01*
X165630869Y-124617723D01*
X165561813Y-124787982D01*
X165538595Y-124897817D01*
X165530856Y-125024916D01*
X165332419Y-125024916D01*
X165332419Y-123922398D01*
X165547525Y-123922398D01*
X165549906Y-124015266D01*
X165555859Y-124122423D01*
X165566575Y-124230770D01*
X165583244Y-124327210D01*
X167038188Y-124327210D01*
X167038188Y-124034316D01*
X166540506Y-124034316D01*
X166540506Y-123929541D01*
X166527409Y-123753461D01*
X166488119Y-123606221D01*
X166422634Y-123487820D01*
X166327781Y-123401168D01*
X166200384Y-123349178D01*
X166040444Y-123331848D01*
X165882091Y-123349046D01*
X165756281Y-123400639D01*
X165663016Y-123486629D01*
X165598854Y-123603839D01*
X165560357Y-123749096D01*
X165547525Y-123922398D01*
X165332419Y-123922398D01*
X165332419Y-122343629D01*
X166283331Y-122343629D01*
X166283331Y-122996091D01*
X166571463Y-122996091D01*
X166571463Y-122343629D01*
X166283331Y-122343629D01*
X165332419Y-122343629D01*
X165332419Y-122145191D01*
X167267581Y-122145191D01*
X167267581Y-126687227D01*
X167248989Y-126875993D01*
G37*
G36*
X166153851Y-123649745D02*
G01*
X166229753Y-123703323D01*
X166271723Y-123792024D01*
X166285713Y-123915254D01*
X166285713Y-124034316D01*
X165809463Y-124034316D01*
X165803509Y-123961688D01*
X165802319Y-123889060D01*
X165815713Y-123783987D01*
X165855897Y-123702132D01*
X165928227Y-123649447D01*
X166038063Y-123631885D01*
X166153851Y-123649745D01*
G37*
X175750000Y-109972500D02*
X175750000Y-125412500D01*
X167940000Y-115642500D02*
X169250000Y-115642500D01*
X166550000Y-113382500D02*
X166550000Y-114382500D01*
X169250000Y-115642500D02*
X169250000Y-109972500D01*
X169250000Y-109972500D02*
X175750000Y-109972500D01*
X167940000Y-108672500D02*
X177060000Y-108672500D01*
X177060000Y-126712500D02*
X167940000Y-126712500D01*
X167550000Y-113882500D02*
X166550000Y-113382500D01*
X169250000Y-125412500D02*
X169250000Y-119742500D01*
X169250000Y-119742500D02*
X167940000Y-119742500D01*
X169250000Y-119742500D02*
X169250000Y-119742500D01*
X166550000Y-114382500D02*
X167550000Y-113882500D01*
X175750000Y-125412500D02*
X169250000Y-125412500D01*
X177060000Y-108672500D02*
X177060000Y-126712500D01*
X167940000Y-126712500D02*
X167940000Y-108672500D01*
%LPC*%
D13*
X164150000Y-109442500D03*
X164150000Y-110712500D03*
X164150000Y-111982500D03*
X164150000Y-113252500D03*
X164150000Y-114522500D03*
X164150000Y-115792500D03*
X164150000Y-117062500D03*
X164150000Y-118332500D03*
X164150000Y-119602500D03*
X164150000Y-120872500D03*
X164150000Y-122142500D03*
X164150000Y-123412500D03*
X164150000Y-124682500D03*
X164150000Y-125952500D03*
X180850000Y-125952500D03*
X180850000Y-124682500D03*
X180850000Y-123412500D03*
X180850000Y-122142500D03*
X180850000Y-120872500D03*
X180850000Y-119602500D03*
X180850000Y-118332500D03*
X180850000Y-117062500D03*
X180850000Y-115792500D03*
X180850000Y-114522500D03*
X180850000Y-113252500D03*
X180850000Y-111982500D03*
X180850000Y-110712500D03*
X180850000Y-109442500D03*
D14*
X172500000Y-126700000D03*
X172500000Y-108700000D03*
G36*
G01*
X170380000Y-114482500D02*
X170380000Y-113282500D01*
G75*
G02*
X170630000Y-113032500I250000J0D01*
G01*
X171830000Y-113032500D01*
G75*
G02*
X172080000Y-113282500I0J-250000D01*
G01*
X172080000Y-114482500D01*
G75*
G02*
X171830000Y-114732500I-250000J0D01*
G01*
X170630000Y-114732500D01*
G75*
G02*
X170380000Y-114482500I0J250000D01*
G01*
G37*
D15*
X173770000Y-113882500D03*
X171230000Y-116422500D03*
X173770000Y-116422500D03*
X171230000Y-118962500D03*
X173770000Y-118962500D03*
X171230000Y-121502500D03*
X173770000Y-121502500D03*
M02*
