G04 #@! TF.GenerationSoftware,KiCad,Pcbnew,6.0.10+dfsg-1~bpo11+1*
G04 #@! TF.ProjectId,project,70726f6a-6563-4742-9e6b-696361645f70,rev?*
G04 #@! TF.SameCoordinates,Original*
G04 #@! TF.FileFunction,Legend,Bot*
G04 #@! TF.FilePolarity,Positive*
%FSLAX46Y46*%
G04 Gerber Fmt 4.6, Leading zero omitted, Abs format (unit mm)*
%MOMM*%
%LPD*%
G01*
G04 APERTURE LIST*
G04 #@! TA.AperFunction,Profile*
%ADD10C,0.100000*%
G04 #@! TD*
%ADD11C,0.010000*%
%ADD12O,2.000000X1.000000*%
%ADD13C,2.200000*%
%ADD14C,1.700000*%
G04 APERTURE END LIST*
D10*
X164500000Y-130000000D02*
X180500000Y-130000000D01*
X182500000Y-128000000D02*
X182500000Y-102000000D01*
X162500000Y-102000000D02*
X162500000Y-128000000D01*
X164500000Y-100000000D02*
G75*
G03*
X162500000Y-102000000I0J-2000000D01*
G01*
X162500000Y-128000000D02*
G75*
G03*
X164500000Y-130000000I2000000J0D01*
G01*
X182500000Y-102000000D02*
G75*
G03*
X180500000Y-100000000I-2000000J0D01*
G01*
X180500000Y-100000000D02*
X164500000Y-100000000D01*
X180500000Y-130000000D02*
G75*
G03*
X182500000Y-128000000I0J2000000D01*
G01*
G36*
X169037275Y-124468931D02*
G01*
X169121095Y-124913555D01*
X169739667Y-125168551D01*
X170110707Y-124916246D01*
X170184144Y-124866506D01*
X170281499Y-124801218D01*
X170365787Y-124745454D01*
X170432631Y-124702078D01*
X170477654Y-124673953D01*
X170496478Y-124663942D01*
X170508039Y-124671061D01*
X170542596Y-124700894D01*
X170594894Y-124749852D01*
X170660500Y-124813440D01*
X170734983Y-124887163D01*
X170813913Y-124966525D01*
X170892856Y-125047031D01*
X170967384Y-125124185D01*
X171033063Y-125193493D01*
X171085463Y-125250457D01*
X171120153Y-125290584D01*
X171132701Y-125309377D01*
X171129782Y-125317451D01*
X171109571Y-125353469D01*
X171072663Y-125412744D01*
X171022050Y-125490630D01*
X170960725Y-125582481D01*
X170891679Y-125683650D01*
X170853787Y-125738826D01*
X170788606Y-125834884D01*
X170732723Y-125918717D01*
X170689117Y-125985777D01*
X170660769Y-126031519D01*
X170650657Y-126051396D01*
X170650823Y-126052497D01*
X170659743Y-126077694D01*
X170680206Y-126129147D01*
X170709360Y-126200135D01*
X170744353Y-126283935D01*
X170782332Y-126373828D01*
X170820445Y-126463091D01*
X170855839Y-126545003D01*
X170885662Y-126612843D01*
X170907061Y-126659890D01*
X170917184Y-126679422D01*
X170923174Y-126681155D01*
X170959566Y-126688969D01*
X171024427Y-126701915D01*
X171112565Y-126718979D01*
X171218787Y-126739151D01*
X171337902Y-126761418D01*
X171400683Y-126773223D01*
X171515912Y-126795748D01*
X171616662Y-126816550D01*
X171697426Y-126834435D01*
X171752698Y-126848208D01*
X171776971Y-126856674D01*
X171781331Y-126865066D01*
X171788563Y-126906072D01*
X171794246Y-126974368D01*
X171798382Y-127063529D01*
X171800977Y-127167128D01*
X171802036Y-127278740D01*
X171801561Y-127391938D01*
X171799559Y-127500296D01*
X171796033Y-127597389D01*
X171790987Y-127676790D01*
X171784427Y-127732072D01*
X171776356Y-127756810D01*
X171771458Y-127759600D01*
X171734930Y-127771569D01*
X171671565Y-127787405D01*
X171588686Y-127805374D01*
X171493618Y-127823741D01*
X171461542Y-127829591D01*
X171313393Y-127856798D01*
X171196961Y-127878663D01*
X171108209Y-127896093D01*
X171043103Y-127909996D01*
X170997606Y-127921277D01*
X170967682Y-127930843D01*
X170949294Y-127939601D01*
X170938407Y-127948457D01*
X170937142Y-127949943D01*
X170919338Y-127980931D01*
X170892994Y-128037634D01*
X170860661Y-128113399D01*
X170824893Y-128201574D01*
X170788244Y-128295507D01*
X170753266Y-128388547D01*
X170722513Y-128474041D01*
X170698538Y-128545336D01*
X170683895Y-128595782D01*
X170681136Y-128618726D01*
X170682981Y-128621703D01*
X170702075Y-128650493D01*
X170737984Y-128703595D01*
X170787378Y-128776117D01*
X170846927Y-128863167D01*
X170913303Y-128959854D01*
X170931520Y-128986456D01*
X170995577Y-129081875D01*
X171050937Y-129167212D01*
X171094439Y-129237405D01*
X171122924Y-129287394D01*
X171133232Y-129312116D01*
X171131011Y-129318616D01*
X171107858Y-129350644D01*
X171062177Y-129402945D01*
X170997241Y-129471999D01*
X170916319Y-129554286D01*
X170822685Y-129646286D01*
X170769165Y-129697781D01*
X170684542Y-129777983D01*
X170610475Y-129846678D01*
X170550941Y-129900252D01*
X170509917Y-129935085D01*
X170491381Y-129947563D01*
X170478646Y-129942938D01*
X170439436Y-129921057D01*
X170382495Y-129885273D01*
X170315250Y-129840117D01*
X170267438Y-129807165D01*
X170171985Y-129741727D01*
X170070125Y-129672228D01*
X169977088Y-129609075D01*
X169794832Y-129485800D01*
X169641841Y-129568520D01*
X169605817Y-129587613D01*
X169540303Y-129620272D01*
X169489640Y-129642819D01*
X169462564Y-129651226D01*
X169453703Y-129640430D01*
X169431699Y-129599323D01*
X169399199Y-129531549D01*
X169358010Y-129441409D01*
X169309942Y-129333205D01*
X169256802Y-129211237D01*
X169200399Y-129079808D01*
X169142542Y-128943218D01*
X169085038Y-128805767D01*
X169029697Y-128671758D01*
X168978326Y-128545491D01*
X168932735Y-128431268D01*
X168894732Y-128333390D01*
X168866124Y-128256157D01*
X168848721Y-128203871D01*
X168844331Y-128180833D01*
X168844628Y-128180160D01*
X168865077Y-128158863D01*
X168907850Y-128125508D01*
X168964117Y-128087011D01*
X168981877Y-128075256D01*
X169117014Y-127963735D01*
X169228856Y-127830906D01*
X169314755Y-127682298D01*
X169372062Y-127523440D01*
X169398131Y-127359860D01*
X169390313Y-127197088D01*
X169358644Y-127052315D01*
X169301782Y-126906124D01*
X169218888Y-126775703D01*
X169105131Y-126651813D01*
X169060433Y-126612235D01*
X168915935Y-126514723D01*
X168759838Y-126449050D01*
X168596667Y-126414630D01*
X168430943Y-126410874D01*
X168267192Y-126437194D01*
X168109936Y-126493003D01*
X167963698Y-126577714D01*
X167833004Y-126690737D01*
X167722374Y-126831487D01*
X167701105Y-126866342D01*
X167628810Y-127025655D01*
X167590415Y-127191552D01*
X167584914Y-127359737D01*
X167611301Y-127525913D01*
X167668570Y-127685784D01*
X167755717Y-127835053D01*
X167871736Y-127969423D01*
X168015622Y-128084599D01*
X168020294Y-128087702D01*
X168075964Y-128126933D01*
X168117689Y-128160286D01*
X168136746Y-128180833D01*
X168134342Y-128196941D01*
X168119391Y-128243844D01*
X168092881Y-128316539D01*
X168056620Y-128410725D01*
X168012416Y-128522098D01*
X167962076Y-128646358D01*
X167907407Y-128779202D01*
X167850218Y-128916327D01*
X167792316Y-129053432D01*
X167735510Y-129186215D01*
X167681606Y-129310374D01*
X167632412Y-129421606D01*
X167589737Y-129515609D01*
X167555387Y-129588082D01*
X167531171Y-129634722D01*
X167518897Y-129651226D01*
X167508689Y-129648991D01*
X167468586Y-129632926D01*
X167409318Y-129604759D01*
X167339619Y-129568520D01*
X167186629Y-129485800D01*
X167004373Y-129609075D01*
X166950527Y-129645579D01*
X166850374Y-129713784D01*
X166750525Y-129782098D01*
X166666211Y-129840117D01*
X166619679Y-129871736D01*
X166559200Y-129911020D01*
X166514357Y-129937912D01*
X166492455Y-129947883D01*
X166483045Y-129943650D01*
X166449031Y-129917721D01*
X166396595Y-129872070D01*
X166330301Y-129811186D01*
X166254713Y-129739561D01*
X166174396Y-129661683D01*
X166093913Y-129582045D01*
X166017829Y-129505135D01*
X165950707Y-129435445D01*
X165897112Y-129377464D01*
X165861608Y-129335684D01*
X165848759Y-129314593D01*
X165849500Y-129310581D01*
X165864793Y-129277920D01*
X165897462Y-129221412D01*
X165944350Y-129146163D01*
X166002301Y-129057275D01*
X166068157Y-128959854D01*
X166086627Y-128932982D01*
X166151482Y-128838423D01*
X166208609Y-128754827D01*
X166254678Y-128687084D01*
X166286359Y-128640086D01*
X166300324Y-128618726D01*
X166300668Y-128617811D01*
X166296546Y-128591678D01*
X166280807Y-128538740D01*
X166256004Y-128465647D01*
X166224689Y-128379052D01*
X166189417Y-128285608D01*
X166152740Y-128191965D01*
X166117212Y-128104777D01*
X166085386Y-128030695D01*
X166059816Y-127976371D01*
X166043053Y-127948457D01*
X166041374Y-127946724D01*
X166029372Y-127937956D01*
X166009103Y-127929115D01*
X165976529Y-127919292D01*
X165927616Y-127907583D01*
X165858327Y-127893080D01*
X165764625Y-127874876D01*
X165642476Y-127852066D01*
X165487842Y-127823741D01*
X165455770Y-127817780D01*
X165363893Y-127799352D01*
X165286607Y-127781892D01*
X165231236Y-127767133D01*
X165205105Y-127756810D01*
X165200733Y-127748197D01*
X165193445Y-127706826D01*
X165187669Y-127638241D01*
X165183410Y-127548868D01*
X165180673Y-127445135D01*
X165179462Y-127333465D01*
X165179782Y-127220287D01*
X165181636Y-127112026D01*
X165185030Y-127015108D01*
X165189967Y-126935959D01*
X165196452Y-126881006D01*
X165204489Y-126856674D01*
X165212696Y-126853079D01*
X165253519Y-126841748D01*
X165322524Y-126825722D01*
X165414203Y-126806195D01*
X165523050Y-126784362D01*
X165643558Y-126761418D01*
X165709357Y-126749159D01*
X165822135Y-126727901D01*
X165919207Y-126709287D01*
X165995382Y-126694328D01*
X166045469Y-126684036D01*
X166064276Y-126679422D01*
X166064983Y-126678471D01*
X166076961Y-126654310D01*
X166099794Y-126603694D01*
X166130630Y-126533338D01*
X166166613Y-126449958D01*
X166204891Y-126360270D01*
X166242609Y-126270989D01*
X166276913Y-126188832D01*
X166304949Y-126120513D01*
X166323864Y-126072748D01*
X166330803Y-126052254D01*
X166327742Y-126045043D01*
X166307372Y-126010728D01*
X166270422Y-125952970D01*
X166219860Y-125876299D01*
X166158657Y-125785248D01*
X166089781Y-125684350D01*
X166051994Y-125629093D01*
X165986782Y-125532215D01*
X165930871Y-125447193D01*
X165887241Y-125378662D01*
X165858877Y-125331260D01*
X165848759Y-125309623D01*
X165855790Y-125297887D01*
X165885197Y-125262818D01*
X165933441Y-125209745D01*
X165996093Y-125143164D01*
X166068725Y-125067574D01*
X166146908Y-124987472D01*
X166226214Y-124907354D01*
X166302213Y-124831718D01*
X166370478Y-124765062D01*
X166426580Y-124711882D01*
X166466090Y-124676676D01*
X166484579Y-124663942D01*
X166494843Y-124668893D01*
X166532530Y-124691857D01*
X166593348Y-124730938D01*
X166672913Y-124783272D01*
X166766843Y-124845996D01*
X166870754Y-124916246D01*
X167241794Y-125168551D01*
X167551080Y-125041053D01*
X167860365Y-124913555D01*
X167944186Y-124468931D01*
X168028006Y-124024307D01*
X168953454Y-124024307D01*
X169037275Y-124468931D01*
G37*
D11*
X169037275Y-124468931D02*
X169121095Y-124913555D01*
X169739667Y-125168551D01*
X170110707Y-124916246D01*
X170184144Y-124866506D01*
X170281499Y-124801218D01*
X170365787Y-124745454D01*
X170432631Y-124702078D01*
X170477654Y-124673953D01*
X170496478Y-124663942D01*
X170508039Y-124671061D01*
X170542596Y-124700894D01*
X170594894Y-124749852D01*
X170660500Y-124813440D01*
X170734983Y-124887163D01*
X170813913Y-124966525D01*
X170892856Y-125047031D01*
X170967384Y-125124185D01*
X171033063Y-125193493D01*
X171085463Y-125250457D01*
X171120153Y-125290584D01*
X171132701Y-125309377D01*
X171129782Y-125317451D01*
X171109571Y-125353469D01*
X171072663Y-125412744D01*
X171022050Y-125490630D01*
X170960725Y-125582481D01*
X170891679Y-125683650D01*
X170853787Y-125738826D01*
X170788606Y-125834884D01*
X170732723Y-125918717D01*
X170689117Y-125985777D01*
X170660769Y-126031519D01*
X170650657Y-126051396D01*
X170650823Y-126052497D01*
X170659743Y-126077694D01*
X170680206Y-126129147D01*
X170709360Y-126200135D01*
X170744353Y-126283935D01*
X170782332Y-126373828D01*
X170820445Y-126463091D01*
X170855839Y-126545003D01*
X170885662Y-126612843D01*
X170907061Y-126659890D01*
X170917184Y-126679422D01*
X170923174Y-126681155D01*
X170959566Y-126688969D01*
X171024427Y-126701915D01*
X171112565Y-126718979D01*
X171218787Y-126739151D01*
X171337902Y-126761418D01*
X171400683Y-126773223D01*
X171515912Y-126795748D01*
X171616662Y-126816550D01*
X171697426Y-126834435D01*
X171752698Y-126848208D01*
X171776971Y-126856674D01*
X171781331Y-126865066D01*
X171788563Y-126906072D01*
X171794246Y-126974368D01*
X171798382Y-127063529D01*
X171800977Y-127167128D01*
X171802036Y-127278740D01*
X171801561Y-127391938D01*
X171799559Y-127500296D01*
X171796033Y-127597389D01*
X171790987Y-127676790D01*
X171784427Y-127732072D01*
X171776356Y-127756810D01*
X171771458Y-127759600D01*
X171734930Y-127771569D01*
X171671565Y-127787405D01*
X171588686Y-127805374D01*
X171493618Y-127823741D01*
X171461542Y-127829591D01*
X171313393Y-127856798D01*
X171196961Y-127878663D01*
X171108209Y-127896093D01*
X171043103Y-127909996D01*
X170997606Y-127921277D01*
X170967682Y-127930843D01*
X170949294Y-127939601D01*
X170938407Y-127948457D01*
X170937142Y-127949943D01*
X170919338Y-127980931D01*
X170892994Y-128037634D01*
X170860661Y-128113399D01*
X170824893Y-128201574D01*
X170788244Y-128295507D01*
X170753266Y-128388547D01*
X170722513Y-128474041D01*
X170698538Y-128545336D01*
X170683895Y-128595782D01*
X170681136Y-128618726D01*
X170682981Y-128621703D01*
X170702075Y-128650493D01*
X170737984Y-128703595D01*
X170787378Y-128776117D01*
X170846927Y-128863167D01*
X170913303Y-128959854D01*
X170931520Y-128986456D01*
X170995577Y-129081875D01*
X171050937Y-129167212D01*
X171094439Y-129237405D01*
X171122924Y-129287394D01*
X171133232Y-129312116D01*
X171131011Y-129318616D01*
X171107858Y-129350644D01*
X171062177Y-129402945D01*
X170997241Y-129471999D01*
X170916319Y-129554286D01*
X170822685Y-129646286D01*
X170769165Y-129697781D01*
X170684542Y-129777983D01*
X170610475Y-129846678D01*
X170550941Y-129900252D01*
X170509917Y-129935085D01*
X170491381Y-129947563D01*
X170478646Y-129942938D01*
X170439436Y-129921057D01*
X170382495Y-129885273D01*
X170315250Y-129840117D01*
X170267438Y-129807165D01*
X170171985Y-129741727D01*
X170070125Y-129672228D01*
X169977088Y-129609075D01*
X169794832Y-129485800D01*
X169641841Y-129568520D01*
X169605817Y-129587613D01*
X169540303Y-129620272D01*
X169489640Y-129642819D01*
X169462564Y-129651226D01*
X169453703Y-129640430D01*
X169431699Y-129599323D01*
X169399199Y-129531549D01*
X169358010Y-129441409D01*
X169309942Y-129333205D01*
X169256802Y-129211237D01*
X169200399Y-129079808D01*
X169142542Y-128943218D01*
X169085038Y-128805767D01*
X169029697Y-128671758D01*
X168978326Y-128545491D01*
X168932735Y-128431268D01*
X168894732Y-128333390D01*
X168866124Y-128256157D01*
X168848721Y-128203871D01*
X168844331Y-128180833D01*
X168844628Y-128180160D01*
X168865077Y-128158863D01*
X168907850Y-128125508D01*
X168964117Y-128087011D01*
X168981877Y-128075256D01*
X169117014Y-127963735D01*
X169228856Y-127830906D01*
X169314755Y-127682298D01*
X169372062Y-127523440D01*
X169398131Y-127359860D01*
X169390313Y-127197088D01*
X169358644Y-127052315D01*
X169301782Y-126906124D01*
X169218888Y-126775703D01*
X169105131Y-126651813D01*
X169060433Y-126612235D01*
X168915935Y-126514723D01*
X168759838Y-126449050D01*
X168596667Y-126414630D01*
X168430943Y-126410874D01*
X168267192Y-126437194D01*
X168109936Y-126493003D01*
X167963698Y-126577714D01*
X167833004Y-126690737D01*
X167722374Y-126831487D01*
X167701105Y-126866342D01*
X167628810Y-127025655D01*
X167590415Y-127191552D01*
X167584914Y-127359737D01*
X167611301Y-127525913D01*
X167668570Y-127685784D01*
X167755717Y-127835053D01*
X167871736Y-127969423D01*
X168015622Y-128084599D01*
X168020294Y-128087702D01*
X168075964Y-128126933D01*
X168117689Y-128160286D01*
X168136746Y-128180833D01*
X168134342Y-128196941D01*
X168119391Y-128243844D01*
X168092881Y-128316539D01*
X168056620Y-128410725D01*
X168012416Y-128522098D01*
X167962076Y-128646358D01*
X167907407Y-128779202D01*
X167850218Y-128916327D01*
X167792316Y-129053432D01*
X167735510Y-129186215D01*
X167681606Y-129310374D01*
X167632412Y-129421606D01*
X167589737Y-129515609D01*
X167555387Y-129588082D01*
X167531171Y-129634722D01*
X167518897Y-129651226D01*
X167508689Y-129648991D01*
X167468586Y-129632926D01*
X167409318Y-129604759D01*
X167339619Y-129568520D01*
X167186629Y-129485800D01*
X167004373Y-129609075D01*
X166950527Y-129645579D01*
X166850374Y-129713784D01*
X166750525Y-129782098D01*
X166666211Y-129840117D01*
X166619679Y-129871736D01*
X166559200Y-129911020D01*
X166514357Y-129937912D01*
X166492455Y-129947883D01*
X166483045Y-129943650D01*
X166449031Y-129917721D01*
X166396595Y-129872070D01*
X166330301Y-129811186D01*
X166254713Y-129739561D01*
X166174396Y-129661683D01*
X166093913Y-129582045D01*
X166017829Y-129505135D01*
X165950707Y-129435445D01*
X165897112Y-129377464D01*
X165861608Y-129335684D01*
X165848759Y-129314593D01*
X165849500Y-129310581D01*
X165864793Y-129277920D01*
X165897462Y-129221412D01*
X165944350Y-129146163D01*
X166002301Y-129057275D01*
X166068157Y-128959854D01*
X166086627Y-128932982D01*
X166151482Y-128838423D01*
X166208609Y-128754827D01*
X166254678Y-128687084D01*
X166286359Y-128640086D01*
X166300324Y-128618726D01*
X166300668Y-128617811D01*
X166296546Y-128591678D01*
X166280807Y-128538740D01*
X166256004Y-128465647D01*
X166224689Y-128379052D01*
X166189417Y-128285608D01*
X166152740Y-128191965D01*
X166117212Y-128104777D01*
X166085386Y-128030695D01*
X166059816Y-127976371D01*
X166043053Y-127948457D01*
X166041374Y-127946724D01*
X166029372Y-127937956D01*
X166009103Y-127929115D01*
X165976529Y-127919292D01*
X165927616Y-127907583D01*
X165858327Y-127893080D01*
X165764625Y-127874876D01*
X165642476Y-127852066D01*
X165487842Y-127823741D01*
X165455770Y-127817780D01*
X165363893Y-127799352D01*
X165286607Y-127781892D01*
X165231236Y-127767133D01*
X165205105Y-127756810D01*
X165200733Y-127748197D01*
X165193445Y-127706826D01*
X165187669Y-127638241D01*
X165183410Y-127548868D01*
X165180673Y-127445135D01*
X165179462Y-127333465D01*
X165179782Y-127220287D01*
X165181636Y-127112026D01*
X165185030Y-127015108D01*
X165189967Y-126935959D01*
X165196452Y-126881006D01*
X165204489Y-126856674D01*
X165212696Y-126853079D01*
X165253519Y-126841748D01*
X165322524Y-126825722D01*
X165414203Y-126806195D01*
X165523050Y-126784362D01*
X165643558Y-126761418D01*
X165709357Y-126749159D01*
X165822135Y-126727901D01*
X165919207Y-126709287D01*
X165995382Y-126694328D01*
X166045469Y-126684036D01*
X166064276Y-126679422D01*
X166064983Y-126678471D01*
X166076961Y-126654310D01*
X166099794Y-126603694D01*
X166130630Y-126533338D01*
X166166613Y-126449958D01*
X166204891Y-126360270D01*
X166242609Y-126270989D01*
X166276913Y-126188832D01*
X166304949Y-126120513D01*
X166323864Y-126072748D01*
X166330803Y-126052254D01*
X166327742Y-126045043D01*
X166307372Y-126010728D01*
X166270422Y-125952970D01*
X166219860Y-125876299D01*
X166158657Y-125785248D01*
X166089781Y-125684350D01*
X166051994Y-125629093D01*
X165986782Y-125532215D01*
X165930871Y-125447193D01*
X165887241Y-125378662D01*
X165858877Y-125331260D01*
X165848759Y-125309623D01*
X165855790Y-125297887D01*
X165885197Y-125262818D01*
X165933441Y-125209745D01*
X165996093Y-125143164D01*
X166068725Y-125067574D01*
X166146908Y-124987472D01*
X166226214Y-124907354D01*
X166302213Y-124831718D01*
X166370478Y-124765062D01*
X166426580Y-124711882D01*
X166466090Y-124676676D01*
X166484579Y-124663942D01*
X166494843Y-124668893D01*
X166532530Y-124691857D01*
X166593348Y-124730938D01*
X166672913Y-124783272D01*
X166766843Y-124845996D01*
X166870754Y-124916246D01*
X167241794Y-125168551D01*
X167551080Y-125041053D01*
X167860365Y-124913555D01*
X167944186Y-124468931D01*
X168028006Y-124024307D01*
X168953454Y-124024307D01*
X169037275Y-124468931D01*
G36*
X170039323Y-104948989D02*
G01*
X169857812Y-104893929D01*
X169690530Y-104804514D01*
X169543906Y-104684183D01*
X169423575Y-104537559D01*
X169334161Y-104370277D01*
X169312854Y-104300038D01*
X170228288Y-104300038D01*
X170261625Y-104488156D01*
X170364019Y-104636984D01*
X170442600Y-104692944D01*
X170540231Y-104734616D01*
X170657508Y-104760512D01*
X170795025Y-104769144D01*
X170910516Y-104760809D01*
X171027197Y-104740569D01*
X171036613Y-104738188D01*
X171392719Y-104738188D01*
X172354744Y-104738188D01*
X172360697Y-104678656D01*
X172359506Y-104628650D01*
X172348493Y-104514350D01*
X172315453Y-104409575D01*
X172265447Y-104313432D01*
X172203534Y-104225028D01*
X172133288Y-104143470D01*
X172058278Y-104067866D01*
X171984211Y-103997619D01*
X172576200Y-103997619D01*
X172584386Y-104180380D01*
X172608942Y-104338138D01*
X172649870Y-104470892D01*
X172707169Y-104578644D01*
X172807710Y-104684477D01*
X172934710Y-104747977D01*
X173088169Y-104769144D01*
X173241627Y-104747977D01*
X173261205Y-104738188D01*
X173773969Y-104738188D01*
X174735994Y-104738188D01*
X174741947Y-104678656D01*
X174740756Y-104628650D01*
X174729743Y-104514350D01*
X174696703Y-104409575D01*
X174646697Y-104313432D01*
X174584784Y-104225028D01*
X174514538Y-104143470D01*
X174439528Y-104067866D01*
X174364519Y-103996726D01*
X174294272Y-103928563D01*
X174182353Y-103799975D01*
X174138300Y-103673769D01*
X174193069Y-103534466D01*
X174331181Y-103485650D01*
X174476438Y-103518988D01*
X174626456Y-103630906D01*
X174771713Y-103426119D01*
X174669021Y-103339203D01*
X174551447Y-103278481D01*
X174426729Y-103242763D01*
X174302606Y-103230856D01*
X174128775Y-103257050D01*
X173981138Y-103335631D01*
X173878744Y-103467791D01*
X173840644Y-103652338D01*
X173869219Y-103798784D01*
X173945419Y-103935706D01*
X174052575Y-104064294D01*
X174174019Y-104183356D01*
X174245456Y-104251222D01*
X174321656Y-104332184D01*
X174382378Y-104416719D01*
X174407381Y-104495300D01*
X173773969Y-104495300D01*
X173773969Y-104738188D01*
X173261205Y-104738188D01*
X173368627Y-104684477D01*
X173469169Y-104578644D01*
X173526468Y-104470892D01*
X173567395Y-104338138D01*
X173591952Y-104180380D01*
X173600138Y-103997619D01*
X173591803Y-103816941D01*
X173566800Y-103660672D01*
X173525128Y-103528810D01*
X173466788Y-103421356D01*
X173365452Y-103315523D01*
X173239246Y-103252023D01*
X173088169Y-103230856D01*
X172934710Y-103251891D01*
X172807710Y-103314994D01*
X172707169Y-103420166D01*
X172649870Y-103527247D01*
X172608942Y-103659184D01*
X172584386Y-103815974D01*
X172576200Y-103997619D01*
X171984211Y-103997619D01*
X171983269Y-103996726D01*
X171913022Y-103928563D01*
X171801103Y-103799975D01*
X171757050Y-103673769D01*
X171811819Y-103534466D01*
X171949931Y-103485650D01*
X172095188Y-103518988D01*
X172245206Y-103630906D01*
X172390463Y-103426119D01*
X172287771Y-103339203D01*
X172170197Y-103278481D01*
X172045479Y-103242763D01*
X171921356Y-103230856D01*
X171747525Y-103257050D01*
X171599888Y-103335631D01*
X171497494Y-103467791D01*
X171459394Y-103652338D01*
X171487969Y-103798784D01*
X171564169Y-103935706D01*
X171671325Y-104064294D01*
X171792769Y-104183356D01*
X171864206Y-104251222D01*
X171940406Y-104332184D01*
X172001128Y-104416719D01*
X172026131Y-104495300D01*
X171392719Y-104495300D01*
X171392719Y-104738188D01*
X171036613Y-104738188D01*
X171130781Y-104714375D01*
X171204600Y-104688181D01*
X171147450Y-104442913D01*
X171005766Y-104492919D01*
X170910218Y-104512564D01*
X170797406Y-104519113D01*
X170669712Y-104503039D01*
X170586666Y-104454819D01*
X170525944Y-104295275D01*
X170549161Y-104196155D01*
X170618813Y-104132159D01*
X170724183Y-104097334D01*
X170854556Y-104085725D01*
X170945044Y-104085725D01*
X170945044Y-103842838D01*
X170835506Y-103842838D01*
X170745019Y-103833313D01*
X170664056Y-103802356D01*
X170605716Y-103745206D01*
X170583094Y-103654719D01*
X170631909Y-103527322D01*
X170766450Y-103480888D01*
X170931947Y-103508272D01*
X171073631Y-103576138D01*
X171178406Y-103361825D01*
X171008147Y-103274909D01*
X170895335Y-103241870D01*
X170768831Y-103230856D01*
X170653043Y-103238595D01*
X170553328Y-103261813D01*
X170402119Y-103348728D01*
X170314013Y-103480888D01*
X170285438Y-103645194D01*
X170335444Y-103814263D01*
X170468794Y-103938088D01*
X170367293Y-103997023D01*
X170291391Y-104078581D01*
X170244063Y-104180380D01*
X170228288Y-104300038D01*
X169312854Y-104300038D01*
X169279100Y-104188766D01*
X169260508Y-104000000D01*
X169279100Y-103811234D01*
X169334161Y-103629723D01*
X169423575Y-103462441D01*
X169543906Y-103315817D01*
X169690530Y-103195486D01*
X169857812Y-103106071D01*
X170039323Y-103051011D01*
X170228089Y-103032419D01*
X174771911Y-103032419D01*
X174960677Y-103051011D01*
X175142188Y-103106071D01*
X175309470Y-103195486D01*
X175456094Y-103315817D01*
X175576425Y-103462441D01*
X175665839Y-103629723D01*
X175720900Y-103811234D01*
X175739492Y-104000000D01*
X175720900Y-104188766D01*
X175665839Y-104370277D01*
X175576425Y-104537559D01*
X175456094Y-104684183D01*
X175309470Y-104804514D01*
X175142188Y-104893929D01*
X174960677Y-104948989D01*
X174771911Y-104967581D01*
X170228089Y-104967581D01*
X170039323Y-104948989D01*
G37*
G36*
X172903622Y-104384572D02*
G01*
X172868565Y-104282840D01*
X172847530Y-104153855D01*
X172840519Y-103997619D01*
X172841597Y-103973806D01*
X172954819Y-103973806D01*
X172991728Y-104084534D01*
X173085788Y-104130969D01*
X173183419Y-104084534D01*
X173219138Y-103973806D01*
X173183419Y-103861888D01*
X173085788Y-103814263D01*
X172991728Y-103861888D01*
X172954819Y-103973806D01*
X172841597Y-103973806D01*
X172847530Y-103842705D01*
X172868565Y-103714515D01*
X172903622Y-103613047D01*
X172981310Y-103513927D01*
X173088169Y-103480888D01*
X173193539Y-103513927D01*
X173271525Y-103613047D01*
X173307244Y-103714515D01*
X173328675Y-103842705D01*
X173335819Y-103997619D01*
X173328675Y-104153855D01*
X173307244Y-104282840D01*
X173271525Y-104384572D01*
X173193539Y-104483691D01*
X173088169Y-104516731D01*
X173085788Y-104515995D01*
X172981310Y-104483691D01*
X172903622Y-104384572D01*
G37*
G36*
X177583344Y-112950140D02*
G01*
X177705383Y-112976930D01*
X177828414Y-113008680D01*
X177960375Y-113045390D01*
X177828414Y-113082101D01*
X177705383Y-113113851D01*
X177583344Y-113141633D01*
X177456344Y-113166437D01*
X177456344Y-112926328D01*
X177583344Y-112950140D01*
G37*
G36*
X177895883Y-115889992D02*
G01*
X177954422Y-115934640D01*
X177988652Y-116003598D01*
X178000062Y-116091406D01*
X177999070Y-116125140D01*
X177994109Y-116164828D01*
X177625016Y-116164828D01*
X177625016Y-116111250D01*
X177637170Y-116003598D01*
X177673633Y-115930672D01*
X177811547Y-115875109D01*
X177895883Y-115889992D01*
G37*
G36*
X177583344Y-118903265D02*
G01*
X177705383Y-118930055D01*
X177828414Y-118961805D01*
X177960375Y-118998515D01*
X177828414Y-119035226D01*
X177705383Y-119066976D01*
X177583344Y-119094758D01*
X177456344Y-119119562D01*
X177456344Y-118879453D01*
X177583344Y-118903265D01*
G37*
G36*
X177895139Y-113859728D02*
G01*
X177955414Y-113903633D01*
X177988900Y-113971846D01*
X178000062Y-114059406D01*
X177999070Y-114119930D01*
X177994109Y-114180453D01*
X177597234Y-114180453D01*
X177597234Y-114081234D01*
X177608893Y-113978543D01*
X177643867Y-113904625D01*
X177707119Y-113859976D01*
X177803609Y-113845094D01*
X177895139Y-113859728D01*
G37*
G36*
X176482310Y-102429292D02*
G01*
X176497035Y-102330024D01*
X176521419Y-102232677D01*
X176555227Y-102138188D01*
X176598135Y-102047469D01*
X176649727Y-101961392D01*
X176709508Y-101880786D01*
X176776902Y-101806428D01*
X176851260Y-101739034D01*
X176931866Y-101679253D01*
X177017943Y-101627661D01*
X177108662Y-101584753D01*
X177203151Y-101550945D01*
X177300498Y-101526561D01*
X177399766Y-101511836D01*
X177500000Y-101506912D01*
X177600234Y-101511836D01*
X177699502Y-101526561D01*
X177796849Y-101550945D01*
X177891338Y-101584753D01*
X177982057Y-101627661D01*
X178068134Y-101679253D01*
X178148740Y-101739034D01*
X178223098Y-101806428D01*
X178290492Y-101880786D01*
X178350273Y-101961392D01*
X178401865Y-102047469D01*
X178444773Y-102138188D01*
X178478581Y-102232677D01*
X178502965Y-102330024D01*
X178517690Y-102429292D01*
X178522615Y-102529526D01*
X178522615Y-127470474D01*
X178517690Y-127570708D01*
X178502965Y-127669976D01*
X178478581Y-127767323D01*
X178444773Y-127861811D01*
X178401866Y-127952531D01*
X178350273Y-128038608D01*
X178290492Y-128119214D01*
X178223098Y-128193572D01*
X178148740Y-128260966D01*
X178068134Y-128320747D01*
X177982057Y-128372339D01*
X177891338Y-128415247D01*
X177796849Y-128449055D01*
X177699502Y-128473439D01*
X177600234Y-128488164D01*
X177500000Y-128493088D01*
X177399766Y-128488164D01*
X177300498Y-128473439D01*
X177203151Y-128449055D01*
X177108662Y-128415247D01*
X177017943Y-128372339D01*
X176931866Y-128320747D01*
X176851260Y-128260966D01*
X176776902Y-128193572D01*
X176709508Y-128119214D01*
X176649727Y-128038608D01*
X176598134Y-127952531D01*
X176555227Y-127861811D01*
X176521419Y-127767323D01*
X176497035Y-127669976D01*
X176482310Y-127570708D01*
X176477385Y-127470474D01*
X176477385Y-127305109D01*
X176970172Y-127305109D01*
X178198500Y-127305109D01*
X178198500Y-126560969D01*
X177996094Y-126560969D01*
X177996094Y-127061031D01*
X177720266Y-127061031D01*
X177720266Y-126626453D01*
X177517859Y-126626453D01*
X177517859Y-127061031D01*
X177172578Y-127061031D01*
X177172578Y-126517312D01*
X176970172Y-126517312D01*
X176970172Y-127305109D01*
X176477385Y-127305109D01*
X176477385Y-125977562D01*
X176944375Y-125977562D01*
X176952561Y-126114980D01*
X176977117Y-126221640D01*
X177037641Y-126358562D01*
X177236078Y-126287125D01*
X177176547Y-126159133D01*
X177155711Y-126076533D01*
X177148766Y-125977562D01*
X177161664Y-125875367D01*
X177197383Y-125810875D01*
X177248977Y-125778133D01*
X177307516Y-125769203D01*
X177374984Y-125791031D01*
X177427570Y-125846594D01*
X177469242Y-125922000D01*
X177503969Y-126005344D01*
X177549609Y-126120437D01*
X177615094Y-126228586D01*
X177713320Y-126308953D01*
X177859172Y-126340703D01*
X178012961Y-126312674D01*
X178129047Y-126228586D01*
X178183066Y-126144470D01*
X178215477Y-126041614D01*
X178226281Y-125920015D01*
X178219832Y-125814099D01*
X178200484Y-125722570D01*
X178142938Y-125580687D01*
X177954422Y-125652125D01*
X178002047Y-125762258D01*
X178021891Y-125902156D01*
X178006236Y-126010194D01*
X177959273Y-126075017D01*
X177881000Y-126096625D01*
X177818492Y-126076781D01*
X177770867Y-126026180D01*
X177734156Y-125956726D01*
X177704391Y-125880328D01*
X177655773Y-125760273D01*
X177584336Y-125645180D01*
X177473211Y-125558859D01*
X177398053Y-125533558D01*
X177305531Y-125525125D01*
X177152486Y-125553154D01*
X177038633Y-125637242D01*
X176986267Y-125724885D01*
X176954848Y-125838325D01*
X176944375Y-125977562D01*
X176477385Y-125977562D01*
X176477385Y-125338594D01*
X176970172Y-125338594D01*
X178182625Y-125338594D01*
X178196516Y-125258226D01*
X178205445Y-125167937D01*
X178210406Y-125078640D01*
X178212391Y-125001250D01*
X178201697Y-124856831D01*
X178169616Y-124735785D01*
X178116148Y-124638109D01*
X178038427Y-124566451D01*
X177933586Y-124523456D01*
X177801625Y-124509125D01*
X177668341Y-124523567D01*
X177562177Y-124566892D01*
X177483133Y-124639101D01*
X177428562Y-124737769D01*
X177395820Y-124860469D01*
X177384906Y-125007203D01*
X177384906Y-125094515D01*
X176970172Y-125094515D01*
X176970172Y-125338594D01*
X176477385Y-125338594D01*
X176477385Y-124229328D01*
X177359109Y-124229328D01*
X177599219Y-124229328D01*
X177599219Y-123685609D01*
X177359109Y-123685609D01*
X177359109Y-124229328D01*
X176477385Y-124229328D01*
X176477385Y-123038703D01*
X176944375Y-123038703D01*
X176951320Y-123134945D01*
X176968187Y-123232180D01*
X176990016Y-123318500D01*
X177011844Y-123380015D01*
X177216234Y-123332390D01*
X177174562Y-123214320D01*
X177158191Y-123134697D01*
X177152734Y-123040687D01*
X177166129Y-122934275D01*
X177206312Y-122865070D01*
X177339266Y-122814469D01*
X177421865Y-122833816D01*
X177475195Y-122891859D01*
X177504217Y-122979668D01*
X177513891Y-123088312D01*
X177513891Y-123163719D01*
X177716297Y-123163719D01*
X177716297Y-123072437D01*
X177724234Y-122997031D01*
X177750031Y-122929562D01*
X177797656Y-122880945D01*
X177873062Y-122862094D01*
X177979227Y-122902773D01*
X178017922Y-123014890D01*
X177995102Y-123152805D01*
X177938547Y-123270875D01*
X178117141Y-123358187D01*
X178189570Y-123216305D01*
X178217104Y-123122295D01*
X178226281Y-123016875D01*
X178219832Y-122920385D01*
X178200484Y-122837289D01*
X178128055Y-122711281D01*
X178017922Y-122637859D01*
X177881000Y-122614047D01*
X177740109Y-122655719D01*
X177636922Y-122766844D01*
X177587809Y-122682260D01*
X177519844Y-122619008D01*
X177435012Y-122579568D01*
X177335297Y-122566422D01*
X177178531Y-122594203D01*
X177054508Y-122679531D01*
X177007875Y-122745015D01*
X176973148Y-122826375D01*
X176951568Y-122924105D01*
X176944375Y-123038703D01*
X176477385Y-123038703D01*
X176477385Y-122354094D01*
X176970172Y-122354094D01*
X177019781Y-122359055D01*
X177061453Y-122358062D01*
X177156703Y-122348885D01*
X177244016Y-122321351D01*
X177324135Y-122279680D01*
X177397805Y-122228086D01*
X177465770Y-122169547D01*
X177528773Y-122107039D01*
X177588057Y-122044531D01*
X177644859Y-121985992D01*
X177752016Y-121892726D01*
X177857187Y-121856015D01*
X177973273Y-121901656D01*
X178013953Y-122016750D01*
X177986172Y-122137797D01*
X177892906Y-122262812D01*
X178063563Y-122383859D01*
X178135992Y-122298283D01*
X178186594Y-122200305D01*
X178216359Y-122096373D01*
X178226281Y-121992937D01*
X178204453Y-121848078D01*
X178138969Y-121725047D01*
X178028836Y-121639719D01*
X177875047Y-121607969D01*
X177753008Y-121631781D01*
X177638906Y-121695281D01*
X177531750Y-121784578D01*
X177432531Y-121885781D01*
X177375977Y-121945312D01*
X177308508Y-122008812D01*
X177238063Y-122059414D01*
X177172578Y-122080250D01*
X177172578Y-121552406D01*
X176970172Y-121552406D01*
X176970172Y-122354094D01*
X176477385Y-122354094D01*
X176477385Y-120978922D01*
X176948344Y-120978922D01*
X176960250Y-121046390D01*
X176994977Y-121102945D01*
X177050539Y-121142633D01*
X177126937Y-121157515D01*
X177201352Y-121142633D01*
X177255922Y-121102945D01*
X177289656Y-121046390D01*
X177301562Y-120978922D01*
X177255922Y-120855890D01*
X177126937Y-120802312D01*
X176993984Y-120855890D01*
X176948344Y-120978922D01*
X176477385Y-120978922D01*
X176477385Y-119762500D01*
X176970172Y-119762500D01*
X177924656Y-119750594D01*
X177404750Y-119901406D01*
X177404750Y-120080000D01*
X177924656Y-120224859D01*
X176970172Y-120214937D01*
X176970172Y-120439172D01*
X177123961Y-120432971D01*
X177283703Y-120426273D01*
X177445926Y-120419080D01*
X177607156Y-120411390D01*
X177765410Y-120402709D01*
X177918703Y-120392539D01*
X178064059Y-120380881D01*
X178198500Y-120367734D01*
X178198500Y-120165328D01*
X178091344Y-120130601D01*
X177950453Y-120085953D01*
X177797656Y-120038328D01*
X177654781Y-119992687D01*
X177806586Y-119943078D01*
X177957398Y-119893469D01*
X178093328Y-119849812D01*
X178198500Y-119814094D01*
X178198500Y-119611687D01*
X178039750Y-119598045D01*
X177884969Y-119584898D01*
X177732916Y-119572992D01*
X177582352Y-119563070D01*
X177432035Y-119554885D01*
X177280727Y-119548187D01*
X177127186Y-119542730D01*
X176970172Y-119538265D01*
X176970172Y-119762500D01*
X176477385Y-119762500D01*
X176477385Y-118780234D01*
X176970172Y-118780234D01*
X177253937Y-118837781D01*
X177253937Y-119165203D01*
X176970172Y-119220765D01*
X176970172Y-119474765D01*
X177112848Y-119439761D01*
X177250366Y-119404598D01*
X177382723Y-119369276D01*
X177509922Y-119333795D01*
X177631961Y-119298156D01*
X177779363Y-119253880D01*
X177922920Y-119210348D01*
X178062632Y-119167559D01*
X178198500Y-119125515D01*
X178198500Y-118859609D01*
X178061516Y-118816015D01*
X177920439Y-118772545D01*
X177775270Y-118729199D01*
X177626008Y-118685976D01*
X177502937Y-118651647D01*
X177375818Y-118617714D01*
X177244651Y-118584178D01*
X177109435Y-118551039D01*
X176970172Y-118518297D01*
X176970172Y-118780234D01*
X176477385Y-118780234D01*
X176477385Y-117805906D01*
X176970172Y-117805906D01*
X177119992Y-117868414D01*
X177199367Y-117911326D01*
X177276758Y-117958703D01*
X177350676Y-118009553D01*
X177419633Y-118062883D01*
X177531750Y-118167062D01*
X176970172Y-118167062D01*
X176970172Y-118411140D01*
X178198500Y-118411140D01*
X178198500Y-118167062D01*
X177688516Y-118167062D01*
X177811547Y-118075781D01*
X177946484Y-117985492D01*
X178079437Y-117907109D01*
X178198500Y-117847578D01*
X178198500Y-117571750D01*
X178076461Y-117638226D01*
X178006512Y-117679650D01*
X177933586Y-117726531D01*
X177858428Y-117777877D01*
X177781781Y-117832695D01*
X177705879Y-117890490D01*
X177632953Y-117950765D01*
X177568957Y-117888754D01*
X177496031Y-117825750D01*
X177415912Y-117763986D01*
X177330336Y-117705695D01*
X177241039Y-117651869D01*
X177149758Y-117603500D01*
X177058725Y-117562324D01*
X176970172Y-117530078D01*
X176970172Y-117805906D01*
X176477385Y-117805906D01*
X176477385Y-117383234D01*
X176970172Y-117383234D01*
X178198500Y-117383234D01*
X178198500Y-116639094D01*
X177996094Y-116639094D01*
X177996094Y-117139156D01*
X177720266Y-117139156D01*
X177720266Y-116704578D01*
X177517859Y-116704578D01*
X177517859Y-117139156D01*
X177172578Y-117139156D01*
X177172578Y-116595437D01*
X176970172Y-116595437D01*
X176970172Y-117383234D01*
X176477385Y-117383234D01*
X176477385Y-115801687D01*
X176970172Y-115801687D01*
X177087002Y-115851049D01*
X177199367Y-115907851D01*
X177310244Y-115970607D01*
X177422609Y-116037828D01*
X177422609Y-116164828D01*
X176970172Y-116164828D01*
X176970172Y-116408906D01*
X178180641Y-116408906D01*
X178195523Y-116330523D01*
X178205445Y-116244203D01*
X178210406Y-116160859D01*
X178212391Y-116091406D01*
X178206438Y-115991195D01*
X178188578Y-115900906D01*
X178158316Y-115821531D01*
X178115156Y-115754062D01*
X177989148Y-115659805D01*
X177906053Y-115635248D01*
X177809563Y-115627062D01*
X177707367Y-115637976D01*
X177615094Y-115670719D01*
X177538199Y-115728762D01*
X177482141Y-115815578D01*
X177368039Y-115744140D01*
X177237070Y-115670719D01*
X177100148Y-115602258D01*
X176970172Y-115545703D01*
X176970172Y-115801687D01*
X176477385Y-115801687D01*
X176477385Y-115063500D01*
X176944375Y-115063500D01*
X176952561Y-115200918D01*
X176977117Y-115307578D01*
X177037641Y-115444500D01*
X177236078Y-115373062D01*
X177176547Y-115245070D01*
X177155711Y-115162471D01*
X177148766Y-115063500D01*
X177161664Y-114961305D01*
X177197383Y-114896812D01*
X177248977Y-114864070D01*
X177307516Y-114855140D01*
X177374984Y-114876969D01*
X177427570Y-114932531D01*
X177469242Y-115007937D01*
X177503969Y-115091281D01*
X177549609Y-115206375D01*
X177615094Y-115314523D01*
X177713320Y-115394890D01*
X177859172Y-115426640D01*
X178012961Y-115398611D01*
X178129047Y-115314523D01*
X178183066Y-115230408D01*
X178215477Y-115127551D01*
X178226281Y-115005953D01*
X178219832Y-114900037D01*
X178200484Y-114808508D01*
X178142938Y-114666625D01*
X177954422Y-114738062D01*
X178002047Y-114848195D01*
X178021891Y-114988094D01*
X178006236Y-115096132D01*
X177959273Y-115160955D01*
X177881000Y-115182562D01*
X177818492Y-115162719D01*
X177770867Y-115112117D01*
X177734156Y-115042664D01*
X177704391Y-114966265D01*
X177655773Y-114846211D01*
X177584336Y-114731117D01*
X177473211Y-114644797D01*
X177398053Y-114619496D01*
X177305531Y-114611062D01*
X177152486Y-114639092D01*
X177038633Y-114723180D01*
X176986267Y-114810823D01*
X176954848Y-114924263D01*
X176944375Y-115063500D01*
X176477385Y-115063500D01*
X176477385Y-114424531D01*
X176970172Y-114424531D01*
X178182625Y-114424531D01*
X178196516Y-114344164D01*
X178205445Y-114253875D01*
X178210406Y-114164578D01*
X178212391Y-114087187D01*
X178201697Y-113942769D01*
X178169616Y-113821722D01*
X178116148Y-113724047D01*
X178038427Y-113652389D01*
X177933586Y-113609394D01*
X177801625Y-113595062D01*
X177668341Y-113609504D01*
X177562177Y-113652830D01*
X177483133Y-113725039D01*
X177428562Y-113823706D01*
X177395820Y-113946407D01*
X177384906Y-114093140D01*
X177384906Y-114180453D01*
X176970172Y-114180453D01*
X176970172Y-114424531D01*
X176477385Y-114424531D01*
X176477385Y-112827109D01*
X176970172Y-112827109D01*
X177253937Y-112884656D01*
X177253937Y-113212078D01*
X176970172Y-113267640D01*
X176970172Y-113521640D01*
X177112848Y-113486636D01*
X177250366Y-113451473D01*
X177382723Y-113416151D01*
X177509922Y-113380670D01*
X177631961Y-113345031D01*
X177779363Y-113300755D01*
X177922920Y-113257223D01*
X178062632Y-113214434D01*
X178198500Y-113172390D01*
X178198500Y-112906484D01*
X178061516Y-112862890D01*
X177920439Y-112819420D01*
X177775270Y-112776074D01*
X177626008Y-112732851D01*
X177502937Y-112698522D01*
X177375818Y-112664589D01*
X177244651Y-112631053D01*
X177109435Y-112597914D01*
X176970172Y-112565172D01*
X176970172Y-112827109D01*
X176477385Y-112827109D01*
X176477385Y-111959937D01*
X176944375Y-111959937D01*
X176962896Y-112119569D01*
X177018458Y-112251861D01*
X177111062Y-112356812D01*
X177203212Y-112416716D01*
X177312973Y-112459504D01*
X177440345Y-112485177D01*
X177585328Y-112493734D01*
X177729691Y-112483316D01*
X177857187Y-112452062D01*
X177967072Y-112402205D01*
X178058602Y-112335976D01*
X178131031Y-112254617D01*
X178183617Y-112159367D01*
X178215615Y-112052459D01*
X178226281Y-111936125D01*
X178215367Y-111818055D01*
X178190563Y-111725781D01*
X178160797Y-111659305D01*
X178136984Y-111618625D01*
X177942516Y-111682125D01*
X177993117Y-111792258D01*
X178013953Y-111940094D01*
X177993117Y-112052211D01*
X177923664Y-112149445D01*
X177793688Y-112218898D01*
X177702406Y-112238990D01*
X177591281Y-112245687D01*
X177461966Y-112237640D01*
X177354479Y-112213496D01*
X177268820Y-112173258D01*
X177184732Y-112077760D01*
X177156703Y-111936125D01*
X177178531Y-111778367D01*
X177222188Y-111678156D01*
X177029703Y-111616640D01*
X176971164Y-111756539D01*
X176951072Y-111851541D01*
X176944375Y-111959937D01*
X176477385Y-111959937D01*
X176477385Y-111430109D01*
X176970172Y-111430109D01*
X178198500Y-111430109D01*
X178198500Y-110685969D01*
X177996094Y-110685969D01*
X177996094Y-111186031D01*
X177720266Y-111186031D01*
X177720266Y-110751453D01*
X177517859Y-110751453D01*
X177517859Y-111186031D01*
X177172578Y-111186031D01*
X177172578Y-110642312D01*
X176970172Y-110642312D01*
X176970172Y-111430109D01*
X176477385Y-111430109D01*
X176477385Y-110064859D01*
X176948344Y-110064859D01*
X176960250Y-110132328D01*
X176994977Y-110188883D01*
X177050539Y-110228570D01*
X177126937Y-110243453D01*
X177201352Y-110228570D01*
X177255922Y-110188883D01*
X177289656Y-110132328D01*
X177301562Y-110064859D01*
X177255922Y-109941828D01*
X177126937Y-109888250D01*
X176993984Y-109941828D01*
X176948344Y-110064859D01*
X176477385Y-110064859D01*
X176477385Y-109429859D01*
X176970172Y-109429859D01*
X178198500Y-109429859D01*
X178198500Y-109183797D01*
X177172578Y-109183797D01*
X177172578Y-108657937D01*
X176970172Y-108657937D01*
X176970172Y-109429859D01*
X176477385Y-109429859D01*
X176477385Y-108205500D01*
X176970172Y-108205500D01*
X177996094Y-108205500D01*
X177996094Y-108528953D01*
X178198500Y-108528953D01*
X178198500Y-107635984D01*
X177996094Y-107635984D01*
X177996094Y-107959437D01*
X176970172Y-107959437D01*
X176970172Y-108205500D01*
X176477385Y-108205500D01*
X176477385Y-107493109D01*
X176642750Y-107493109D01*
X178357250Y-106937484D01*
X178357250Y-106687453D01*
X176642750Y-107239109D01*
X176642750Y-107493109D01*
X176477385Y-107493109D01*
X176477385Y-106209219D01*
X176970172Y-106209219D01*
X177094636Y-106269081D01*
X177232550Y-106329604D01*
X177383914Y-106390789D01*
X177505271Y-106436368D01*
X177632209Y-106480830D01*
X177764728Y-106524176D01*
X177902828Y-106566406D01*
X177902828Y-106310422D01*
X177824941Y-106290826D01*
X177742094Y-106267758D01*
X177656518Y-106242209D01*
X177570445Y-106215172D01*
X177485365Y-106187142D01*
X177402766Y-106158617D01*
X177253937Y-106104047D01*
X177402766Y-106046500D01*
X177485365Y-106014998D01*
X177570445Y-105983992D01*
X177656518Y-105953730D01*
X177742094Y-105924461D01*
X177824941Y-105898416D01*
X177902828Y-105877828D01*
X177902828Y-105629781D01*
X177764728Y-105672569D01*
X177632209Y-105717590D01*
X177505271Y-105764843D01*
X177383914Y-105814328D01*
X177232550Y-105880474D01*
X177094636Y-105943974D01*
X176970172Y-106004828D01*
X176970172Y-106209219D01*
X176477385Y-106209219D01*
X176477385Y-105486906D01*
X176970172Y-105486906D01*
X177019781Y-105491867D01*
X177061453Y-105490875D01*
X177156703Y-105481697D01*
X177244016Y-105454164D01*
X177324135Y-105412492D01*
X177397805Y-105360898D01*
X177465770Y-105302359D01*
X177528773Y-105239851D01*
X177588057Y-105177344D01*
X177644859Y-105118805D01*
X177752016Y-105025539D01*
X177857187Y-104988828D01*
X177973273Y-105034469D01*
X178013953Y-105149562D01*
X177986172Y-105270609D01*
X177892906Y-105395625D01*
X178063563Y-105516672D01*
X178135992Y-105431096D01*
X178186594Y-105333117D01*
X178216359Y-105229185D01*
X178226281Y-105125750D01*
X178204453Y-104980890D01*
X178138969Y-104857859D01*
X178028836Y-104772531D01*
X177875047Y-104740781D01*
X177753008Y-104764594D01*
X177638906Y-104828094D01*
X177531750Y-104917390D01*
X177432531Y-105018594D01*
X177375977Y-105078125D01*
X177308508Y-105141625D01*
X177238063Y-105192226D01*
X177172578Y-105213062D01*
X177172578Y-104685219D01*
X176970172Y-104685219D01*
X176970172Y-105486906D01*
X176477385Y-105486906D01*
X176477385Y-104111734D01*
X176948344Y-104111734D01*
X176960250Y-104179203D01*
X176994977Y-104235758D01*
X177050539Y-104275445D01*
X177126937Y-104290328D01*
X177201352Y-104275445D01*
X177255922Y-104235758D01*
X177289656Y-104179203D01*
X177301562Y-104111734D01*
X177255922Y-103988703D01*
X177126937Y-103935125D01*
X176993984Y-103988703D01*
X176948344Y-104111734D01*
X176477385Y-104111734D01*
X176477385Y-103121531D01*
X176944375Y-103121531D01*
X176962014Y-103249413D01*
X177014931Y-103355246D01*
X177103125Y-103439031D01*
X177192918Y-103486780D01*
X177303547Y-103520887D01*
X177435012Y-103541350D01*
X177587312Y-103548172D01*
X177737877Y-103541226D01*
X177868102Y-103520390D01*
X177977986Y-103485664D01*
X178067531Y-103437047D01*
X178155726Y-103352601D01*
X178208642Y-103247429D01*
X178226281Y-103121531D01*
X178208753Y-102993649D01*
X178156167Y-102887816D01*
X178068523Y-102804031D01*
X177979289Y-102756282D01*
X177869342Y-102722176D01*
X177738683Y-102701712D01*
X177587312Y-102694890D01*
X177435012Y-102701712D01*
X177303547Y-102722176D01*
X177192918Y-102756282D01*
X177103125Y-102804031D01*
X177014931Y-102887816D01*
X176962014Y-102993649D01*
X176944375Y-103121531D01*
X176477385Y-103121531D01*
X176477385Y-102529526D01*
X176482310Y-102429292D01*
G37*
G36*
X177264852Y-102967742D02*
G01*
X177349628Y-102938528D01*
X177457115Y-102920999D01*
X177587312Y-102915156D01*
X177716407Y-102920999D01*
X177823233Y-102938528D01*
X177907789Y-102967742D01*
X177990389Y-103032482D01*
X178017922Y-103121531D01*
X177990389Y-103209340D01*
X177907789Y-103274328D01*
X177823233Y-103304094D01*
X177716407Y-103321953D01*
X177587312Y-103327906D01*
X177457115Y-103321953D01*
X177349628Y-103304094D01*
X177264852Y-103274328D01*
X177182252Y-103209340D01*
X177154719Y-103121531D01*
X177155332Y-103119547D01*
X177476187Y-103119547D01*
X177514883Y-103200906D01*
X177607156Y-103230672D01*
X177700422Y-103200906D01*
X177740109Y-103119547D01*
X177700422Y-103041164D01*
X177607156Y-103010406D01*
X177514883Y-103041164D01*
X177476187Y-103119547D01*
X177155332Y-103119547D01*
X177182252Y-103032482D01*
X177264852Y-102967742D01*
G37*
G36*
X177895139Y-124773791D02*
G01*
X177955414Y-124817695D01*
X177988900Y-124885908D01*
X178000062Y-124973469D01*
X177999070Y-125033992D01*
X177994109Y-125094515D01*
X177597234Y-125094515D01*
X177597234Y-124995297D01*
X177608893Y-124892605D01*
X177643867Y-124818687D01*
X177707119Y-124774039D01*
X177803609Y-124759156D01*
X177895139Y-124773791D01*
G37*
G36*
X166485713Y-118320153D02*
G01*
X166471723Y-118443383D01*
X166429753Y-118532084D01*
X166353851Y-118585663D01*
X166238063Y-118603522D01*
X166128227Y-118585960D01*
X166055897Y-118533275D01*
X166015713Y-118451420D01*
X166002319Y-118346347D01*
X166003509Y-118273719D01*
X166009463Y-118201091D01*
X166485713Y-118201091D01*
X166485713Y-118320153D01*
G37*
G36*
X167448989Y-122640586D02*
G01*
X167393929Y-122822098D01*
X167304514Y-122989380D01*
X167184183Y-123136004D01*
X167037559Y-123256335D01*
X166870277Y-123345749D01*
X166688766Y-123400810D01*
X166500000Y-123419402D01*
X166311234Y-123400810D01*
X166129723Y-123345749D01*
X165962441Y-123256335D01*
X165815817Y-123136004D01*
X165695486Y-122989380D01*
X165606071Y-122822098D01*
X165551011Y-122640586D01*
X165532419Y-122451820D01*
X165532419Y-121922984D01*
X165730856Y-121922984D01*
X165757050Y-122096816D01*
X165835631Y-122244453D01*
X165967791Y-122346847D01*
X166152338Y-122384947D01*
X166298784Y-122356372D01*
X166435706Y-122280172D01*
X166564294Y-122173016D01*
X166683356Y-122051572D01*
X166751222Y-121980134D01*
X166832184Y-121903934D01*
X166916719Y-121843213D01*
X166995300Y-121818209D01*
X166995300Y-122451622D01*
X167238188Y-122451622D01*
X167238188Y-121489597D01*
X167178656Y-121483644D01*
X167128650Y-121484834D01*
X167014350Y-121495848D01*
X166909575Y-121528887D01*
X166813432Y-121578894D01*
X166725028Y-121640806D01*
X166643470Y-121711053D01*
X166567866Y-121786063D01*
X166496726Y-121861072D01*
X166428563Y-121931319D01*
X166299975Y-122043237D01*
X166173769Y-122087291D01*
X166034466Y-122032522D01*
X165985650Y-121894409D01*
X166018988Y-121749153D01*
X166130906Y-121599134D01*
X165926119Y-121453878D01*
X165839203Y-121556570D01*
X165778481Y-121674144D01*
X165742763Y-121798862D01*
X165730856Y-121922984D01*
X165532419Y-121922984D01*
X165532419Y-120694259D01*
X165730856Y-120694259D01*
X165738595Y-120810048D01*
X165761813Y-120909763D01*
X165848728Y-121060972D01*
X165980888Y-121149078D01*
X166145194Y-121177653D01*
X166314263Y-121127647D01*
X166438088Y-120994297D01*
X166497023Y-121095798D01*
X166578581Y-121171700D01*
X166680380Y-121219027D01*
X166800038Y-121234803D01*
X166988156Y-121201466D01*
X167136984Y-121099072D01*
X167192944Y-121020491D01*
X167234616Y-120922859D01*
X167260512Y-120805583D01*
X167269144Y-120668066D01*
X167260809Y-120552575D01*
X167240569Y-120435894D01*
X167214375Y-120332309D01*
X167188181Y-120258491D01*
X166942913Y-120315641D01*
X166992919Y-120457325D01*
X167012564Y-120552873D01*
X167019113Y-120665684D01*
X167003039Y-120793379D01*
X166954819Y-120876425D01*
X166795275Y-120937147D01*
X166696155Y-120913930D01*
X166632159Y-120844278D01*
X166597334Y-120738908D01*
X166585725Y-120608534D01*
X166585725Y-120518047D01*
X166342838Y-120518047D01*
X166342838Y-120627584D01*
X166333313Y-120718072D01*
X166302356Y-120799034D01*
X166245206Y-120857375D01*
X166154719Y-120879997D01*
X166027322Y-120831181D01*
X165980888Y-120696641D01*
X166008272Y-120531144D01*
X166076138Y-120389459D01*
X165861825Y-120284684D01*
X165774909Y-120454944D01*
X165741870Y-120567755D01*
X165730856Y-120694259D01*
X165532419Y-120694259D01*
X165532419Y-119891778D01*
X166483331Y-119891778D01*
X166771463Y-119891778D01*
X166771463Y-119239316D01*
X166483331Y-119239316D01*
X166483331Y-119891778D01*
X165532419Y-119891778D01*
X165532419Y-118313009D01*
X165747525Y-118313009D01*
X165760357Y-118486311D01*
X165798854Y-118631568D01*
X165863016Y-118748778D01*
X165956281Y-118834768D01*
X166082091Y-118886361D01*
X166240444Y-118903559D01*
X166400384Y-118886229D01*
X166527781Y-118834239D01*
X166622634Y-118747588D01*
X166688119Y-118629186D01*
X166727409Y-118481946D01*
X166740506Y-118305866D01*
X166740506Y-118201091D01*
X167238188Y-118201091D01*
X167238188Y-117908197D01*
X165783244Y-117908197D01*
X165766575Y-118004638D01*
X165755859Y-118112984D01*
X165749906Y-118220141D01*
X165747525Y-118313009D01*
X165532419Y-118313009D01*
X165532419Y-117210491D01*
X165730856Y-117210491D01*
X165738595Y-117337590D01*
X165761813Y-117447425D01*
X165830869Y-117617684D01*
X166057088Y-117531959D01*
X165999938Y-117399800D01*
X165976125Y-117231922D01*
X165994910Y-117102276D01*
X166051267Y-117024489D01*
X166145194Y-116998559D01*
X166220203Y-117022372D01*
X166277353Y-117083094D01*
X166321406Y-117166438D01*
X166357125Y-117258116D01*
X166415466Y-117402181D01*
X166501191Y-117540294D01*
X166634541Y-117643878D01*
X166724730Y-117674239D01*
X166835756Y-117684359D01*
X167019410Y-117650724D01*
X167156034Y-117549819D01*
X167218873Y-117444647D01*
X167256576Y-117308519D01*
X167269144Y-117141434D01*
X167259321Y-116976533D01*
X167229853Y-116848541D01*
X167157225Y-116684234D01*
X166919100Y-116769959D01*
X166990538Y-116923550D01*
X167015541Y-117022670D01*
X167023875Y-117141434D01*
X167008397Y-117264069D01*
X166965534Y-117341459D01*
X166903622Y-117380750D01*
X166833375Y-117391466D01*
X166752413Y-117365272D01*
X166689309Y-117298597D01*
X166639303Y-117208109D01*
X166597631Y-117108097D01*
X166542863Y-116969984D01*
X166464281Y-116840206D01*
X166346409Y-116743766D01*
X166171388Y-116705666D01*
X165986841Y-116739301D01*
X165847538Y-116840206D01*
X165782715Y-116941145D01*
X165743821Y-117064573D01*
X165730856Y-117210491D01*
X165532419Y-117210491D01*
X165532419Y-115548378D01*
X165764194Y-115548378D01*
X165764194Y-116441347D01*
X166007081Y-116441347D01*
X166007081Y-115841272D01*
X166338075Y-115841272D01*
X166338075Y-116362766D01*
X166580962Y-116362766D01*
X166580962Y-115841272D01*
X166995300Y-115841272D01*
X166995300Y-116493734D01*
X167238188Y-116493734D01*
X167238188Y-115548378D01*
X165764194Y-115548378D01*
X165532419Y-115548378D01*
X165532419Y-115548180D01*
X165551011Y-115359414D01*
X165606071Y-115177902D01*
X165695486Y-115010620D01*
X165815817Y-114863996D01*
X165962441Y-114743665D01*
X166129723Y-114654251D01*
X166311234Y-114599190D01*
X166500000Y-114580598D01*
X166688766Y-114599190D01*
X166870277Y-114654251D01*
X167037559Y-114743665D01*
X167184183Y-114863996D01*
X167304514Y-115010620D01*
X167393929Y-115177902D01*
X167448989Y-115359414D01*
X167467581Y-115548180D01*
X167467581Y-122451820D01*
X167448989Y-122640586D01*
G37*
%LPC*%
D12*
X164150000Y-109442500D03*
X164150000Y-110712500D03*
X164150000Y-111982500D03*
X164150000Y-113252500D03*
X164150000Y-114522500D03*
X164150000Y-115792500D03*
X164150000Y-117062500D03*
X164150000Y-118332500D03*
X164150000Y-119602500D03*
X164150000Y-120872500D03*
X164150000Y-122142500D03*
X164150000Y-123412500D03*
X164150000Y-124682500D03*
X164150000Y-125952500D03*
X180850000Y-125952500D03*
X180850000Y-124682500D03*
X180850000Y-123412500D03*
X180850000Y-122142500D03*
X180850000Y-120872500D03*
X180850000Y-119602500D03*
X180850000Y-118332500D03*
X180850000Y-117062500D03*
X180850000Y-115792500D03*
X180850000Y-114522500D03*
X180850000Y-113252500D03*
X180850000Y-111982500D03*
X180850000Y-110712500D03*
X180850000Y-109442500D03*
D13*
X164500000Y-105000000D03*
X180500000Y-105000000D03*
G36*
G01*
X170397500Y-106710000D02*
X170397500Y-105510000D01*
G75*
G02*
X170647500Y-105260000I250000J0D01*
G01*
X171847500Y-105260000D01*
G75*
G02*
X172097500Y-105510000I0J-250000D01*
G01*
X172097500Y-106710000D01*
G75*
G02*
X171847500Y-106960000I-250000J0D01*
G01*
X170647500Y-106960000D01*
G75*
G02*
X170397500Y-106710000I0J250000D01*
G01*
G37*
D14*
X173787500Y-106110000D03*
X171247500Y-108650000D03*
X173787500Y-108650000D03*
X171247500Y-111190000D03*
X173787500Y-111190000D03*
X171247500Y-113730000D03*
X173787500Y-113730000D03*
X171247500Y-116270000D03*
X173787500Y-116270000D03*
X171247500Y-118810000D03*
X173787500Y-118810000D03*
X171247500Y-121350000D03*
X173787500Y-121350000D03*
X171247500Y-123890000D03*
X173787500Y-123890000D03*
M02*
