%TF.GenerationSoftware,KiCad,Pcbnew,6.0.10+dfsg-1~bpo11+1*%
%TF.ProjectId,project,70726f6a-6563-4742-9e6b-696361645f70,rev?*%
%TF.SameCoordinates,Original*%
%TF.FileFunction,Drillmap*%
%TF.FilePolarity,Positive*%
%FSLAX45Y45*%
G04 Gerber Fmt 4.5, Leading zero omitted, Abs format (unit mm)*
%MOMM*%
%LPD*%
G01*
G04 APERTURE LIST*
%ADD10C,0.100000*%
%ADD11C,0.200000*%
%ADD12C,0.060000*%
%ADD13C,0.085000*%
G04 APERTURE END LIST*
D10*
X16350000Y-10740000D02*
G75*
G03*
X16250000Y-10840000I0J-100000D01*
G01*
X16350000Y-12810000D02*
X18150000Y-12810000D01*
X18250000Y-12710000D02*
X18250000Y-10840000D01*
X16250000Y-10840000D02*
X16250000Y-12710000D01*
X16250000Y-12710000D02*
G75*
G03*
X16350000Y-12810000I100000J0D01*
G01*
X18250000Y-10840000D02*
G75*
G03*
X18150000Y-10740000I-100000J0D01*
G01*
X18150000Y-12810000D02*
G75*
G03*
X18250000Y-12710000I0J100000D01*
G01*
X18150000Y-10740000D02*
X16350000Y-10740000D01*
D11*
D12*
X16670000Y-11589250D02*
X16730000Y-11649250D01*
X16730000Y-11589250D02*
X16670000Y-11649250D01*
X16820000Y-10889250D02*
X16880000Y-10949250D01*
X16880000Y-10889250D02*
X16820000Y-10949250D01*
D13*
X16407500Y-10944250D02*
G75*
G03*
X16407500Y-10944250I-42500J0D01*
G01*
X16407500Y-11071250D02*
G75*
G03*
X16407500Y-11071250I-42500J0D01*
G01*
X16407500Y-11198250D02*
G75*
G03*
X16407500Y-11198250I-42500J0D01*
G01*
X16407500Y-11325250D02*
G75*
G03*
X16407500Y-11325250I-42500J0D01*
G01*
X16407500Y-11452250D02*
G75*
G03*
X16407500Y-11452250I-42500J0D01*
G01*
X16407500Y-11579250D02*
G75*
G03*
X16407500Y-11579250I-42500J0D01*
G01*
X16407500Y-11706250D02*
G75*
G03*
X16407500Y-11706250I-42500J0D01*
G01*
X16407500Y-11833250D02*
G75*
G03*
X16407500Y-11833250I-42500J0D01*
G01*
X16407500Y-11960250D02*
G75*
G03*
X16407500Y-11960250I-42500J0D01*
G01*
X16407500Y-12087250D02*
G75*
G03*
X16407500Y-12087250I-42500J0D01*
G01*
X16407500Y-12214250D02*
G75*
G03*
X16407500Y-12214250I-42500J0D01*
G01*
X16407500Y-12341250D02*
G75*
G03*
X16407500Y-12341250I-42500J0D01*
G01*
X16407500Y-12468250D02*
G75*
G03*
X16407500Y-12468250I-42500J0D01*
G01*
X16407500Y-12595250D02*
G75*
G03*
X16407500Y-12595250I-42500J0D01*
G01*
X18177500Y-10944250D02*
G75*
G03*
X18177500Y-10944250I-42500J0D01*
G01*
X18177500Y-11071250D02*
G75*
G03*
X18177500Y-11071250I-42500J0D01*
G01*
X18177500Y-11198250D02*
G75*
G03*
X18177500Y-11198250I-42500J0D01*
G01*
X18177500Y-11325250D02*
G75*
G03*
X18177500Y-11325250I-42500J0D01*
G01*
X18177500Y-11452250D02*
G75*
G03*
X18177500Y-11452250I-42500J0D01*
G01*
X18177500Y-11579250D02*
G75*
G03*
X18177500Y-11579250I-42500J0D01*
G01*
X18177500Y-11706250D02*
G75*
G03*
X18177500Y-11706250I-42500J0D01*
G01*
X18177500Y-11833250D02*
G75*
G03*
X18177500Y-11833250I-42500J0D01*
G01*
X18177500Y-11960250D02*
G75*
G03*
X18177500Y-11960250I-42500J0D01*
G01*
X18177500Y-12087250D02*
G75*
G03*
X18177500Y-12087250I-42500J0D01*
G01*
X18177500Y-12214250D02*
G75*
G03*
X18177500Y-12214250I-42500J0D01*
G01*
X18177500Y-12341250D02*
G75*
G03*
X18177500Y-12341250I-42500J0D01*
G01*
X18177500Y-12468250D02*
G75*
G03*
X18177500Y-12468250I-42500J0D01*
G01*
X18177500Y-12595250D02*
G75*
G03*
X18177500Y-12595250I-42500J0D01*
G01*
D10*
X17123000Y-11338250D02*
X17123000Y-11438250D01*
X17073000Y-11388250D02*
X17173000Y-11388250D01*
X17123000Y-11592250D02*
X17123000Y-11692250D01*
X17073000Y-11642250D02*
X17173000Y-11642250D01*
X17123000Y-11846250D02*
X17123000Y-11946250D01*
X17073000Y-11896250D02*
X17173000Y-11896250D01*
X17123000Y-12100250D02*
X17123000Y-12200250D01*
X17073000Y-12150250D02*
X17173000Y-12150250D01*
X17377000Y-11338250D02*
X17377000Y-11438250D01*
X17327000Y-11388250D02*
X17427000Y-11388250D01*
X17377000Y-11592250D02*
X17377000Y-11692250D01*
X17327000Y-11642250D02*
X17427000Y-11642250D01*
X17377000Y-11846250D02*
X17377000Y-11946250D01*
X17327000Y-11896250D02*
X17427000Y-11896250D01*
X17377000Y-12100250D02*
X17377000Y-12200250D01*
X17327000Y-12150250D02*
X17427000Y-12150250D01*
D11*
X16502619Y-13125476D02*
X16502619Y-12925476D01*
X16550238Y-12925476D01*
X16578809Y-12935000D01*
X16597857Y-12954048D01*
X16607381Y-12973095D01*
X16616905Y-13011190D01*
X16616905Y-13039762D01*
X16607381Y-13077857D01*
X16597857Y-13096905D01*
X16578809Y-13115952D01*
X16550238Y-13125476D01*
X16502619Y-13125476D01*
X16702619Y-13125476D02*
X16702619Y-12992143D01*
X16702619Y-13030238D02*
X16712143Y-13011190D01*
X16721667Y-13001667D01*
X16740714Y-12992143D01*
X16759762Y-12992143D01*
X16826429Y-13125476D02*
X16826429Y-12992143D01*
X16826429Y-12925476D02*
X16816905Y-12935000D01*
X16826429Y-12944524D01*
X16835952Y-12935000D01*
X16826429Y-12925476D01*
X16826429Y-12944524D01*
X16950238Y-13125476D02*
X16931190Y-13115952D01*
X16921667Y-13096905D01*
X16921667Y-12925476D01*
X17055000Y-13125476D02*
X17035952Y-13115952D01*
X17026429Y-13096905D01*
X17026429Y-12925476D01*
X17283571Y-13125476D02*
X17283571Y-12925476D01*
X17350238Y-13068333D01*
X17416905Y-12925476D01*
X17416905Y-13125476D01*
X17597857Y-13125476D02*
X17597857Y-13020714D01*
X17588333Y-13001667D01*
X17569286Y-12992143D01*
X17531190Y-12992143D01*
X17512143Y-13001667D01*
X17597857Y-13115952D02*
X17578810Y-13125476D01*
X17531190Y-13125476D01*
X17512143Y-13115952D01*
X17502619Y-13096905D01*
X17502619Y-13077857D01*
X17512143Y-13058809D01*
X17531190Y-13049286D01*
X17578810Y-13049286D01*
X17597857Y-13039762D01*
X17693095Y-12992143D02*
X17693095Y-13192143D01*
X17693095Y-13001667D02*
X17712143Y-12992143D01*
X17750238Y-12992143D01*
X17769286Y-13001667D01*
X17778810Y-13011190D01*
X17788333Y-13030238D01*
X17788333Y-13087381D01*
X17778810Y-13106428D01*
X17769286Y-13115952D01*
X17750238Y-13125476D01*
X17712143Y-13125476D01*
X17693095Y-13115952D01*
X17874048Y-13106428D02*
X17883571Y-13115952D01*
X17874048Y-13125476D01*
X17864524Y-13115952D01*
X17874048Y-13106428D01*
X17874048Y-13125476D01*
X17874048Y-13001667D02*
X17883571Y-13011190D01*
X17874048Y-13020714D01*
X17864524Y-13011190D01*
X17874048Y-13001667D01*
X17874048Y-13020714D01*
D12*
X16185000Y-13425000D02*
X16245000Y-13485000D01*
X16245000Y-13425000D02*
X16185000Y-13485000D01*
D11*
X16540714Y-13345476D02*
X16559762Y-13345476D01*
X16578809Y-13355000D01*
X16588333Y-13364524D01*
X16597857Y-13383571D01*
X16607381Y-13421667D01*
X16607381Y-13469286D01*
X16597857Y-13507381D01*
X16588333Y-13526428D01*
X16578809Y-13535952D01*
X16559762Y-13545476D01*
X16540714Y-13545476D01*
X16521667Y-13535952D01*
X16512143Y-13526428D01*
X16502619Y-13507381D01*
X16493095Y-13469286D01*
X16493095Y-13421667D01*
X16502619Y-13383571D01*
X16512143Y-13364524D01*
X16521667Y-13355000D01*
X16540714Y-13345476D01*
X16693095Y-13526428D02*
X16702619Y-13535952D01*
X16693095Y-13545476D01*
X16683571Y-13535952D01*
X16693095Y-13526428D01*
X16693095Y-13545476D01*
X16874048Y-13345476D02*
X16835952Y-13345476D01*
X16816905Y-13355000D01*
X16807381Y-13364524D01*
X16788333Y-13393095D01*
X16778810Y-13431190D01*
X16778810Y-13507381D01*
X16788333Y-13526428D01*
X16797857Y-13535952D01*
X16816905Y-13545476D01*
X16855000Y-13545476D01*
X16874048Y-13535952D01*
X16883571Y-13526428D01*
X16893095Y-13507381D01*
X16893095Y-13459762D01*
X16883571Y-13440714D01*
X16874048Y-13431190D01*
X16855000Y-13421667D01*
X16816905Y-13421667D01*
X16797857Y-13431190D01*
X16788333Y-13440714D01*
X16778810Y-13459762D01*
X17016905Y-13345476D02*
X17035952Y-13345476D01*
X17055000Y-13355000D01*
X17064524Y-13364524D01*
X17074048Y-13383571D01*
X17083571Y-13421667D01*
X17083571Y-13469286D01*
X17074048Y-13507381D01*
X17064524Y-13526428D01*
X17055000Y-13535952D01*
X17035952Y-13545476D01*
X17016905Y-13545476D01*
X16997857Y-13535952D01*
X16988333Y-13526428D01*
X16978810Y-13507381D01*
X16969286Y-13469286D01*
X16969286Y-13421667D01*
X16978810Y-13383571D01*
X16988333Y-13364524D01*
X16997857Y-13355000D01*
X17016905Y-13345476D01*
X17207381Y-13345476D02*
X17226429Y-13345476D01*
X17245476Y-13355000D01*
X17255000Y-13364524D01*
X17264524Y-13383571D01*
X17274048Y-13421667D01*
X17274048Y-13469286D01*
X17264524Y-13507381D01*
X17255000Y-13526428D01*
X17245476Y-13535952D01*
X17226429Y-13545476D01*
X17207381Y-13545476D01*
X17188333Y-13535952D01*
X17178810Y-13526428D01*
X17169286Y-13507381D01*
X17159762Y-13469286D01*
X17159762Y-13421667D01*
X17169286Y-13383571D01*
X17178810Y-13364524D01*
X17188333Y-13355000D01*
X17207381Y-13345476D01*
X17359762Y-13545476D02*
X17359762Y-13412143D01*
X17359762Y-13431190D02*
X17369286Y-13421667D01*
X17388333Y-13412143D01*
X17416905Y-13412143D01*
X17435952Y-13421667D01*
X17445476Y-13440714D01*
X17445476Y-13545476D01*
X17445476Y-13440714D02*
X17455000Y-13421667D01*
X17474048Y-13412143D01*
X17502619Y-13412143D01*
X17521667Y-13421667D01*
X17531190Y-13440714D01*
X17531190Y-13545476D01*
X17626429Y-13545476D02*
X17626429Y-13412143D01*
X17626429Y-13431190D02*
X17635952Y-13421667D01*
X17655000Y-13412143D01*
X17683571Y-13412143D01*
X17702619Y-13421667D01*
X17712143Y-13440714D01*
X17712143Y-13545476D01*
X17712143Y-13440714D02*
X17721667Y-13421667D01*
X17740714Y-13412143D01*
X17769286Y-13412143D01*
X17788333Y-13421667D01*
X17797857Y-13440714D01*
X17797857Y-13545476D01*
X18188333Y-13335952D02*
X18016905Y-13593095D01*
X18445476Y-13345476D02*
X18464524Y-13345476D01*
X18483571Y-13355000D01*
X18493095Y-13364524D01*
X18502619Y-13383571D01*
X18512143Y-13421667D01*
X18512143Y-13469286D01*
X18502619Y-13507381D01*
X18493095Y-13526428D01*
X18483571Y-13535952D01*
X18464524Y-13545476D01*
X18445476Y-13545476D01*
X18426429Y-13535952D01*
X18416905Y-13526428D01*
X18407381Y-13507381D01*
X18397857Y-13469286D01*
X18397857Y-13421667D01*
X18407381Y-13383571D01*
X18416905Y-13364524D01*
X18426429Y-13355000D01*
X18445476Y-13345476D01*
X18597857Y-13526428D02*
X18607381Y-13535952D01*
X18597857Y-13545476D01*
X18588333Y-13535952D01*
X18597857Y-13526428D01*
X18597857Y-13545476D01*
X18731190Y-13345476D02*
X18750238Y-13345476D01*
X18769286Y-13355000D01*
X18778810Y-13364524D01*
X18788333Y-13383571D01*
X18797857Y-13421667D01*
X18797857Y-13469286D01*
X18788333Y-13507381D01*
X18778810Y-13526428D01*
X18769286Y-13535952D01*
X18750238Y-13545476D01*
X18731190Y-13545476D01*
X18712143Y-13535952D01*
X18702619Y-13526428D01*
X18693095Y-13507381D01*
X18683571Y-13469286D01*
X18683571Y-13421667D01*
X18693095Y-13383571D01*
X18702619Y-13364524D01*
X18712143Y-13355000D01*
X18731190Y-13345476D01*
X18874048Y-13364524D02*
X18883571Y-13355000D01*
X18902619Y-13345476D01*
X18950238Y-13345476D01*
X18969286Y-13355000D01*
X18978810Y-13364524D01*
X18988333Y-13383571D01*
X18988333Y-13402619D01*
X18978810Y-13431190D01*
X18864524Y-13545476D01*
X18988333Y-13545476D01*
X19055000Y-13345476D02*
X19178810Y-13345476D01*
X19112143Y-13421667D01*
X19140714Y-13421667D01*
X19159762Y-13431190D01*
X19169286Y-13440714D01*
X19178810Y-13459762D01*
X19178810Y-13507381D01*
X19169286Y-13526428D01*
X19159762Y-13535952D01*
X19140714Y-13545476D01*
X19083571Y-13545476D01*
X19064524Y-13535952D01*
X19055000Y-13526428D01*
X19350238Y-13345476D02*
X19312143Y-13345476D01*
X19293095Y-13355000D01*
X19283571Y-13364524D01*
X19264524Y-13393095D01*
X19255000Y-13431190D01*
X19255000Y-13507381D01*
X19264524Y-13526428D01*
X19274048Y-13535952D01*
X19293095Y-13545476D01*
X19331190Y-13545476D01*
X19350238Y-13535952D01*
X19359762Y-13526428D01*
X19369286Y-13507381D01*
X19369286Y-13459762D01*
X19359762Y-13440714D01*
X19350238Y-13431190D01*
X19331190Y-13421667D01*
X19293095Y-13421667D01*
X19274048Y-13431190D01*
X19264524Y-13440714D01*
X19255000Y-13459762D01*
X19445476Y-13345476D02*
X19445476Y-13383571D01*
X19521667Y-13345476D02*
X19521667Y-13383571D01*
X19816905Y-13621667D02*
X19807381Y-13612143D01*
X19788333Y-13583571D01*
X19778810Y-13564524D01*
X19769286Y-13535952D01*
X19759762Y-13488333D01*
X19759762Y-13450238D01*
X19769286Y-13402619D01*
X19778810Y-13374048D01*
X19788333Y-13355000D01*
X19807381Y-13326428D01*
X19816905Y-13316905D01*
X19883571Y-13364524D02*
X19893095Y-13355000D01*
X19912143Y-13345476D01*
X19959762Y-13345476D01*
X19978810Y-13355000D01*
X19988333Y-13364524D01*
X19997857Y-13383571D01*
X19997857Y-13402619D01*
X19988333Y-13431190D01*
X19874048Y-13545476D01*
X19997857Y-13545476D01*
X20235952Y-13545476D02*
X20235952Y-13345476D01*
X20321667Y-13545476D02*
X20321667Y-13440714D01*
X20312143Y-13421667D01*
X20293095Y-13412143D01*
X20264524Y-13412143D01*
X20245476Y-13421667D01*
X20235952Y-13431190D01*
X20445476Y-13545476D02*
X20426429Y-13535952D01*
X20416905Y-13526428D01*
X20407381Y-13507381D01*
X20407381Y-13450238D01*
X20416905Y-13431190D01*
X20426429Y-13421667D01*
X20445476Y-13412143D01*
X20474048Y-13412143D01*
X20493095Y-13421667D01*
X20502619Y-13431190D01*
X20512143Y-13450238D01*
X20512143Y-13507381D01*
X20502619Y-13526428D01*
X20493095Y-13535952D01*
X20474048Y-13545476D01*
X20445476Y-13545476D01*
X20626429Y-13545476D02*
X20607381Y-13535952D01*
X20597857Y-13516905D01*
X20597857Y-13345476D01*
X20778810Y-13535952D02*
X20759762Y-13545476D01*
X20721667Y-13545476D01*
X20702619Y-13535952D01*
X20693095Y-13516905D01*
X20693095Y-13440714D01*
X20702619Y-13421667D01*
X20721667Y-13412143D01*
X20759762Y-13412143D01*
X20778810Y-13421667D01*
X20788333Y-13440714D01*
X20788333Y-13459762D01*
X20693095Y-13478809D01*
X20864524Y-13535952D02*
X20883571Y-13545476D01*
X20921667Y-13545476D01*
X20940714Y-13535952D01*
X20950238Y-13516905D01*
X20950238Y-13507381D01*
X20940714Y-13488333D01*
X20921667Y-13478809D01*
X20893095Y-13478809D01*
X20874048Y-13469286D01*
X20864524Y-13450238D01*
X20864524Y-13440714D01*
X20874048Y-13421667D01*
X20893095Y-13412143D01*
X20921667Y-13412143D01*
X20940714Y-13421667D01*
X21016905Y-13621667D02*
X21026429Y-13612143D01*
X21045476Y-13583571D01*
X21055000Y-13564524D01*
X21064524Y-13535952D01*
X21074048Y-13488333D01*
X21074048Y-13450238D01*
X21064524Y-13402619D01*
X21055000Y-13374048D01*
X21045476Y-13355000D01*
X21026429Y-13326428D01*
X21016905Y-13316905D01*
D13*
X16245000Y-13719000D02*
G75*
G03*
X16245000Y-13719000I-42500J0D01*
G01*
D11*
X16540714Y-13609476D02*
X16559762Y-13609476D01*
X16578809Y-13619000D01*
X16588333Y-13628524D01*
X16597857Y-13647571D01*
X16607381Y-13685667D01*
X16607381Y-13733286D01*
X16597857Y-13771381D01*
X16588333Y-13790428D01*
X16578809Y-13799952D01*
X16559762Y-13809476D01*
X16540714Y-13809476D01*
X16521667Y-13799952D01*
X16512143Y-13790428D01*
X16502619Y-13771381D01*
X16493095Y-13733286D01*
X16493095Y-13685667D01*
X16502619Y-13647571D01*
X16512143Y-13628524D01*
X16521667Y-13619000D01*
X16540714Y-13609476D01*
X16693095Y-13790428D02*
X16702619Y-13799952D01*
X16693095Y-13809476D01*
X16683571Y-13799952D01*
X16693095Y-13790428D01*
X16693095Y-13809476D01*
X16816905Y-13695190D02*
X16797857Y-13685667D01*
X16788333Y-13676143D01*
X16778810Y-13657095D01*
X16778810Y-13647571D01*
X16788333Y-13628524D01*
X16797857Y-13619000D01*
X16816905Y-13609476D01*
X16855000Y-13609476D01*
X16874048Y-13619000D01*
X16883571Y-13628524D01*
X16893095Y-13647571D01*
X16893095Y-13657095D01*
X16883571Y-13676143D01*
X16874048Y-13685667D01*
X16855000Y-13695190D01*
X16816905Y-13695190D01*
X16797857Y-13704714D01*
X16788333Y-13714238D01*
X16778810Y-13733286D01*
X16778810Y-13771381D01*
X16788333Y-13790428D01*
X16797857Y-13799952D01*
X16816905Y-13809476D01*
X16855000Y-13809476D01*
X16874048Y-13799952D01*
X16883571Y-13790428D01*
X16893095Y-13771381D01*
X16893095Y-13733286D01*
X16883571Y-13714238D01*
X16874048Y-13704714D01*
X16855000Y-13695190D01*
X17074048Y-13609476D02*
X16978810Y-13609476D01*
X16969286Y-13704714D01*
X16978810Y-13695190D01*
X16997857Y-13685667D01*
X17045476Y-13685667D01*
X17064524Y-13695190D01*
X17074048Y-13704714D01*
X17083571Y-13723762D01*
X17083571Y-13771381D01*
X17074048Y-13790428D01*
X17064524Y-13799952D01*
X17045476Y-13809476D01*
X16997857Y-13809476D01*
X16978810Y-13799952D01*
X16969286Y-13790428D01*
X17207381Y-13609476D02*
X17226429Y-13609476D01*
X17245476Y-13619000D01*
X17255000Y-13628524D01*
X17264524Y-13647571D01*
X17274048Y-13685667D01*
X17274048Y-13733286D01*
X17264524Y-13771381D01*
X17255000Y-13790428D01*
X17245476Y-13799952D01*
X17226429Y-13809476D01*
X17207381Y-13809476D01*
X17188333Y-13799952D01*
X17178810Y-13790428D01*
X17169286Y-13771381D01*
X17159762Y-13733286D01*
X17159762Y-13685667D01*
X17169286Y-13647571D01*
X17178810Y-13628524D01*
X17188333Y-13619000D01*
X17207381Y-13609476D01*
X17359762Y-13809476D02*
X17359762Y-13676143D01*
X17359762Y-13695190D02*
X17369286Y-13685667D01*
X17388333Y-13676143D01*
X17416905Y-13676143D01*
X17435952Y-13685667D01*
X17445476Y-13704714D01*
X17445476Y-13809476D01*
X17445476Y-13704714D02*
X17455000Y-13685667D01*
X17474048Y-13676143D01*
X17502619Y-13676143D01*
X17521667Y-13685667D01*
X17531190Y-13704714D01*
X17531190Y-13809476D01*
X17626429Y-13809476D02*
X17626429Y-13676143D01*
X17626429Y-13695190D02*
X17635952Y-13685667D01*
X17655000Y-13676143D01*
X17683571Y-13676143D01*
X17702619Y-13685667D01*
X17712143Y-13704714D01*
X17712143Y-13809476D01*
X17712143Y-13704714D02*
X17721667Y-13685667D01*
X17740714Y-13676143D01*
X17769286Y-13676143D01*
X17788333Y-13685667D01*
X17797857Y-13704714D01*
X17797857Y-13809476D01*
X18188333Y-13599952D02*
X18016905Y-13857095D01*
X18445476Y-13609476D02*
X18464524Y-13609476D01*
X18483571Y-13619000D01*
X18493095Y-13628524D01*
X18502619Y-13647571D01*
X18512143Y-13685667D01*
X18512143Y-13733286D01*
X18502619Y-13771381D01*
X18493095Y-13790428D01*
X18483571Y-13799952D01*
X18464524Y-13809476D01*
X18445476Y-13809476D01*
X18426429Y-13799952D01*
X18416905Y-13790428D01*
X18407381Y-13771381D01*
X18397857Y-13733286D01*
X18397857Y-13685667D01*
X18407381Y-13647571D01*
X18416905Y-13628524D01*
X18426429Y-13619000D01*
X18445476Y-13609476D01*
X18597857Y-13790428D02*
X18607381Y-13799952D01*
X18597857Y-13809476D01*
X18588333Y-13799952D01*
X18597857Y-13790428D01*
X18597857Y-13809476D01*
X18731190Y-13609476D02*
X18750238Y-13609476D01*
X18769286Y-13619000D01*
X18778810Y-13628524D01*
X18788333Y-13647571D01*
X18797857Y-13685667D01*
X18797857Y-13733286D01*
X18788333Y-13771381D01*
X18778810Y-13790428D01*
X18769286Y-13799952D01*
X18750238Y-13809476D01*
X18731190Y-13809476D01*
X18712143Y-13799952D01*
X18702619Y-13790428D01*
X18693095Y-13771381D01*
X18683571Y-13733286D01*
X18683571Y-13685667D01*
X18693095Y-13647571D01*
X18702619Y-13628524D01*
X18712143Y-13619000D01*
X18731190Y-13609476D01*
X18864524Y-13609476D02*
X18988333Y-13609476D01*
X18921667Y-13685667D01*
X18950238Y-13685667D01*
X18969286Y-13695190D01*
X18978810Y-13704714D01*
X18988333Y-13723762D01*
X18988333Y-13771381D01*
X18978810Y-13790428D01*
X18969286Y-13799952D01*
X18950238Y-13809476D01*
X18893095Y-13809476D01*
X18874048Y-13799952D01*
X18864524Y-13790428D01*
X19055000Y-13609476D02*
X19178810Y-13609476D01*
X19112143Y-13685667D01*
X19140714Y-13685667D01*
X19159762Y-13695190D01*
X19169286Y-13704714D01*
X19178810Y-13723762D01*
X19178810Y-13771381D01*
X19169286Y-13790428D01*
X19159762Y-13799952D01*
X19140714Y-13809476D01*
X19083571Y-13809476D01*
X19064524Y-13799952D01*
X19055000Y-13790428D01*
X19359762Y-13609476D02*
X19264524Y-13609476D01*
X19255000Y-13704714D01*
X19264524Y-13695190D01*
X19283571Y-13685667D01*
X19331190Y-13685667D01*
X19350238Y-13695190D01*
X19359762Y-13704714D01*
X19369286Y-13723762D01*
X19369286Y-13771381D01*
X19359762Y-13790428D01*
X19350238Y-13799952D01*
X19331190Y-13809476D01*
X19283571Y-13809476D01*
X19264524Y-13799952D01*
X19255000Y-13790428D01*
X19445476Y-13609476D02*
X19445476Y-13647571D01*
X19521667Y-13609476D02*
X19521667Y-13647571D01*
X19816905Y-13885667D02*
X19807381Y-13876143D01*
X19788333Y-13847571D01*
X19778810Y-13828524D01*
X19769286Y-13799952D01*
X19759762Y-13752333D01*
X19759762Y-13714238D01*
X19769286Y-13666619D01*
X19778810Y-13638048D01*
X19788333Y-13619000D01*
X19807381Y-13590428D01*
X19816905Y-13580905D01*
X19883571Y-13628524D02*
X19893095Y-13619000D01*
X19912143Y-13609476D01*
X19959762Y-13609476D01*
X19978810Y-13619000D01*
X19988333Y-13628524D01*
X19997857Y-13647571D01*
X19997857Y-13666619D01*
X19988333Y-13695190D01*
X19874048Y-13809476D01*
X19997857Y-13809476D01*
X20112143Y-13695190D02*
X20093095Y-13685667D01*
X20083571Y-13676143D01*
X20074048Y-13657095D01*
X20074048Y-13647571D01*
X20083571Y-13628524D01*
X20093095Y-13619000D01*
X20112143Y-13609476D01*
X20150238Y-13609476D01*
X20169286Y-13619000D01*
X20178810Y-13628524D01*
X20188333Y-13647571D01*
X20188333Y-13657095D01*
X20178810Y-13676143D01*
X20169286Y-13685667D01*
X20150238Y-13695190D01*
X20112143Y-13695190D01*
X20093095Y-13704714D01*
X20083571Y-13714238D01*
X20074048Y-13733286D01*
X20074048Y-13771381D01*
X20083571Y-13790428D01*
X20093095Y-13799952D01*
X20112143Y-13809476D01*
X20150238Y-13809476D01*
X20169286Y-13799952D01*
X20178810Y-13790428D01*
X20188333Y-13771381D01*
X20188333Y-13733286D01*
X20178810Y-13714238D01*
X20169286Y-13704714D01*
X20150238Y-13695190D01*
X20426429Y-13809476D02*
X20426429Y-13609476D01*
X20512143Y-13809476D02*
X20512143Y-13704714D01*
X20502619Y-13685667D01*
X20483571Y-13676143D01*
X20455000Y-13676143D01*
X20435952Y-13685667D01*
X20426429Y-13695190D01*
X20635952Y-13809476D02*
X20616905Y-13799952D01*
X20607381Y-13790428D01*
X20597857Y-13771381D01*
X20597857Y-13714238D01*
X20607381Y-13695190D01*
X20616905Y-13685667D01*
X20635952Y-13676143D01*
X20664524Y-13676143D01*
X20683571Y-13685667D01*
X20693095Y-13695190D01*
X20702619Y-13714238D01*
X20702619Y-13771381D01*
X20693095Y-13790428D01*
X20683571Y-13799952D01*
X20664524Y-13809476D01*
X20635952Y-13809476D01*
X20816905Y-13809476D02*
X20797857Y-13799952D01*
X20788333Y-13780905D01*
X20788333Y-13609476D01*
X20969286Y-13799952D02*
X20950238Y-13809476D01*
X20912143Y-13809476D01*
X20893095Y-13799952D01*
X20883571Y-13780905D01*
X20883571Y-13704714D01*
X20893095Y-13685667D01*
X20912143Y-13676143D01*
X20950238Y-13676143D01*
X20969286Y-13685667D01*
X20978810Y-13704714D01*
X20978810Y-13723762D01*
X20883571Y-13742809D01*
X21055000Y-13799952D02*
X21074048Y-13809476D01*
X21112143Y-13809476D01*
X21131190Y-13799952D01*
X21140714Y-13780905D01*
X21140714Y-13771381D01*
X21131190Y-13752333D01*
X21112143Y-13742809D01*
X21083571Y-13742809D01*
X21064524Y-13733286D01*
X21055000Y-13714238D01*
X21055000Y-13704714D01*
X21064524Y-13685667D01*
X21083571Y-13676143D01*
X21112143Y-13676143D01*
X21131190Y-13685667D01*
X21207381Y-13885667D02*
X21216905Y-13876143D01*
X21235952Y-13847571D01*
X21245476Y-13828524D01*
X21255000Y-13799952D01*
X21264524Y-13752333D01*
X21264524Y-13714238D01*
X21255000Y-13666619D01*
X21245476Y-13638048D01*
X21235952Y-13619000D01*
X21216905Y-13590428D01*
X21207381Y-13580905D01*
D10*
X16195000Y-13933000D02*
X16195000Y-14033000D01*
X16145000Y-13983000D02*
X16245000Y-13983000D01*
D11*
X16607381Y-14073476D02*
X16493095Y-14073476D01*
X16550238Y-14073476D02*
X16550238Y-13873476D01*
X16531190Y-13902048D01*
X16512143Y-13921095D01*
X16493095Y-13930619D01*
X16693095Y-14054428D02*
X16702619Y-14063952D01*
X16693095Y-14073476D01*
X16683571Y-14063952D01*
X16693095Y-14054428D01*
X16693095Y-14073476D01*
X16826429Y-13873476D02*
X16845476Y-13873476D01*
X16864524Y-13883000D01*
X16874048Y-13892524D01*
X16883571Y-13911571D01*
X16893095Y-13949667D01*
X16893095Y-13997286D01*
X16883571Y-14035381D01*
X16874048Y-14054428D01*
X16864524Y-14063952D01*
X16845476Y-14073476D01*
X16826429Y-14073476D01*
X16807381Y-14063952D01*
X16797857Y-14054428D01*
X16788333Y-14035381D01*
X16778810Y-13997286D01*
X16778810Y-13949667D01*
X16788333Y-13911571D01*
X16797857Y-13892524D01*
X16807381Y-13883000D01*
X16826429Y-13873476D01*
X17016905Y-13873476D02*
X17035952Y-13873476D01*
X17055000Y-13883000D01*
X17064524Y-13892524D01*
X17074048Y-13911571D01*
X17083571Y-13949667D01*
X17083571Y-13997286D01*
X17074048Y-14035381D01*
X17064524Y-14054428D01*
X17055000Y-14063952D01*
X17035952Y-14073476D01*
X17016905Y-14073476D01*
X16997857Y-14063952D01*
X16988333Y-14054428D01*
X16978810Y-14035381D01*
X16969286Y-13997286D01*
X16969286Y-13949667D01*
X16978810Y-13911571D01*
X16988333Y-13892524D01*
X16997857Y-13883000D01*
X17016905Y-13873476D01*
X17207381Y-13873476D02*
X17226429Y-13873476D01*
X17245476Y-13883000D01*
X17255000Y-13892524D01*
X17264524Y-13911571D01*
X17274048Y-13949667D01*
X17274048Y-13997286D01*
X17264524Y-14035381D01*
X17255000Y-14054428D01*
X17245476Y-14063952D01*
X17226429Y-14073476D01*
X17207381Y-14073476D01*
X17188333Y-14063952D01*
X17178810Y-14054428D01*
X17169286Y-14035381D01*
X17159762Y-13997286D01*
X17159762Y-13949667D01*
X17169286Y-13911571D01*
X17178810Y-13892524D01*
X17188333Y-13883000D01*
X17207381Y-13873476D01*
X17359762Y-14073476D02*
X17359762Y-13940143D01*
X17359762Y-13959190D02*
X17369286Y-13949667D01*
X17388333Y-13940143D01*
X17416905Y-13940143D01*
X17435952Y-13949667D01*
X17445476Y-13968714D01*
X17445476Y-14073476D01*
X17445476Y-13968714D02*
X17455000Y-13949667D01*
X17474048Y-13940143D01*
X17502619Y-13940143D01*
X17521667Y-13949667D01*
X17531190Y-13968714D01*
X17531190Y-14073476D01*
X17626429Y-14073476D02*
X17626429Y-13940143D01*
X17626429Y-13959190D02*
X17635952Y-13949667D01*
X17655000Y-13940143D01*
X17683571Y-13940143D01*
X17702619Y-13949667D01*
X17712143Y-13968714D01*
X17712143Y-14073476D01*
X17712143Y-13968714D02*
X17721667Y-13949667D01*
X17740714Y-13940143D01*
X17769286Y-13940143D01*
X17788333Y-13949667D01*
X17797857Y-13968714D01*
X17797857Y-14073476D01*
X18188333Y-13863952D02*
X18016905Y-14121095D01*
X18445476Y-13873476D02*
X18464524Y-13873476D01*
X18483571Y-13883000D01*
X18493095Y-13892524D01*
X18502619Y-13911571D01*
X18512143Y-13949667D01*
X18512143Y-13997286D01*
X18502619Y-14035381D01*
X18493095Y-14054428D01*
X18483571Y-14063952D01*
X18464524Y-14073476D01*
X18445476Y-14073476D01*
X18426429Y-14063952D01*
X18416905Y-14054428D01*
X18407381Y-14035381D01*
X18397857Y-13997286D01*
X18397857Y-13949667D01*
X18407381Y-13911571D01*
X18416905Y-13892524D01*
X18426429Y-13883000D01*
X18445476Y-13873476D01*
X18597857Y-14054428D02*
X18607381Y-14063952D01*
X18597857Y-14073476D01*
X18588333Y-14063952D01*
X18597857Y-14054428D01*
X18597857Y-14073476D01*
X18731190Y-13873476D02*
X18750238Y-13873476D01*
X18769286Y-13883000D01*
X18778810Y-13892524D01*
X18788333Y-13911571D01*
X18797857Y-13949667D01*
X18797857Y-13997286D01*
X18788333Y-14035381D01*
X18778810Y-14054428D01*
X18769286Y-14063952D01*
X18750238Y-14073476D01*
X18731190Y-14073476D01*
X18712143Y-14063952D01*
X18702619Y-14054428D01*
X18693095Y-14035381D01*
X18683571Y-13997286D01*
X18683571Y-13949667D01*
X18693095Y-13911571D01*
X18702619Y-13892524D01*
X18712143Y-13883000D01*
X18731190Y-13873476D01*
X18864524Y-13873476D02*
X18988333Y-13873476D01*
X18921667Y-13949667D01*
X18950238Y-13949667D01*
X18969286Y-13959190D01*
X18978810Y-13968714D01*
X18988333Y-13987762D01*
X18988333Y-14035381D01*
X18978810Y-14054428D01*
X18969286Y-14063952D01*
X18950238Y-14073476D01*
X18893095Y-14073476D01*
X18874048Y-14063952D01*
X18864524Y-14054428D01*
X19083571Y-14073476D02*
X19121667Y-14073476D01*
X19140714Y-14063952D01*
X19150238Y-14054428D01*
X19169286Y-14025857D01*
X19178810Y-13987762D01*
X19178810Y-13911571D01*
X19169286Y-13892524D01*
X19159762Y-13883000D01*
X19140714Y-13873476D01*
X19102619Y-13873476D01*
X19083571Y-13883000D01*
X19074048Y-13892524D01*
X19064524Y-13911571D01*
X19064524Y-13959190D01*
X19074048Y-13978238D01*
X19083571Y-13987762D01*
X19102619Y-13997286D01*
X19140714Y-13997286D01*
X19159762Y-13987762D01*
X19169286Y-13978238D01*
X19178810Y-13959190D01*
X19350238Y-13940143D02*
X19350238Y-14073476D01*
X19302619Y-13863952D02*
X19255000Y-14006809D01*
X19378810Y-14006809D01*
X19445476Y-13873476D02*
X19445476Y-13911571D01*
X19521667Y-13873476D02*
X19521667Y-13911571D01*
X19816905Y-14149667D02*
X19807381Y-14140143D01*
X19788333Y-14111571D01*
X19778810Y-14092524D01*
X19769286Y-14063952D01*
X19759762Y-14016333D01*
X19759762Y-13978238D01*
X19769286Y-13930619D01*
X19778810Y-13902048D01*
X19788333Y-13883000D01*
X19807381Y-13854428D01*
X19816905Y-13844905D01*
X19921667Y-13959190D02*
X19902619Y-13949667D01*
X19893095Y-13940143D01*
X19883571Y-13921095D01*
X19883571Y-13911571D01*
X19893095Y-13892524D01*
X19902619Y-13883000D01*
X19921667Y-13873476D01*
X19959762Y-13873476D01*
X19978810Y-13883000D01*
X19988333Y-13892524D01*
X19997857Y-13911571D01*
X19997857Y-13921095D01*
X19988333Y-13940143D01*
X19978810Y-13949667D01*
X19959762Y-13959190D01*
X19921667Y-13959190D01*
X19902619Y-13968714D01*
X19893095Y-13978238D01*
X19883571Y-13997286D01*
X19883571Y-14035381D01*
X19893095Y-14054428D01*
X19902619Y-14063952D01*
X19921667Y-14073476D01*
X19959762Y-14073476D01*
X19978810Y-14063952D01*
X19988333Y-14054428D01*
X19997857Y-14035381D01*
X19997857Y-13997286D01*
X19988333Y-13978238D01*
X19978810Y-13968714D01*
X19959762Y-13959190D01*
X20235952Y-14073476D02*
X20235952Y-13873476D01*
X20321667Y-14073476D02*
X20321667Y-13968714D01*
X20312143Y-13949667D01*
X20293095Y-13940143D01*
X20264524Y-13940143D01*
X20245476Y-13949667D01*
X20235952Y-13959190D01*
X20445476Y-14073476D02*
X20426429Y-14063952D01*
X20416905Y-14054428D01*
X20407381Y-14035381D01*
X20407381Y-13978238D01*
X20416905Y-13959190D01*
X20426429Y-13949667D01*
X20445476Y-13940143D01*
X20474048Y-13940143D01*
X20493095Y-13949667D01*
X20502619Y-13959190D01*
X20512143Y-13978238D01*
X20512143Y-14035381D01*
X20502619Y-14054428D01*
X20493095Y-14063952D01*
X20474048Y-14073476D01*
X20445476Y-14073476D01*
X20626429Y-14073476D02*
X20607381Y-14063952D01*
X20597857Y-14044905D01*
X20597857Y-13873476D01*
X20778810Y-14063952D02*
X20759762Y-14073476D01*
X20721667Y-14073476D01*
X20702619Y-14063952D01*
X20693095Y-14044905D01*
X20693095Y-13968714D01*
X20702619Y-13949667D01*
X20721667Y-13940143D01*
X20759762Y-13940143D01*
X20778810Y-13949667D01*
X20788333Y-13968714D01*
X20788333Y-13987762D01*
X20693095Y-14006809D01*
X20864524Y-14063952D02*
X20883571Y-14073476D01*
X20921667Y-14073476D01*
X20940714Y-14063952D01*
X20950238Y-14044905D01*
X20950238Y-14035381D01*
X20940714Y-14016333D01*
X20921667Y-14006809D01*
X20893095Y-14006809D01*
X20874048Y-13997286D01*
X20864524Y-13978238D01*
X20864524Y-13968714D01*
X20874048Y-13949667D01*
X20893095Y-13940143D01*
X20921667Y-13940143D01*
X20940714Y-13949667D01*
X21016905Y-14149667D02*
X21026429Y-14140143D01*
X21045476Y-14111571D01*
X21055000Y-14092524D01*
X21064524Y-14063952D01*
X21074048Y-14016333D01*
X21074048Y-13978238D01*
X21064524Y-13930619D01*
X21055000Y-13902048D01*
X21045476Y-13883000D01*
X21026429Y-13854428D01*
X21016905Y-13844905D01*
M02*
