M48
; FORMAT={-:-/ absolute / metric / decimal}
; #@! TF.GenerationSoftware,Kicad,Pcbnew,6.0.10+dfsg-1~bpo11+1
; #@! TF.FileFunction,Plated,1,2,PTH
FMAT,2
METRIC
; #@! TA.AperFunction,Plated,PTH,ViaDrill
T1C0.600
; #@! TA.AperFunction,Plated,PTH,ComponentDrill
T2C0.850
; #@! TA.AperFunction,Plated,PTH,ComponentDrill
T3C1.000
%
G90
G05
T1
X167.0Y-116.192
X168.5Y-109.192
T2
X163.65Y-109.442
X163.65Y-110.712
X163.65Y-111.983
X163.65Y-113.252
X163.65Y-114.522
X163.65Y-115.792
X163.65Y-117.062
X163.65Y-118.332
X163.65Y-119.602
X163.65Y-120.872
X163.65Y-122.142
X163.65Y-123.412
X163.65Y-124.682
X163.65Y-125.953
X181.35Y-109.442
X181.35Y-110.712
X181.35Y-111.983
X181.35Y-113.252
X181.35Y-114.522
X181.35Y-115.792
X181.35Y-117.062
X181.35Y-118.332
X181.35Y-119.602
X181.35Y-120.872
X181.35Y-122.142
X181.35Y-123.412
X181.35Y-124.682
X181.35Y-125.953
T3
X171.23Y-113.882
X171.23Y-116.422
X171.23Y-118.962
X171.23Y-121.502
X173.77Y-113.882
X173.77Y-116.422
X173.77Y-118.962
X173.77Y-121.502
T0
M30
